solid CATIA STL
  facet normal  0.000000e+000  1.084475e-001 -9.941022e-001
    outer loop
      vertex -2.350000e+001  8.250000e+001 -2.000000e+000
      vertex -2.250000e+001  8.250000e+001 -2.000000e+000
      vertex -2.550000e+001  8.050000e+001 -2.218182e+000
    endloop
  endfacet
  facet normal  0.000000e+000  1.084474e-001 -9.941022e-001
    outer loop
      vertex  2.550000e+001 -8.050000e+001 -1.978182e+001
      vertex  2.350000e+001 -8.250000e+001 -2.000000e+001
      vertex -2.350000e+001 -8.250000e+001 -2.000000e+001
    endloop
  endfacet
  facet normal  0.000000e+000  1.084474e-001 -9.941022e-001
    outer loop
      vertex  2.550000e+001 -8.050000e+001 -1.978182e+001
      vertex -2.350000e+001 -8.250000e+001 -2.000000e+001
      vertex -2.550000e+001 -8.050000e+001 -1.978182e+001
    endloop
  endfacet
  facet normal  0.000000e+000  1.084474e-001 -9.941022e-001
    outer loop
      vertex  2.550000e+001 -8.050000e+001 -1.978182e+001
      vertex -2.550000e+001 -8.050000e+001 -1.978182e+001
      vertex -2.250000e+001 -7.950000e+001 -1.967273e+001
    endloop
  endfacet
  facet normal  0.000000e+000  1.084474e-001 -9.941022e-001
    outer loop
      vertex  2.550000e+001 -8.050000e+001 -1.978182e+001
      vertex -2.250000e+001 -7.950000e+001 -1.967273e+001
      vertex -1.500000e+000 -7.950000e+001 -1.967273e+001
    endloop
  endfacet
  facet normal  0.000000e+000  1.084474e-001 -9.941022e-001
    outer loop
      vertex  2.550000e+001 -8.050000e+001 -1.978182e+001
      vertex -1.500000e+000 -7.950000e+001 -1.967273e+001
      vertex  1.500000e+000 -7.950000e+001 -1.967273e+001
    endloop
  endfacet
  facet normal  0.000000e+000  1.084474e-001 -9.941022e-001
    outer loop
      vertex  2.550000e+001 -8.050000e+001 -1.978182e+001
      vertex  1.500000e+000 -7.950000e+001 -1.967273e+001
      vertex  2.250000e+001 -7.950000e+001 -1.967273e+001
    endloop
  endfacet
  facet normal  3.775402e-008  1.084475e-001 -9.941022e-001
    outer loop
      vertex  2.550000e+001 -8.050000e+001 -1.978182e+001
      vertex  2.250000e+001 -7.950000e+001 -1.967273e+001
      vertex  2.250000e+001  6.416666e+001 -4.000000e+000
    endloop
  endfacet
  facet normal -1.359413e-007  1.084475e-001 -9.941022e-001
    outer loop
      vertex  2.550000e+001 -8.050000e+001 -1.978182e+001
      vertex  2.250000e+001  6.416666e+001 -4.000000e+000
      vertex  2.550000e+001  8.050000e+001 -2.218182e+000
    endloop
  endfacet
  facet normal  0.000000e+000  1.084475e-001 -9.941022e-001
    outer loop
      vertex  1.500000e+000  6.416666e+001 -4.000000e+000
      vertex  1.500000e+000 -7.950000e+001 -1.967273e+001
      vertex -1.500000e+000 -7.950000e+001 -1.967273e+001
    endloop
  endfacet
  facet normal  0.000000e+000  1.084475e-001 -9.941022e-001
    outer loop
      vertex  1.500000e+000  6.416666e+001 -4.000000e+000
      vertex -1.500000e+000 -7.950000e+001 -1.967273e+001
      vertex -1.500000e+000  6.416666e+001 -4.000000e+000
    endloop
  endfacet
  facet normal  0.000000e+000  1.084475e-001 -9.941022e-001
    outer loop
      vertex  1.500000e+000  6.416666e+001 -4.000000e+000
      vertex -1.500000e+000  6.416666e+001 -4.000000e+000
      vertex -3.500000e+000  8.250000e+001 -2.000000e+000
    endloop
  endfacet
  facet normal  0.000000e+000  1.084475e-001 -9.941021e-001
    outer loop
      vertex  1.500000e+000  6.416666e+001 -4.000000e+000
      vertex -3.500000e+000  8.250000e+001 -2.000000e+000
      vertex -1.500000e+000  8.250000e+001 -2.000000e+000
    endloop
  endfacet
  facet normal  0.000000e+000  1.084475e-001 -9.941022e-001
    outer loop
      vertex  1.500000e+000  6.416666e+001 -4.000000e+000
      vertex -1.500000e+000  8.250000e+001 -2.000000e+000
      vertex  1.500000e+000  8.250000e+001 -2.000000e+000
    endloop
  endfacet
  facet normal  0.000000e+000  1.084475e-001 -9.941021e-001
    outer loop
      vertex  1.500000e+000  6.416666e+001 -4.000000e+000
      vertex  1.500000e+000  8.250000e+001 -2.000000e+000
      vertex  3.500000e+000  8.250000e+001 -2.000000e+000
    endloop
  endfacet
  facet normal -3.775402e-008  1.084475e-001 -9.941022e-001
    outer loop
      vertex -2.250000e+001 -7.950000e+001 -1.967273e+001
      vertex -2.550000e+001 -8.050000e+001 -1.978182e+001
      vertex -2.250000e+001  6.416666e+001 -4.000000e+000
    endloop
  endfacet
  facet normal  1.359413e-007  1.084475e-001 -9.941022e-001
    outer loop
      vertex -2.250000e+001  6.416666e+001 -4.000000e+000
      vertex -2.550000e+001 -8.050000e+001 -1.978182e+001
      vertex -2.550000e+001  8.050000e+001 -2.218182e+000
    endloop
  endfacet
  facet normal  1.260024e-008  1.084475e-001 -9.941022e-001
    outer loop
      vertex -2.250000e+001  6.416666e+001 -4.000000e+000
      vertex -2.550000e+001  8.050000e+001 -2.218182e+000
      vertex -2.050000e+001  8.250000e+001 -2.000000e+000
    endloop
  endfacet
  facet normal  0.000000e+000  1.084475e-001 -9.941022e-001
    outer loop
      vertex -2.050000e+001  8.250000e+001 -2.000000e+000
      vertex -2.550000e+001  8.050000e+001 -2.218182e+000
      vertex -2.250000e+001  8.250000e+001 -2.000000e+000
    endloop
  endfacet
  facet normal -1.260024e-008  1.084475e-001 -9.941022e-001
    outer loop
      vertex  2.250000e+001  6.416666e+001 -4.000000e+000
      vertex  2.050000e+001  8.250000e+001 -2.000000e+000
      vertex  2.550000e+001  8.050000e+001 -2.218182e+000
    endloop
  endfacet
  facet normal  0.000000e+000  1.084475e-001 -9.941022e-001
    outer loop
      vertex  2.550000e+001  8.050000e+001 -2.218182e+000
      vertex  2.050000e+001  8.250000e+001 -2.000000e+000
      vertex  2.250000e+001  8.250000e+001 -2.000000e+000
    endloop
  endfacet
  facet normal  0.000000e+000  1.084475e-001 -9.941022e-001
    outer loop
      vertex  2.550000e+001  8.050000e+001 -2.218182e+000
      vertex  2.250000e+001  8.250000e+001 -2.000000e+000
      vertex  2.350000e+001  8.250000e+001 -2.000000e+000
    endloop
  endfacet
  facet normal  0.000000e+000  0.000000e+000  9.999999e-001
    outer loop
      vertex -2.350000e+001 -8.250000e+001  0.000000e+000
      vertex  2.350000e+001 -8.250000e+001  0.000000e+000
      vertex -2.550000e+001 -8.050000e+001  0.000000e+000
    endloop
  endfacet
  facet normal  -0.000000e+000  0.000000e+000  1.000000e+000
    outer loop
      vertex -2.550000e+001 -8.050000e+001  0.000000e+000
      vertex  2.350000e+001 -8.250000e+001  0.000000e+000
      vertex  2.550000e+001 -8.050000e+001  0.000000e+000
    endloop
  endfacet
  facet normal  0.000000e+000  0.000000e+000  1.000000e+000
    outer loop
      vertex -2.550000e+001 -8.050000e+001  0.000000e+000
      vertex  2.550000e+001 -8.050000e+001  0.000000e+000
      vertex -2.550000e+001  8.050000e+001  0.000000e+000
    endloop
  endfacet
  facet normal  -0.000000e+000  0.000000e+000  1.000000e+000
    outer loop
      vertex -2.550000e+001  8.050000e+001  0.000000e+000
      vertex  2.550000e+001 -8.050000e+001  0.000000e+000
      vertex  2.550000e+001  8.050000e+001  0.000000e+000
    endloop
  endfacet
  facet normal  0.000000e+000  0.000000e+000  1.000000e+000
    outer loop
      vertex -2.550000e+001  8.050000e+001  0.000000e+000
      vertex  2.550000e+001  8.050000e+001  0.000000e+000
      vertex -2.350000e+001  8.250000e+001  0.000000e+000
    endloop
  endfacet
  facet normal  -0.000000e+000  0.000000e+000  9.999999e-001
    outer loop
      vertex -2.350000e+001  8.250000e+001  0.000000e+000
      vertex  2.550000e+001  8.050000e+001  0.000000e+000
      vertex  2.350000e+001  8.250000e+001  0.000000e+000
    endloop
  endfacet
  facet normal  0.000000e+000  1.000000e+000  -0.000000e+000
    outer loop
      vertex  2.350000e+001  8.250000e+001  0.000000e+000
      vertex  2.350000e+001  8.250000e+001 -2.000000e+000
      vertex  2.250000e+001  8.250000e+001 -2.000000e+000
    endloop
  endfacet
  facet normal  0.000000e+000  1.000000e+000  -0.000000e+000
    outer loop
      vertex  2.350000e+001  8.250000e+001  0.000000e+000
      vertex  2.250000e+001  8.250000e+001 -2.000000e+000
      vertex  2.050000e+001  8.250000e+001 -2.000000e+000
    endloop
  endfacet
  facet normal  0.000000e+000  1.000000e+000  -0.000000e+000
    outer loop
      vertex  2.350000e+001  8.250000e+001  0.000000e+000
      vertex  2.050000e+001  8.250000e+001 -2.000000e+000
      vertex  3.500000e+000  8.250000e+001 -2.000000e+000
    endloop
  endfacet
  facet normal  0.000000e+000  1.000000e+000  -0.000000e+000
    outer loop
      vertex  2.350000e+001  8.250000e+001  0.000000e+000
      vertex  3.500000e+000  8.250000e+001 -2.000000e+000
      vertex  1.500000e+000  8.250000e+001 -2.000000e+000
    endloop
  endfacet
  facet normal  0.000000e+000  1.000000e+000  -0.000000e+000
    outer loop
      vertex  2.350000e+001  8.250000e+001  0.000000e+000
      vertex  1.500000e+000  8.250000e+001 -2.000000e+000
      vertex -1.500000e+000  8.250000e+001 -2.000000e+000
    endloop
  endfacet
  facet normal  0.000000e+000  1.000000e+000  -0.000000e+000
    outer loop
      vertex  2.350000e+001  8.250000e+001  0.000000e+000
      vertex -1.500000e+000  8.250000e+001 -2.000000e+000
      vertex -3.500000e+000  8.250000e+001 -2.000000e+000
    endloop
  endfacet
  facet normal  0.000000e+000  1.000000e+000  -0.000000e+000
    outer loop
      vertex  2.350000e+001  8.250000e+001  0.000000e+000
      vertex -3.500000e+000  8.250000e+001 -2.000000e+000
      vertex -2.050000e+001  8.250000e+001 -2.000000e+000
    endloop
  endfacet
  facet normal  0.000000e+000  1.000000e+000  -0.000000e+000
    outer loop
      vertex  2.350000e+001  8.250000e+001  0.000000e+000
      vertex -2.050000e+001  8.250000e+001 -2.000000e+000
      vertex -2.250000e+001  8.250000e+001 -2.000000e+000
    endloop
  endfacet
  facet normal  0.000000e+000  1.000000e+000  -0.000000e+000
    outer loop
      vertex  2.350000e+001  8.250000e+001  0.000000e+000
      vertex -2.250000e+001  8.250000e+001 -2.000000e+000
      vertex -2.350000e+001  8.250000e+001 -2.000000e+000
    endloop
  endfacet
  facet normal  0.000000e+000  9.999999e-001  0.000000e+000
    outer loop
      vertex  2.350000e+001  8.250000e+001  0.000000e+000
      vertex -2.350000e+001  8.250000e+001 -2.000000e+000
      vertex -2.350000e+001  8.250000e+001  0.000000e+000
    endloop
  endfacet
  facet normal -1.000000e+000  0.000000e+000  0.000000e+000
    outer loop
      vertex -2.550000e+001  8.050000e+001  0.000000e+000
      vertex -2.550000e+001  8.050000e+001 -2.218182e+000
      vertex -2.550000e+001 -8.050000e+001  0.000000e+000
    endloop
  endfacet
  facet normal -1.000000e+000  0.000000e+000  0.000000e+000
    outer loop
      vertex -2.550000e+001 -8.050000e+001  0.000000e+000
      vertex -2.550000e+001  8.050000e+001 -2.218182e+000
      vertex -2.550000e+001 -8.050000e+001 -1.978182e+001
    endloop
  endfacet
  facet normal -7.071068e-001  7.071068e-001  0.000000e+000
    outer loop
      vertex -2.550000e+001  8.050000e+001  0.000000e+000
      vertex -2.350000e+001  8.250000e+001  0.000000e+000
      vertex -2.550000e+001  8.050000e+001 -2.218182e+000
    endloop
  endfacet
  facet normal -7.071068e-001  7.071068e-001  0.000000e+000
    outer loop
      vertex -2.550000e+001  8.050000e+001 -2.218182e+000
      vertex -2.350000e+001  8.250000e+001  0.000000e+000
      vertex -2.350000e+001  8.250000e+001 -2.000000e+000
    endloop
  endfacet
  facet normal  1.000000e+000  0.000000e+000  0.000000e+000
    outer loop
      vertex  2.550000e+001 -8.050000e+001  0.000000e+000
      vertex  2.550000e+001 -8.050000e+001 -1.978182e+001
      vertex  2.550000e+001  8.050000e+001  0.000000e+000
    endloop
  endfacet
  facet normal  1.000000e+000  0.000000e+000  0.000000e+000
    outer loop
      vertex  2.550000e+001  8.050000e+001  0.000000e+000
      vertex  2.550000e+001 -8.050000e+001 -1.978182e+001
      vertex  2.550000e+001  8.050000e+001 -2.218182e+000
    endloop
  endfacet
  facet normal  7.071068e-001  7.071068e-001  0.000000e+000
    outer loop
      vertex  2.550000e+001  8.050000e+001 -2.218182e+000
      vertex  2.350000e+001  8.250000e+001 -2.000000e+000
      vertex  2.550000e+001  8.050000e+001  0.000000e+000
    endloop
  endfacet
  facet normal  7.071068e-001  7.071068e-001  0.000000e+000
    outer loop
      vertex  2.550000e+001  8.050000e+001  0.000000e+000
      vertex  2.350000e+001  8.250000e+001 -2.000000e+000
      vertex  2.350000e+001  8.250000e+001  0.000000e+000
    endloop
  endfacet
  facet normal  0.000000e+000 -9.999999e-001  0.000000e+000
    outer loop
      vertex -2.350000e+001 -8.250000e+001  0.000000e+000
      vertex -2.350000e+001 -8.250000e+001 -2.000000e+001
      vertex  2.350000e+001 -8.250000e+001  0.000000e+000
    endloop
  endfacet
  facet normal  0.000000e+000 -9.999999e-001  -0.000000e+000
    outer loop
      vertex  2.350000e+001 -8.250000e+001  0.000000e+000
      vertex -2.350000e+001 -8.250000e+001 -2.000000e+001
      vertex  2.350000e+001 -8.250000e+001 -2.000000e+001
    endloop
  endfacet
  facet normal  7.071068e-001 -7.071068e-001  0.000000e+000
    outer loop
      vertex  2.550000e+001 -8.050000e+001  0.000000e+000
      vertex  2.350000e+001 -8.250000e+001  0.000000e+000
      vertex  2.550000e+001 -8.050000e+001 -1.978182e+001
    endloop
  endfacet
  facet normal  7.071068e-001 -7.071068e-001  0.000000e+000
    outer loop
      vertex  2.550000e+001 -8.050000e+001 -1.978182e+001
      vertex  2.350000e+001 -8.250000e+001  0.000000e+000
      vertex  2.350000e+001 -8.250000e+001 -2.000000e+001
    endloop
  endfacet
  facet normal -7.071068e-001 -7.071068e-001  0.000000e+000
    outer loop
      vertex -2.550000e+001 -8.050000e+001 -1.978182e+001
      vertex -2.350000e+001 -8.250000e+001 -2.000000e+001
      vertex -2.550000e+001 -8.050000e+001  0.000000e+000
    endloop
  endfacet
  facet normal -7.071068e-001 -7.071068e-001  0.000000e+000
    outer loop
      vertex -2.550000e+001 -8.050000e+001  0.000000e+000
      vertex -2.350000e+001 -8.250000e+001 -2.000000e+001
      vertex -2.350000e+001 -8.250000e+001  0.000000e+000
    endloop
  endfacet
  facet normal  1.000000e+000  0.000000e+000  0.000000e+000
    outer loop
      vertex -2.250000e+001 -7.950000e+001 -4.000000e+000
      vertex -2.250000e+001 -7.950000e+001 -1.967273e+001
      vertex -2.250000e+001  6.416666e+001 -4.000000e+000
    endloop
  endfacet
  facet normal -1.000000e+000  0.000000e+000  0.000000e+000
    outer loop
      vertex -1.500000e+000  6.416666e+001 -4.000000e+000
      vertex -1.500000e+000 -7.950000e+001 -1.967273e+001
      vertex -1.500000e+000 -7.950000e+001 -4.000000e+000
    endloop
  endfacet
  facet normal  0.000000e+000  1.000000e+000  -0.000000e+000
    outer loop
      vertex -1.500000e+000 -7.950000e+001 -4.000000e+000
      vertex -1.500000e+000 -7.950000e+001 -1.967273e+001
      vertex -2.250000e+001 -7.950000e+001 -4.000000e+000
    endloop
  endfacet
  facet normal  0.000000e+000  1.000000e+000  0.000000e+000
    outer loop
      vertex -2.250000e+001 -7.950000e+001 -4.000000e+000
      vertex -1.500000e+000 -7.950000e+001 -1.967273e+001
      vertex -2.250000e+001 -7.950000e+001 -1.967273e+001
    endloop
  endfacet
  facet normal  -0.000000e+000  0.000000e+000 -1.000000e+000
    outer loop
      vertex -2.050000e+001  8.250000e+001 -2.000000e+000
      vertex -3.500000e+000  8.250000e+001 -2.000000e+000
      vertex -2.050000e+001 -7.750000e+001 -2.000000e+000
    endloop
  endfacet
  facet normal  0.000000e+000  0.000000e+000 -1.000000e+000
    outer loop
      vertex -2.050000e+001 -7.750000e+001 -2.000000e+000
      vertex -3.500000e+000  8.250000e+001 -2.000000e+000
      vertex -3.500000e+000 -7.750000e+001 -2.000000e+000
    endloop
  endfacet
  facet normal -7.071068e-001  0.000000e+000 -7.071068e-001
    outer loop
      vertex -1.500000e+000 -7.950000e+001 -4.000000e+000
      vertex -3.500000e+000 -7.750000e+001 -2.000000e+000
      vertex -1.500000e+000  6.416666e+001 -4.000000e+000
    endloop
  endfacet
  facet normal -7.071068e-001  0.000000e+000 -7.071068e-001
    outer loop
      vertex -1.500000e+000  6.416666e+001 -4.000000e+000
      vertex -3.500000e+000 -7.750000e+001 -2.000000e+000
      vertex -3.500000e+000  8.250000e+001 -2.000000e+000
    endloop
  endfacet
  facet normal  0.000000e+000  7.071068e-001 -7.071068e-001
    outer loop
      vertex -3.500000e+000 -7.750000e+001 -2.000000e+000
      vertex -1.500000e+000 -7.950000e+001 -4.000000e+000
      vertex -2.050000e+001 -7.750000e+001 -2.000000e+000
    endloop
  endfacet
  facet normal  0.000000e+000  7.071068e-001 -7.071068e-001
    outer loop
      vertex -2.050000e+001 -7.750000e+001 -2.000000e+000
      vertex -1.500000e+000 -7.950000e+001 -4.000000e+000
      vertex -2.250000e+001 -7.950000e+001 -4.000000e+000
    endloop
  endfacet
  facet normal  7.071068e-001  0.000000e+000 -7.071068e-001
    outer loop
      vertex -2.050000e+001 -7.750000e+001 -2.000000e+000
      vertex -2.250000e+001 -7.950000e+001 -4.000000e+000
      vertex -2.050000e+001  8.250000e+001 -2.000000e+000
    endloop
  endfacet
  facet normal  7.071068e-001  0.000000e+000 -7.071068e-001
    outer loop
      vertex -2.050000e+001  8.250000e+001 -2.000000e+000
      vertex -2.250000e+001 -7.950000e+001 -4.000000e+000
      vertex -2.250000e+001  6.416666e+001 -4.000000e+000
    endloop
  endfacet
  facet normal -1.000000e+000  0.000000e+000  0.000000e+000
    outer loop
      vertex  2.250000e+001  6.416666e+001 -4.000000e+000
      vertex  2.250000e+001 -7.950000e+001 -1.967273e+001
      vertex  2.250000e+001 -7.950000e+001 -4.000000e+000
    endloop
  endfacet
  facet normal  0.000000e+000  1.000000e+000  -0.000000e+000
    outer loop
      vertex  2.250000e+001 -7.950000e+001 -4.000000e+000
      vertex  2.250000e+001 -7.950000e+001 -1.967273e+001
      vertex  1.500000e+000 -7.950000e+001 -4.000000e+000
    endloop
  endfacet
  facet normal  0.000000e+000  1.000000e+000  0.000000e+000
    outer loop
      vertex  1.500000e+000 -7.950000e+001 -4.000000e+000
      vertex  2.250000e+001 -7.950000e+001 -1.967273e+001
      vertex  1.500000e+000 -7.950000e+001 -1.967273e+001
    endloop
  endfacet
  facet normal  1.000000e+000  0.000000e+000  0.000000e+000
    outer loop
      vertex  1.500000e+000 -7.950000e+001 -4.000000e+000
      vertex  1.500000e+000 -7.950000e+001 -1.967273e+001
      vertex  1.500000e+000  6.416666e+001 -4.000000e+000
    endloop
  endfacet
  facet normal  -0.000000e+000  0.000000e+000 -1.000000e+000
    outer loop
      vertex  3.500000e+000  8.250000e+001 -2.000000e+000
      vertex  2.050000e+001  8.250000e+001 -2.000000e+000
      vertex  3.500000e+000 -7.750000e+001 -2.000000e+000
    endloop
  endfacet
  facet normal  0.000000e+000  0.000000e+000 -1.000000e+000
    outer loop
      vertex  3.500000e+000 -7.750000e+001 -2.000000e+000
      vertex  2.050000e+001  8.250000e+001 -2.000000e+000
      vertex  2.050000e+001 -7.750000e+001 -2.000000e+000
    endloop
  endfacet
  facet normal -7.071068e-001  0.000000e+000 -7.071068e-001
    outer loop
      vertex  2.050000e+001  8.250000e+001 -2.000000e+000
      vertex  2.250000e+001  6.416666e+001 -4.000000e+000
      vertex  2.050000e+001 -7.750000e+001 -2.000000e+000
    endloop
  endfacet
  facet normal -7.071068e-001  0.000000e+000 -7.071068e-001
    outer loop
      vertex  2.050000e+001 -7.750000e+001 -2.000000e+000
      vertex  2.250000e+001  6.416666e+001 -4.000000e+000
      vertex  2.250000e+001 -7.950000e+001 -4.000000e+000
    endloop
  endfacet
  facet normal  0.000000e+000  7.071068e-001 -7.071068e-001
    outer loop
      vertex  2.050000e+001 -7.750000e+001 -2.000000e+000
      vertex  2.250000e+001 -7.950000e+001 -4.000000e+000
      vertex  3.500000e+000 -7.750000e+001 -2.000000e+000
    endloop
  endfacet
  facet normal  0.000000e+000  7.071068e-001 -7.071068e-001
    outer loop
      vertex  3.500000e+000 -7.750000e+001 -2.000000e+000
      vertex  2.250000e+001 -7.950000e+001 -4.000000e+000
      vertex  1.500000e+000 -7.950000e+001 -4.000000e+000
    endloop
  endfacet
  facet normal  7.071068e-001  0.000000e+000 -7.071068e-001
    outer loop
      vertex  3.500000e+000 -7.750000e+001 -2.000000e+000
      vertex  1.500000e+000 -7.950000e+001 -4.000000e+000
      vertex  3.500000e+000  8.250000e+001 -2.000000e+000
    endloop
  endfacet
  facet normal  7.071068e-001  0.000000e+000 -7.071068e-001
    outer loop
      vertex  3.500000e+000  8.250000e+001 -2.000000e+000
      vertex  1.500000e+000 -7.950000e+001 -4.000000e+000
      vertex  1.500000e+000  6.416666e+001 -4.000000e+000
    endloop
  endfacet
endsolid CATIA STL
