solid CATIA STL
  facet normal  0.000000e+000  0.000000e+000  1.000000e+000
    outer loop
      vertex -2.150000e+001 -6.350000e+001  2.400000e+001
      vertex -2.150000e+001 -1.617545e+001  2.400000e+001
      vertex -2.250000e+001 -6.450000e+001  2.400000e+001
    endloop
  endfacet
  facet normal  0.000000e+000  -0.000000e+000  1.000000e+000
    outer loop
      vertex -2.250000e+001 -6.450000e+001  2.400000e+001
      vertex -2.150000e+001 -1.617545e+001  2.400000e+001
      vertex -2.550000e+001  8.050000e+001  2.400000e+001
    endloop
  endfacet
  facet normal  0.000000e+000  0.000000e+000  1.000000e+000
    outer loop
      vertex -2.250000e+001 -6.450000e+001  2.400000e+001
      vertex -2.550000e+001  8.050000e+001  2.400000e+001
      vertex -2.250000e+001 -8.250000e+001  2.400000e+001
    endloop
  endfacet
  facet normal  0.000000e+000  0.000000e+000  1.000000e+000
    outer loop
      vertex -2.250000e+001 -8.250000e+001  2.400000e+001
      vertex -2.550000e+001  8.050000e+001  2.400000e+001
      vertex -2.550000e+001 -8.050000e+001  2.400000e+001
    endloop
  endfacet
  facet normal  0.000000e+000  0.000000e+000  1.000000e+000
    outer loop
      vertex -2.250000e+001 -8.250000e+001  2.400000e+001
      vertex -2.550000e+001 -8.050000e+001  2.400000e+001
      vertex -2.350000e+001 -8.250000e+001  2.400000e+001
    endloop
  endfacet
  facet normal  -0.000000e+000  0.000000e+000  9.999999e-001
    outer loop
      vertex -1.950000e+001  8.250000e+001  2.400000e+001
      vertex -2.350000e+001  8.250000e+001  2.400000e+001
      vertex -1.950000e+001 -1.017544e+001  2.400000e+001
    endloop
  endfacet
  facet normal  0.000000e+000  0.000000e+000  9.999999e-001
    outer loop
      vertex -1.950000e+001 -1.017544e+001  2.400000e+001
      vertex -2.350000e+001  8.250000e+001  2.400000e+001
      vertex -2.550000e+001  8.050000e+001  2.400000e+001
    endloop
  endfacet
  facet normal  0.000000e+000  0.000000e+000  1.000000e+000
    outer loop
      vertex -1.950000e+001 -1.017544e+001  2.400000e+001
      vertex -2.550000e+001  8.050000e+001  2.400000e+001
      vertex -2.150000e+001 -1.617545e+001  2.400000e+001
    endloop
  endfacet
  facet normal -9.486833e-001  3.162277e-001  0.000000e+000
    outer loop
      vertex -1.750000e+001 -1.050000e+001  2.600000e+001
      vertex -1.950000e+001 -1.650000e+001  2.600000e+001
      vertex -1.750000e+001 -1.050000e+001  5.400000e+001
    endloop
  endfacet
  facet normal -9.486833e-001  3.162277e-001  0.000000e+000
    outer loop
      vertex -1.750000e+001 -1.050000e+001  5.400000e+001
      vertex -1.950000e+001 -1.650000e+001  2.600000e+001
      vertex -1.950000e+001 -1.650000e+001  5.400000e+001
    endloop
  endfacet
  facet normal -1.000000e+000  0.000000e+000  0.000000e+000
    outer loop
      vertex -1.750000e+001  8.250000e+001  5.400000e+001
      vertex -1.750000e+001  8.250000e+001  2.600000e+001
      vertex -1.750000e+001 -1.050000e+001  5.400000e+001
    endloop
  endfacet
  facet normal -1.000000e+000  0.000000e+000  0.000000e+000
    outer loop
      vertex -1.750000e+001 -1.050000e+001  5.400000e+001
      vertex -1.750000e+001  8.250000e+001  2.600000e+001
      vertex -1.750000e+001 -1.050000e+001  2.600000e+001
    endloop
  endfacet
  facet normal -1.000000e+000  0.000000e+000  0.000000e+000
    outer loop
      vertex -1.950000e+001 -1.650000e+001  5.400000e+001
      vertex -1.950000e+001 -1.650000e+001  2.600000e+001
      vertex -1.950000e+001 -6.250000e+001  5.400000e+001
    endloop
  endfacet
  facet normal -1.000000e+000  0.000000e+000  0.000000e+000
    outer loop
      vertex -1.950000e+001 -6.250000e+001  5.400000e+001
      vertex -1.950000e+001 -1.650000e+001  2.600000e+001
      vertex -1.950000e+001 -6.250000e+001  2.600000e+001
    endloop
  endfacet
  facet normal  -0.000000e+000  9.999999e-001  0.000000e+000
    outer loop
      vertex  1.750000e+001  8.250000e+001  2.600000e+001
      vertex -1.750000e+001  8.250000e+001  5.400000e+001
      vertex  1.750000e+001  8.250000e+001  5.400000e+001
    endloop
  endfacet
  facet normal  -0.000000e+000  1.000000e+000  0.000000e+000
    outer loop
      vertex -2.350000e+001  8.250000e+001  2.200000e+001
      vertex -2.350000e+001  8.250000e+001  2.400000e+001
      vertex -1.950000e+001  8.250000e+001  2.400000e+001
    endloop
  endfacet
  facet normal  -0.000000e+000  1.000000e+000  0.000000e+000
    outer loop
      vertex -2.350000e+001  8.250000e+001  2.200000e+001
      vertex -1.950000e+001  8.250000e+001  2.400000e+001
      vertex  1.950000e+001  8.250000e+001  2.400000e+001
    endloop
  endfacet
  facet normal  -0.000000e+000  1.000000e+000  0.000000e+000
    outer loop
      vertex -2.350000e+001  8.250000e+001  2.200000e+001
      vertex  1.950000e+001  8.250000e+001  2.400000e+001
      vertex  2.350000e+001  8.250000e+001  2.400000e+001
    endloop
  endfacet
  facet normal  0.000000e+000  9.999999e-001  0.000000e+000
    outer loop
      vertex -2.350000e+001  8.250000e+001  2.200000e+001
      vertex  2.350000e+001  8.250000e+001  2.400000e+001
      vertex  2.350000e+001  8.250000e+001  2.200000e+001
    endloop
  endfacet
  facet normal  0.000000e+000  1.000000e+000  0.000000e+000
    outer loop
      vertex  1.950000e+001  8.250000e+001  2.400000e+001
      vertex -1.950000e+001  8.250000e+001  2.400000e+001
      vertex -1.750000e+001  8.250000e+001  2.600000e+001
    endloop
  endfacet
  facet normal  -0.000000e+000  1.000000e+000  0.000000e+000
    outer loop
      vertex  1.950000e+001  8.250000e+001  2.400000e+001
      vertex -1.750000e+001  8.250000e+001  2.600000e+001
      vertex -1.750000e+001  8.250000e+001  5.400000e+001
    endloop
  endfacet
  facet normal  0.000000e+000  1.000000e+000  0.000000e+000
    outer loop
      vertex  1.950000e+001  8.250000e+001  2.400000e+001
      vertex -1.750000e+001  8.250000e+001  5.400000e+001
      vertex  1.750000e+001  8.250000e+001  2.600000e+001
    endloop
  endfacet
  facet normal  7.071068e-001 -7.071068e-001  0.000000e+000
    outer loop
      vertex -2.250000e+001 -6.450000e+001  2.400000e+001
      vertex -2.250000e+001 -6.450000e+001  2.200000e+001
      vertex -2.150000e+001 -6.350000e+001  2.400000e+001
    endloop
  endfacet
  facet normal  7.071068e-001 -7.071068e-001  0.000000e+000
    outer loop
      vertex -2.150000e+001 -6.350000e+001  2.400000e+001
      vertex -2.250000e+001 -6.450000e+001  2.200000e+001
      vertex -2.050000e+001 -6.250000e+001  2.200000e+001
    endloop
  endfacet
  facet normal  7.071068e-001 -7.071068e-001  0.000000e+000
    outer loop
      vertex -2.150000e+001 -6.350000e+001  2.400000e+001
      vertex -2.050000e+001 -6.250000e+001  2.200000e+001
      vertex -2.050000e+001 -6.250000e+001  2.500000e+001
    endloop
  endfacet
  facet normal  0.000000e+000 -1.000000e+000  0.000000e+000
    outer loop
      vertex -1.950000e+001 -6.250000e+001  5.400000e+001
      vertex -1.950000e+001 -6.250000e+001  2.600000e+001
      vertex  1.950000e+001 -6.250000e+001  5.400000e+001
    endloop
  endfacet
  facet normal  0.000000e+000 -9.999999e-001  0.000000e+000
    outer loop
      vertex -2.050000e+001 -6.250000e+001  2.200000e+001
      vertex  2.050000e+001 -6.250000e+001  2.200000e+001
      vertex  2.050000e+001 -6.250000e+001  2.500000e+001
    endloop
  endfacet
  facet normal  -0.000000e+000 -1.000000e+000  0.000000e+000
    outer loop
      vertex -2.050000e+001 -6.250000e+001  2.200000e+001
      vertex  2.050000e+001 -6.250000e+001  2.500000e+001
      vertex  1.950000e+001 -6.250000e+001  2.600000e+001
    endloop
  endfacet
  facet normal  -0.000000e+000 -1.000000e+000  0.000000e+000
    outer loop
      vertex -2.050000e+001 -6.250000e+001  2.200000e+001
      vertex  1.950000e+001 -6.250000e+001  2.600000e+001
      vertex  1.950000e+001 -6.250000e+001  5.400000e+001
    endloop
  endfacet
  facet normal  0.000000e+000 -1.000000e+000  0.000000e+000
    outer loop
      vertex -2.050000e+001 -6.250000e+001  2.200000e+001
      vertex  1.950000e+001 -6.250000e+001  5.400000e+001
      vertex -1.950000e+001 -6.250000e+001  2.600000e+001
    endloop
  endfacet
  facet normal  0.000000e+000 -1.000000e+000  0.000000e+000
    outer loop
      vertex -2.050000e+001 -6.250000e+001  2.200000e+001
      vertex -1.950000e+001 -6.250000e+001  2.600000e+001
      vertex -2.050000e+001 -6.250000e+001  2.500000e+001
    endloop
  endfacet
  facet normal -1.000000e+000  0.000000e+000  0.000000e+000
    outer loop
      vertex -2.550000e+001  8.050000e+001  2.400000e+001
      vertex -2.550000e+001  8.050000e+001  2.200000e+001
      vertex -2.550000e+001 -8.050000e+001  2.400000e+001
    endloop
  endfacet
  facet normal -1.000000e+000  0.000000e+000  0.000000e+000
    outer loop
      vertex -2.550000e+001 -8.050000e+001  2.400000e+001
      vertex -2.550000e+001  8.050000e+001  2.200000e+001
      vertex -2.550000e+001 -8.050000e+001  2.200000e+001
    endloop
  endfacet
  facet normal -7.071068e-001  0.000000e+000  7.071068e-001
    outer loop
      vertex -1.950000e+001 -6.250000e+001  2.600000e+001
      vertex -1.950000e+001 -1.650000e+001  2.600000e+001
      vertex -2.050000e+001 -6.250000e+001  2.500000e+001
    endloop
  endfacet
  facet normal -7.071068e-001  0.000000e+000  7.071068e-001
    outer loop
      vertex -2.050000e+001 -6.250000e+001  2.500000e+001
      vertex -1.950000e+001 -1.650000e+001  2.600000e+001
      vertex -2.150000e+001 -1.617545e+001  2.400000e+001
    endloop
  endfacet
  facet normal -7.071068e-001  0.000000e+000  7.071068e-001
    outer loop
      vertex -2.050000e+001 -6.250000e+001  2.500000e+001
      vertex -2.150000e+001 -1.617545e+001  2.400000e+001
      vertex -2.150000e+001 -6.350000e+001  2.400000e+001
    endloop
  endfacet
  facet normal -6.708204e-001  2.236068e-001  7.071067e-001
    outer loop
      vertex -2.150000e+001 -1.617545e+001  2.400000e+001
      vertex -1.950000e+001 -1.650000e+001  2.600000e+001
      vertex -1.950000e+001 -1.017544e+001  2.400000e+001
    endloop
  endfacet
  facet normal -6.708204e-001  2.236068e-001  7.071068e-001
    outer loop
      vertex -1.950000e+001 -1.017544e+001  2.400000e+001
      vertex -1.950000e+001 -1.650000e+001  2.600000e+001
      vertex -1.750000e+001 -1.050000e+001  2.600000e+001
    endloop
  endfacet
  facet normal -7.071068e-001  0.000000e+000  7.071068e-001
    outer loop
      vertex -1.750000e+001  8.250000e+001  2.600000e+001
      vertex -1.950000e+001  8.250000e+001  2.400000e+001
      vertex -1.750000e+001 -1.050000e+001  2.600000e+001
    endloop
  endfacet
  facet normal -7.071068e-001  0.000000e+000  7.071068e-001
    outer loop
      vertex -1.750000e+001 -1.050000e+001  2.600000e+001
      vertex -1.950000e+001  8.250000e+001  2.400000e+001
      vertex -1.950000e+001 -1.017544e+001  2.400000e+001
    endloop
  endfacet
  facet normal  0.000000e+000  0.000000e+000 -1.000000e+000
    outer loop
      vertex -2.350000e+001 -8.250000e+001  2.200000e+001
      vertex -2.550000e+001 -8.050000e+001  2.200000e+001
      vertex -2.250000e+001 -8.250000e+001  2.200000e+001
    endloop
  endfacet
  facet normal  0.000000e+000  0.000000e+000 -1.000000e+000
    outer loop
      vertex  2.550000e+001  8.050000e+001  2.200000e+001
      vertex  2.250000e+001 -6.450000e+001  2.200000e+001
      vertex  2.050000e+001 -6.250000e+001  2.200000e+001
    endloop
  endfacet
  facet normal  0.000000e+000  0.000000e+000 -1.000000e+000
    outer loop
      vertex -2.250000e+001 -8.250000e+001  2.200000e+001
      vertex -2.550000e+001 -8.050000e+001  2.200000e+001
      vertex -2.250000e+001 -6.450000e+001  2.200000e+001
    endloop
  endfacet
  facet normal  -0.000000e+000  0.000000e+000 -1.000000e+000
    outer loop
      vertex -2.250000e+001 -6.450000e+001  2.200000e+001
      vertex -2.550000e+001 -8.050000e+001  2.200000e+001
      vertex -2.550000e+001  8.050000e+001  2.200000e+001
    endloop
  endfacet
  facet normal  0.000000e+000  0.000000e+000 -1.000000e+000
    outer loop
      vertex -2.250000e+001 -6.450000e+001  2.200000e+001
      vertex -2.550000e+001  8.050000e+001  2.200000e+001
      vertex -2.050000e+001 -6.250000e+001  2.200000e+001
    endloop
  endfacet
  facet normal  -0.000000e+000  0.000000e+000 -9.999999e-001
    outer loop
      vertex -2.350000e+001  8.250000e+001  2.200000e+001
      vertex  2.350000e+001  8.250000e+001  2.200000e+001
      vertex -2.550000e+001  8.050000e+001  2.200000e+001
    endloop
  endfacet
  facet normal  0.000000e+000  0.000000e+000 -1.000000e+000
    outer loop
      vertex -2.550000e+001  8.050000e+001  2.200000e+001
      vertex  2.350000e+001  8.250000e+001  2.200000e+001
      vertex  2.550000e+001  8.050000e+001  2.200000e+001
    endloop
  endfacet
  facet normal  -0.000000e+000  0.000000e+000 -9.999999e-001
    outer loop
      vertex -2.550000e+001  8.050000e+001  2.200000e+001
      vertex  2.550000e+001  8.050000e+001  2.200000e+001
      vertex -2.050000e+001 -6.250000e+001  2.200000e+001
    endloop
  endfacet
  facet normal  0.000000e+000  0.000000e+000 -1.000000e+000
    outer loop
      vertex -2.050000e+001 -6.250000e+001  2.200000e+001
      vertex  2.550000e+001  8.050000e+001  2.200000e+001
      vertex  2.050000e+001 -6.250000e+001  2.200000e+001
    endloop
  endfacet
  facet normal  0.000000e+000  0.000000e+000 -1.000000e+000
    outer loop
      vertex  2.250000e+001 -6.450000e+001  2.200000e+001
      vertex  2.550000e+001  8.050000e+001  2.200000e+001
      vertex  2.250000e+001 -8.250000e+001  2.200000e+001
    endloop
  endfacet
  facet normal  0.000000e+000  0.000000e+000 -1.000000e+000
    outer loop
      vertex  2.250000e+001 -8.250000e+001  2.200000e+001
      vertex  2.550000e+001  8.050000e+001  2.200000e+001
      vertex  2.550000e+001 -8.050000e+001  2.200000e+001
    endloop
  endfacet
  facet normal  0.000000e+000  0.000000e+000 -1.000000e+000
    outer loop
      vertex  2.250000e+001 -8.250000e+001  2.200000e+001
      vertex  2.550000e+001 -8.050000e+001  2.200000e+001
      vertex  2.350000e+001 -8.250000e+001  2.200000e+001
    endloop
  endfacet
  facet normal  0.000000e+000  0.000000e+000  1.000000e+000
    outer loop
      vertex  2.150000e+001 -1.617545e+001  2.400000e+001
      vertex  2.150000e+001 -6.350000e+001  2.400000e+001
      vertex  2.550000e+001  8.050000e+001  2.400000e+001
    endloop
  endfacet
  facet normal  0.000000e+000  0.000000e+000  1.000000e+000
    outer loop
      vertex  2.550000e+001  8.050000e+001  2.400000e+001
      vertex  2.150000e+001 -6.350000e+001  2.400000e+001
      vertex  2.250000e+001 -6.450000e+001  2.400000e+001
    endloop
  endfacet
  facet normal  -0.000000e+000  0.000000e+000  1.000000e+000
    outer loop
      vertex  2.550000e+001  8.050000e+001  2.400000e+001
      vertex  2.250000e+001 -6.450000e+001  2.400000e+001
      vertex  2.550000e+001 -8.050000e+001  2.400000e+001
    endloop
  endfacet
  facet normal  0.000000e+000  0.000000e+000  1.000000e+000
    outer loop
      vertex  2.550000e+001 -8.050000e+001  2.400000e+001
      vertex  2.250000e+001 -6.450000e+001  2.400000e+001
      vertex  2.250000e+001 -8.250000e+001  2.400000e+001
    endloop
  endfacet
  facet normal  0.000000e+000  0.000000e+000  1.000000e+000
    outer loop
      vertex  2.550000e+001 -8.050000e+001  2.400000e+001
      vertex  2.250000e+001 -8.250000e+001  2.400000e+001
      vertex  2.350000e+001 -8.250000e+001  2.400000e+001
    endloop
  endfacet
  facet normal  -0.000000e+000  0.000000e+000  1.000000e+000
    outer loop
      vertex  2.350000e+001  8.250000e+001  2.400000e+001
      vertex  1.950000e+001  8.250000e+001  2.400000e+001
      vertex  2.550000e+001  8.050000e+001  2.400000e+001
    endloop
  endfacet
  facet normal  0.000000e+000  0.000000e+000  1.000000e+000
    outer loop
      vertex  2.550000e+001  8.050000e+001  2.400000e+001
      vertex  1.950000e+001  8.250000e+001  2.400000e+001
      vertex  1.950000e+001 -1.017544e+001  2.400000e+001
    endloop
  endfacet
  facet normal  -0.000000e+000  0.000000e+000  1.000000e+000
    outer loop
      vertex  2.550000e+001  8.050000e+001  2.400000e+001
      vertex  1.950000e+001 -1.017544e+001  2.400000e+001
      vertex  2.150000e+001 -1.617545e+001  2.400000e+001
    endloop
  endfacet
  facet normal  1.000000e+000  0.000000e+000  0.000000e+000
    outer loop
      vertex  1.750000e+001 -1.050000e+001  5.400000e+001
      vertex  1.750000e+001 -1.050000e+001  2.600000e+001
      vertex  1.750000e+001  8.250000e+001  5.400000e+001
    endloop
  endfacet
  facet normal  1.000000e+000  0.000000e+000  0.000000e+000
    outer loop
      vertex  1.750000e+001  8.250000e+001  5.400000e+001
      vertex  1.750000e+001 -1.050000e+001  2.600000e+001
      vertex  1.750000e+001  8.250000e+001  2.600000e+001
    endloop
  endfacet
  facet normal  9.486833e-001  3.162277e-001  0.000000e+000
    outer loop
      vertex  1.950000e+001 -1.650000e+001  2.600000e+001
      vertex  1.750000e+001 -1.050000e+001  2.600000e+001
      vertex  1.950000e+001 -1.650000e+001  5.400000e+001
    endloop
  endfacet
  facet normal  9.486833e-001  3.162277e-001  0.000000e+000
    outer loop
      vertex  1.950000e+001 -1.650000e+001  5.400000e+001
      vertex  1.750000e+001 -1.050000e+001  2.600000e+001
      vertex  1.750000e+001 -1.050000e+001  5.400000e+001
    endloop
  endfacet
  facet normal  1.000000e+000  0.000000e+000  0.000000e+000
    outer loop
      vertex  1.950000e+001 -6.250000e+001  5.400000e+001
      vertex  1.950000e+001 -6.250000e+001  2.600000e+001
      vertex  1.950000e+001 -1.650000e+001  5.400000e+001
    endloop
  endfacet
  facet normal  1.000000e+000  0.000000e+000  0.000000e+000
    outer loop
      vertex  1.950000e+001 -1.650000e+001  5.400000e+001
      vertex  1.950000e+001 -6.250000e+001  2.600000e+001
      vertex  1.950000e+001 -1.650000e+001  2.600000e+001
    endloop
  endfacet
  facet normal -7.071068e-001 -7.071068e-001  -0.000000e+000
    outer loop
      vertex  2.250000e+001 -6.450000e+001  2.200000e+001
      vertex  2.250000e+001 -6.450000e+001  2.400000e+001
      vertex  2.050000e+001 -6.250000e+001  2.200000e+001
    endloop
  endfacet
  facet normal -7.071068e-001 -7.071068e-001  0.000000e+000
    outer loop
      vertex  2.050000e+001 -6.250000e+001  2.200000e+001
      vertex  2.250000e+001 -6.450000e+001  2.400000e+001
      vertex  2.150000e+001 -6.350000e+001  2.400000e+001
    endloop
  endfacet
  facet normal -7.071068e-001 -7.071068e-001  0.000000e+000
    outer loop
      vertex  2.050000e+001 -6.250000e+001  2.200000e+001
      vertex  2.150000e+001 -6.350000e+001  2.400000e+001
      vertex  2.050000e+001 -6.250000e+001  2.500000e+001
    endloop
  endfacet
  facet normal  1.000000e+000  0.000000e+000  0.000000e+000
    outer loop
      vertex  2.550000e+001 -8.050000e+001  2.400000e+001
      vertex  2.550000e+001 -8.050000e+001  2.200000e+001
      vertex  2.550000e+001  8.050000e+001  2.400000e+001
    endloop
  endfacet
  facet normal  1.000000e+000  0.000000e+000  0.000000e+000
    outer loop
      vertex  2.550000e+001  8.050000e+001  2.400000e+001
      vertex  2.550000e+001 -8.050000e+001  2.200000e+001
      vertex  2.550000e+001  8.050000e+001  2.200000e+001
    endloop
  endfacet
  facet normal  7.071068e-001  0.000000e+000  7.071068e-001
    outer loop
      vertex  1.750000e+001 -1.050000e+001  2.600000e+001
      vertex  1.950000e+001 -1.017544e+001  2.400000e+001
      vertex  1.750000e+001  8.250000e+001  2.600000e+001
    endloop
  endfacet
  facet normal  7.071068e-001  0.000000e+000  7.071068e-001
    outer loop
      vertex  1.750000e+001  8.250000e+001  2.600000e+001
      vertex  1.950000e+001 -1.017544e+001  2.400000e+001
      vertex  1.950000e+001  8.250000e+001  2.400000e+001
    endloop
  endfacet
  facet normal  6.708204e-001  2.236068e-001  7.071068e-001
    outer loop
      vertex  1.950000e+001 -1.017544e+001  2.400000e+001
      vertex  1.750000e+001 -1.050000e+001  2.600000e+001
      vertex  2.150000e+001 -1.617545e+001  2.400000e+001
    endloop
  endfacet
  facet normal  6.708205e-001  2.236068e-001  7.071068e-001
    outer loop
      vertex  2.150000e+001 -1.617545e+001  2.400000e+001
      vertex  1.750000e+001 -1.050000e+001  2.600000e+001
      vertex  1.950000e+001 -1.650000e+001  2.600000e+001
    endloop
  endfacet
  facet normal  7.071068e-001  0.000000e+000  7.071068e-001
    outer loop
      vertex  2.150000e+001 -6.350000e+001  2.400000e+001
      vertex  2.150000e+001 -1.617545e+001  2.400000e+001
      vertex  2.050000e+001 -6.250000e+001  2.500000e+001
    endloop
  endfacet
  facet normal  7.071068e-001  0.000000e+000  7.071068e-001
    outer loop
      vertex  2.050000e+001 -6.250000e+001  2.500000e+001
      vertex  2.150000e+001 -1.617545e+001  2.400000e+001
      vertex  1.950000e+001 -1.650000e+001  2.600000e+001
    endloop
  endfacet
  facet normal  7.071068e-001  0.000000e+000  7.071068e-001
    outer loop
      vertex  2.050000e+001 -6.250000e+001  2.500000e+001
      vertex  1.950000e+001 -1.650000e+001  2.600000e+001
      vertex  1.950000e+001 -6.250000e+001  2.600000e+001
    endloop
  endfacet
  facet normal  0.000000e+000  0.000000e+000  1.000000e+000
    outer loop
      vertex -1.450000e+001  5.550000e+001  2.400000e+001
      vertex  1.450000e+001  5.550000e+001  2.400000e+001
      vertex -1.450000e+001  7.550000e+001  2.400000e+001
    endloop
  endfacet
  facet normal  -0.000000e+000  0.000000e+000  1.000000e+000
    outer loop
      vertex -1.450000e+001  7.550000e+001  2.400000e+001
      vertex  1.450000e+001  5.550000e+001  2.400000e+001
      vertex  1.450000e+001  7.550000e+001  2.400000e+001
    endloop
  endfacet
  facet normal  0.000000e+000  0.000000e+000  1.000000e+000
    outer loop
      vertex -1.450000e+001 -1.050000e+001  2.400000e+001
      vertex  1.450000e+001 -1.050000e+001  2.400000e+001
      vertex -1.450000e+001  4.950000e+001  2.400000e+001
    endloop
  endfacet
  facet normal  -0.000000e+000  0.000000e+000  1.000000e+000
    outer loop
      vertex -1.450000e+001  4.950000e+001  2.400000e+001
      vertex  1.450000e+001 -1.050000e+001  2.400000e+001
      vertex  1.450000e+001  4.950000e+001  2.400000e+001
    endloop
  endfacet
  facet normal  0.000000e+000  0.000000e+000  9.999999e-001
    outer loop
      vertex -1.650000e+001 -5.650000e+001  2.400000e+001
      vertex  1.650000e+001 -5.650000e+001  2.400000e+001
      vertex -1.650000e+001 -1.650000e+001  2.400000e+001
    endloop
  endfacet
  facet normal  -0.000000e+000  0.000000e+000  9.999999e-001
    outer loop
      vertex -1.650000e+001 -1.650000e+001  2.400000e+001
      vertex  1.650000e+001 -5.650000e+001  2.400000e+001
      vertex  1.650000e+001 -1.650000e+001  2.400000e+001
    endloop
  endfacet
  facet normal  1.000000e+000  0.000000e+000  0.000000e+000
    outer loop
      vertex -1.450000e+001  7.550000e+001  2.400000e+001
      vertex -1.450000e+001  7.550000e+001  5.400000e+001
      vertex -1.450000e+001  5.550000e+001  2.400000e+001
    endloop
  endfacet
  facet normal  1.000000e+000  0.000000e+000  0.000000e+000
    outer loop
      vertex -1.450000e+001  5.550000e+001  2.400000e+001
      vertex -1.450000e+001  7.550000e+001  5.400000e+001
      vertex -1.450000e+001  5.550000e+001  5.400000e+001
    endloop
  endfacet
  facet normal  0.000000e+000  1.000000e+000  0.000000e+000
    outer loop
      vertex  1.450000e+001  5.550000e+001  2.400000e+001
      vertex -1.450000e+001  5.550000e+001  2.400000e+001
      vertex  1.450000e+001  5.550000e+001  5.400000e+001
    endloop
  endfacet
  facet normal  0.000000e+000  1.000000e+000  0.000000e+000
    outer loop
      vertex  1.450000e+001  5.550000e+001  5.400000e+001
      vertex -1.450000e+001  5.550000e+001  2.400000e+001
      vertex -1.450000e+001  5.550000e+001  5.400000e+001
    endloop
  endfacet
  facet normal -1.000000e+000  0.000000e+000  0.000000e+000
    outer loop
      vertex  1.450000e+001  5.550000e+001  2.400000e+001
      vertex  1.450000e+001  5.550000e+001  5.400000e+001
      vertex  1.450000e+001  7.550000e+001  2.400000e+001
    endloop
  endfacet
  facet normal -1.000000e+000  0.000000e+000  0.000000e+000
    outer loop
      vertex  1.450000e+001  7.550000e+001  2.400000e+001
      vertex  1.450000e+001  5.550000e+001  5.400000e+001
      vertex  1.450000e+001  7.550000e+001  5.400000e+001
    endloop
  endfacet
  facet normal  0.000000e+000 -1.000000e+000  0.000000e+000
    outer loop
      vertex -1.450000e+001  7.550000e+001  2.400000e+001
      vertex  1.450000e+001  7.550000e+001  2.400000e+001
      vertex -1.450000e+001  7.550000e+001  5.400000e+001
    endloop
  endfacet
  facet normal  0.000000e+000 -1.000000e+000  0.000000e+000
    outer loop
      vertex -1.450000e+001  7.550000e+001  5.400000e+001
      vertex  1.450000e+001  7.550000e+001  2.400000e+001
      vertex  1.450000e+001  7.550000e+001  5.400000e+001
    endloop
  endfacet
  facet normal  1.000000e+000  0.000000e+000  0.000000e+000
    outer loop
      vertex -1.450000e+001  4.950000e+001  2.400000e+001
      vertex -1.450000e+001  4.950000e+001  5.400000e+001
      vertex -1.450000e+001 -1.050000e+001  2.400000e+001
    endloop
  endfacet
  facet normal  1.000000e+000  0.000000e+000  0.000000e+000
    outer loop
      vertex -1.450000e+001 -1.050000e+001  2.400000e+001
      vertex -1.450000e+001  4.950000e+001  5.400000e+001
      vertex -1.450000e+001 -1.050000e+001  5.400000e+001
    endloop
  endfacet
  facet normal  0.000000e+000  1.000000e+000  0.000000e+000
    outer loop
      vertex  1.450000e+001 -1.050000e+001  2.400000e+001
      vertex -1.450000e+001 -1.050000e+001  2.400000e+001
      vertex  1.450000e+001 -1.050000e+001  5.400000e+001
    endloop
  endfacet
  facet normal  0.000000e+000  1.000000e+000  0.000000e+000
    outer loop
      vertex  1.450000e+001 -1.050000e+001  5.400000e+001
      vertex -1.450000e+001 -1.050000e+001  2.400000e+001
      vertex -1.450000e+001 -1.050000e+001  5.400000e+001
    endloop
  endfacet
  facet normal -1.000000e+000  0.000000e+000  0.000000e+000
    outer loop
      vertex  1.450000e+001 -1.050000e+001  2.400000e+001
      vertex  1.450000e+001 -1.050000e+001  5.400000e+001
      vertex  1.450000e+001  4.950000e+001  2.400000e+001
    endloop
  endfacet
  facet normal -1.000000e+000  0.000000e+000  0.000000e+000
    outer loop
      vertex  1.450000e+001  4.950000e+001  2.400000e+001
      vertex  1.450000e+001 -1.050000e+001  5.400000e+001
      vertex  1.450000e+001  4.950000e+001  5.400000e+001
    endloop
  endfacet
  facet normal  0.000000e+000 -1.000000e+000  0.000000e+000
    outer loop
      vertex -1.450000e+001  4.950000e+001  2.400000e+001
      vertex  1.450000e+001  4.950000e+001  2.400000e+001
      vertex -1.450000e+001  4.950000e+001  5.400000e+001
    endloop
  endfacet
  facet normal  0.000000e+000 -1.000000e+000  0.000000e+000
    outer loop
      vertex -1.450000e+001  4.950000e+001  5.400000e+001
      vertex  1.450000e+001  4.950000e+001  2.400000e+001
      vertex  1.450000e+001  4.950000e+001  5.400000e+001
    endloop
  endfacet
  facet normal  1.000000e+000  0.000000e+000  0.000000e+000
    outer loop
      vertex -1.650000e+001 -1.650000e+001  2.400000e+001
      vertex -1.650000e+001 -1.650000e+001  5.400000e+001
      vertex -1.650000e+001 -5.650000e+001  2.400000e+001
    endloop
  endfacet
  facet normal  1.000000e+000  0.000000e+000  0.000000e+000
    outer loop
      vertex -1.650000e+001 -5.650000e+001  2.400000e+001
      vertex -1.650000e+001 -1.650000e+001  5.400000e+001
      vertex -1.650000e+001 -5.650000e+001  5.400000e+001
    endloop
  endfacet
  facet normal  0.000000e+000  1.000000e+000  -0.000000e+000
    outer loop
      vertex  1.650000e+001 -5.650000e+001  5.400000e+001
      vertex  1.650000e+001 -5.650000e+001  2.400000e+001
      vertex -1.650000e+001 -5.650000e+001  5.400000e+001
    endloop
  endfacet
  facet normal  0.000000e+000  1.000000e+000  0.000000e+000
    outer loop
      vertex -1.650000e+001 -5.650000e+001  5.400000e+001
      vertex  1.650000e+001 -5.650000e+001  2.400000e+001
      vertex -1.650000e+001 -5.650000e+001  2.400000e+001
    endloop
  endfacet
  facet normal -1.000000e+000  0.000000e+000  0.000000e+000
    outer loop
      vertex  1.650000e+001 -5.650000e+001  2.400000e+001
      vertex  1.650000e+001 -5.650000e+001  5.400000e+001
      vertex  1.650000e+001 -1.650000e+001  2.400000e+001
    endloop
  endfacet
  facet normal -1.000000e+000  0.000000e+000  0.000000e+000
    outer loop
      vertex  1.650000e+001 -1.650000e+001  2.400000e+001
      vertex  1.650000e+001 -5.650000e+001  5.400000e+001
      vertex  1.650000e+001 -1.650000e+001  5.400000e+001
    endloop
  endfacet
  facet normal  0.000000e+000 -1.000000e+000  0.000000e+000
    outer loop
      vertex -1.650000e+001 -1.650000e+001  5.400000e+001
      vertex -1.650000e+001 -1.650000e+001  2.400000e+001
      vertex  1.650000e+001 -1.650000e+001  5.400000e+001
    endloop
  endfacet
  facet normal  0.000000e+000 -1.000000e+000  -0.000000e+000
    outer loop
      vertex  1.650000e+001 -1.650000e+001  5.400000e+001
      vertex -1.650000e+001 -1.650000e+001  2.400000e+001
      vertex  1.650000e+001 -1.650000e+001  2.400000e+001
    endloop
  endfacet
  facet normal  0.000000e+000  0.000000e+000  1.000000e+000
    outer loop
      vertex -1.450000e+001 -1.050000e+001  5.400000e+001
      vertex -1.650000e+001 -1.650000e+001  5.400000e+001
      vertex  1.450000e+001 -1.050000e+001  5.400000e+001
    endloop
  endfacet
  facet normal  0.000000e+000  0.000000e+000  1.000000e+000
    outer loop
      vertex -1.950000e+001 -1.650000e+001  5.400000e+001
      vertex -1.950000e+001 -6.250000e+001  5.400000e+001
      vertex -1.650000e+001 -5.650000e+001  5.400000e+001
    endloop
  endfacet
  facet normal  0.000000e+000  -0.000000e+000  1.000000e+000
    outer loop
      vertex -1.950000e+001 -1.650000e+001  5.400000e+001
      vertex -1.650000e+001 -5.650000e+001  5.400000e+001
      vertex -1.650000e+001 -1.650000e+001  5.400000e+001
    endloop
  endfacet
  facet normal  0.000000e+000  -0.000000e+000  1.000000e+000
    outer loop
      vertex -1.950000e+001 -1.650000e+001  5.400000e+001
      vertex -1.650000e+001 -1.650000e+001  5.400000e+001
      vertex -1.450000e+001 -1.050000e+001  5.400000e+001
    endloop
  endfacet
  facet normal  0.000000e+000  0.000000e+000  1.000000e+000
    outer loop
      vertex -1.950000e+001 -1.650000e+001  5.400000e+001
      vertex -1.450000e+001 -1.050000e+001  5.400000e+001
      vertex -1.750000e+001 -1.050000e+001  5.400000e+001
    endloop
  endfacet
  facet normal  0.000000e+000  0.000000e+000  1.000000e+000
    outer loop
      vertex -1.750000e+001  8.250000e+001  5.400000e+001
      vertex -1.750000e+001 -1.050000e+001  5.400000e+001
      vertex -1.450000e+001 -1.050000e+001  5.400000e+001
    endloop
  endfacet
  facet normal  0.000000e+000  -0.000000e+000  1.000000e+000
    outer loop
      vertex -1.750000e+001  8.250000e+001  5.400000e+001
      vertex -1.450000e+001 -1.050000e+001  5.400000e+001
      vertex -1.450000e+001  4.950000e+001  5.400000e+001
    endloop
  endfacet
  facet normal  0.000000e+000  -0.000000e+000  1.000000e+000
    outer loop
      vertex -1.750000e+001  8.250000e+001  5.400000e+001
      vertex -1.450000e+001  4.950000e+001  5.400000e+001
      vertex -1.450000e+001  5.550000e+001  5.400000e+001
    endloop
  endfacet
  facet normal  0.000000e+000  -0.000000e+000  1.000000e+000
    outer loop
      vertex -1.750000e+001  8.250000e+001  5.400000e+001
      vertex -1.450000e+001  5.550000e+001  5.400000e+001
      vertex -1.450000e+001  7.550000e+001  5.400000e+001
    endloop
  endfacet
  facet normal  0.000000e+000  -0.000000e+000  1.000000e+000
    outer loop
      vertex -1.750000e+001  8.250000e+001  5.400000e+001
      vertex -1.450000e+001  7.550000e+001  5.400000e+001
      vertex  1.450000e+001  7.550000e+001  5.400000e+001
    endloop
  endfacet
  facet normal  0.000000e+000  -0.000000e+000  9.999999e-001
    outer loop
      vertex -1.750000e+001  8.250000e+001  5.400000e+001
      vertex  1.450000e+001  7.550000e+001  5.400000e+001
      vertex  1.750000e+001  8.250000e+001  5.400000e+001
    endloop
  endfacet
  facet normal  0.000000e+000  0.000000e+000  1.000000e+000
    outer loop
      vertex  1.750000e+001 -1.050000e+001  5.400000e+001
      vertex  1.750000e+001  8.250000e+001  5.400000e+001
      vertex  1.450000e+001  7.550000e+001  5.400000e+001
    endloop
  endfacet
  facet normal  0.000000e+000  0.000000e+000  1.000000e+000
    outer loop
      vertex  1.750000e+001 -1.050000e+001  5.400000e+001
      vertex  1.450000e+001  7.550000e+001  5.400000e+001
      vertex  1.450000e+001  5.550000e+001  5.400000e+001
    endloop
  endfacet
  facet normal  0.000000e+000  0.000000e+000  1.000000e+000
    outer loop
      vertex  1.750000e+001 -1.050000e+001  5.400000e+001
      vertex  1.450000e+001  5.550000e+001  5.400000e+001
      vertex  1.450000e+001  4.950000e+001  5.400000e+001
    endloop
  endfacet
  facet normal  0.000000e+000  0.000000e+000  1.000000e+000
    outer loop
      vertex  1.750000e+001 -1.050000e+001  5.400000e+001
      vertex  1.450000e+001  4.950000e+001  5.400000e+001
      vertex  1.450000e+001 -1.050000e+001  5.400000e+001
    endloop
  endfacet
  facet normal  -0.000000e+000  0.000000e+000  1.000000e+000
    outer loop
      vertex  1.750000e+001 -1.050000e+001  5.400000e+001
      vertex  1.450000e+001 -1.050000e+001  5.400000e+001
      vertex -1.650000e+001 -1.650000e+001  5.400000e+001
    endloop
  endfacet
  facet normal  0.000000e+000  0.000000e+000  1.000000e+000
    outer loop
      vertex  1.750000e+001 -1.050000e+001  5.400000e+001
      vertex -1.650000e+001 -1.650000e+001  5.400000e+001
      vertex  1.650000e+001 -1.650000e+001  5.400000e+001
    endloop
  endfacet
  facet normal  0.000000e+000  0.000000e+000  1.000000e+000
    outer loop
      vertex  1.750000e+001 -1.050000e+001  5.400000e+001
      vertex  1.650000e+001 -1.650000e+001  5.400000e+001
      vertex  1.950000e+001 -1.650000e+001  5.400000e+001
    endloop
  endfacet
  facet normal  0.000000e+000  0.000000e+000  1.000000e+000
    outer loop
      vertex -1.450000e+001  5.550000e+001  5.400000e+001
      vertex -1.450000e+001  4.950000e+001  5.400000e+001
      vertex  1.450000e+001  5.550000e+001  5.400000e+001
    endloop
  endfacet
  facet normal  0.000000e+000  0.000000e+000  1.000000e+000
    outer loop
      vertex  1.450000e+001  5.550000e+001  5.400000e+001
      vertex -1.450000e+001  4.950000e+001  5.400000e+001
      vertex  1.450000e+001  4.950000e+001  5.400000e+001
    endloop
  endfacet
  facet normal  -0.000000e+000  0.000000e+000  1.000000e+000
    outer loop
      vertex  1.950000e+001 -1.650000e+001  5.400000e+001
      vertex  1.650000e+001 -1.650000e+001  5.400000e+001
      vertex  1.950000e+001 -6.250000e+001  5.400000e+001
    endloop
  endfacet
  facet normal  0.000000e+000  0.000000e+000  1.000000e+000
    outer loop
      vertex  1.950000e+001 -6.250000e+001  5.400000e+001
      vertex  1.650000e+001 -1.650000e+001  5.400000e+001
      vertex  1.650000e+001 -5.650000e+001  5.400000e+001
    endloop
  endfacet
  facet normal  0.000000e+000  0.000000e+000  1.000000e+000
    outer loop
      vertex  1.950000e+001 -6.250000e+001  5.400000e+001
      vertex  1.650000e+001 -5.650000e+001  5.400000e+001
      vertex -1.950000e+001 -6.250000e+001  5.400000e+001
    endloop
  endfacet
  facet normal  0.000000e+000  0.000000e+000  1.000000e+000
    outer loop
      vertex -1.950000e+001 -6.250000e+001  5.400000e+001
      vertex  1.650000e+001 -5.650000e+001  5.400000e+001
      vertex -1.650000e+001 -5.650000e+001  5.400000e+001
    endloop
  endfacet
  facet normal -1.000000e+000  0.000000e+000  0.000000e+000
    outer loop
      vertex  2.250000e+001 -6.450000e+001  2.400000e+001
      vertex  2.250000e+001 -6.450000e+001  2.200000e+001
      vertex  2.250000e+001 -8.250000e+001  2.400000e+001
    endloop
  endfacet
  facet normal -1.000000e+000  0.000000e+000  0.000000e+000
    outer loop
      vertex  2.250000e+001 -8.250000e+001  2.400000e+001
      vertex  2.250000e+001 -6.450000e+001  2.200000e+001
      vertex  2.250000e+001 -8.250000e+001  2.200000e+001
    endloop
  endfacet
  facet normal  1.000000e+000  0.000000e+000  0.000000e+000
    outer loop
      vertex -2.250000e+001 -8.250000e+001  2.400000e+001
      vertex -2.250000e+001 -8.250000e+001  2.200000e+001
      vertex -2.250000e+001 -6.450000e+001  2.400000e+001
    endloop
  endfacet
  facet normal  1.000000e+000  0.000000e+000  0.000000e+000
    outer loop
      vertex -2.250000e+001 -6.450000e+001  2.400000e+001
      vertex -2.250000e+001 -8.250000e+001  2.200000e+001
      vertex -2.250000e+001 -6.450000e+001  2.200000e+001
    endloop
  endfacet
  facet normal  0.000000e+000 -1.000000e+000  0.000000e+000
    outer loop
      vertex -2.350000e+001 -8.250000e+001  2.400000e+001
      vertex -2.350000e+001 -8.250000e+001  2.200000e+001
      vertex -2.250000e+001 -8.250000e+001  2.400000e+001
    endloop
  endfacet
  facet normal  0.000000e+000 -1.000000e+000  -0.000000e+000
    outer loop
      vertex -2.250000e+001 -8.250000e+001  2.400000e+001
      vertex -2.350000e+001 -8.250000e+001  2.200000e+001
      vertex -2.250000e+001 -8.250000e+001  2.200000e+001
    endloop
  endfacet
  facet normal  0.000000e+000 -1.000000e+000  0.000000e+000
    outer loop
      vertex  2.250000e+001 -8.250000e+001  2.400000e+001
      vertex  2.250000e+001 -8.250000e+001  2.200000e+001
      vertex  2.350000e+001 -8.250000e+001  2.400000e+001
    endloop
  endfacet
  facet normal  0.000000e+000 -1.000000e+000  -0.000000e+000
    outer loop
      vertex  2.350000e+001 -8.250000e+001  2.400000e+001
      vertex  2.250000e+001 -8.250000e+001  2.200000e+001
      vertex  2.350000e+001 -8.250000e+001  2.200000e+001
    endloop
  endfacet
  facet normal  7.071068e-001 -7.071068e-001  0.000000e+000
    outer loop
      vertex  2.550000e+001 -8.050000e+001  2.200000e+001
      vertex  2.550000e+001 -8.050000e+001  2.400000e+001
      vertex  2.350000e+001 -8.250000e+001  2.200000e+001
    endloop
  endfacet
  facet normal  7.071068e-001 -7.071068e-001  0.000000e+000
    outer loop
      vertex  2.350000e+001 -8.250000e+001  2.200000e+001
      vertex  2.550000e+001 -8.050000e+001  2.400000e+001
      vertex  2.350000e+001 -8.250000e+001  2.400000e+001
    endloop
  endfacet
  facet normal -7.071068e-001 -7.071068e-001  -0.000000e+000
    outer loop
      vertex -2.350000e+001 -8.250000e+001  2.200000e+001
      vertex -2.350000e+001 -8.250000e+001  2.400000e+001
      vertex -2.550000e+001 -8.050000e+001  2.200000e+001
    endloop
  endfacet
  facet normal -7.071068e-001 -7.071068e-001  0.000000e+000
    outer loop
      vertex -2.550000e+001 -8.050000e+001  2.200000e+001
      vertex -2.350000e+001 -8.250000e+001  2.400000e+001
      vertex -2.550000e+001 -8.050000e+001  2.400000e+001
    endloop
  endfacet
  facet normal -7.071068e-001  7.071068e-001  0.000000e+000
    outer loop
      vertex -2.550000e+001  8.050000e+001  2.200000e+001
      vertex -2.550000e+001  8.050000e+001  2.400000e+001
      vertex -2.350000e+001  8.250000e+001  2.200000e+001
    endloop
  endfacet
  facet normal -7.071068e-001  7.071068e-001  0.000000e+000
    outer loop
      vertex -2.350000e+001  8.250000e+001  2.200000e+001
      vertex -2.550000e+001  8.050000e+001  2.400000e+001
      vertex -2.350000e+001  8.250000e+001  2.400000e+001
    endloop
  endfacet
  facet normal  7.071068e-001  7.071068e-001  0.000000e+000
    outer loop
      vertex  2.350000e+001  8.250000e+001  2.200000e+001
      vertex  2.350000e+001  8.250000e+001  2.400000e+001
      vertex  2.550000e+001  8.050000e+001  2.200000e+001
    endloop
  endfacet
  facet normal  7.071068e-001  7.071068e-001  -0.000000e+000
    outer loop
      vertex  2.550000e+001  8.050000e+001  2.200000e+001
      vertex  2.350000e+001  8.250000e+001  2.400000e+001
      vertex  2.550000e+001  8.050000e+001  2.400000e+001
    endloop
  endfacet
endsolid CATIA STL
