solid rideau
facet normal 2.68981608712971e-16 1.0 -3.7629659517982e-31
outer loop
vertex 3.5161364524477 18.0 2.0
vertex 14.0 18.0 0.0
vertex 3.51613645244769 18.0 0.0
endloop
endfacet
facet normal 2.68981608712971e-16 1.0 -3.7629659517982e-31
outer loop
vertex 14.0 18.0 0.0
vertex 3.5161364524477 18.0 2.0
vertex 14.0 18.0 2.0
endloop
endfacet
facet normal -0.386376927204562 0.922340972809926 1.02579325097778e-15
outer loop
vertex 3.5161364524477 18.0 2.0
vertex 3.51613645244769 18.0 0.0
vertex 0.0 16.5270588229537 2.0
endloop
endfacet
facet normal -2.87941328895151e-17 -1.0 0.0
outer loop
vertex 28.0 -7.04991620636974e-16 2.0
vertex 3.51613645244769 0.0 0.0
vertex 28.0 -7.04991620636974e-16 0.0
endloop
endfacet
facet normal -2.87941328895151e-17 -1.0 0.0
outer loop
vertex 3.51613645244769 0.0 0.0
vertex 28.0 -7.04991620636974e-16 2.0
vertex 3.51613645244769 0.0 2.0
endloop
endfacet
facet normal -0.0 -0.0 1.0
outer loop
vertex 17.0 18.0 2.0
vertex 18.0 12.0 2.0
vertex 22.0 18.0 2.0
endloop
endfacet
facet normal -0.0 -0.0 1.0
outer loop
vertex 18.0 12.0 2.0
vertex 17.0 18.0 2.0
vertex 18.0 6.0 2.0
endloop
endfacet
facet normal -0.0 -0.0 1.0
outer loop
vertex 22.0 18.0 2.0
vertex 18.0 12.0 2.0
vertex 20.0 11.9907312547362 2.0
endloop
endfacet
facet normal -0.0 -0.0 1.0
outer loop
vertex 22.0 18.0 2.0
vertex 20.0 11.9907312547362 2.0
vertex 22.0 9.0 2.0
endloop
endfacet
facet normal -0.0 -0.0 1.0
outer loop
vertex 3.51613645244769 0.0 2.0
vertex 0.0 16.5270588229537 2.0
vertex 0.0 1.84225891261476 2.0
endloop
endfacet
facet normal -0.0 -0.0 1.0
outer loop
vertex 0.0 16.5270588229537 2.0
vertex 3.51613645244769 0.0 2.0
vertex 3.5161364524477 18.0 2.0
endloop
endfacet
facet normal -0.0 -0.0 1.0
outer loop
vertex 3.5161364524477 18.0 2.0
vertex 3.51613645244769 0.0 2.0
vertex 5.95093499529083 4.24367778509027 2.0
endloop
endfacet
facet normal -0.0 -0.0 1.0
outer loop
vertex 5.95093499529083 4.24367778509027 2.0
vertex 3.51613645244769 0.0 2.0
vertex 6.12563673405536 3.50617526311104 2.0
endloop
endfacet
facet normal -0.0 -0.0 1.0
outer loop
vertex 6.12563673405536 3.50617526311104 2.0
vertex 3.51613645244769 0.0 2.0
vertex 6.50876922482601 2.85223324582743 2.0
endloop
endfacet
facet normal -0.0 -0.0 1.0
outer loop
vertex 6.50876922482601 2.85223324582743 2.0
vertex 3.51613645244769 0.0 2.0
vertex 7.06669962198279 2.33925728208102 2.0
endloop
endfacet
facet normal -0.0 -0.0 1.0
outer loop
vertex 7.06669962198279 2.33925728208102 2.0
vertex 3.51613645244769 0.0 2.0
vertex 7.75045064647392 2.01227837762324 2.0
endloop
endfacet
facet normal -0.0 -0.0 1.0
outer loop
vertex 7.75045064647392 2.01227837762324 2.0
vertex 3.51613645244769 0.0 2.0
vertex 8.5 1.9 2.0
endloop
endfacet
facet normal -0.0 -0.0 1.0
outer loop
vertex 8.5 1.9 2.0
vertex 3.51613645244769 0.0 2.0
vertex 28.0 -7.04991620636974e-16 2.0
endloop
endfacet
facet normal -0.0 -0.0 1.0
outer loop
vertex 8.5 1.9 2.0
vertex 28.0 -7.04991620636974e-16 2.0
vertex 9.24954935352608 2.01227837762324 2.0
endloop
endfacet
facet normal -0.0 -0.0 1.0
outer loop
vertex 9.24954935352608 2.01227837762324 2.0
vertex 28.0 -7.04991620636974e-16 2.0
vertex 9.93330037801721 2.33925728208102 2.0
endloop
endfacet
facet normal -0.0 -0.0 1.0
outer loop
vertex 9.93330037801721 2.33925728208102 2.0
vertex 28.0 -7.04991620636974e-16 2.0
vertex 10.491230775174 2.85223324582743 2.0
endloop
endfacet
facet normal -0.0 -0.0 1.0
outer loop
vertex 10.491230775174 2.85223324582743 2.0
vertex 28.0 -7.04991620636974e-16 2.0
vertex 10.8743632659446 3.50617526311103 2.0
endloop
endfacet
facet normal -0.0 -0.0 1.0
outer loop
vertex 10.8743632659446 3.50617526311103 2.0
vertex 28.0 -7.04991620636974e-16 2.0
vertex 11.0490650047092 4.24367778509027 2.0
endloop
endfacet
facet normal -0.0 -0.0 1.0
outer loop
vertex 11.0490650047092 4.24367778509027 2.0
vertex 28.0 -7.04991620636974e-16 2.0
vertex 11.0490650047092 5.75632221490973 2.0
endloop
endfacet
facet normal -0.0 -0.0 1.0
outer loop
vertex 11.0490650047092 5.75632221490973 2.0
vertex 28.0 -7.04991620636974e-16 2.0
vertex 18.0 6.0 2.0
endloop
endfacet
facet normal -0.0 -0.0 1.0
outer loop
vertex 11.0490650047092 5.75632221490973 2.0
vertex 18.0 6.0 2.0
vertex 11.0490650047092 12.2436777850903 2.0
endloop
endfacet
facet normal -0.0 -0.0 1.0
outer loop
vertex 11.0490650047092 12.2436777850903 2.0
vertex 18.0 6.0 2.0
vertex 14.0 18.0 2.0
endloop
endfacet
facet normal -0.0 -0.0 1.0
outer loop
vertex 14.0 18.0 2.0
vertex 18.0 6.0 2.0
vertex 17.0 18.0 2.0
endloop
endfacet
facet normal -0.0 -0.0 1.0
outer loop
vertex 18.0 6.0 2.0
vertex 28.0 -7.04991620636974e-16 2.0
vertex 20.0 6.0 2.0
endloop
endfacet
facet normal -0.0 -0.0 1.0
outer loop
vertex 20.0 6.0 2.0
vertex 28.0 -7.04991620636974e-16 2.0
vertex 20.0 11.9907312547362 2.0
endloop
endfacet
facet normal -0.0 -0.0 1.0
outer loop
vertex 20.0 11.9907312547362 2.0
vertex 28.0 -7.04991620636974e-16 2.0
vertex 22.0 9.0 2.0
endloop
endfacet
facet normal -0.0 -0.0 1.0
outer loop
vertex 22.0 9.0 2.0
vertex 28.0 -7.04991620636974e-16 2.0
vertex 26.2679491924311 3.0 2.0
endloop
endfacet
facet normal -0.0 -0.0 1.0
outer loop
vertex 22.0 9.0 2.0
vertex 26.2679491924311 3.0 2.0
vertex 26.0681483474219 3.48236190979496 2.0
endloop
endfacet
facet normal -0.0 -0.0 1.0
outer loop
vertex 22.0 9.0 2.0
vertex 26.0681483474219 3.48236190979496 2.0
vertex 26.0 4.0 2.0
endloop
endfacet
facet normal -0.0 -0.0 1.0
outer loop
vertex 26.2679491924311 3.0 2.0
vertex 28.0 -7.04991620636974e-16 2.0
vertex 26.5857864376269 2.5857864376269 2.0
endloop
endfacet
facet normal -0.0 -0.0 1.0
outer loop
vertex 26.5857864376269 2.5857864376269 2.0
vertex 28.0 -7.04991620636974e-16 2.0
vertex 27.0 2.26794919243112 2.0
endloop
endfacet
facet normal -0.0 -0.0 1.0
outer loop
vertex 27.0 2.26794919243112 2.0
vertex 28.0 -7.04991620636974e-16 2.0
vertex 27.482361909795 2.06814834742186 2.0
endloop
endfacet
facet normal -0.0 -0.0 1.0
outer loop
vertex 27.482361909795 2.06814834742186 2.0
vertex 28.0 -7.04991620636974e-16 2.0
vertex 28.0 2.0 2.0
endloop
endfacet
facet normal -0.0 -0.0 1.0
outer loop
vertex 28.0 2.0 2.0
vertex 28.0 -7.04991620636974e-16 2.0
vertex 29.0638295630546 0.258779922000545 2.0
endloop
endfacet
facet normal -0.0 -0.0 1.0
outer loop
vertex 28.0 2.0 2.0
vertex 29.0638295630546 0.258779922000545 2.0
vertex 28.517638090205 2.06814834742186 2.0
endloop
endfacet
facet normal -0.0 -0.0 1.0
outer loop
vertex 28.517638090205 2.06814834742186 2.0
vertex 29.0638295630546 0.258779922000545 2.0
vertex 29.0 2.26794919243112 2.0
endloop
endfacet
facet normal -0.0 -0.0 1.0
outer loop
vertex 29.0 2.26794919243112 2.0
vertex 29.0638295630546 0.258779922000545 2.0
vertex 29.4142135623731 2.5857864376269 2.0
endloop
endfacet
facet normal -0.0 -0.0 1.0
outer loop
vertex 29.4142135623731 2.5857864376269 2.0
vertex 29.0638295630546 0.258779922000545 2.0
vertex 30.0345361282636 0.765168262624126 2.0
endloop
endfacet
facet normal -0.0 -0.0 1.0
outer loop
vertex 29.4142135623731 2.5857864376269 2.0
vertex 30.0345361282636 0.765168262624126 2.0
vertex 29.7320508075689 3.0 2.0
endloop
endfacet
facet normal -0.0 -0.0 1.0
outer loop
vertex 29.7320508075689 3.0 2.0
vertex 30.0345361282636 0.765168262624126 2.0
vertex 29.9318516525781 3.48236190979496 2.0
endloop
endfacet
facet normal -0.0 -0.0 1.0
outer loop
vertex 29.9318516525781 3.48236190979496 2.0
vertex 30.0345361282636 0.765168262624126 2.0
vertex 30.0 4.0 2.0
endloop
endfacet
facet normal -0.0 -0.0 1.0
outer loop
vertex 22.0 9.0 2.0
vertex 26.2679491924311 5.0 2.0
vertex 28.0 9.0 2.0
endloop
endfacet
facet normal -0.0 -0.0 1.0
outer loop
vertex 26.2679491924311 5.0 2.0
vertex 22.0 9.0 2.0
vertex 26.0681483474219 4.51763809020504 2.0
endloop
endfacet
facet normal -0.0 -0.0 1.0
outer loop
vertex 26.0681483474219 4.51763809020504 2.0
vertex 22.0 9.0 2.0
vertex 26.0 4.0 2.0
endloop
endfacet
facet normal -0.0 -0.0 1.0
outer loop
vertex 28.0 9.0 2.0
vertex 26.2679491924311 5.0 2.0
vertex 26.5857864376269 5.4142135623731 2.0
endloop
endfacet
facet normal -0.0 -0.0 1.0
outer loop
vertex 28.0 9.0 2.0
vertex 26.5857864376269 5.4142135623731 2.0
vertex 27.0 5.73205080756888 2.0
endloop
endfacet
facet normal -0.0 -0.0 1.0
outer loop
vertex 28.0 9.0 2.0
vertex 27.0 5.73205080756888 2.0
vertex 27.482361909795 5.93185165257814 2.0
endloop
endfacet
facet normal -0.0 -0.0 1.0
outer loop
vertex 28.0 9.0 2.0
vertex 27.482361909795 5.93185165257814 2.0
vertex 28.0 6.0 2.0
endloop
endfacet
facet normal -0.0 -0.0 1.0
outer loop
vertex 28.0 9.0 2.0
vertex 28.0 6.0 2.0
vertex 28.517638090205 5.93185165257814 2.0
endloop
endfacet
facet normal -0.0 -0.0 1.0
outer loop
vertex 28.0 9.0 2.0
vertex 28.517638090205 5.93185165257814 2.0
vertex 29.0638295630546 8.74122007799945 2.0
endloop
endfacet
facet normal -0.0 -0.0 1.0
outer loop
vertex 29.0638295630546 8.74122007799945 2.0
vertex 28.517638090205 5.93185165257814 2.0
vertex 29.0 5.73205080756888 2.0
endloop
endfacet
facet normal -0.0 -0.0 1.0
outer loop
vertex 29.0638295630546 8.74122007799945 2.0
vertex 29.0 5.73205080756888 2.0
vertex 29.4142135623731 5.4142135623731 2.0
endloop
endfacet
facet normal -0.0 -0.0 1.0
outer loop
vertex 29.0638295630546 8.74122007799945 2.0
vertex 29.4142135623731 5.4142135623731 2.0
vertex 30.0345361282636 8.23483173737587 2.0
endloop
endfacet
facet normal -0.0 -0.0 1.0
outer loop
vertex 30.0345361282636 8.23483173737587 2.0
vertex 29.4142135623731 5.4142135623731 2.0
vertex 29.7320508075689 5.0 2.0
endloop
endfacet
facet normal -0.0 -0.0 1.0
outer loop
vertex 30.0345361282636 8.23483173737587 2.0
vertex 29.7320508075689 5.0 2.0
vertex 29.9318516525781 4.51763809020504 2.0
endloop
endfacet
facet normal -0.0 -0.0 1.0
outer loop
vertex 30.0345361282636 8.23483173737587 2.0
vertex 29.9318516525781 4.51763809020504 2.0
vertex 30.0 4.0 2.0
endloop
endfacet
facet normal -0.0 -0.0 1.0
outer loop
vertex 30.0345361282636 8.23483173737587 2.0
vertex 30.0 4.0 2.0
vertex 30.0345361282636 0.765168262624126 2.0
endloop
endfacet
facet normal -0.0 -0.0 1.0
outer loop
vertex 30.0345361282636 8.23483173737587 2.0
vertex 30.0345361282636 0.765168262624126 2.0
vertex 30.8554484752853 1.48960135530193 2.0
endloop
endfacet
facet normal -0.0 -0.0 1.0
outer loop
vertex 30.0345361282636 8.23483173737587 2.0
vertex 30.8554484752853 1.48960135530193 2.0
vertex 30.8554484752853 7.51039864469807 2.0
endloop
endfacet
facet normal -0.0 -0.0 1.0
outer loop
vertex 30.8554484752853 7.51039864469807 2.0
vertex 30.8554484752853 1.48960135530193 2.0
vertex 31.4786405818111 2.38978577286504 2.0
endloop
endfacet
facet normal -0.0 -0.0 1.0
outer loop
vertex 30.8554484752853 7.51039864469807 2.0
vertex 31.4786405818111 2.38978577286504 2.0
vertex 31.4786405818111 6.61021422713495 2.0
endloop
endfacet
facet normal -0.0 -0.0 1.0
outer loop
vertex 31.4786405818111 6.61021422713495 2.0
vertex 31.4786405818111 2.38978577286504 2.0
vertex 31.8677296124403 3.41316747755955 2.0
endloop
endfacet
facet normal -0.0 -0.0 1.0
outer loop
vertex 31.4786405818111 6.61021422713495 2.0
vertex 31.8677296124403 3.41316747755955 2.0
vertex 31.8677296124403 5.58683252244044 2.0
endloop
endfacet
facet normal -0.0 -0.0 1.0
outer loop
vertex 31.8677296124403 5.58683252244044 2.0
vertex 31.8677296124403 3.41316747755955 2.0
vertex 32.0 4.5 2.0
endloop
endfacet
facet normal -0.0 -0.0 1.0
outer loop
vertex 6.0 5.0 2.0
vertex 5.95093499529083 5.75632221490973 2.0
vertex 5.95093499529083 4.24367778509027 2.0
endloop
endfacet
facet normal -0.0 -0.0 1.0
outer loop
vertex 6.0 13.0 2.0
vertex 5.97389073140503 13.739120454767 2.0
vertex 5.95093499529083 12.2436777850903 2.0
endloop
endfacet
facet normal -0.0 -0.0 1.0
outer loop
vertex 11.0490650047092 12.2436777850903 2.0
vertex 11.026109268595 13.739120454767 2.0
vertex 11.0 13.0 2.0
endloop
endfacet
facet normal -0.0 -0.0 1.0
outer loop
vertex 3.5161364524477 18.0 2.0
vertex 7.76828804523664 15.8923972313649 2.0
vertex 14.0 18.0 2.0
endloop
endfacet
facet normal -0.0 -0.0 1.0
outer loop
vertex 7.76828804523664 15.8923972313649 2.0
vertex 3.5161364524477 18.0 2.0
vertex 7.09853089611989 15.5786997628247 2.0
endloop
endfacet
facet normal -0.0 -0.0 1.0
outer loop
vertex 7.09853089611989 15.5786997628247 2.0
vertex 3.5161364524477 18.0 2.0
vertex 6.54743758102334 15.0854686824806 2.0
endloop
endfacet
facet normal -0.0 -0.0 1.0
outer loop
vertex 6.54743758102334 15.0854686824806 2.0
vertex 3.5161364524477 18.0 2.0
vertex 6.16166973914488 14.4544663744547 2.0
endloop
endfacet
facet normal -0.0 -0.0 1.0
outer loop
vertex 6.16166973914488 14.4544663744547 2.0
vertex 3.5161364524477 18.0 2.0
vertex 5.97389073140503 13.739120454767 2.0
endloop
endfacet
facet normal -0.0 -0.0 1.0
outer loop
vertex 5.97389073140503 13.739120454767 2.0
vertex 3.5161364524477 18.0 2.0
vertex 5.95093499529083 12.2436777850903 2.0
endloop
endfacet
facet normal -0.0 -0.0 1.0
outer loop
vertex 5.95093499529083 12.2436777850903 2.0
vertex 3.5161364524477 18.0 2.0
vertex 5.95093499529083 5.75632221490973 2.0
endloop
endfacet
facet normal -0.0 -0.0 1.0
outer loop
vertex 5.95093499529083 5.75632221490973 2.0
vertex 3.5161364524477 18.0 2.0
vertex 5.95093499529083 4.24367778509027 2.0
endloop
endfacet
facet normal -0.0 -0.0 1.0
outer loop
vertex 14.0 18.0 2.0
vertex 7.76828804523664 15.8923972313649 2.0
vertex 8.5 16.0 2.0
endloop
endfacet
facet normal -0.0 -0.0 1.0
outer loop
vertex 14.0 18.0 2.0
vertex 8.5 16.0 2.0
vertex 9.23171195476336 15.8923972313649 2.0
endloop
endfacet
facet normal -0.0 -0.0 1.0
outer loop
vertex 14.0 18.0 2.0
vertex 9.23171195476336 15.8923972313649 2.0
vertex 9.90146910388011 15.5786997628247 2.0
endloop
endfacet
facet normal -0.0 -0.0 1.0
outer loop
vertex 14.0 18.0 2.0
vertex 9.90146910388011 15.5786997628247 2.0
vertex 10.4525624189767 15.0854686824806 2.0
endloop
endfacet
facet normal -0.0 -0.0 1.0
outer loop
vertex 14.0 18.0 2.0
vertex 10.4525624189767 15.0854686824806 2.0
vertex 10.8383302608551 14.4544663744547 2.0
endloop
endfacet
facet normal -0.0 -0.0 1.0
outer loop
vertex 14.0 18.0 2.0
vertex 10.8383302608551 14.4544663744547 2.0
vertex 11.026109268595 13.739120454767 2.0
endloop
endfacet
facet normal -0.0 -0.0 1.0
outer loop
vertex 14.0 18.0 2.0
vertex 11.026109268595 13.739120454767 2.0
vertex 11.0490650047092 12.2436777850903 2.0
endloop
endfacet
facet normal -0.0 -0.0 1.0
outer loop
vertex 6.12563673405536 6.49382473688896 2.0
vertex 5.95093499529083 12.2436777850903 2.0
vertex 5.95093499529083 5.75632221490973 2.0
endloop
endfacet
facet normal -0.0 -0.0 1.0
outer loop
vertex 5.95093499529083 12.2436777850903 2.0
vertex 6.12563673405536 6.49382473688896 2.0
vertex 6.12563673405536 11.506175263111 2.0
endloop
endfacet
facet normal -0.0 -0.0 1.0
outer loop
vertex 6.12563673405536 11.506175263111 2.0
vertex 6.12563673405536 6.49382473688896 2.0
vertex 6.50876922482601 7.14776675417257 2.0
endloop
endfacet
facet normal -0.0 -0.0 1.0
outer loop
vertex 6.12563673405536 11.506175263111 2.0
vertex 6.50876922482601 7.14776675417257 2.0
vertex 6.50876922482601 10.8522332458274 2.0
endloop
endfacet
facet normal -0.0 -0.0 1.0
outer loop
vertex 6.50876922482601 10.8522332458274 2.0
vertex 6.50876922482601 7.14776675417257 2.0
vertex 7.06669962198279 7.66074271791898 2.0
endloop
endfacet
facet normal -0.0 -0.0 1.0
outer loop
vertex 6.50876922482601 10.8522332458274 2.0
vertex 7.06669962198279 7.66074271791898 2.0
vertex 7.06669962198279 10.339257282081 2.0
endloop
endfacet
facet normal -0.0 -0.0 1.0
outer loop
vertex 7.06669962198279 10.339257282081 2.0
vertex 7.06669962198279 7.66074271791898 2.0
vertex 7.75045064647392 7.98772162237676 2.0
endloop
endfacet
facet normal -0.0 -0.0 1.0
outer loop
vertex 7.06669962198279 10.339257282081 2.0
vertex 7.75045064647392 7.98772162237676 2.0
vertex 7.75045064647392 10.0122783776232 2.0
endloop
endfacet
facet normal -0.0 -0.0 1.0
outer loop
vertex 7.75045064647392 10.0122783776232 2.0
vertex 7.75045064647392 7.98772162237676 2.0
vertex 8.5 8.1 2.0
endloop
endfacet
facet normal -0.0 -0.0 1.0
outer loop
vertex 7.75045064647392 10.0122783776232 2.0
vertex 8.5 8.1 2.0
vertex 8.5 9.9 2.0
endloop
endfacet
facet normal -0.0 -0.0 1.0
outer loop
vertex 8.5 9.9 2.0
vertex 8.5 8.1 2.0
vertex 9.24954935352608 7.98772162237676 2.0
endloop
endfacet
facet normal -0.0 -0.0 1.0
outer loop
vertex 8.5 9.9 2.0
vertex 9.24954935352608 7.98772162237676 2.0
vertex 9.24954935352608 10.0122783776232 2.0
endloop
endfacet
facet normal -0.0 -0.0 1.0
outer loop
vertex 9.24954935352608 10.0122783776232 2.0
vertex 9.24954935352608 7.98772162237676 2.0
vertex 9.93330037801721 7.66074271791898 2.0
endloop
endfacet
facet normal -0.0 -0.0 1.0
outer loop
vertex 9.24954935352608 10.0122783776232 2.0
vertex 9.93330037801721 7.66074271791898 2.0
vertex 9.93330037801721 10.339257282081 2.0
endloop
endfacet
facet normal -0.0 -0.0 1.0
outer loop
vertex 9.93330037801721 10.339257282081 2.0
vertex 9.93330037801721 7.66074271791898 2.0
vertex 10.491230775174 7.14776675417257 2.0
endloop
endfacet
facet normal -0.0 -0.0 1.0
outer loop
vertex 9.93330037801721 10.339257282081 2.0
vertex 10.491230775174 7.14776675417257 2.0
vertex 10.491230775174 10.8522332458274 2.0
endloop
endfacet
facet normal -0.0 -0.0 1.0
outer loop
vertex 10.491230775174 10.8522332458274 2.0
vertex 10.491230775174 7.14776675417257 2.0
vertex 10.8743632659446 6.49382473688896 2.0
endloop
endfacet
facet normal -0.0 -0.0 1.0
outer loop
vertex 10.491230775174 10.8522332458274 2.0
vertex 10.8743632659446 6.49382473688896 2.0
vertex 10.8743632659446 11.506175263111 2.0
endloop
endfacet
facet normal -0.0 -0.0 1.0
outer loop
vertex 10.8743632659446 11.506175263111 2.0
vertex 10.8743632659446 6.49382473688896 2.0
vertex 11.0490650047092 5.75632221490973 2.0
endloop
endfacet
facet normal -0.0 -0.0 1.0
outer loop
vertex 10.8743632659446 11.506175263111 2.0
vertex 11.0490650047092 5.75632221490973 2.0
vertex 11.0490650047092 12.2436777850903 2.0
endloop
endfacet
facet normal -0.0 -0.0 1.0
outer loop
vertex 11.0490650047092 5.75632221490973 2.0
vertex 11.0 5.0 2.0
vertex 11.0490650047092 4.24367778509027 2.0
endloop
endfacet
facet normal -0.464100524934921 -0.885782536944103 -2.27338689524502e-16
outer loop
vertex 0.0 1.84225891261476 2.0
vertex 3.51613645244769 0.0 0.0
vertex 3.51613645244769 0.0 2.0
endloop
endfacet
facet normal 0.382683432365086 0.923879532511288 0.0
outer loop
vertex 27.0 2.26794919243112 2.0
vertex 27.482361909795 2.06814834742186 0.0
vertex 27.0 2.26794919243112 0.0
endloop
endfacet
facet normal 0.382683432365086 0.923879532511288 0.0
outer loop
vertex 27.482361909795 2.06814834742186 0.0
vertex 27.0 2.26794919243112 2.0
vertex 27.482361909795 2.06814834742186 2.0
endloop
endfacet
facet normal 0.608761429008721 0.793353340291235 0.0
outer loop
vertex 26.5857864376269 2.5857864376269 2.0
vertex 27.0 2.26794919243112 0.0
vertex 26.5857864376269 2.5857864376269 0.0
endloop
endfacet
facet normal 0.608761429008721 0.793353340291235 0.0
outer loop
vertex 27.0 2.26794919243112 0.0
vertex 26.5857864376269 2.5857864376269 2.0
vertex 27.0 2.26794919243112 2.0
endloop
endfacet
facet normal 0.793353340291238 0.608761429008717 0.0
outer loop
vertex 26.2679491924311 3.0 0.0
vertex 26.5857864376269 2.5857864376269 2.0
vertex 26.5857864376269 2.5857864376269 0.0
endloop
endfacet
facet normal 0.793353340291238 0.608761429008717 0.0
outer loop
vertex 26.5857864376269 2.5857864376269 2.0
vertex 26.2679491924311 3.0 0.0
vertex 26.2679491924311 3.0 2.0
endloop
endfacet
facet normal 0.923879532511286 0.382683432365091 0.0
outer loop
vertex 26.0681483474219 3.48236190979496 0.0
vertex 26.2679491924311 3.0 2.0
vertex 26.2679491924311 3.0 0.0
endloop
endfacet
facet normal 0.923879532511286 0.382683432365091 0.0
outer loop
vertex 26.2679491924311 3.0 2.0
vertex 26.0681483474219 3.48236190979496 0.0
vertex 26.0681483474219 3.48236190979496 2.0
endloop
endfacet
facet normal 0.99144486137381 0.130526192220052 0.0
outer loop
vertex 26.0 4.0 0.0
vertex 26.0681483474219 3.48236190979496 2.0
vertex 26.0681483474219 3.48236190979496 0.0
endloop
endfacet
facet normal 0.99144486137381 0.130526192220052 0.0
outer loop
vertex 26.0681483474219 3.48236190979496 2.0
vertex 26.0 4.0 0.0
vertex 26.0 4.0 2.0
endloop
endfacet
facet normal 0.991444861373811 -0.130526192220051 -0.0
outer loop
vertex 26.0681483474219 4.51763809020504 0.0
vertex 26.0 4.0 2.0
vertex 26.0 4.0 0.0
endloop
endfacet
facet normal 0.991444861373811 -0.130526192220051 -0.0
outer loop
vertex 26.0 4.0 2.0
vertex 26.0681483474219 4.51763809020504 0.0
vertex 26.0681483474219 4.51763809020504 2.0
endloop
endfacet
facet normal 0.923879532511286 -0.382683432365091 -0.0
outer loop
vertex 26.2679491924311 5.0 0.0
vertex 26.0681483474219 4.51763809020504 2.0
vertex 26.0681483474219 4.51763809020504 0.0
endloop
endfacet
facet normal 0.923879532511286 -0.382683432365091 -0.0
outer loop
vertex 26.0681483474219 4.51763809020504 2.0
vertex 26.2679491924311 5.0 0.0
vertex 26.2679491924311 5.0 2.0
endloop
endfacet
facet normal 0.793353340291238 -0.608761429008717 -0.0
outer loop
vertex 26.5857864376269 5.4142135623731 0.0
vertex 26.2679491924311 5.0 2.0
vertex 26.2679491924311 5.0 0.0
endloop
endfacet
facet normal 0.793353340291238 -0.608761429008717 -0.0
outer loop
vertex 26.2679491924311 5.0 2.0
vertex 26.5857864376269 5.4142135623731 0.0
vertex 26.5857864376269 5.4142135623731 2.0
endloop
endfacet
facet normal 0.608761429008716 -0.793353340291239 -0.0
outer loop
vertex 27.0 5.73205080756888 2.0
vertex 26.5857864376269 5.4142135623731 0.0
vertex 27.0 5.73205080756888 0.0
endloop
endfacet
facet normal 0.608761429008716 -0.793353340291239 -0.0
outer loop
vertex 26.5857864376269 5.4142135623731 0.0
vertex 27.0 5.73205080756888 2.0
vertex 26.5857864376269 5.4142135623731 2.0
endloop
endfacet
facet normal 0.382683432365089 -0.923879532511287 -0.0
outer loop
vertex 27.482361909795 5.93185165257814 2.0
vertex 27.0 5.73205080756888 0.0
vertex 27.482361909795 5.93185165257814 0.0
endloop
endfacet
facet normal 0.382683432365089 -0.923879532511287 -0.0
outer loop
vertex 27.0 5.73205080756888 0.0
vertex 27.482361909795 5.93185165257814 2.0
vertex 27.0 5.73205080756888 2.0
endloop
endfacet
facet normal 0.130526192220052 -0.99144486137381 -0.0
outer loop
vertex 28.0 6.0 2.0
vertex 27.482361909795 5.93185165257814 0.0
vertex 28.0 6.0 0.0
endloop
endfacet
facet normal 0.130526192220052 -0.99144486137381 -0.0
outer loop
vertex 27.482361909795 5.93185165257814 0.0
vertex 28.0 6.0 2.0
vertex 27.482361909795 5.93185165257814 2.0
endloop
endfacet
facet normal -0.130526192220051 -0.991444861373811 -0.0
outer loop
vertex 28.517638090205 5.93185165257814 2.0
vertex 28.0 6.0 0.0
vertex 28.517638090205 5.93185165257814 0.0
endloop
endfacet
facet normal -0.130526192220051 -0.991444861373811 -0.0
outer loop
vertex 28.0 6.0 0.0
vertex 28.517638090205 5.93185165257814 2.0
vertex 28.0 6.0 2.0
endloop
endfacet
facet normal -0.382683432365091 -0.923879532511286 -0.0
outer loop
vertex 29.0 5.73205080756888 2.0
vertex 28.517638090205 5.93185165257814 0.0
vertex 29.0 5.73205080756888 0.0
endloop
endfacet
facet normal -0.382683432365091 -0.923879532511286 -0.0
outer loop
vertex 28.517638090205 5.93185165257814 0.0
vertex 29.0 5.73205080756888 2.0
vertex 28.517638090205 5.93185165257814 2.0
endloop
endfacet
facet normal -0.608761429008721 -0.793353340291235 -0.0
outer loop
vertex 29.4142135623731 5.4142135623731 2.0
vertex 29.0 5.73205080756888 0.0
vertex 29.4142135623731 5.4142135623731 0.0
endloop
endfacet
facet normal -0.608761429008721 -0.793353340291235 -0.0
outer loop
vertex 29.0 5.73205080756888 0.0
vertex 29.4142135623731 5.4142135623731 2.0
vertex 29.0 5.73205080756888 2.0
endloop
endfacet
facet normal -0.793353340291238 -0.608761429008717 -0.0
outer loop
vertex 29.4142135623731 5.4142135623731 2.0
vertex 29.7320508075689 5.0 0.0
vertex 29.7320508075689 5.0 2.0
endloop
endfacet
facet normal -0.793353340291238 -0.608761429008717 -0.0
outer loop
vertex 29.7320508075689 5.0 0.0
vertex 29.4142135623731 5.4142135623731 2.0
vertex 29.4142135623731 5.4142135623731 0.0
endloop
endfacet
facet normal -0.923879532511286 -0.382683432365091 -0.0
outer loop
vertex 29.7320508075689 5.0 2.0
vertex 29.9318516525781 4.51763809020504 0.0
vertex 29.9318516525781 4.51763809020504 2.0
endloop
endfacet
facet normal -0.923879532511286 -0.382683432365091 -0.0
outer loop
vertex 29.9318516525781 4.51763809020504 0.0
vertex 29.7320508075689 5.0 2.0
vertex 29.7320508075689 5.0 0.0
endloop
endfacet
facet normal -0.99144486137381 -0.130526192220052 -0.0
outer loop
vertex 29.9318516525781 4.51763809020504 2.0
vertex 30.0 4.0 0.0
vertex 30.0 4.0 2.0
endloop
endfacet
facet normal -0.99144486137381 -0.130526192220052 -0.0
outer loop
vertex 30.0 4.0 0.0
vertex 29.9318516525781 4.51763809020504 2.0
vertex 29.9318516525781 4.51763809020504 0.0
endloop
endfacet
facet normal -0.99144486137381 0.130526192220051 -0.0
outer loop
vertex 30.0 4.0 2.0
vertex 29.9318516525781 3.48236190979496 0.0
vertex 29.9318516525781 3.48236190979496 2.0
endloop
endfacet
facet normal -0.99144486137381 0.130526192220051 -0.0
outer loop
vertex 29.9318516525781 3.48236190979496 0.0
vertex 30.0 4.0 2.0
vertex 30.0 4.0 0.0
endloop
endfacet
facet normal -0.923879532511286 0.382683432365091 -0.0
outer loop
vertex 29.9318516525781 3.48236190979496 2.0
vertex 29.7320508075689 3.0 0.0
vertex 29.7320508075689 3.0 2.0
endloop
endfacet
facet normal -0.923879532511286 0.382683432365091 -0.0
outer loop
vertex 29.7320508075689 3.0 0.0
vertex 29.9318516525781 3.48236190979496 2.0
vertex 29.9318516525781 3.48236190979496 0.0
endloop
endfacet
facet normal -0.793353340291237 0.608761429008718 -0.0
outer loop
vertex 29.7320508075689 3.0 2.0
vertex 29.4142135623731 2.5857864376269 0.0
vertex 29.4142135623731 2.5857864376269 2.0
endloop
endfacet
facet normal -0.793353340291237 0.608761429008718 -0.0
outer loop
vertex 29.4142135623731 2.5857864376269 0.0
vertex 29.7320508075689 3.0 2.0
vertex 29.7320508075689 3.0 0.0
endloop
endfacet
facet normal -0.608761429008717 0.793353340291238 -0.0
outer loop
vertex 29.0 2.26794919243112 2.0
vertex 29.4142135623731 2.5857864376269 0.0
vertex 29.0 2.26794919243112 0.0
endloop
endfacet
facet normal -0.608761429008717 0.793353340291238 -0.0
outer loop
vertex 29.4142135623731 2.5857864376269 0.0
vertex 29.0 2.26794919243112 2.0
vertex 29.4142135623731 2.5857864376269 2.0
endloop
endfacet
facet normal -0.38268343236509 0.923879532511287 -0.0
outer loop
vertex 28.517638090205 2.06814834742186 2.0
vertex 29.0 2.26794919243112 0.0
vertex 28.517638090205 2.06814834742186 0.0
endloop
endfacet
facet normal -0.38268343236509 0.923879532511287 -0.0
outer loop
vertex 29.0 2.26794919243112 0.0
vertex 28.517638090205 2.06814834742186 2.0
vertex 29.0 2.26794919243112 2.0
endloop
endfacet
facet normal -0.130526192220052 0.99144486137381 -0.0
outer loop
vertex 28.0 2.0 2.0
vertex 28.517638090205 2.06814834742186 0.0
vertex 28.0 2.0 0.0
endloop
endfacet
facet normal -0.130526192220052 0.99144486137381 -0.0
outer loop
vertex 28.517638090205 2.06814834742186 0.0
vertex 28.0 2.0 2.0
vertex 28.517638090205 2.06814834742186 2.0
endloop
endfacet
facet normal 0.130526192220052 0.99144486137381 0.0
outer loop
vertex 27.482361909795 2.06814834742186 2.0
vertex 28.0 2.0 0.0
vertex 27.482361909795 2.06814834742186 0.0
endloop
endfacet
facet normal 0.130526192220052 0.99144486137381 0.0
outer loop
vertex 28.0 2.0 0.0
vertex 27.482361909795 2.06814834742186 2.0
vertex 28.0 2.0 2.0
endloop
endfacet
facet normal -0.0 1.0 -0.0
outer loop
vertex 22.0 9.0 2.0
vertex 28.0 9.0 0.0
vertex 22.0 9.0 0.0
endloop
endfacet
facet normal -0.0 1.0 -0.0
outer loop
vertex 28.0 9.0 0.0
vertex 22.0 9.0 2.0
vertex 28.0 9.0 2.0
endloop
endfacet
facet normal 1.0 -0.0 -0.0
outer loop
vertex 22.0 12.0 0.0
vertex 22.0 9.0 2.0
vertex 22.0 9.0 0.0
endloop
endfacet
facet normal 1.0 -0.0 -0.0
outer loop
vertex 22.0 9.0 2.0
vertex 22.0 12.0 0.0
vertex 22.0 18.0 2.0
endloop
endfacet
facet normal 1.0 -0.0 -0.0
outer loop
vertex 22.0 18.0 2.0
vertex 22.0 12.0 0.0
vertex 22.0 18.0 0.0
endloop
endfacet
facet normal 0.0 0.0 -1.0
outer loop
vertex 22.0 12.0 0.0
vertex 20.0 6.0 0.0
vertex 20.0 12.0 0.0
endloop
endfacet
facet normal 0.0 0.0 -1.0
outer loop
vertex 20.0 6.0 0.0
vertex 22.0 12.0 0.0
vertex 22.0 6.0 0.0
endloop
endfacet
facet normal 0.0 0.0 -1.0
outer loop
vertex 22.0 6.0 0.0
vertex 22.0 12.0 0.0
vertex 22.0 9.0 0.0
endloop
endfacet
facet normal 0.0 0.0 -1.0
outer loop
vertex 3.51613645244769 18.0 0.0
vertex 5.95093499529083 12.2436777850903 5.30692528132266e-16
vertex 5.95093499529083 5.75632221490973 7.04991620636974e-16
endloop
endfacet
facet normal 0.0 0.0 -1.0
outer loop
vertex 5.95093499529083 12.2436777850903 5.30692528132266e-16
vertex 3.51613645244769 18.0 0.0
vertex 5.97389073140503 13.739120454767 7.04991620636974e-16
endloop
endfacet
facet normal 0.0 0.0 -1.0
outer loop
vertex 5.97389073140503 13.739120454767 7.04991620636974e-16
vertex 3.51613645244769 18.0 0.0
vertex 6.16166973914488 14.4544663744547 7.04991620636974e-16
endloop
endfacet
facet normal 0.0 0.0 -1.0
outer loop
vertex 6.16166973914488 14.4544663744547 7.04991620636974e-16
vertex 3.51613645244769 18.0 0.0
vertex 6.54743758102334 15.0854686824806 7.04991620636974e-16
endloop
endfacet
facet normal 0.0 0.0 -1.0
outer loop
vertex 6.54743758102334 15.0854686824806 7.04991620636974e-16
vertex 3.51613645244769 18.0 0.0
vertex 7.09853089611989 15.5786997628247 7.04991620636974e-16
endloop
endfacet
facet normal 0.0 0.0 -1.0
outer loop
vertex 7.09853089611989 15.5786997628247 7.04991620636974e-16
vertex 3.51613645244769 18.0 0.0
vertex 7.76828804523664 15.8923972313649 7.04991620636974e-16
endloop
endfacet
facet normal 0.0 0.0 -1.0
outer loop
vertex 7.76828804523664 15.8923972313649 7.04991620636974e-16
vertex 3.51613645244769 18.0 0.0
vertex 14.0 18.0 0.0
endloop
endfacet
facet normal 0.0 0.0 -1.0
outer loop
vertex 7.76828804523664 15.8923972313649 7.04991620636974e-16
vertex 14.0 18.0 0.0
vertex 8.5 16.0 7.04991620636974e-16
endloop
endfacet
facet normal 0.0 0.0 -1.0
outer loop
vertex 8.5 16.0 7.04991620636974e-16
vertex 14.0 18.0 0.0
vertex 9.23171195476336 15.8923972313649 7.04991620636974e-16
endloop
endfacet
facet normal 0.0 0.0 -1.0
outer loop
vertex 9.23171195476336 15.8923972313649 7.04991620636974e-16
vertex 14.0 18.0 0.0
vertex 9.90146910388011 15.5786997628247 7.04991620636974e-16
endloop
endfacet
facet normal 0.0 0.0 -1.0
outer loop
vertex 9.90146910388011 15.5786997628247 7.04991620636974e-16
vertex 14.0 18.0 0.0
vertex 10.4525624189767 15.0854686824806 7.04991620636974e-16
endloop
endfacet
facet normal 0.0 0.0 -1.0
outer loop
vertex 10.4525624189767 15.0854686824806 7.04991620636974e-16
vertex 14.0 18.0 0.0
vertex 10.8383302608551 14.4544663744547 7.04991620636974e-16
endloop
endfacet
facet normal 0.0 0.0 -1.0
outer loop
vertex 10.8383302608551 14.4544663744547 7.04991620636974e-16
vertex 14.0 18.0 0.0
vertex 11.026109268595 13.739120454767 7.04991620636974e-16
endloop
endfacet
facet normal 0.0 0.0 -1.0
outer loop
vertex 11.026109268595 13.739120454767 7.04991620636974e-16
vertex 14.0 18.0 0.0
vertex 11.0490650047092 12.2436777850903 5.30692528132267e-16
endloop
endfacet
facet normal 0.0 0.0 -1.0
outer loop
vertex 11.0490650047092 12.2436777850903 5.30692528132267e-16
vertex 14.0 18.0 0.0
vertex 11.0490650047092 5.75632221490973 7.04991620636974e-16
endloop
endfacet
facet normal 0.0 0.0 -1.0
outer loop
vertex 11.0490650047092 5.75632221490973 7.04991620636974e-16
vertex 14.0 18.0 0.0
vertex 11.0490650047092 4.24367778509027 7.04991620636974e-16
endloop
endfacet
facet normal 0.0 0.0 -1.0
outer loop
vertex 22.0 18.0 0.0
vertex 20.0 12.0 0.0
vertex 17.0 18.0 0.0
endloop
endfacet
facet normal 0.0 0.0 -1.0
outer loop
vertex 20.0 12.0 0.0
vertex 22.0 18.0 0.0
vertex 22.0 12.0 0.0
endloop
endfacet
facet normal 0.0 0.0 -1.0
outer loop
vertex 28.0 9.0 0.0
vertex 22.0 6.0 0.0
vertex 22.0 9.0 0.0
endloop
endfacet
facet normal 0.0 0.0 -1.0
outer loop
vertex 22.0 6.0 0.0
vertex 28.0 9.0 0.0
vertex 26.2679491924311 5.0 0.0
endloop
endfacet
facet normal 0.0 0.0 -1.0
outer loop
vertex 22.0 6.0 0.0
vertex 26.2679491924311 5.0 0.0
vertex 26.0681483474219 4.51763809020504 0.0
endloop
endfacet
facet normal 0.0 0.0 -1.0
outer loop
vertex 22.0 6.0 0.0
vertex 26.0681483474219 4.51763809020504 0.0
vertex 26.0 4.0 0.0
endloop
endfacet
facet normal 0.0 0.0 -1.0
outer loop
vertex 26.2679491924311 5.0 0.0
vertex 28.0 9.0 0.0
vertex 26.5857864376269 5.4142135623731 0.0
endloop
endfacet
facet normal 0.0 0.0 -1.0
outer loop
vertex 26.5857864376269 5.4142135623731 0.0
vertex 28.0 9.0 0.0
vertex 27.0 5.73205080756888 0.0
endloop
endfacet
facet normal 0.0 0.0 -1.0
outer loop
vertex 27.0 5.73205080756888 0.0
vertex 28.0 9.0 0.0
vertex 27.482361909795 5.93185165257814 0.0
endloop
endfacet
facet normal 0.0 0.0 -1.0
outer loop
vertex 27.482361909795 5.93185165257814 0.0
vertex 28.0 9.0 0.0
vertex 28.0 6.0 0.0
endloop
endfacet
facet normal 0.0 0.0 -1.0
outer loop
vertex 28.0 6.0 0.0
vertex 28.0 9.0 0.0
vertex 29.0638295630546 8.74122007799945 0.0
endloop
endfacet
facet normal 0.0 0.0 -1.0
outer loop
vertex 28.0 6.0 0.0
vertex 29.0638295630546 8.74122007799945 0.0
vertex 28.517638090205 5.93185165257814 0.0
endloop
endfacet
facet normal 0.0 0.0 -1.0
outer loop
vertex 28.517638090205 5.93185165257814 0.0
vertex 29.0638295630546 8.74122007799945 0.0
vertex 29.0 5.73205080756888 0.0
endloop
endfacet
facet normal 0.0 0.0 -1.0
outer loop
vertex 29.0 5.73205080756888 0.0
vertex 29.0638295630546 8.74122007799945 0.0
vertex 29.4142135623731 5.4142135623731 0.0
endloop
endfacet
facet normal 0.0 0.0 -1.0
outer loop
vertex 29.4142135623731 5.4142135623731 0.0
vertex 29.0638295630546 8.74122007799945 0.0
vertex 30.0345361282636 8.23483173737587 0.0
endloop
endfacet
facet normal 0.0 0.0 -1.0
outer loop
vertex 29.4142135623731 5.4142135623731 0.0
vertex 30.0345361282636 8.23483173737587 0.0
vertex 29.7320508075689 5.0 0.0
endloop
endfacet
facet normal 0.0 0.0 -1.0
outer loop
vertex 29.7320508075689 5.0 0.0
vertex 30.0345361282636 8.23483173737587 0.0
vertex 29.9318516525781 4.51763809020504 0.0
endloop
endfacet
facet normal 0.0 0.0 -1.0
outer loop
vertex 29.9318516525781 4.51763809020504 0.0
vertex 30.0345361282636 8.23483173737587 0.0
vertex 30.0 4.0 0.0
endloop
endfacet
facet normal 0.0 0.0 -1.0
outer loop
vertex 3.51613645244769 0.0 0.0
vertex 8.5 1.9 7.04991620636974e-16
vertex 28.0 -7.04991620636974e-16 0.0
endloop
endfacet
facet normal 0.0 0.0 -1.0
outer loop
vertex 8.5 1.9 7.04991620636974e-16
vertex 3.51613645244769 0.0 0.0
vertex 7.75045064647392 2.01227837762324 7.04991620636974e-16
endloop
endfacet
facet normal 0.0 0.0 -1.0
outer loop
vertex 7.75045064647392 2.01227837762324 7.04991620636974e-16
vertex 3.51613645244769 0.0 0.0
vertex 7.06669962198279 2.33925728208102 7.04991620636974e-16
endloop
endfacet
facet normal 0.0 0.0 -1.0
outer loop
vertex 7.06669962198279 2.33925728208102 7.04991620636974e-16
vertex 3.51613645244769 0.0 0.0
vertex 6.50876922482601 2.85223324582743 7.04991620636974e-16
endloop
endfacet
facet normal 0.0 0.0 -1.0
outer loop
vertex 6.50876922482601 2.85223324582743 7.04991620636974e-16
vertex 3.51613645244769 0.0 0.0
vertex 6.12563673405536 3.50617526311104 7.04991620636974e-16
endloop
endfacet
facet normal 0.0 0.0 -1.0
outer loop
vertex 6.12563673405536 3.50617526311104 7.04991620636974e-16
vertex 3.51613645244769 0.0 0.0
vertex 5.95093499529083 4.24367778509027 7.04991620636974e-16
endloop
endfacet
facet normal 0.0 0.0 -1.0
outer loop
vertex 5.95093499529083 4.24367778509027 7.04991620636974e-16
vertex 3.51613645244769 0.0 0.0
vertex 3.51613645244769 18.0 0.0
endloop
endfacet
facet normal 0.0 0.0 -1.0
outer loop
vertex 5.95093499529083 4.24367778509027 7.04991620636974e-16
vertex 3.51613645244769 18.0 0.0
vertex 5.95093499529083 5.75632221490973 7.04991620636974e-16
endloop
endfacet
facet normal 0.0 0.0 -1.0
outer loop
vertex 28.0 -7.04991620636974e-16 0.0
vertex 8.5 1.9 7.04991620636974e-16
vertex 9.24954935352608 2.01227837762324 7.04991620636974e-16
endloop
endfacet
facet normal 0.0 0.0 -1.0
outer loop
vertex 28.0 -7.04991620636974e-16 0.0
vertex 9.24954935352608 2.01227837762324 7.04991620636974e-16
vertex 9.93330037801721 2.33925728208102 7.04991620636974e-16
endloop
endfacet
facet normal 0.0 0.0 -1.0
outer loop
vertex 28.0 -7.04991620636974e-16 0.0
vertex 9.93330037801721 2.33925728208102 7.04991620636974e-16
vertex 10.491230775174 2.85223324582743 7.04991620636974e-16
endloop
endfacet
facet normal 0.0 0.0 -1.0
outer loop
vertex 28.0 -7.04991620636974e-16 0.0
vertex 10.491230775174 2.85223324582743 7.04991620636974e-16
vertex 10.8743632659446 3.50617526311103 7.04991620636974e-16
endloop
endfacet
facet normal 0.0 0.0 -1.0
outer loop
vertex 28.0 -7.04991620636974e-16 0.0
vertex 10.8743632659446 3.50617526311103 7.04991620636974e-16
vertex 11.0490650047092 4.24367778509027 7.04991620636974e-16
endloop
endfacet
facet normal 0.0 0.0 -1.0
outer loop
vertex 28.0 -7.04991620636974e-16 0.0
vertex 11.0490650047092 4.24367778509027 7.04991620636974e-16
vertex 20.0 6.0 0.0
endloop
endfacet
facet normal 0.0 0.0 -1.0
outer loop
vertex 20.0 6.0 0.0
vertex 11.0490650047092 4.24367778509027 7.04991620636974e-16
vertex 14.0 18.0 0.0
endloop
endfacet
facet normal 0.0 0.0 -1.0
outer loop
vertex 20.0 6.0 0.0
vertex 14.0 18.0 0.0
vertex 17.0 18.0 0.0
endloop
endfacet
facet normal 0.0 0.0 -1.0
outer loop
vertex 20.0 6.0 0.0
vertex 17.0 18.0 0.0
vertex 20.0 12.0 0.0
endloop
endfacet
facet normal 0.0 0.0 -1.0
outer loop
vertex 28.0 -7.04991620636974e-16 0.0
vertex 20.0 6.0 0.0
vertex 22.0 6.0 0.0
endloop
endfacet
facet normal 0.0 0.0 -1.0
outer loop
vertex 28.0 -7.04991620636974e-16 0.0
vertex 22.0 6.0 0.0
vertex 26.2679491924311 3.0 0.0
endloop
endfacet
facet normal 0.0 0.0 -1.0
outer loop
vertex 26.2679491924311 3.0 0.0
vertex 22.0 6.0 0.0
vertex 26.0681483474219 3.48236190979496 0.0
endloop
endfacet
facet normal 0.0 0.0 -1.0
outer loop
vertex 26.0681483474219 3.48236190979496 0.0
vertex 22.0 6.0 0.0
vertex 26.0 4.0 0.0
endloop
endfacet
facet normal 0.0 0.0 -1.0
outer loop
vertex 28.0 -7.04991620636974e-16 0.0
vertex 26.2679491924311 3.0 0.0
vertex 26.5857864376269 2.5857864376269 0.0
endloop
endfacet
facet normal 0.0 0.0 -1.0
outer loop
vertex 28.0 -7.04991620636974e-16 0.0
vertex 26.5857864376269 2.5857864376269 0.0
vertex 27.0 2.26794919243112 0.0
endloop
endfacet
facet normal 0.0 0.0 -1.0
outer loop
vertex 28.0 -7.04991620636974e-16 0.0
vertex 27.0 2.26794919243112 0.0
vertex 27.482361909795 2.06814834742186 0.0
endloop
endfacet
facet normal 0.0 0.0 -1.0
outer loop
vertex 28.0 -7.04991620636974e-16 0.0
vertex 27.482361909795 2.06814834742186 0.0
vertex 28.0 2.0 0.0
endloop
endfacet
facet normal 0.0 0.0 -1.0
outer loop
vertex 28.0 -7.04991620636974e-16 0.0
vertex 28.0 2.0 0.0
vertex 29.0638295630546 0.258779922000545 0.0
endloop
endfacet
facet normal 0.0 0.0 -1.0
outer loop
vertex 29.0638295630546 0.258779922000545 0.0
vertex 28.0 2.0 0.0
vertex 28.517638090205 2.06814834742186 0.0
endloop
endfacet
facet normal 0.0 0.0 -1.0
outer loop
vertex 29.0638295630546 0.258779922000545 0.0
vertex 28.517638090205 2.06814834742186 0.0
vertex 29.0 2.26794919243112 0.0
endloop
endfacet
facet normal 0.0 0.0 -1.0
outer loop
vertex 29.0638295630546 0.258779922000545 0.0
vertex 29.0 2.26794919243112 0.0
vertex 29.4142135623731 2.5857864376269 0.0
endloop
endfacet
facet normal 0.0 0.0 -1.0
outer loop
vertex 29.0638295630546 0.258779922000545 0.0
vertex 29.4142135623731 2.5857864376269 0.0
vertex 30.0345361282636 0.765168262624126 0.0
endloop
endfacet
facet normal 0.0 0.0 -1.0
outer loop
vertex 30.0345361282636 0.765168262624126 0.0
vertex 29.4142135623731 2.5857864376269 0.0
vertex 29.7320508075689 3.0 0.0
endloop
endfacet
facet normal 0.0 0.0 -1.0
outer loop
vertex 30.0345361282636 0.765168262624126 0.0
vertex 29.7320508075689 3.0 0.0
vertex 29.9318516525781 3.48236190979496 0.0
endloop
endfacet
facet normal 0.0 0.0 -1.0
outer loop
vertex 30.0345361282636 0.765168262624126 0.0
vertex 29.9318516525781 3.48236190979496 0.0
vertex 30.0 4.0 0.0
endloop
endfacet
facet normal 0.0 0.0 -1.0
outer loop
vertex 30.0345361282636 0.765168262624126 0.0
vertex 30.0 4.0 0.0
vertex 30.0345361282636 8.23483173737587 0.0
endloop
endfacet
facet normal 0.0 0.0 -1.0
outer loop
vertex 30.0345361282636 0.765168262624126 0.0
vertex 30.0345361282636 8.23483173737587 0.0
vertex 30.8554484752853 7.51039864469807 0.0
endloop
endfacet
facet normal 0.0 0.0 -1.0
outer loop
vertex 30.0345361282636 0.765168262624126 0.0
vertex 30.8554484752853 7.51039864469807 0.0
vertex 30.8554484752853 1.48960135530193 0.0
endloop
endfacet
facet normal 0.0 0.0 -1.0
outer loop
vertex 30.8554484752853 1.48960135530193 0.0
vertex 30.8554484752853 7.51039864469807 0.0
vertex 31.4786405818111 6.61021422713495 0.0
endloop
endfacet
facet normal 0.0 0.0 -1.0
outer loop
vertex 30.8554484752853 1.48960135530193 0.0
vertex 31.4786405818111 6.61021422713495 0.0
vertex 31.4786405818111 2.38978577286504 0.0
endloop
endfacet
facet normal 0.0 0.0 -1.0
outer loop
vertex 31.4786405818111 2.38978577286504 0.0
vertex 31.4786405818111 6.61021422713495 0.0
vertex 31.8677296124403 3.41316747755955 0.0
endloop
endfacet
facet normal 0.0 0.0 -1.0
outer loop
vertex 31.8677296124403 3.41316747755955 0.0
vertex 31.4786405818111 6.61021422713495 0.0
vertex 31.8677296124403 5.58683252244044 0.0
endloop
endfacet
facet normal 0.0 0.0 -1.0
outer loop
vertex 31.8677296124403 3.41316747755955 0.0
vertex 31.8677296124403 5.58683252244044 0.0
vertex 32.0 4.5 0.0
endloop
endfacet
facet normal 0.0 0.0 -1.0
outer loop
vertex 11.0490650047092 4.24367778509027 7.04991620636974e-16
vertex 11.0 5.0 7.04991620636974e-16
vertex 11.0490650047092 5.75632221490973 7.04991620636974e-16
endloop
endfacet
facet normal 0.0 0.0 -1.0
outer loop
vertex 5.95093499529083 12.2436777850903 5.30692528132266e-16
vertex 6.12563673405536 6.49382473688896 7.04991620636974e-16
vertex 5.95093499529083 5.75632221490973 7.04991620636974e-16
endloop
endfacet
facet normal 0.0 0.0 -1.0
outer loop
vertex 6.12563673405536 6.49382473688896 7.04991620636974e-16
vertex 5.95093499529083 12.2436777850903 5.30692528132266e-16
vertex 6.12563673405536 11.506175263111 3.60730549273487e-16
endloop
endfacet
facet normal 0.0 0.0 -1.0
outer loop
vertex 6.12563673405536 6.49382473688896 7.04991620636974e-16
vertex 6.12563673405536 11.506175263111 3.60730549273487e-16
vertex 6.50876922482601 7.14776675417257 7.04991620636974e-16
endloop
endfacet
facet normal 0.0 0.0 -1.0
outer loop
vertex 6.50876922482601 7.14776675417257 7.04991620636974e-16
vertex 6.12563673405536 11.506175263111 3.60730549273487e-16
vertex 6.50876922482601 10.8522332458274 2.10025601149183e-16
endloop
endfacet
facet normal 0.0 0.0 -1.0
outer loop
vertex 6.50876922482601 7.14776675417257 7.04991620636974e-16
vertex 6.50876922482601 10.8522332458274 2.10025601149183e-16
vertex 7.06669962198279 7.66074271791898 7.04991620636974e-16
endloop
endfacet
facet normal 0.0 0.0 -1.0
outer loop
vertex 7.06669962198279 7.66074271791898 7.04991620636974e-16
vertex 6.50876922482601 10.8522332458274 2.10025601149183e-16
vertex 7.06669962198279 10.339257282081 9.180714452432e-17
endloop
endfacet
facet normal 0.0 0.0 -1.0
outer loop
vertex 7.06669962198279 7.66074271791898 7.04991620636974e-16
vertex 7.06669962198279 10.339257282081 9.180714452432e-17
vertex 7.75045064647392 7.98772162237676 7.04991620636974e-16
endloop
endfacet
facet normal 0.0 0.0 -1.0
outer loop
vertex 7.75045064647392 7.98772162237676 7.04991620636974e-16
vertex 7.06669962198279 10.339257282081 9.180714452432e-17
vertex 7.75045064647392 10.0122783776232 1.64528508229547e-17
endloop
endfacet
facet normal 0.0 0.0 -1.0
outer loop
vertex 7.75045064647392 7.98772162237676 7.04991620636974e-16
vertex 7.75045064647392 10.0122783776232 1.64528508229547e-17
vertex 8.5 8.1 7.04991620636974e-16
endloop
endfacet
facet normal 0.0 0.0 -1.0
outer loop
vertex 8.5 8.1 7.04991620636974e-16
vertex 7.75045064647392 10.0122783776232 1.64528508229547e-17
vertex 8.5 9.9 -9.42238983749132e-18
endloop
endfacet
facet normal 0.0 0.0 -1.0
outer loop
vertex 8.5 8.1 7.04991620636974e-16
vertex 8.5 9.9 -9.42238983749132e-18
vertex 9.24954935352608 7.98772162237676 7.04991620636974e-16
endloop
endfacet
facet normal 0.0 0.0 -1.0
outer loop
vertex 9.24954935352608 7.98772162237676 7.04991620636974e-16
vertex 8.5 9.9 -9.42238983749132e-18
vertex 9.24954935352608 10.0122783776232 1.64528508229549e-17
endloop
endfacet
facet normal 0.0 0.0 -1.0
outer loop
vertex 9.24954935352608 7.98772162237676 7.04991620636974e-16
vertex 9.24954935352608 10.0122783776232 1.64528508229549e-17
vertex 9.93330037801721 10.339257282081 9.18071445243204e-17
endloop
endfacet
facet normal 0.0 0.0 -1.0
outer loop
vertex 9.24954935352608 7.98772162237676 7.04991620636974e-16
vertex 9.93330037801721 10.339257282081 9.18071445243204e-17
vertex 9.93330037801721 7.66074271791898 7.04991620636974e-16
endloop
endfacet
facet normal 0.0 0.0 -1.0
outer loop
vertex 9.93330037801721 7.66074271791898 7.04991620636974e-16
vertex 9.93330037801721 10.339257282081 9.18071445243204e-17
vertex 10.491230775174 10.8522332458274 2.10025601149184e-16
endloop
endfacet
facet normal 0.0 0.0 -1.0
outer loop
vertex 9.93330037801721 7.66074271791898 7.04991620636974e-16
vertex 10.491230775174 10.8522332458274 2.10025601149184e-16
vertex 10.491230775174 7.14776675417257 7.04991620636974e-16
endloop
endfacet
facet normal 0.0 0.0 -1.0
outer loop
vertex 10.491230775174 7.14776675417257 7.04991620636974e-16
vertex 10.491230775174 10.8522332458274 2.10025601149184e-16
vertex 10.8743632659446 11.506175263111 3.60730549273488e-16
endloop
endfacet
facet normal 0.0 0.0 -1.0
outer loop
vertex 10.491230775174 7.14776675417257 7.04991620636974e-16
vertex 10.8743632659446 11.506175263111 3.60730549273488e-16
vertex 10.8743632659446 6.49382473688896 7.04991620636974e-16
endloop
endfacet
facet normal 0.0 0.0 -1.0
outer loop
vertex 10.8743632659446 6.49382473688896 7.04991620636974e-16
vertex 10.8743632659446 11.506175263111 3.60730549273488e-16
vertex 11.0490650047092 12.2436777850903 5.30692528132267e-16
endloop
endfacet
facet normal 0.0 0.0 -1.0
outer loop
vertex 10.8743632659446 6.49382473688896 7.04991620636974e-16
vertex 11.0490650047092 12.2436777850903 5.30692528132267e-16
vertex 11.0490650047092 5.75632221490973 7.04991620636974e-16
endloop
endfacet
facet normal 0.0 0.0 -1.0
outer loop
vertex 11.0490650047092 12.2436777850903 5.30692528132267e-16
vertex 11.0 13.0 7.04991620636974e-16
vertex 11.026109268595 13.739120454767 7.04991620636974e-16
endloop
endfacet
facet normal 0.0 0.0 -1.0
outer loop
vertex 6.0 13.0 7.04991620636974e-16
vertex 5.95093499529083 12.2436777850903 5.30692528132266e-16
vertex 5.97389073140503 13.739120454767 7.04991620636974e-16
endloop
endfacet
facet normal 0.0 0.0 -1.0
outer loop
vertex 6.0 5.0 7.04991620636974e-16
vertex 5.95093499529083 4.24367778509027 7.04991620636974e-16
vertex 5.95093499529083 5.75632221490973 7.04991620636974e-16
endloop
endfacet
facet normal -9.39988827515966e-16 1.0 -0.0
outer loop
vertex 14.0 18.0 2.0
vertex 17.0 18.0 0.0
vertex 14.0 18.0 0.0
endloop
endfacet
facet normal -9.39988827515966e-16 1.0 -0.0
outer loop
vertex 17.0 18.0 0.0
vertex 14.0 18.0 2.0
vertex 17.0 18.0 2.0
endloop
endfacet
facet normal -0.0 1.0 -0.0
outer loop
vertex 17.0 18.0 2.0
vertex 22.0 18.0 0.0
vertex 17.0 18.0 0.0
endloop
endfacet
facet normal -0.0 1.0 -0.0
outer loop
vertex 22.0 18.0 0.0
vertex 17.0 18.0 2.0
vertex 22.0 18.0 2.0
endloop
endfacet
facet normal 0.992675499289656 0.120811229238146 -0.0
outer loop
vertex 31.8677296124403 5.58683252244044 0.0
vertex 32.0 4.5 2.0
vertex 32.0 4.5 0.0
endloop
endfacet
facet normal 0.992675499289656 0.120811229238146 -0.0
outer loop
vertex 32.0 4.5 2.0
vertex 31.8677296124403 5.58683252244044 0.0
vertex 31.8677296124403 5.58683252244044 2.0
endloop
endfacet
facet normal 0.934721701546419 0.355380557512884 0.0
outer loop
vertex 31.4786405818111 6.61021422713495 0.0
vertex 31.8677296124403 5.58683252244044 2.0
vertex 31.8677296124403 5.58683252244044 0.0
endloop
endfacet
facet normal 0.934721701546419 0.355380557512884 0.0
outer loop
vertex 31.8677296124403 5.58683252244044 2.0
vertex 31.4786405818111 6.61021422713495 0.0
vertex 31.4786405818111 6.61021422713495 2.0
endloop
endfacet
facet normal 0.822197530628459 0.569202266886267 0.0
outer loop
vertex 30.8554484752853 7.51039864469807 0.0
vertex 31.4786405818111 6.61021422713495 2.0
vertex 31.4786405818111 6.61021422713495 0.0
endloop
endfacet
facet normal 0.822197530628459 0.569202266886267 0.0
outer loop
vertex 31.4786405818111 6.61021422713495 2.0
vertex 30.8554484752853 7.51039864469807 0.0
vertex 30.8554484752853 7.51039864469807 2.0
endloop
endfacet
facet normal 0.661672306567627 0.749793143954702 0.0
outer loop
vertex 30.0345361282636 8.23483173737587 2.0
vertex 30.8554484752853 7.51039864469807 0.0
vertex 30.0345361282636 8.23483173737587 0.0
endloop
endfacet
facet normal 0.661672306567627 0.749793143954702 0.0
outer loop
vertex 30.8554484752853 7.51039864469807 0.0
vertex 30.0345361282636 8.23483173737587 2.0
vertex 30.8554484752853 7.51039864469807 2.0
endloop
endfacet
facet normal 0.462517718676861 0.886610038241138 0.0
outer loop
vertex 29.0638295630546 8.74122007799945 2.0
vertex 30.0345361282636 8.23483173737587 0.0
vertex 29.0638295630546 8.74122007799945 0.0
endloop
endfacet
facet normal 0.462517718676861 0.886610038241138 0.0
outer loop
vertex 30.0345361282636 8.23483173737587 0.0
vertex 29.0638295630546 8.74122007799945 2.0
vertex 30.0345361282636 8.23483173737587 2.0
endloop
endfacet
facet normal 0.236360693091154 0.971665386211462 -0.0
outer loop
vertex 28.0 9.0 2.0
vertex 29.0638295630546 8.74122007799945 0.0
vertex 28.0 9.0 0.0
endloop
endfacet
facet normal 0.236360693091154 0.971665386211462 -0.0
outer loop
vertex 29.0638295630546 8.74122007799945 0.0
vertex 28.0 9.0 2.0
vertex 29.0638295630546 8.74122007799945 2.0
endloop
endfacet
facet normal 0.236360693091151 -0.971665386211463 0.0
outer loop
vertex 29.0638295630546 0.258779922000545 2.0
vertex 28.0 -7.04991620636974e-16 0.0
vertex 29.0638295630546 0.258779922000545 0.0
endloop
endfacet
facet normal 0.236360693091151 -0.971665386211463 0.0
outer loop
vertex 28.0 -7.04991620636974e-16 0.0
vertex 29.0638295630546 0.258779922000545 2.0
vertex 28.0 -7.04991620636974e-16 2.0
endloop
endfacet
facet normal 0.462517718676861 -0.886610038241138 -0.0
outer loop
vertex 30.0345361282636 0.765168262624126 2.0
vertex 29.0638295630546 0.258779922000545 0.0
vertex 30.0345361282636 0.765168262624126 0.0
endloop
endfacet
facet normal 0.462517718676861 -0.886610038241138 -0.0
outer loop
vertex 29.0638295630546 0.258779922000545 0.0
vertex 30.0345361282636 0.765168262624126 2.0
vertex 29.0638295630546 0.258779922000545 2.0
endloop
endfacet
facet normal 0.661672306567627 -0.749793143954702 -0.0
outer loop
vertex 30.8554484752853 1.48960135530193 2.0
vertex 30.0345361282636 0.765168262624126 0.0
vertex 30.8554484752853 1.48960135530193 0.0
endloop
endfacet
facet normal 0.661672306567627 -0.749793143954702 -0.0
outer loop
vertex 30.0345361282636 0.765168262624126 0.0
vertex 30.8554484752853 1.48960135530193 2.0
vertex 30.0345361282636 0.765168262624126 2.0
endloop
endfacet
facet normal 0.822197530628461 -0.569202266886263 -0.0
outer loop
vertex 31.4786405818111 2.38978577286504 0.0
vertex 30.8554484752853 1.48960135530193 2.0
vertex 30.8554484752853 1.48960135530193 0.0
endloop
endfacet
facet normal 0.822197530628461 -0.569202266886263 -0.0
outer loop
vertex 30.8554484752853 1.48960135530193 2.0
vertex 31.4786405818111 2.38978577286504 0.0
vertex 31.4786405818111 2.38978577286504 2.0
endloop
endfacet
facet normal 0.934721701546417 -0.355380557512889 -0.0
outer loop
vertex 31.8677296124403 3.41316747755955 0.0
vertex 31.4786405818111 2.38978577286504 2.0
vertex 31.4786405818111 2.38978577286504 0.0
endloop
endfacet
facet normal 0.934721701546417 -0.355380557512889 -0.0
outer loop
vertex 31.4786405818111 2.38978577286504 2.0
vertex 31.8677296124403 3.41316747755955 0.0
vertex 31.8677296124403 3.41316747755955 2.0
endloop
endfacet
facet normal 0.992675499289656 -0.120811229238146 -0.0
outer loop
vertex 32.0 4.5 0.0
vertex 31.8677296124403 3.41316747755955 2.0
vertex 31.8677296124403 3.41316747755955 0.0
endloop
endfacet
facet normal 0.992675499289656 -0.120811229238146 -0.0
outer loop
vertex 31.8677296124403 3.41316747755955 2.0
vertex 32.0 4.5 0.0
vertex 32.0 4.5 2.0
endloop
endfacet
facet normal -0.997902355860928 -0.0647370694981563 -1.65649830357407e-19
outer loop
vertex 11.0 5.0 2.0
vertex 11.0490650047092 4.24367778509027 7.04991620636974e-16
vertex 11.0490650047092 4.24367778509027 2.0
endloop
endfacet
facet normal -0.997902355860928 -0.0647370694981563 -1.65649830357407e-19
outer loop
vertex 11.0490650047092 4.24367778509027 7.04991620636974e-16
vertex 11.0 5.0 2.0
vertex 11.0 5.0 7.04991620636974e-16
endloop
endfacet
facet normal -0.973071383635461 0.230503974694083 -0.0
outer loop
vertex 11.0490650047092 4.24367778509027 2.0
vertex 10.8743632659446 3.50617526311103 7.04991620636974e-16
vertex 10.8743632659446 3.50617526311103 2.0
endloop
endfacet
facet normal -0.973071383635461 0.230503974694083 -0.0
outer loop
vertex 10.8743632659446 3.50617526311103 7.04991620636974e-16
vertex 11.0490650047092 4.24367778509027 2.0
vertex 11.0490650047092 4.24367778509027 7.04991620636974e-16
endloop
endfacet
facet normal -0.862820457708811 0.505510492234492 -0.0
outer loop
vertex 10.8743632659446 3.50617526311103 2.0
vertex 10.491230775174 2.85223324582743 7.04991620636974e-16
vertex 10.491230775174 2.85223324582743 2.0
endloop
endfacet
facet normal -0.862820457708811 0.505510492234492 -0.0
outer loop
vertex 10.491230775174 2.85223324582743 7.04991620636974e-16
vertex 10.8743632659446 3.50617526311103 2.0
vertex 10.8743632659446 3.50617526311103 7.04991620636974e-16
endloop
endfacet
facet normal -0.676827828974541 0.736141351864986 -0.0
outer loop
vertex 9.93330037801721 2.33925728208102 2.0
vertex 10.491230775174 2.85223324582743 7.04991620636974e-16
vertex 9.93330037801721 2.33925728208102 7.04991620636974e-16
endloop
endfacet
facet normal -0.676827828974541 0.736141351864986 -0.0
outer loop
vertex 10.491230775174 2.85223324582743 7.04991620636974e-16
vertex 9.93330037801721 2.33925728208102 2.0
vertex 10.491230775174 2.85223324582743 2.0
endloop
endfacet
facet normal -0.431420646707027 0.902150888485341 -0.0
outer loop
vertex 9.24954935352608 2.01227837762324 2.0
vertex 9.93330037801721 2.33925728208102 7.04991620636974e-16
vertex 9.24954935352608 2.01227837762324 7.04991620636974e-16
endloop
endfacet
facet normal -0.431420646707027 0.902150888485341 -0.0
outer loop
vertex 9.93330037801721 2.33925728208102 7.04991620636974e-16
vertex 9.24954935352608 2.01227837762324 2.0
vertex 9.93330037801721 2.33925728208102 2.0
endloop
endfacet
facet normal -0.148141698516476 0.988966145608966 -0.0
outer loop
vertex 8.5 1.9 2.0
vertex 9.24954935352608 2.01227837762324 7.04991620636974e-16
vertex 8.5 1.9 7.04991620636974e-16
endloop
endfacet
facet normal -0.148141698516476 0.988966145608966 -0.0
outer loop
vertex 9.24954935352608 2.01227837762324 7.04991620636974e-16
vertex 8.5 1.9 2.0
vertex 9.24954935352608 2.01227837762324 2.0
endloop
endfacet
facet normal 0.148141698516476 0.988966145608966 0.0
outer loop
vertex 7.75045064647392 2.01227837762324 2.0
vertex 8.5 1.9 7.04991620636974e-16
vertex 7.75045064647392 2.01227837762324 7.04991620636974e-16
endloop
endfacet
facet normal 0.148141698516476 0.988966145608966 0.0
outer loop
vertex 8.5 1.9 7.04991620636974e-16
vertex 7.75045064647392 2.01227837762324 2.0
vertex 8.5 1.9 2.0
endloop
endfacet
facet normal 0.431420646707027 0.902150888485341 0.0
outer loop
vertex 7.06669962198279 2.33925728208102 2.0
vertex 7.75045064647392 2.01227837762324 7.04991620636974e-16
vertex 7.06669962198279 2.33925728208102 7.04991620636974e-16
endloop
endfacet
facet normal 0.431420646707027 0.902150888485341 0.0
outer loop
vertex 7.75045064647392 2.01227837762324 7.04991620636974e-16
vertex 7.06669962198279 2.33925728208102 2.0
vertex 7.75045064647392 2.01227837762324 2.0
endloop
endfacet
facet normal 0.676827828974541 0.736141351864986 0.0
outer loop
vertex 6.50876922482601 2.85223324582743 2.0
vertex 7.06669962198279 2.33925728208102 7.04991620636974e-16
vertex 6.50876922482601 2.85223324582743 7.04991620636974e-16
endloop
endfacet
facet normal 0.676827828974541 0.736141351864986 0.0
outer loop
vertex 7.06669962198279 2.33925728208102 7.04991620636974e-16
vertex 6.50876922482601 2.85223324582743 2.0
vertex 7.06669962198279 2.33925728208102 2.0
endloop
endfacet
facet normal 0.862820457708812 0.505510492234491 0.0
outer loop
vertex 6.12563673405536 3.50617526311104 7.04991620636974e-16
vertex 6.50876922482601 2.85223324582743 2.0
vertex 6.50876922482601 2.85223324582743 7.04991620636974e-16
endloop
endfacet
facet normal 0.862820457708812 0.505510492234491 0.0
outer loop
vertex 6.50876922482601 2.85223324582743 2.0
vertex 6.12563673405536 3.50617526311104 7.04991620636974e-16
vertex 6.12563673405536 3.50617526311104 2.0
endloop
endfacet
facet normal 0.97307138363546 0.230503974694084 0.0
outer loop
vertex 5.95093499529083 4.24367778509027 7.04991620636974e-16
vertex 6.12563673405536 3.50617526311104 2.0
vertex 6.12563673405536 3.50617526311104 7.04991620636974e-16
endloop
endfacet
facet normal 0.97307138363546 0.230503974694084 0.0
outer loop
vertex 6.12563673405536 3.50617526311104 2.0
vertex 5.95093499529083 4.24367778509027 7.04991620636974e-16
vertex 5.95093499529083 4.24367778509027 2.0
endloop
endfacet
facet normal 0.997902355860928 -0.0647370694981564 -1.65649830357411e-19
outer loop
vertex 6.0 5.0 7.04991620636974e-16
vertex 5.95093499529083 4.24367778509027 2.0
vertex 5.95093499529083 4.24367778509027 7.04991620636974e-16
endloop
endfacet
facet normal 0.997902355860928 -0.0647370694981564 -1.65649830357411e-19
outer loop
vertex 5.95093499529083 4.24367778509027 2.0
vertex 6.0 5.0 7.04991620636974e-16
vertex 6.0 5.0 2.0
endloop
endfacet
facet normal 0.997902355860928 0.0647370694981564 -1.65649830357411e-19
outer loop
vertex 5.95093499529083 5.75632221490973 7.04991620636974e-16
vertex 6.0 5.0 2.0
vertex 6.0 5.0 7.04991620636974e-16
endloop
endfacet
facet normal 0.997902355860928 0.0647370694981564 -1.65649830357411e-19
outer loop
vertex 6.0 5.0 2.0
vertex 5.95093499529083 5.75632221490973 7.04991620636974e-16
vertex 5.95093499529083 5.75632221490973 2.0
endloop
endfacet
facet normal 0.97307138363546 -0.230503974694084 -0.0
outer loop
vertex 6.12563673405536 6.49382473688896 7.04991620636974e-16
vertex 5.95093499529083 5.75632221490973 2.0
vertex 5.95093499529083 5.75632221490973 7.04991620636974e-16
endloop
endfacet
facet normal 0.97307138363546 -0.230503974694084 -0.0
outer loop
vertex 5.95093499529083 5.75632221490973 2.0
vertex 6.12563673405536 6.49382473688896 7.04991620636974e-16
vertex 6.12563673405536 6.49382473688896 2.0
endloop
endfacet
facet normal 0.862820457708812 -0.505510492234491 -0.0
outer loop
vertex 6.50876922482601 7.14776675417257 7.04991620636974e-16
vertex 6.12563673405536 6.49382473688896 2.0
vertex 6.12563673405536 6.49382473688896 7.04991620636974e-16
endloop
endfacet
facet normal 0.862820457708812 -0.505510492234491 -0.0
outer loop
vertex 6.12563673405536 6.49382473688896 2.0
vertex 6.50876922482601 7.14776675417257 7.04991620636974e-16
vertex 6.50876922482601 7.14776675417257 2.0
endloop
endfacet
facet normal 0.676827828974542 -0.736141351864985 -0.0
outer loop
vertex 7.06669962198279 7.66074271791898 2.0
vertex 6.50876922482601 7.14776675417257 7.04991620636974e-16
vertex 7.06669962198279 7.66074271791898 7.04991620636974e-16
endloop
endfacet
facet normal 0.676827828974542 -0.736141351864985 -0.0
outer loop
vertex 6.50876922482601 7.14776675417257 7.04991620636974e-16
vertex 7.06669962198279 7.66074271791898 2.0
vertex 6.50876922482601 7.14776675417257 2.0
endloop
endfacet
facet normal 0.431420646707026 -0.902150888485342 -0.0
outer loop
vertex 7.75045064647392 7.98772162237676 2.0
vertex 7.06669962198279 7.66074271791898 7.04991620636974e-16
vertex 7.75045064647392 7.98772162237676 7.04991620636974e-16
endloop
endfacet
facet normal 0.431420646707026 -0.902150888485342 -0.0
outer loop
vertex 7.06669962198279 7.66074271791898 7.04991620636974e-16
vertex 7.75045064647392 7.98772162237676 2.0
vertex 7.06669962198279 7.66074271791898 2.0
endloop
endfacet
facet normal 0.148141698516476 -0.988966145608966 -0.0
outer loop
vertex 8.5 8.1 2.0
vertex 7.75045064647392 7.98772162237676 7.04991620636974e-16
vertex 8.5 8.1 7.04991620636974e-16
endloop
endfacet
facet normal 0.148141698516476 -0.988966145608966 -0.0
outer loop
vertex 7.75045064647392 7.98772162237676 7.04991620636974e-16
vertex 8.5 8.1 2.0
vertex 7.75045064647392 7.98772162237676 2.0
endloop
endfacet
facet normal -0.148141698516476 -0.988966145608966 -0.0
outer loop
vertex 9.24954935352608 7.98772162237676 2.0
vertex 8.5 8.1 7.04991620636974e-16
vertex 9.24954935352608 7.98772162237676 7.04991620636974e-16
endloop
endfacet
facet normal -0.148141698516476 -0.988966145608966 -0.0
outer loop
vertex 8.5 8.1 7.04991620636974e-16
vertex 9.24954935352608 7.98772162237676 2.0
vertex 8.5 8.1 2.0
endloop
endfacet
facet normal -0.431420646707026 -0.902150888485342 -0.0
outer loop
vertex 9.93330037801721 7.66074271791898 2.0
vertex 9.24954935352608 7.98772162237676 7.04991620636974e-16
vertex 9.93330037801721 7.66074271791898 7.04991620636974e-16
endloop
endfacet
facet normal -0.431420646707026 -0.902150888485342 -0.0
outer loop
vertex 9.24954935352608 7.98772162237676 7.04991620636974e-16
vertex 9.93330037801721 7.66074271791898 2.0
vertex 9.24954935352608 7.98772162237676 2.0
endloop
endfacet
facet normal -0.676827828974542 -0.736141351864985 -0.0
outer loop
vertex 10.491230775174 7.14776675417257 2.0
vertex 9.93330037801721 7.66074271791898 7.04991620636974e-16
vertex 10.491230775174 7.14776675417257 7.04991620636974e-16
endloop
endfacet
facet normal -0.676827828974542 -0.736141351864985 -0.0
outer loop
vertex 9.93330037801721 7.66074271791898 7.04991620636974e-16
vertex 10.491230775174 7.14776675417257 2.0
vertex 9.93330037801721 7.66074271791898 2.0
endloop
endfacet
facet normal -0.862820457708811 -0.505510492234492 -0.0
outer loop
vertex 10.491230775174 7.14776675417257 2.0
vertex 10.8743632659446 6.49382473688896 7.04991620636974e-16
vertex 10.8743632659446 6.49382473688896 2.0
endloop
endfacet
facet normal -0.862820457708811 -0.505510492234492 -0.0
outer loop
vertex 10.8743632659446 6.49382473688896 7.04991620636974e-16
vertex 10.491230775174 7.14776675417257 2.0
vertex 10.491230775174 7.14776675417257 7.04991620636974e-16
endloop
endfacet
facet normal -0.973071383635461 -0.230503974694083 -0.0
outer loop
vertex 10.8743632659446 6.49382473688896 2.0
vertex 11.0490650047092 5.75632221490973 7.04991620636974e-16
vertex 11.0490650047092 5.75632221490973 2.0
endloop
endfacet
facet normal -0.973071383635461 -0.230503974694083 -0.0
outer loop
vertex 11.0490650047092 5.75632221490973 7.04991620636974e-16
vertex 10.8743632659446 6.49382473688896 2.0
vertex 10.8743632659446 6.49382473688896 7.04991620636974e-16
endloop
endfacet
facet normal -0.997902355860928 0.0647370694981563 -1.65649830357407e-19
outer loop
vertex 11.0490650047092 5.75632221490973 2.0
vertex 11.0 5.0 7.04991620636974e-16
vertex 11.0 5.0 2.0
endloop
endfacet
facet normal -0.997902355860928 0.0647370694981563 -1.65649830357407e-19
outer loop
vertex 11.0 5.0 7.04991620636974e-16
vertex 11.0490650047092 5.75632221490973 2.0
vertex 11.0490650047092 5.75632221490973 7.04991620636974e-16
endloop
endfacet
facet normal -0.997902355860928 -0.0647370694981563 -4.28051624434303e-19
outer loop
vertex 11.0 13.0 2.0
vertex 11.0490650047092 12.2436777850903 5.30692528132267e-16
vertex 11.0490650047092 12.2436777850903 2.0
endloop
endfacet
facet normal -0.997902355860928 -0.0647370694981563 -4.28051624434303e-19
outer loop
vertex 11.0490650047092 12.2436777850903 5.30692528132267e-16
vertex 11.0 13.0 2.0
vertex 11.0 13.0 7.04991620636974e-16
endloop
endfacet
facet normal -0.973071383635461 0.230503974694083 4.20645836712393e-17
outer loop
vertex 11.0490650047092 12.2436777850903 2.0
vertex 10.8743632659446 11.506175263111 3.60730549273488e-16
vertex 10.8743632659446 11.506175263111 2.0
endloop
endfacet
facet normal -0.973071383635461 0.230503974694083 4.20645836712393e-17
outer loop
vertex 10.8743632659446 11.506175263111 3.60730549273488e-16
vertex 11.0490650047092 12.2436777850903 2.0
vertex 11.0490650047092 12.2436777850903 5.30692528132267e-16
endloop
endfacet
facet normal -0.862820457708811 0.505510492234491 9.22504196533185e-17
outer loop
vertex 10.8743632659446 11.506175263111 2.0
vertex 10.491230775174 10.8522332458274 2.10025601149184e-16
vertex 10.491230775174 10.8522332458274 2.0
endloop
endfacet
facet normal -0.862820457708811 0.505510492234491 9.22504196533185e-17
outer loop
vertex 10.491230775174 10.8522332458274 2.10025601149184e-16
vertex 10.8743632659446 11.506175263111 2.0
vertex 10.8743632659446 11.506175263111 3.60730549273488e-16
endloop
endfacet
facet normal -0.676827828974541 0.736141351864986 1.34338158508894e-16
outer loop
vertex 9.93330037801721 10.339257282081 2.0
vertex 10.491230775174 10.8522332458274 2.10025601149184e-16
vertex 9.93330037801721 10.339257282081 9.18071445243204e-17
endloop
endfacet
facet normal -0.676827828974541 0.736141351864986 1.34338158508894e-16
outer loop
vertex 10.491230775174 10.8522332458274 2.10025601149184e-16
vertex 9.93330037801721 10.339257282081 2.0
vertex 10.491230775174 10.8522332458274 2.0
endloop
endfacet
facet normal -0.431420646707027 0.902150888485341 1.646331764263e-16
outer loop
vertex 9.24954935352608 10.0122783776232 2.0
vertex 9.93330037801721 10.339257282081 9.18071445243204e-17
vertex 9.24954935352608 10.0122783776232 1.64528508229549e-17
endloop
endfacet
facet normal -0.431420646707027 0.902150888485341 1.646331764263e-16
outer loop
vertex 9.93330037801721 10.339257282081 9.18071445243204e-17
vertex 9.24954935352608 10.0122783776232 2.0
vertex 9.93330037801721 10.339257282081 2.0
endloop
endfacet
facet normal -0.148141698516476 0.988966145608965 1.80476060055806e-16
outer loop
vertex 8.5 9.9 2.0
vertex 9.24954935352608 10.0122783776232 1.64528508229549e-17
vertex 8.5 9.9 -9.42238983749132e-18
endloop
endfacet
facet normal -0.148141698516476 0.988966145608965 1.80476060055806e-16
outer loop
vertex 9.24954935352608 10.0122783776232 1.64528508229549e-17
vertex 8.5 9.9 2.0
vertex 9.24954935352608 10.0122783776232 2.0
endloop
endfacet
facet normal 0.148141698516476 0.988966145608966 1.80476060055806e-16
outer loop
vertex 7.75045064647392 10.0122783776232 1.64528508229547e-17
vertex 8.5 9.9 2.0
vertex 8.5 9.9 -9.42238983749132e-18
endloop
endfacet
facet normal 0.148141698516476 0.988966145608966 1.80476060055806e-16
outer loop
vertex 8.5 9.9 2.0
vertex 7.75045064647392 10.0122783776232 1.64528508229547e-17
vertex 7.75045064647392 10.0122783776232 2.0
endloop
endfacet
facet normal 0.431420646707026 0.902150888485342 1.646331764263e-16
outer loop
vertex 7.06669962198279 10.339257282081 9.180714452432e-17
vertex 7.75045064647392 10.0122783776232 2.0
vertex 7.75045064647392 10.0122783776232 1.64528508229547e-17
endloop
endfacet
facet normal 0.431420646707026 0.902150888485342 1.646331764263e-16
outer loop
vertex 7.75045064647392 10.0122783776232 2.0
vertex 7.06669962198279 10.339257282081 9.180714452432e-17
vertex 7.06669962198279 10.339257282081 2.0
endloop
endfacet
facet normal 0.676827828974541 0.736141351864986 1.34338158508894e-16
outer loop
vertex 6.50876922482601 10.8522332458274 2.10025601149183e-16
vertex 7.06669962198279 10.339257282081 2.0
vertex 7.06669962198279 10.339257282081 9.180714452432e-17
endloop
endfacet
facet normal 0.676827828974541 0.736141351864986 1.34338158508894e-16
outer loop
vertex 7.06669962198279 10.339257282081 2.0
vertex 6.50876922482601 10.8522332458274 2.10025601149183e-16
vertex 6.50876922482601 10.8522332458274 2.0
endloop
endfacet
facet normal 0.862820457708811 0.505510492234491 9.22504196533185e-17
outer loop
vertex 6.12563673405536 11.506175263111 3.60730549273487e-16
vertex 6.50876922482601 10.8522332458274 2.0
vertex 6.50876922482601 10.8522332458274 2.10025601149183e-16
endloop
endfacet
facet normal 0.862820457708811 0.505510492234491 9.22504196533185e-17
outer loop
vertex 6.50876922482601 10.8522332458274 2.0
vertex 6.12563673405536 11.506175263111 3.60730549273487e-16
vertex 6.12563673405536 11.506175263111 2.0
endloop
endfacet
facet normal 0.97307138363546 0.230503974694084 4.20645836712393e-17
outer loop
vertex 5.95093499529083 12.2436777850903 5.30692528132266e-16
vertex 6.12563673405536 11.506175263111 2.0
vertex 6.12563673405536 11.506175263111 3.60730549273487e-16
endloop
endfacet
facet normal 0.97307138363546 0.230503974694084 4.20645836712393e-17
outer loop
vertex 6.12563673405536 11.506175263111 2.0
vertex 5.95093499529083 12.2436777850903 5.30692528132266e-16
vertex 5.95093499529083 12.2436777850903 2.0
endloop
endfacet
facet normal 0.997902355860929 -0.0647370694981554 -4.28051624434563e-19
outer loop
vertex 6.0 13.0 7.04991620636974e-16
vertex 5.95093499529083 12.2436777850903 2.0
vertex 5.95093499529083 12.2436777850903 5.30692528132266e-16
endloop
endfacet
facet normal 0.997902355860929 -0.0647370694981554 -4.28051624434563e-19
outer loop
vertex 5.95093499529083 12.2436777850903 2.0
vertex 6.0 13.0 7.04991620636974e-16
vertex 6.0 13.0 2.0
endloop
endfacet
facet normal 0.99937666321254 0.0353027623022427 -2.84846731241359e-19
outer loop
vertex 5.97389073140503 13.739120454767 7.04991620636974e-16
vertex 6.0 13.0 2.0
vertex 6.0 13.0 7.04991620636974e-16
endloop
endfacet
facet normal 0.99937666321254 0.0353027623022427 -2.84846731241359e-19
outer loop
vertex 6.0 13.0 2.0
vertex 5.97389073140503 13.739120454767 7.04991620636974e-16
vertex 5.97389073140503 13.739120454767 2.0
endloop
endfacet
facet normal 0.967230731674881 -0.253899018713491 -0.0
outer loop
vertex 6.16166973914488 14.4544663744547 7.04991620636974e-16
vertex 5.97389073140503 13.739120454767 2.0
vertex 5.97389073140503 13.739120454767 7.04991620636974e-16
endloop
endfacet
facet normal 0.967230731674881 -0.253899018713491 -0.0
outer loop
vertex 5.97389073140503 13.739120454767 2.0
vertex 6.16166973914488 14.4544663744547 7.04991620636974e-16
vertex 6.16166973914488 14.4544663744547 2.0
endloop
endfacet
facet normal 0.8531883768162 -0.521602908030369 -0.0
outer loop
vertex 6.54743758102334 15.0854686824806 7.04991620636974e-16
vertex 6.16166973914488 14.4544663744547 2.0
vertex 6.16166973914488 14.4544663744547 7.04991620636974e-16
endloop
endfacet
facet normal 0.8531883768162 -0.521602908030369 -0.0
outer loop
vertex 6.16166973914488 14.4544663744547 2.0
vertex 6.54743758102334 15.0854686824806 7.04991620636974e-16
vertex 6.54743758102334 15.0854686824806 2.0
endloop
endfacet
facet normal 0.666905682406563 -0.745142141321934 -0.0
outer loop
vertex 7.09853089611989 15.5786997628247 2.0
vertex 6.54743758102334 15.0854686824806 7.04991620636974e-16
vertex 7.09853089611989 15.5786997628247 7.04991620636974e-16
endloop
endfacet
facet normal 0.666905682406563 -0.745142141321934 -0.0
outer loop
vertex 6.54743758102334 15.0854686824806 7.04991620636974e-16
vertex 7.09853089611989 15.5786997628247 2.0
vertex 6.54743758102334 15.0854686824806 2.0
endloop
endfacet
facet normal 0.424155396249724 -0.90558942122368 -0.0
outer loop
vertex 7.76828804523664 15.8923972313649 2.0
vertex 7.09853089611989 15.5786997628247 7.04991620636974e-16
vertex 7.76828804523664 15.8923972313649 7.04991620636974e-16
endloop
endfacet
facet normal 0.424155396249724 -0.90558942122368 -0.0
outer loop
vertex 7.09853089611989 15.5786997628247 7.04991620636974e-16
vertex 7.76828804523664 15.8923972313649 2.0
vertex 7.09853089611989 15.5786997628247 2.0
endloop
endfacet
facet normal 0.145491435363989 -0.989359511116018 -0.0
outer loop
vertex 8.5 16.0 2.0
vertex 7.76828804523664 15.8923972313649 7.04991620636974e-16
vertex 8.5 16.0 7.04991620636974e-16
endloop
endfacet
facet normal 0.145491435363989 -0.989359511116018 -0.0
outer loop
vertex 7.76828804523664 15.8923972313649 7.04991620636974e-16
vertex 8.5 16.0 2.0
vertex 7.76828804523664 15.8923972313649 2.0
endloop
endfacet
facet normal -0.14549143536399 -0.989359511116018 -0.0
outer loop
vertex 9.23171195476336 15.8923972313649 2.0
vertex 8.5 16.0 7.04991620636974e-16
vertex 9.23171195476336 15.8923972313649 7.04991620636974e-16
endloop
endfacet
facet normal -0.14549143536399 -0.989359511116018 -0.0
outer loop
vertex 8.5 16.0 7.04991620636974e-16
vertex 9.23171195476336 15.8923972313649 2.0
vertex 8.5 16.0 2.0
endloop
endfacet
facet normal -0.424155396249723 -0.90558942122368 -0.0
outer loop
vertex 9.90146910388011 15.5786997628247 2.0
vertex 9.23171195476336 15.8923972313649 7.04991620636974e-16
vertex 9.90146910388011 15.5786997628247 7.04991620636974e-16
endloop
endfacet
facet normal -0.424155396249723 -0.90558942122368 -0.0
outer loop
vertex 9.23171195476336 15.8923972313649 7.04991620636974e-16
vertex 9.90146910388011 15.5786997628247 2.0
vertex 9.23171195476336 15.8923972313649 2.0
endloop
endfacet
facet normal -0.666905682406563 -0.745142141321934 -0.0
outer loop
vertex 10.4525624189767 15.0854686824806 2.0
vertex 9.90146910388011 15.5786997628247 7.04991620636974e-16
vertex 10.4525624189767 15.0854686824806 7.04991620636974e-16
endloop
endfacet
facet normal -0.666905682406563 -0.745142141321934 -0.0
outer loop
vertex 9.90146910388011 15.5786997628247 7.04991620636974e-16
vertex 10.4525624189767 15.0854686824806 2.0
vertex 9.90146910388011 15.5786997628247 2.0
endloop
endfacet
facet normal -0.853188376816201 -0.521602908030367 -0.0
outer loop
vertex 10.4525624189767 15.0854686824806 2.0
vertex 10.8383302608551 14.4544663744547 7.04991620636974e-16
vertex 10.8383302608551 14.4544663744547 2.0
endloop
endfacet
facet normal -0.853188376816201 -0.521602908030367 -0.0
outer loop
vertex 10.8383302608551 14.4544663744547 7.04991620636974e-16
vertex 10.4525624189767 15.0854686824806 2.0
vertex 10.4525624189767 15.0854686824806 7.04991620636974e-16
endloop
endfacet
facet normal -0.967230731674882 -0.25389901871349 -0.0
outer loop
vertex 10.8383302608551 14.4544663744547 2.0
vertex 11.026109268595 13.739120454767 7.04991620636974e-16
vertex 11.026109268595 13.739120454767 2.0
endloop
endfacet
facet normal -0.967230731674882 -0.25389901871349 -0.0
outer loop
vertex 11.026109268595 13.739120454767 7.04991620636974e-16
vertex 10.8383302608551 14.4544663744547 2.0
vertex 10.8383302608551 14.4544663744547 7.04991620636974e-16
endloop
endfacet
facet normal -0.99937666321254 0.0353027623022428 -2.84846731241369e-19
outer loop
vertex 11.026109268595 13.739120454767 2.0
vertex 11.0 13.0 7.04991620636974e-16
vertex 11.0 13.0 2.0
endloop
endfacet
facet normal -0.99937666321254 0.0353027623022428 -2.84846731241369e-19
outer loop
vertex 11.0 13.0 7.04991620636974e-16
vertex 11.026109268595 13.739120454767 2.0
vertex 11.026109268595 13.739120454767 7.04991620636974e-16
endloop
endfacet
facet normal -0.494419589823428 3.23370914239007e-17 -0.869223371291196
outer loop
vertex 3.51613645244769 18.0 0.0
vertex 0.0 1.84225891261476 2.0
vertex 0.0 16.5270588229537 2.0
endloop
endfacet
facet normal -0.494419589823428 3.23370914239007e-17 -0.869223371291196
outer loop
vertex 0.0 1.84225891261476 2.0
vertex 3.51613645244769 18.0 0.0
vertex 3.51613645244769 0.0 0.0
endloop
endfacet
facet normal -7.04991620636976e-16 -5.6949427467206e-33 1.0
outer loop
vertex 20.0 6.0 8.0
vertex 18.0 12.0 8.0
vertex 18.0 6.0 8.0
endloop
endfacet
facet normal -7.04991620636976e-16 -5.6949427467206e-33 1.0
outer loop
vertex 18.0 12.0 8.0
vertex 20.0 6.0 8.0
vertex 20.0 12.0 8.0
endloop
endfacet
facet normal 1.0 1.02846663999516e-33 4.69994413757983e-16
outer loop
vertex 20.0 11.9907312547362 2.0
vertex 20.0 6.0 8.0
vertex 20.0 6.0 2.0
endloop
endfacet
facet normal 1.0 1.02846663999516e-33 4.69994413757983e-16
outer loop
vertex 20.0 6.0 8.0
vertex 20.0 11.9907312547362 2.0
vertex 20.0 12.0 8.0
endloop
endfacet
facet normal -3.48168090651786e-32 -1.0 1.17498603439496e-16
outer loop
vertex 20.0 6.0 8.0
vertex 18.0 6.0 2.0
vertex 20.0 6.0 2.0
endloop
endfacet
facet normal -3.48168090651786e-32 -1.0 1.17498603439496e-16
outer loop
vertex 18.0 6.0 2.0
vertex 20.0 6.0 8.0
vertex 18.0 6.0 8.0
endloop
endfacet
facet normal -1.0 0.0 0.0
outer loop
vertex 18.0 6.0 8.0
vertex 18.0 12.0 2.0
vertex 18.0 6.0 2.0
endloop
endfacet
facet normal -1.0 0.0 0.0
outer loop
vertex 18.0 12.0 2.0
vertex 18.0 6.0 8.0
vertex 18.0 12.0 8.0
endloop
endfacet
facet normal 0.00231717940387596 0.999997017039779 -0.000772393134625552
outer loop
vertex 18.0 12.0 8.0
vertex 20.0 11.9907312547362 2.0
vertex 18.0 12.0 2.0
endloop
endfacet
facet normal 0.00231717940387596 0.999997017039779 -0.000772393134625552
outer loop
vertex 20.0 11.9907312547362 2.0
vertex 18.0 12.0 8.0
vertex 20.0 12.0 8.0
endloop
endfacet
endsolid rideau
