999
DXF created by Inkscape
  0
SECTION
  2
HEADER
  9
$ACADVER
  1
AC1014
  9
$HANDSEED
  5
FFFF
  9
$MEASUREMENT
 70
     1
  0
ENDSEC
  0
SECTION
  2
TABLES
  0
TABLE
  2
VPORT
  5
8
330
0
100
AcDbSymbolTable
 70
     4
  0
VPORT
  5
2E
330
8
100
AcDbSymbolTableRecord
100
AcDbViewportTableRecord
  2
*ACTIVE
 70
     0
 10
0.0
 20
0.0
 11
1.0
 21
1.0
 12
210.0
 22
148.5
 13
0.0
 23
0.0
 14
10.0
 24
10.0
 15
10.0
 25
10.0
 16
0.0
 26
0.0
 36
1.0
 17
0.0
 27
0.0
 37
0.0
 40
341.0
 41
1.24
 42
50.0
 43
0.0
 44
0.0
 50
0.0
 51
0.0
 71
     0
 72
   100
 73
     1
 74
     3
 75
     0
 76
     0
 77
     0
 78
     0
  0
ENDTAB
  0
TABLE
  2
LTYPE
  5
5
330
0
100
AcDbSymbolTable
 70
     1
  0
LTYPE
  5
14
330
5
100
AcDbSymbolTableRecord
100
AcDbLinetypeTableRecord
  2
BYBLOCK
 70
     0
  3

 72
    65
 73
     0
 40
0.0
  0
LTYPE
  5
15
330
5
100
AcDbSymbolTableRecord
100
AcDbLinetypeTableRecord
  2
BYLAYER
 70
     0
  3

 72
    65
 73
     0
 40
0.0
  0
LTYPE
  5
16
330
5
100
AcDbSymbolTableRecord
100
AcDbLinetypeTableRecord
  2
CONTINUOUS
 70
     0
  3
Solid line
 72
    65
 73
     0
 40
0.0
  0
ENDTAB
  0
TABLE
  2
LAYER
  5
2
100
AcDbSymbolTable
 70
1
  0
LAYER
  5
50
100
AcDbSymbolTableRecord
100
AcDbLayerTableRecord
  2
0
 70
0
  6
CONTINUOUS
  0
ENDTAB
  0
TABLE
  2
STYLE
  5
3
330
0
100
AcDbSymbolTable
 70
     1
  0
STYLE
  5
11
330
3
100
AcDbSymbolTableRecord
100
AcDbTextStyleTableRecord
  2
STANDARD
 70
     0
 40
0.0
 41
1.0
 50
0.0
 71
     0
 42
2.5
  3
txt
  4

  0
ENDTAB
  0
TABLE
  2
VIEW
  5
6
330
0
100
AcDbSymbolTable
 70
     0
  0
ENDTAB
  0
TABLE
  2
UCS
  5
7
330
0
100
AcDbSymbolTable
 70
     0
  0
ENDTAB
  0
TABLE
  2
APPID
  5
9
330
0
100
AcDbSymbolTable
 70
     2
  0
APPID
  5
12
330
9
100
AcDbSymbolTableRecord
100
AcDbRegAppTableRecord
  2
ACAD
 70
     0
  0
ENDTAB
  0
TABLE
  2
DIMSTYLE
  5
A
330
0
100
AcDbSymbolTable
 70
     1
  0
DIMSTYLE
105
27
330
A
100
AcDbSymbolTableRecord
100
AcDbDimStyleTableRecord
  2
ISO-25
 70
     0
  3

  4

  5

  6

  7

 40
1.0
 41
2.5
 42
0.625
 43
3.75
 44
1.25
 45
0.0
 46
0.0
 47
0.0
 48
0.0
140
2.5
141
2.5
142
0.0
143
0.03937007874016
144
1.0
145
0.0
146
1.0
147
0.625
 71
     0
 72
     0
 73
     0
 74
     0
 75
     0
 76
     0
 77
     1
 78
     8
170
     0
171
     3
172
     1
173
     0
174
     0
175
     0
176
     0
177
     0
178
     0
270
     2
271
     2
272
     2
273
     2
274
     3
340
11
275
     0
280
     0
281
     0
282
     0
283
     0
284
     8
285
     0
286
     0
287
     3
288
     0
  0
ENDTAB
  0
TABLE
  2
BLOCK_RECORD
  5
1
330
0
100
AcDbSymbolTable
 70
     1
  0
BLOCK_RECORD
  5
1F
330
1
100
AcDbSymbolTableRecord
100
AcDbBlockTableRecord
  2
*MODEL_SPACE
  0
BLOCK_RECORD
  5
1B
330
1
100
AcDbSymbolTableRecord
100
AcDbBlockTableRecord
  2
*PAPER_SPACE
  0
ENDTAB
  0
ENDSEC
  0
SECTION
  2
BLOCKS
  0
BLOCK
  5
20
330
1F
100
AcDbEntity
  8
0
100
AcDbBlockBegin
  2
*MODEL_SPACE
 70
     0
 10
0.0
 20
0.0
 30
0.0
  3
*MODEL_SPACE
  1

  0
ENDBLK
  5
21
330
1F
100
AcDbEntity
  8
0
100
AcDbBlockEnd
  0
BLOCK
  5
1C
330
1B
100
AcDbEntity
 67
     1
  8
0
100
AcDbBlockBegin
  2
*PAPER_SPACE
  1

  0
ENDBLK
  5
1D
330
1B
100
AcDbEntity
 67
     1
  8
0
100
AcDbBlockEnd
  0
ENDSEC
  0
SECTION
  2
ENTITIES
  0
LWPOLYLINE
  5
100
100
AcDbEntity
  8
0
 62
7
100
AcDbPolyline
 90
981
 70
0
 10
75.626581
 20
1.570160
 30
0.0
 10
75.434512
 20
2.064216
 30
0.0
 10
75.242445
 20
2.558271
 30
0.0
 10
75.122272
 20
3.157993
 30
0.0
 10
75.002099
 20
3.757716
 30
0.0
 10
74.787292
 20
4.110327
 30
0.0
 10
74.572484
 20
4.462938
 30
0.0
 10
74.211674
 20
4.763488
 30
0.0
 10
73.850864
 20
5.064038
 30
0.0
 10
73.544853
 20
5.277321
 30
0.0
 10
73.238845
 20
5.490605
 30
0.0
 10
73.087727
 20
5.526789
 30
0.0
 10
72.936611
 20
5.562973
 30
0.0
 10
72.733972
 20
5.759368
 30
0.0
 10
72.531334
 20
5.955764
 30
0.0
 10
72.105986
 20
6.359864
 30
0.0
 10
71.680637
 20
6.763961
 30
0.0
 10
71.186398
 20
7.572595
 30
0.0
 10
70.692160
 20
8.381227
 30
0.0
 10
70.431575
 20
9.404282
 30
0.0
 10
70.170991
 20
10.427338
 30
0.0
 10
70.028531
 20
10.972916
 30
0.0
 10
69.886071
 20
11.518494
 30
0.0
 10
69.656367
 20
11.226193
 30
0.0
 10
69.426667
 20
10.933890
 30
0.0
 10
68.879920
 20
10.350108
 30
0.0
 10
68.333174
 20
9.766325
 30
0.0
 10
68.014252
 20
9.636554
 30
0.0
 10
67.695329
 20
9.506780
 30
0.0
 10
67.378591
 20
9.560137
 30
0.0
 10
67.061856
 20
9.613494
 30
0.0
 10
66.641204
 20
9.860438
 30
0.0
 10
66.220554
 20
10.107382
 30
0.0
 10
65.989166
 20
10.307292
 30
0.0
 10
65.757778
 20
10.507198
 30
0.0
 10
65.602330
 20
10.758921
 30
0.0
 10
65.446882
 20
11.010643
 30
0.0
 10
65.180862
 20
13.611722
 30
0.0
 10
64.914842
 20
16.212800
 30
0.0
 10
64.624071
 20
16.448281
 30
0.0
 10
64.333301
 20
16.683761
 30
0.0
 10
64.274991
 20
17.299943
 30
0.0
 10
64.216678
 20
17.916124
 30
0.0
 10
64.488949
 20
18.738977
 30
0.0
 10
64.761217
 20
19.561827
 30
0.0
 10
64.905182
 20
20.090994
 30
0.0
 10
65.049143
 20
20.620160
 30
0.0
 10
64.932997
 20
20.867105
 30
0.0
 10
64.816852
 20
21.114049
 30
0.0
 10
64.511205
 20
20.972938
 30
0.0
 10
64.205556
 20
20.831827
 30
0.0
 10
63.854796
 20
20.690716
 30
0.0
 10
63.504039
 20
20.549605
 30
0.0
 10
63.193795
 20
20.307125
 30
0.0
 10
62.883548
 20
20.064643
 30
0.0
 10
62.527711
 20
20.153988
 30
0.0
 10
62.171871
 20
20.243332
 30
0.0
 10
61.948368
 20
21.014978
 30
0.0
 10
61.724862
 20
21.786624
 30
0.0
 10
61.929244
 20
22.273483
 30
0.0
 10
62.133624
 20
22.760345
 30
0.0
 10
62.252369
 20
23.066146
 30
0.0
 10
62.371111
 20
23.371948
 30
0.0
 10
62.632971
 20
24.242133
 30
0.0
 10
62.894831
 20
25.112317
 30
0.0
 10
63.141775
 20
26.131633
 30
0.0
 10
63.388720
 20
27.150949
 30
0.0
 10
62.809360
 20
27.733986
 30
0.0
 10
62.230000
 20
28.317023
 30
0.0
 10
59.832517
 20
31.689238
 30
0.0
 10
57.435033
 20
35.061454
 30
0.0
 10
58.416825
 20
37.236321
 30
0.0
 10
59.398617
 20
39.411190
 30
0.0
 10
59.897086
 20
40.341254
 30
0.0
 10
60.395556
 20
41.271320
 30
0.0
 10
60.889444
 20
42.119209
 30
0.0
 10
61.383333
 20
42.967097
 30
0.0
 10
61.877222
 20
43.754015
 30
0.0
 10
62.371111
 20
44.540935
 30
0.0
 10
61.909373
 20
44.680824
 30
0.0
 10
61.447635
 20
44.820716
 30
0.0
 10
59.644630
 20
46.245475
 30
0.0
 10
57.841628
 20
47.670237
 30
0.0
 10
57.470257
 20
48.221031
 30
0.0
 10
57.098884
 20
48.771827
 30
0.0
 10
56.643140
 20
48.373795
 30
0.0
 10
56.187396
 20
47.975766
 30
0.0
 10
55.473134
 20
47.340766
 30
0.0
 10
54.758869
 20
46.705766
 30
0.0
 10
53.453676
 20
46.633291
 30
0.0
 10
52.148483
 20
46.560819
 30
0.0
 10
51.621780
 20
46.560819
 30
0.0
 10
51.095075
 20
46.560819
 30
0.0
 10
47.553623
 20
47.417781
 30
0.0
 10
44.012169
 20
48.274746
 30
0.0
 10
42.602333
 20
48.919299
 30
0.0
 10
41.192498
 20
49.563855
 30
0.0
 10
39.809047
 20
49.878228
 30
0.0
 10
38.425600
 20
50.192604
 30
0.0
 10
37.627800
 20
49.874988
 30
0.0
 10
36.830000
 20
49.557373
 30
0.0
 10
37.182778
 20
49.044744
 30
0.0
 10
37.535556
 20
48.532116
 30
0.0
 10
37.744843
 20
48.319631
 30
0.0
 10
37.954131
 20
48.107148
 30
0.0
 10
38.080146
 20
47.809827
 30
0.0
 10
38.206158
 20
47.512509
 30
0.0
 10
38.294191
 20
47.295500
 30
0.0
 10
38.382222
 20
47.078494
 30
0.0
 10
38.476264
 20
46.877142
 30
0.0
 10
38.570304
 20
46.675794
 30
0.0
 10
38.696319
 20
46.305738
 30
0.0
 10
38.822331
 20
45.935683
 30
0.0
 10
39.026575
 20
45.607865
 30
0.0
 10
39.230816
 20
45.280049
 30
0.0
 10
40.331791
 20
44.485938
 30
0.0
 10
41.432762
 20
43.691827
 30
0.0
 10
42.729714
 20
42.491059
 30
0.0
 10
44.026667
 20
41.290294
 30
0.0
 10
44.241799
 20
41.027590
 30
0.0
 10
44.456931
 20
40.764886
 30
0.0
 10
44.584758
 20
40.334475
 30
0.0
 10
44.712585
 20
39.904063
 30
0.0
 10
44.740045
 20
39.371798
 30
0.0
 10
44.767506
 20
38.839535
 30
0.0
 10
44.841247
 20
38.337625
 30
0.0
 10
44.914989
 20
37.835716
 30
0.0
 10
45.388033
 20
37.518216
 30
0.0
 10
45.861077
 20
37.200716
 30
0.0
 10
46.778319
 20
36.672687
 30
0.0
 10
47.695561
 20
36.144660
 30
0.0
 10
48.183052
 20
35.828532
 30
0.0
 10
48.670543
 20
35.512403
 30
0.0
 10
49.090910
 20
35.212514
 30
0.0
 10
49.511275
 20
34.912627
 30
0.0
 10
49.634148
 20
34.689511
 30
0.0
 10
49.757020
 20
34.466395
 30
0.0
 10
50.038593
 20
34.102825
 30
0.0
 10
50.320169
 20
33.739257
 30
0.0
 10
50.753337
 20
33.360323
 30
0.0
 10
51.186509
 20
32.981386
 30
0.0
 10
51.578180
 20
32.717345
 30
0.0
 10
51.969853
 20
32.453301
 30
0.0
 10
54.524650
 20
30.694125
 30
0.0
 10
57.079450
 20
28.934949
 30
0.0
 10
57.326395
 20
28.697815
 30
0.0
 10
57.573339
 20
28.460683
 30
0.0
 10
56.620839
 20
28.309621
 30
0.0
 10
55.668339
 20
28.158561
 30
0.0
 10
55.350839
 20
28.033071
 30
0.0
 10
55.033339
 20
27.907581
 30
0.0
 10
54.751117
 20
27.756369
 30
0.0
 10
54.468895
 20
27.605160
 30
0.0
 10
54.186647
 20
27.710994
 30
0.0
 10
53.904402
 20
27.816827
 30
0.0
 10
53.213658
 20
27.922660
 30
0.0
 10
52.522913
 20
28.028494
 30
0.0
 10
51.563445
 20
28.271710
 30
0.0
 10
50.603977
 20
28.514929
 30
0.0
 10
49.777774
 20
28.846554
 30
0.0
 10
48.951574
 20
29.178179
 30
0.0
 10
48.290449
 20
29.428852
 30
0.0
 10
47.629326
 20
29.679525
 30
0.0
 10
47.523493
 20
29.708983
 30
0.0
 10
47.417660
 20
29.738441
 30
0.0
 10
47.225238
 20
29.865834
 30
0.0
 10
47.032819
 20
29.993226
 30
0.0
 10
46.666037
 20
29.743129
 30
0.0
 10
46.299255
 20
29.493032
 30
0.0
 10
46.233602
 20
29.451828
 30
0.0
 10
46.167949
 20
29.410626
 30
0.0
 10
46.034477
 20
29.810165
 30
0.0
 10
45.901006
 20
30.209704
 30
0.0
 10
45.720096
 20
30.298271
 30
0.0
 10
45.539189
 20
30.386838
 30
0.0
 10
45.084653
 20
30.463987
 30
0.0
 10
44.630120
 20
30.541138
 30
0.0
 10
44.314779
 20
30.467060
 30
0.0
 10
43.999441
 20
30.392985
 30
0.0
 10
43.855234
 20
30.586573
 30
0.0
 10
43.711029
 20
30.780160
 30
0.0
 10
43.269129
 20
30.942438
 30
0.0
 10
42.827228
 20
31.104716
 30
0.0
 10
42.506005
 20
31.302895
 30
0.0
 10
42.184783
 20
31.501077
 30
0.0
 10
41.526260
 20
31.301134
 30
0.0
 10
40.867739
 20
31.101194
 30
0.0
 10
39.989537
 20
31.817736
 30
0.0
 10
39.111335
 20
32.534281
 30
0.0
 10
38.595520
 20
33.033053
 30
0.0
 10
38.079708
 20
33.531827
 30
0.0
 10
37.715912
 20
33.955160
 30
0.0
 10
37.352117
 20
34.378494
 30
0.0
 10
37.079815
 20
34.801827
 30
0.0
 10
36.807515
 20
35.225160
 30
0.0
 10
36.527226
 20
35.719049
 30
0.0
 10
36.246940
 20
36.212938
 30
0.0
 10
35.958326
 20
36.706827
 30
0.0
 10
35.669708
 20
37.200716
 30
0.0
 10
35.473747
 20
37.697481
 30
0.0
 10
35.277783
 20
38.194245
 30
0.0
 10
35.277783
 20
38.691007
 30
0.0
 10
35.277783
 20
39.187772
 30
0.0
 10
33.857116
 20
39.170443
 30
0.0
 10
32.436449
 20
39.153115
 30
0.0
 10
31.111904
 20
38.903295
 30
0.0
 10
29.787356
 20
38.653474
 30
0.0
 10
29.723647
 20
37.793086
 30
0.0
 10
29.659936
 20
36.932701
 30
0.0
 10
29.723139
 20
36.476345
 30
0.0
 10
29.786340
 20
36.019988
 30
0.0
 10
30.687453
 20
34.748546
 30
0.0
 10
31.588566
 20
33.477104
 30
0.0
 10
34.612704
 20
28.990234
 30
0.0
 10
37.636842
 20
24.503366
 30
0.0
 10
38.785171
 20
23.113958
 30
0.0
 10
39.933499
 20
21.724549
 30
0.0
 10
39.012766
 20
22.138349
 30
0.0
 10
38.092036
 20
22.552149
 30
0.0
 10
34.361397
 20
25.728086
 30
0.0
 10
30.630760
 20
28.904020
 30
0.0
 10
30.139507
 20
29.524576
 30
0.0
 10
29.648257
 20
30.145132
 30
0.0
 10
28.446981
 20
32.049243
 30
0.0
 10
27.245706
 20
33.953354
 30
0.0
 10
26.605078
 20
34.800910
 30
0.0
 10
25.964444
 20
35.648494
 30
0.0
 10
25.270202
 20
37.432364
 30
0.0
 10
24.575960
 20
39.216231
 30
0.0
 10
24.221090
 20
39.675218
 30
0.0
 10
23.866220
 20
40.134201
 30
0.0
 10
19.694221
 20
43.429250
 30
0.0
 10
15.522222
 20
46.724296
 30
0.0
 10
14.322778
 20
47.568107
 30
0.0
 10
13.123333
 20
48.411915
 30
0.0
 10
12.616001
 20
48.591871
 30
0.0
 10
12.108669
 20
48.771827
 30
0.0
 10
12.660839
 20
51.672707
 30
0.0
 10
13.213010
 20
54.573588
 30
0.0
 10
13.788307
 20
56.598301
 30
0.0
 10
14.363604
 20
58.623014
 30
0.0
 10
14.713048
 20
59.832294
 30
0.0
 10
15.062492
 20
61.041574
 30
0.0
 10
16.403376
 20
64.316381
 30
0.0
 10
17.744260
 20
67.591186
 30
0.0
 10
19.151430
 20
69.123027
 30
0.0
 10
20.558600
 20
70.654867
 30
0.0
 10
21.355108
 20
71.886166
 30
0.0
 10
22.151617
 20
73.117464
 30
0.0
 10
22.078505
 20
73.648615
 30
0.0
 10
22.005393
 20
74.179766
 30
0.0
 10
22.607101
 20
74.092830
 30
0.0
 10
23.208808
 20
74.005892
 30
0.0
 10
25.139132
 20
73.650949
 30
0.0
 10
27.069455
 20
73.296007
 30
0.0
 10
28.458174
 20
73.088105
 30
0.0
 10
29.846891
 20
72.880200
 30
0.0
 10
29.795594
 20
73.268436
 30
0.0
 10
29.744297
 20
73.656670
 30
0.0
 10
29.660032
 20
74.088157
 30
0.0
 10
29.575763
 20
74.519643
 30
0.0
 10
29.215667
 20
74.710725
 30
0.0
 10
28.855568
 20
74.901806
 30
0.0
 10
26.024547
 20
75.792954
 30
0.0
 10
23.193525
 20
76.684101
 30
0.0
 10
21.387795
 20
77.121298
 30
0.0
 10
19.582065
 20
77.558494
 30
0.0
 10
18.709748
 20
77.982191
 30
0.0
 10
17.837429
 20
78.405886
 30
0.0
 10
17.314826
 20
78.919905
 30
0.0
 10
16.792222
 20
79.433925
 30
0.0
 10
14.040556
 20
81.477784
 30
0.0
 10
11.288889
 20
83.521643
 30
0.0
 10
10.374915
 20
84.131348
 30
0.0
 10
9.460941
 20
84.741049
 30
0.0
 10
5.639944
 20
88.361421
 30
0.0
 10
1.818948
 20
91.981793
 30
0.0
 10
1.196723
 20
94.656622
 30
0.0
 10
0.574498
 20
97.331451
 30
0.0
 10
2.798213
 20
103.309220
 30
0.0
 10
5.021929
 20
109.286988
 30
0.0
 10
5.339403
 20
110.345322
 30
0.0
 10
5.656877
 20
111.403655
 30
0.0
 10
4.944360
 20
114.373914
 30
0.0
 10
4.231843
 20
117.344176
 30
0.0
 10
3.820460
 20
122.847410
 30
0.0
 10
3.409077
 20
128.350645
 30
0.0
 10
5.077196
 20
131.431566
 30
0.0
 10
6.745315
 20
134.512485
 30
0.0
 10
7.290570
 20
135.534606
 30
0.0
 10
7.835826
 20
136.556727
 30
0.0
 10
9.130494
 20
142.405944
 30
0.0
 10
10.425162
 20
148.255160
 30
0.0
 10
16.715561
 20
155.587971
 30
0.0
 10
23.005960
 20
162.920782
 30
0.0
 10
25.143326
 20
163.514107
 30
0.0
 10
27.280692
 20
164.107431
 30
0.0
 10
26.586864
 20
163.314707
 30
0.0
 10
25.893037
 20
162.521982
 30
0.0
 10
24.235407
 20
159.927003
 30
0.0
 10
22.577778
 20
157.332024
 30
0.0
 10
22.366111
 20
157.006766
 30
0.0
 10
22.154444
 20
156.681509
 30
0.0
 10
21.942778
 20
156.197700
 30
0.0
 10
21.731111
 20
155.713890
 30
0.0
 10
21.590000
 20
155.441747
 30
0.0
 10
21.448889
 20
155.169604
 30
0.0
 10
21.307778
 20
154.834105
 30
0.0
 10
21.166667
 20
154.498606
 30
0.0
 10
20.948578
 20
153.982109
 30
0.0
 10
20.730490
 20
153.465612
 30
0.0
 10
20.591813
 20
153.077670
 30
0.0
 10
20.453137
 20
152.689728
 30
0.0
 10
20.373245
 20
152.290836
 30
0.0
 10
20.293354
 20
151.891943
 30
0.0
 10
20.219360
 20
151.360096
 30
0.0
 10
20.145366
 20
150.828249
 30
0.0
 10
20.002808
 20
150.400910
 30
0.0
 10
19.860250
 20
149.973571
 30
0.0
 10
19.717203
 20
149.462030
 30
0.0
 10
19.574156
 20
148.950489
 30
0.0
 10
19.390166
 20
148.257579
 30
0.0
 10
19.206176
 20
147.564669
 30
0.0
 10
19.012585
 20
147.008221
 30
0.0
 10
18.818994
 20
146.451773
 30
0.0
 10
18.667411
 20
145.937332
 30
0.0
 10
18.515827
 20
145.422892
 30
0.0
 10
18.520114
 20
144.068872
 30
0.0
 10
18.524401
 20
142.714853
 30
0.0
 10
18.594956
 20
141.472522
 30
0.0
 10
18.665512
 20
140.230191
 30
0.0
 10
18.504978
 20
139.459377
 30
0.0
 10
18.344444
 20
138.688561
 30
0.0
 10
19.075139
 20
138.551135
 30
0.0
 10
19.805834
 20
138.413710
 30
0.0
 10
20.909472
 20
140.821385
 30
0.0
 10
22.013111
 20
143.229060
 30
0.0
 10
22.165767
 20
143.773621
 30
0.0
 10
22.318423
 20
144.318182
 30
0.0
 10
22.397276
 20
144.714565
 30
0.0
 10
22.476129
 20
145.110949
 30
0.0
 10
22.605807
 20
145.686969
 30
0.0
 10
22.735484
 20
146.262990
 30
0.0
 10
22.938853
 20
146.840842
 30
0.0
 10
23.142222
 20
147.418693
 30
0.0
 10
23.432438
 20
147.985271
 30
0.0
 10
23.722653
 20
148.551849
 30
0.0
 10
23.938585
 20
149.110456
 30
0.0
 10
24.154517
 20
149.669063
 30
0.0
 10
24.358191
 20
150.203022
 30
0.0
 10
24.561865
 20
150.736982
 30
0.0
 10
24.839821
 20
151.170745
 30
0.0
 10
25.117778
 20
151.604508
 30
0.0
 10
25.329444
 20
151.975945
 30
0.0
 10
25.541111
 20
152.347382
 30
0.0
 10
25.752778
 20
152.783029
 30
0.0
 10
25.964444
 20
153.218676
 30
0.0
 10
26.246667
 20
153.629696
 30
0.0
 10
26.528889
 20
154.040716
 30
0.0
 10
26.811111
 20
154.313723
 30
0.0
 10
27.093333
 20
154.586729
 30
0.0
 10
28.182849
 20
156.289278
 30
0.0
 10
29.272365
 20
157.991827
 30
0.0
 10
28.959601
 20
152.276827
 30
0.0
 10
28.646840
 20
146.561827
 30
0.0
 10
27.763920
 20
143.386827
 30
0.0
 10
26.881001
 20
140.211827
 30
0.0
 10
26.227185
 20
136.472382
 30
0.0
 10
25.573369
 20
132.732938
 30
0.0
 10
25.776491
 20
130.051827
 30
0.0
 10
25.979614
 20
127.370716
 30
0.0
 10
26.144157
 20
122.641030
 30
0.0
 10
26.308700
 20
117.911344
 30
0.0
 10
26.631771
 20
112.205939
 30
0.0
 10
26.954842
 20
106.500535
 30
0.0
 10
27.228834
 20
104.274676
 30
0.0
 10
27.502827
 20
102.048815
 30
0.0
 10
27.779478
 20
101.737019
 30
0.0
 10
28.056129
 20
101.425220
 30
0.0
 10
28.421398
 20
101.360489
 30
0.0
 10
28.786667
 20
101.295756
 30
0.0
 10
29.162962
 20
101.139348
 30
0.0
 10
29.539260
 20
100.982938
 30
0.0
 10
29.822704
 20
101.075789
 30
0.0
 10
30.106152
 20
101.168637
 30
0.0
 10
30.132709
 20
101.415582
 30
0.0
 10
30.159266
 20
101.662526
 30
0.0
 10
30.433148
 20
102.275874
 30
0.0
 10
30.707031
 20
102.889222
 30
0.0
 10
32.623187
 20
105.379232
 30
0.0
 10
34.539343
 20
107.869242
 30
0.0
 10
35.894247
 20
108.990415
 30
0.0
 10
37.249154
 20
110.111585
 30
0.0
 10
38.318669
 20
110.380317
 30
0.0
 10
39.388184
 20
110.649049
 30
0.0
 10
39.859074
 20
109.908216
 30
0.0
 10
40.329965
 20
109.167382
 30
0.0
 10
41.311350
 20
110.331549
 30
0.0
 10
42.292736
 20
111.495716
 30
0.0
 10
43.432027
 20
113.075232
 30
0.0
 10
44.571319
 20
114.654745
 30
0.0
 10
45.483029
 20
114.427666
 30
0.0
 10
46.394740
 20
114.200584
 30
0.0
 10
47.630263
 20
114.373155
 30
0.0
 10
48.865787
 20
114.545722
 30
0.0
 10
51.176902
 20
115.661073
 30
0.0
 10
53.488020
 20
116.776421
 30
0.0
 10
54.204531
 20
116.070865
 30
0.0
 10
54.921043
 20
115.365310
 30
0.0
 10
56.247182
 20
115.305888
 30
0.0
 10
57.573322
 20
115.246466
 30
0.0
 10
57.008878
 20
115.859616
 30
0.0
 10
56.444433
 20
116.472767
 30
0.0
 10
56.092491
 20
117.951306
 30
0.0
 10
55.740548
 20
119.429846
 30
0.0
 10
57.658313
 20
118.934825
 30
0.0
 10
59.576081
 20
118.439802
 30
0.0
 10
60.281637
 20
117.900275
 30
0.0
 10
60.987192
 20
117.360748
 30
0.0
 10
61.577457
 20
118.011123
 30
0.0
 10
62.167719
 20
118.661496
 30
0.0
 10
62.802719
 20
119.232906
 30
0.0
 10
63.437719
 20
119.804313
 30
0.0
 10
64.148502
 20
119.584433
 30
0.0
 10
64.859287
 20
119.364554
 30
0.0
 10
64.949680
 20
119.688666
 30
0.0
 10
65.040070
 20
120.012776
 30
0.0
 10
64.201802
 20
120.521061
 30
0.0
 10
63.363534
 20
121.029343
 30
0.0
 10
62.373428
 20
121.587703
 30
0.0
 10
61.383322
 20
122.146060
 30
0.0
 10
60.713044
 20
122.551673
 30
0.0
 10
60.042766
 20
122.957285
 30
0.0
 10
59.795822
 20
123.047334
 30
0.0
 10
59.548878
 20
123.137382
 30
0.0
 10
59.266655
 20
123.278494
 30
0.0
 10
58.984433
 20
123.419605
 30
0.0
 10
58.702211
 20
123.587600
 30
0.0
 10
58.419989
 20
123.755596
 30
0.0
 10
57.788116
 20
123.939038
 30
0.0
 10
57.156243
 20
124.122479
 30
0.0
 10
51.649782
 20
125.012348
 30
0.0
 10
46.143322
 20
125.902215
 30
0.0
 10
42.763711
 20
125.565487
 30
0.0
 10
39.384100
 20
125.228759
 30
0.0
 10
38.890211
 20
125.103393
 30
0.0
 10
38.396322
 20
124.978025
 30
0.0
 10
38.662666
 20
125.265194
 30
0.0
 10
38.929011
 20
125.552361
 30
0.0
 10
39.726605
 20
125.770651
 30
0.0
 10
40.524199
 20
125.988942
 30
0.0
 10
40.791675
 20
126.019275
 30
0.0
 10
41.059148
 20
126.049605
 30
0.0
 10
43.892072
 20
126.303667
 30
0.0
 10
46.724996
 20
126.557730
 30
0.0
 10
52.409691
 20
125.754418
 30
0.0
 10
58.094383
 20
124.951103
 30
0.0
 10
59.476157
 20
124.749800
 30
0.0
 10
60.857929
 20
124.548494
 30
0.0
 10
61.635440
 20
125.150948
 30
0.0
 10
62.412951
 20
125.753402
 30
0.0
 10
63.283409
 20
125.497796
 30
0.0
 10
64.153867
 20
125.242187
 30
0.0
 10
65.792601
 20
124.042568
 30
0.0
 10
67.431336
 20
122.842946
 30
0.0
 10
67.905500
 20
122.635464
 30
0.0
 10
68.379665
 20
122.427980
 30
0.0
 10
69.091008
 20
122.348162
 30
0.0
 10
69.802352
 20
122.268344
 30
0.0
 10
70.540877
 20
122.269755
 30
0.0
 10
71.279402
 20
122.271166
 30
0.0
 10
72.295142
 20
121.717909
 30
0.0
 10
73.310883
 20
121.164649
 30
0.0
 10
74.373892
 20
121.410222
 30
0.0
 10
75.436902
 20
121.655795
 30
0.0
 10
76.167688
 20
121.772762
 30
0.0
 10
76.898477
 20
121.889726
 30
0.0
 10
77.513194
 20
121.343076
 30
0.0
 10
78.127914
 20
120.796425
 30
0.0
 10
78.656589
 20
120.520864
 30
0.0
 10
79.185268
 20
120.245302
 30
0.0
 10
79.920615
 20
120.736007
 30
0.0
 10
80.655962
 20
121.226713
 30
0.0
 10
81.391308
 20
121.843882
 30
0.0
 10
82.126655
 20
122.461048
 30
0.0
 10
82.346650
 20
122.587549
 30
0.0
 10
82.566645
 20
122.714049
 30
0.0
 10
82.699428
 20
122.572938
 30
0.0
 10
82.832211
 20
122.431827
 30
0.0
 10
83.961100
 20
122.921302
 30
0.0
 10
85.089989
 20
123.410777
 30
0.0
 10
87.548774
 20
124.755746
 30
0.0
 10
90.007561
 20
126.100716
 30
0.0
 10
90.300440
 20
126.241827
 30
0.0
 10
90.593322
 20
126.382938
 30
0.0
 10
91.510544
 20
126.382938
 30
0.0
 10
92.427766
 20
126.382938
 30
0.0
 10
92.365539
 20
126.241827
 30
0.0
 10
92.303312
 20
126.100716
 30
0.0
 10
92.153873
 20
125.818494
 30
0.0
 10
92.004433
 20
125.536271
 30
0.0
 10
91.773045
 20
125.254049
 30
0.0
 10
91.541656
 20
124.971827
 30
0.0
 10
91.153144
 20
124.756946
 30
0.0
 10
90.764631
 20
124.542065
 30
0.0
 10
90.114075
 20
124.284475
 30
0.0
 10
89.463519
 20
124.026885
 30
0.0
 10
87.168637
 20
122.735467
 30
0.0
 10
84.873759
 20
121.444049
 30
0.0
 10
84.346878
 20
120.931333
 30
0.0
 10
83.819997
 20
120.418617
 30
0.0
 10
84.208050
 20
120.251926
 30
0.0
 10
84.596100
 20
120.085234
 30
0.0
 10
85.497653
 20
120.415617
 30
0.0
 10
86.399203
 20
120.746001
 30
0.0
 10
92.004140
 20
123.163528
 30
0.0
 10
97.609073
 20
125.581054
 30
0.0
 10
100.776295
 20
125.785318
 30
0.0
 10
103.943514
 20
125.989582
 30
0.0
 10
107.851753
 20
125.356358
 30
0.0
 10
111.759989
 20
124.723133
 30
0.0
 10
110.187034
 20
124.854685
 30
0.0
 10
108.614077
 20
124.986234
 30
0.0
 10
103.736989
 20
124.762946
 30
0.0
 10
98.859902
 20
124.539657
 30
0.0
 10
96.920891
 20
124.034273
 30
0.0
 10
94.981878
 20
123.528890
 30
0.0
 10
94.587938
 20
123.403693
 30
0.0
 10
94.193998
 20
123.278494
 30
0.0
 10
93.028660
 20
122.855160
 30
0.0
 10
91.863322
 20
122.431827
 30
0.0
 10
90.810873
 20
122.008494
 30
0.0
 10
89.758424
 20
121.585160
 30
0.0
 10
89.611429
 20
121.453560
 30
0.0
 10
89.464433
 20
121.321957
 30
0.0
 10
89.167126
 20
121.095993
 30
0.0
 10
88.869819
 20
120.870029
 30
0.0
 10
88.038237
 20
120.193359
 30
0.0
 10
87.206655
 20
119.516689
 30
0.0
 10
87.418322
 20
119.477494
 30
0.0
 10
87.629989
 20
119.438299
 30
0.0
 10
88.044223
 20
119.606114
 30
0.0
 10
88.458461
 20
119.773929
 30
0.0
 10
89.002706
 20
119.315317
 30
0.0
 10
89.546955
 20
118.856706
 30
0.0
 10
90.437995
 20
117.781389
 30
0.0
 10
91.329039
 20
116.706071
 30
0.0
 10
91.927564
 20
116.406941
 30
0.0
 10
92.526090
 20
116.107811
 30
0.0
 10
92.402891
 20
116.449749
 30
0.0
 10
92.279696
 20
116.791684
 30
0.0
 10
92.361261
 20
117.473747
 30
0.0
 10
92.442829
 20
118.155807
 30
0.0
 10
94.313194
 20
117.914809
 30
0.0
 10
96.183563
 20
117.673809
 30
0.0
 10
96.007174
 20
117.002540
 30
0.0
 10
95.830785
 20
116.331272
 30
0.0
 10
95.787331
 20
115.858259
 30
0.0
 10
95.743878
 20
115.385246
 30
0.0
 10
96.622187
 20
116.267515
 30
0.0
 10
97.500496
 20
117.149784
 30
0.0
 10
97.850627
 20
117.740814
 30
0.0
 10
98.200758
 20
118.331841
 30
0.0
 10
100.262159
 20
116.974882
 30
0.0
 10
102.323561
 20
115.617921
 30
0.0
 10
103.847415
 20
115.223897
 30
0.0
 10
105.371265
 20
114.829869
 30
0.0
 10
106.416486
 20
114.907399
 30
0.0
 10
107.461708
 20
114.984928
 30
0.0
 10
108.963889
 20
113.193963
 30
0.0
 10
110.466070
 20
111.402997
 30
0.0
 10
111.206816
 20
110.653235
 30
0.0
 10
111.947562
 20
109.903472
 30
0.0
 10
112.198638
 20
110.324578
 30
0.0
 10
112.449714
 20
110.745682
 30
0.0
 10
113.184903
 20
110.814561
 30
0.0
 10
113.920092
 20
110.883438
 30
0.0
 10
116.020393
 20
109.015316
 30
0.0
 10
118.120693
 20
107.147191
 30
0.0
 10
119.108403
 20
105.979578
 30
0.0
 10
120.096116
 20
104.811963
 30
0.0
 10
121.063571
 20
103.135235
 30
0.0
 10
122.031029
 20
101.458505
 30
0.0
 10
122.439108
 20
101.105727
 30
0.0
 10
122.847187
 20
100.752950
 30
0.0
 10
123.247760
 20
101.518861
 30
0.0
 10
123.648335
 20
102.284773
 30
0.0
 10
123.958048
 20
103.695884
 30
0.0
 10
124.267764
 20
105.106995
 30
0.0
 10
124.584031
 20
106.643300
 30
0.0
 10
124.900298
 20
108.179605
 30
0.0
 10
125.264776
 20
109.472595
 30
0.0
 10
125.629252
 20
110.765584
 30
0.0
 10
125.735057
 20
112.882251
 30
0.0
 10
125.840860
 20
114.998918
 30
0.0
 10
126.204966
 20
122.164283
 30
0.0
 10
126.569069
 20
129.329646
 30
0.0
 10
126.925016
 20
131.780774
 30
0.0
 10
127.280961
 20
134.231902
 30
0.0
 10
126.716564
 20
136.234088
 30
0.0
 10
126.152168
 20
138.236271
 30
0.0
 10
125.310144
 20
140.987938
 30
0.0
 10
124.468117
 20
143.739604
 30
0.0
 10
123.401331
 20
150.224632
 30
0.0
 10
122.334545
 20
156.709660
 30
0.0
 10
122.453860
 20
157.513585
 30
0.0
 10
122.573175
 20
158.317510
 30
0.0
 10
124.081026
 20
156.078030
 30
0.0
 10
125.588878
 20
153.838550
 30
0.0
 10
125.800544
 20
153.606381
 30
0.0
 10
126.012211
 20
153.374212
 30
0.0
 10
126.223878
 20
153.110836
 30
0.0
 10
126.435544
 20
152.847461
 30
0.0
 10
126.719830
 20
152.487769
 30
0.0
 10
127.004118
 20
152.128077
 30
0.0
 10
127.203398
 20
151.611839
 30
0.0
 10
127.402677
 20
151.095601
 30
0.0
 10
127.619060
 20
150.595603
 30
0.0
 10
127.835443
 20
150.095605
 30
0.0
 10
128.054707
 20
149.675547
 30
0.0
 10
128.273971
 20
149.255488
 30
0.0
 10
128.439822
 20
148.748752
 30
0.0
 10
128.605672
 20
148.242015
 30
0.0
 10
128.813427
 20
147.610582
 30
0.0
 10
129.021182
 20
146.979149
 30
0.0
 10
129.183886
 20
146.517824
 30
0.0
 10
129.346590
 20
146.056498
 30
0.0
 10
129.479954
 20
145.614729
 30
0.0
 10
129.613316
 20
145.172959
 30
0.0
 10
129.707028
 20
144.809060
 30
0.0
 10
129.800742
 20
144.445160
 30
0.0
 10
129.929207
 20
143.855137
 30
0.0
 10
130.057672
 20
143.265114
 30
0.0
 10
130.193065
 20
142.618354
 30
0.0
 10
130.328461
 20
141.971595
 30
0.0
 10
130.498669
 20
141.428300
 30
0.0
 10
130.668878
 20
140.885006
 30
0.0
 10
130.871920
 20
140.320533
 30
0.0
 10
131.074964
 20
139.756061
 30
0.0
 10
131.367685
 20
139.301878
 30
0.0
 10
131.660409
 20
138.847695
 30
0.0
 10
132.793842
 20
137.743881
 30
0.0
 10
133.927277
 20
136.640068
 30
0.0
 10
134.069492
 20
137.591554
 30
0.0
 10
134.211703
 20
138.543038
 30
0.0
 10
134.173747
 20
141.352988
 30
0.0
 10
134.135791
 20
144.162938
 30
0.0
 10
134.004321
 20
145.401646
 30
0.0
 10
133.872851
 20
146.640354
 30
0.0
 10
133.758830
 20
147.105170
 30
0.0
 10
133.644809
 20
147.569987
 30
0.0
 10
133.509563
 20
148.054926
 30
0.0
 10
133.374316
 20
148.539864
 30
0.0
 10
133.150486
 20
149.100018
 30
0.0
 10
132.926655
 20
149.660171
 30
0.0
 10
132.797076
 20
150.123747
 30
0.0
 10
132.667494
 20
150.587323
 30
0.0
 10
132.243438
 20
151.502630
 30
0.0
 10
131.819382
 20
152.417938
 30
0.0
 10
131.384520
 20
153.088216
 30
0.0
 10
130.949655
 20
153.758493
 30
0.0
 10
130.809266
 20
154.113186
 30
0.0
 10
130.668889
 20
154.467878
 30
0.0
 10
130.505745
 20
155.138156
 30
0.0
 10
130.342603
 20
155.808434
 30
0.0
 10
129.941300
 20
156.810381
 30
0.0
 10
129.540000
 20
157.812329
 30
0.0
 10
129.328333
 20
158.184300
 30
0.0
 10
129.116667
 20
158.556271
 30
0.0
 10
128.905000
 20
158.996883
 30
0.0
 10
128.693333
 20
159.437494
 30
0.0
 10
128.567521
 20
159.702438
 30
0.0
 10
128.441707
 20
159.967382
 30
0.0
 10
128.235239
 20
160.288735
 30
0.0
 10
128.028771
 20
160.610087
 30
0.0
 10
127.325148
 20
161.325213
 30
0.0
 10
126.621526
 20
162.040339
 30
0.0
 10
125.294367
 20
163.344504
 30
0.0
 10
123.967212
 20
164.648669
 30
0.0
 10
126.894717
 20
163.488962
 30
0.0
 10
129.822222
 20
162.329255
 30
0.0
 10
135.689554
 20
155.503874
 30
0.0
 10
141.556887
 20
148.678493
 30
0.0
 10
142.677171
 20
146.209049
 30
0.0
 10
143.797457
 20
143.739604
 30
0.0
 10
144.365215
 20
142.257938
 30
0.0
 10
144.932973
 20
140.776271
 30
0.0
 10
144.975207
 20
138.172929
 30
0.0
 10
145.017445
 20
135.569587
 30
0.0
 10
145.076314
 20
134.963225
 30
0.0
 10
145.135179
 20
134.356862
 30
0.0
 10
146.650004
 20
131.302229
 30
0.0
 10
148.164829
 20
128.247600
 30
0.0
 10
148.267601
 20
126.272044
 30
0.0
 10
148.370372
 20
124.296489
 30
0.0
 10
147.025236
 20
117.419041
 30
0.0
 10
145.680100
 20
110.541596
 30
0.0
 10
146.169812
 20
108.805921
 30
0.0
 10
146.659524
 20
107.070243
 30
0.0
 10
148.541195
 20
100.955850
 30
0.0
 10
150.422870
 20
94.841455
 30
0.0
 10
147.671595
 20
90.853006
 30
0.0
 10
144.920318
 20
86.864557
 30
0.0
 10
142.521545
 20
84.875616
 30
0.0
 10
140.122769
 20
82.886677
 30
0.0
 10
137.053884
 20
81.117889
 30
0.0
 10
133.985000
 20
79.349100
 30
0.0
 10
133.455833
 20
78.717984
 30
0.0
 10
132.926667
 20
78.086867
 30
0.0
 10
132.750278
 20
77.529769
 30
0.0
 10
132.573889
 20
76.972674
 30
0.0
 10
131.480278
 20
76.937396
 30
0.0
 10
130.386667
 20
76.902118
 30
0.0
 10
128.411111
 20
76.430799
 30
0.0
 10
126.435556
 20
75.959482
 30
0.0
 10
124.883333
 20
75.420920
 30
0.0
 10
123.331111
 20
74.882358
 30
0.0
 10
122.821502
 20
74.362858
 30
0.0
 10
122.311894
 20
73.843360
 30
0.0
 10
122.735227
 20
73.511613
 30
0.0
 10
123.158560
 20
73.179867
 30
0.0
 10
125.573169
 20
73.407211
 30
0.0
 10
127.987778
 20
73.634558
 30
0.0
 10
128.270000
 20
73.357051
 30
0.0
 10
128.552222
 20
73.079545
 30
0.0
 10
129.143788
 20
72.654891
 30
0.0
 10
129.735351
 20
72.230237
 30
0.0
 10
131.075907
 20
71.350341
 30
0.0
 10
132.416463
 20
70.470446
 30
0.0
 10
133.631615
 20
68.730529
 30
0.0
 10
134.846768
 20
66.990615
 30
0.0
 10
135.257718
 20
65.735539
 30
0.0
 10
135.668664
 20
64.480463
 30
0.0
 10
135.795684
 20
64.175589
 30
0.0
 10
135.922704
 20
63.870716
 30
0.0
 10
136.611569
 20
61.965716
 30
0.0
 10
137.300434
 20
60.060716
 30
0.0
 10
137.935019
 20
57.873494
 30
0.0
 10
138.569604
 20
55.686271
 30
0.0
 10
138.868703
 20
54.317570
 30
0.0
 10
139.167799
 20
52.948871
 30
0.0
 10
138.998367
 20
51.503445
 30
0.0
 10
138.828932
 20
50.058021
 30
0.0
 10
138.400465
 20
49.556997
 30
0.0
 10
137.971996
 20
49.055977
 30
0.0
 10
136.916801
 20
48.262128
 30
0.0
 10
135.861606
 20
47.468282
 30
0.0
 10
133.303665
 20
45.883621
 30
0.0
 10
130.745721
 20
44.298960
 30
0.0
 10
129.154214
 20
43.151566
 30
0.0
 10
127.562706
 20
42.004172
 30
0.0
 10
127.364340
 20
41.270005
 30
0.0
 10
127.165972
 20
40.535837
 30
0.0
 10
126.872664
 20
39.721068
 30
0.0
 10
126.579356
 20
38.906300
 30
0.0
 10
126.162579
 20
38.085406
 30
0.0
 10
125.745799
 20
37.264512
 30
0.0
 10
125.201494
 20
36.444058
 30
0.0
 10
124.657186
 20
35.623604
 30
0.0
 10
120.192817
 20
30.572148
 30
0.0
 10
115.728445
 20
25.520695
 30
0.0
 10
114.861571
 20
25.622812
 30
0.0
 10
113.994698
 20
25.724928
 30
0.0
 10
116.062647
 20
28.752444
 30
0.0
 10
118.130597
 20
31.779961
 30
0.0
 10
119.551760
 20
34.238119
 30
0.0
 10
120.972924
 20
36.696280
 30
0.0
 10
121.172004
 20
37.563081
 30
0.0
 10
121.371081
 20
38.429881
 30
0.0
 10
121.323910
 20
39.090947
 30
0.0
 10
121.276737
 20
39.752013
 30
0.0
 10
121.020541
 20
39.988459
 30
0.0
 10
120.764345
 20
40.224905
 30
0.0
 10
119.897020
 20
40.047528
 30
0.0
 10
119.029692
 20
39.870151
 30
0.0
 10
118.579409
 20
39.648850
 30
0.0
 10
118.129126
 20
39.427548
 30
0.0
 10
118.057337
 20
39.301908
 30
0.0
 10
117.985546
 20
39.176271
 30
0.0
 10
117.836106
 20
38.969033
 30
0.0
 10
117.686667
 20
38.761794
 30
0.0
 10
117.475000
 20
38.635779
 30
0.0
 10
117.263333
 20
38.509767
 30
0.0
 10
117.051667
 20
38.368656
 30
0.0
 10
116.840000
 20
38.227545
 30
0.0
 10
116.628333
 20
38.086434
 30
0.0
 10
116.416667
 20
37.945322
 30
0.0
 10
116.202841
 20
37.623394
 30
0.0
 10
115.989013
 20
37.301466
 30
0.0
 10
115.850063
 20
37.109979
 30
0.0
 10
115.711111
 20
36.918494
 30
0.0
 10
115.572162
 20
36.733776
 30
0.0
 10
115.433210
 20
36.549059
 30
0.0
 10
115.287637
 20
36.241310
 30
0.0
 10
115.142064
 20
35.933561
 30
0.0
 10
115.079836
 20
36.153556
 30
0.0
 10
115.017609
 20
36.373551
 30
0.0
 10
114.945829
 20
36.504911
 30
0.0
 10
114.874046
 20
36.636271
 30
0.0
 10
114.636872
 20
36.215227
 30
0.0
 10
114.399695
 20
35.794185
 30
0.0
 10
114.184168
 20
35.454302
 30
0.0
 10
113.968637
 20
35.114419
 30
0.0
 10
113.674477
 20
34.764167
 30
0.0
 10
113.380317
 20
34.413918
 30
0.0
 10
112.823264
 20
33.895922
 30
0.0
 10
112.266208
 20
33.377926
 30
0.0
 10
111.871994
 20
33.176738
 30
0.0
 10
111.477778
 20
32.975553
 30
0.0
 10
111.125000
 20
32.772409
 30
0.0
 10
110.772222
 20
32.569269
 30
0.0
 10
110.419444
 20
32.342303
 30
0.0
 10
110.066667
 20
32.115339
 30
0.0
 10
109.792773
 20
31.976915
 30
0.0
 10
109.518879
 20
31.838494
 30
0.0
 10
109.156350
 20
31.695080
 30
0.0
 10
108.793822
 20
31.551668
 30
0.0
 10
108.585203
 20
31.482408
 30
0.0
 10
108.376585
 20
31.413151
 30
0.0
 10
108.062254
 20
31.292958
 30
0.0
 10
107.747923
 20
31.172765
 30
0.0
 10
107.242658
 20
30.879737
 30
0.0
 10
106.737393
 20
30.586708
 30
0.0
 10
106.426474
 20
30.332906
 30
0.0
 10
106.115556
 20
30.079106
 30
0.0
 10
106.035023
 20
30.004515
 30
0.0
 10
105.954494
 20
29.929926
 30
0.0
 10
105.519384
 20
29.826498
 30
0.0
 10
105.084276
 20
29.723072
 30
0.0
 10
104.303110
 20
29.606344
 30
0.0
 10
103.521947
 20
29.489620
 30
0.0
 10
103.202748
 20
29.383095
 30
0.0
 10
102.883549
 20
29.276571
 30
0.0
 10
102.812246
 20
29.213251
 30
0.0
 10
102.740943
 20
29.149935
 30
0.0
 10
102.451834
 20
29.081716
 30
0.0
 10
102.162729
 20
29.013497
 30
0.0
 10
100.858190
 20
28.902804
 30
0.0
 10
99.553652
 20
28.792111
 30
0.0
 10
98.996635
 20
28.773343
 30
0.0
 10
98.439622
 20
28.754575
 30
0.0
 10
96.730106
 20
28.881451
 30
0.0
 10
95.020593
 20
29.008330
 30
0.0
 10
95.784312
 20
29.345306
 30
0.0
 10
96.548033
 20
29.682285
 30
0.0
 10
97.687503
 20
30.619279
 30
0.0
 10
98.826972
 20
31.556274
 30
0.0
 10
98.661262
 20
31.709639
 30
0.0
 10
98.495556
 20
31.863002
 30
0.0
 10
100.190286
 20
33.472662
 30
0.0
 10
101.885016
 20
35.082322
 30
0.0
 10
102.024730
 20
35.145413
 30
0.0
 10
102.164444
 20
35.208504
 30
0.0
 10
102.451095
 20
35.357943
 30
0.0
 10
102.737745
 20
35.507382
 30
0.0
 10
103.101577
 20
35.708514
 30
0.0
 10
103.465410
 20
35.909645
 30
0.0
 10
104.060704
 20
36.198421
 30
0.0
 10
104.655998
 20
36.487196
 30
0.0
 10
105.526888
 20
37.569315
 30
0.0
 10
106.397778
 20
38.651437
 30
0.0
 10
106.548507
 20
38.990355
 30
0.0
 10
106.699239
 20
39.329273
 30
0.0
 10
106.775704
 20
39.615959
 30
0.0
 10
106.852172
 20
39.902649
 30
0.0
 10
107.031824
 20
40.276430
 30
0.0
 10
107.211478
 20
40.650214
 30
0.0
 10
107.627115
 20
41.135351
 30
0.0
 10
108.042752
 20
41.620491
 30
0.0
 10
108.735424
 20
42.251622
 30
0.0
 10
109.428097
 20
42.882755
 30
0.0
 10
110.670346
 20
44.248310
 30
0.0
 10
111.912595
 20
45.613868
 30
0.0
 10
112.340850
 20
46.158130
 30
0.0
 10
112.769105
 20
46.702396
 30
0.0
 10
112.970107
 20
46.976098
 30
0.0
 10
113.171111
 20
47.249800
 30
0.0
 10
113.382778
 20
47.446367
 30
0.0
 10
113.594444
 20
47.642938
 30
0.0
 10
113.806111
 20
47.774233
 30
0.0
 10
114.017778
 20
47.905532
 30
0.0
 10
114.335278
 20
48.081921
 30
0.0
 10
114.652778
 20
48.258309
 30
0.0
 10
114.970278
 20
48.515067
 30
0.0
 10
115.287778
 20
48.771827
 30
0.0
 10
115.534722
 20
49.257046
 30
0.0
 10
115.781667
 20
49.742265
 30
0.0
 10
115.781667
 20
50.338778
 30
0.0
 10
115.781667
 20
50.935292
 30
0.0
 10
112.959456
 20
50.191444
 30
0.0
 10
110.137248
 20
49.447597
 30
0.0
 10
109.537511
 20
49.255652
 30
0.0
 10
108.937778
 20
49.063710
 30
0.0
 10
107.237880
 20
48.288250
 30
0.0
 10
105.537985
 20
47.512791
 30
0.0
 10
104.274547
 20
47.365494
 30
0.0
 10
103.011111
 20
47.218196
 30
0.0
 10
101.439424
 20
47.067222
 30
0.0
 10
99.867737
 20
46.916247
 30
0.0
 10
97.598603
 20
47.640138
 30
0.0
 10
95.329468
 20
48.364030
 30
0.0
 10
94.815042
 20
48.863690
 30
0.0
 10
94.300616
 20
49.363353
 30
0.0
 10
94.018394
 20
48.725345
 30
0.0
 10
93.736174
 20
48.087339
 30
0.0
 10
91.988363
 20
46.787031
 30
0.0
 10
90.240556
 20
45.486726
 30
0.0
 10
89.985520
 20
44.912692
 30
0.0
 10
89.730484
 20
44.338658
 30
0.0
 10
90.489546
 20
42.762562
 30
0.0
 10
91.248611
 20
41.186470
 30
0.0
 10
91.529583
 20
40.705526
 30
0.0
 10
91.810555
 20
40.224583
 30
0.0
 10
92.433216
 20
35.803592
 30
0.0
 10
93.055877
 20
31.382600
 30
0.0
 10
90.959720
 20
29.818954
 30
0.0
 10
88.863565
 20
28.255307
 30
0.0
 10
88.669103
 20
27.648851
 30
0.0
 10
88.474640
 20
27.042398
 30
0.0
 10
88.964290
 20
24.360446
 30
0.0
 10
89.453940
 20
21.678494
 30
0.0
 10
89.318081
 20
21.255160
 30
0.0
 10
89.182222
 20
20.831827
 30
0.0
 10
89.041111
 20
20.408494
 30
0.0
 10
88.900000
 20
19.985160
 30
0.0
 10
88.758889
 20
19.561827
 30
0.0
 10
88.617778
 20
19.138494
 30
0.0
 10
88.476667
 20
18.715160
 30
0.0
 10
88.335556
 20
18.291827
 30
0.0
 10
88.194444
 20
18.009605
 30
0.0
 10
88.053333
 20
17.727382
 30
0.0
 10
87.825216
 20
17.445160
 30
0.0
 10
87.597099
 20
17.162938
 30
0.0
 10
87.436418
 20
16.810160
 30
0.0
 10
87.275741
 20
16.457382
 30
0.0
 10
87.221636
 20
16.104605
 30
0.0
 10
87.167531
 20
15.751827
 30
0.0
 10
87.045986
 20
15.449604
 30
0.0
 10
86.924444
 20
15.147380
 30
0.0
 10
86.511937
 20
14.450943
 30
0.0
 10
86.099430
 20
13.754506
 30
0.0
 10
85.758020
 20
13.088411
 30
0.0
 10
85.416613
 20
12.422319
 30
0.0
 10
85.264676
 20
12.064850
 30
0.0
 10
85.112739
 20
11.707382
 30
0.0
 10
84.889701
 20
11.339573
 30
0.0
 10
84.666667
 20
10.971764
 30
0.0
 10
84.446000
 20
10.774217
 30
0.0
 10
84.225336
 20
10.576673
 30
0.0
 10
83.805293
 20
10.376702
 30
0.0
 10
83.385254
 20
10.176730
 30
0.0
 10
82.842865
 20
9.805989
 30
0.0
 10
82.300476
 20
9.435251
 30
0.0
 10
82.030971
 20
9.068062
 30
0.0
 10
81.761465
 20
8.700877
 30
0.0
 10
81.607296
 20
8.332414
 30
0.0
 10
81.453129
 20
7.963950
 30
0.0
 10
81.214313
 20
7.503623
 30
0.0
 10
80.975496
 20
7.043299
 30
0.0
 10
80.893181
 20
6.846728
 30
0.0
 10
80.810868
 20
6.650160
 30
0.0
 10
80.524689
 20
6.826549
 30
0.0
 10
80.238510
 20
7.002938
 30
0.0
 10
80.098513
 20
6.807465
 30
0.0
 10
79.958520
 20
6.611993
 30
0.0
 10
79.207075
 20
5.819688
 30
0.0
 10
78.455630
 20
5.027382
 30
0.0
 10
78.315591
 20
4.830812
 30
0.0
 10
78.175556
 20
4.634244
 30
0.0
 10
77.956560
 20
4.353636
 30
0.0
 10
77.737564
 20
4.073031
 30
0.0
 10
77.604781
 20
4.128488
 30
0.0
 10
77.471998
 20
4.183947
 30
0.0
 10
77.423868
 20
4.323441
 30
0.0
 10
77.375741
 20
4.462938
 30
0.0
 10
77.070091
 20
3.393062
 30
0.0
 10
76.764444
 20
2.323188
 30
0.0
 10
76.482222
 20
1.699728
 30
0.0
 10
76.200000
 20
1.076271
 30
0.0
 10
75.913290
 20
1.323216
 30
0.0
 10
75.626581
 20
1.570160
 30
0.0
  0
LWPOLYLINE
  5
101
100
AcDbEntity
  8
0
 62
7
100
AcDbPolyline
 90
51
 70
0
 10
33.090556
 20
41.355095
 30
0.0
 10
32.914167
 20
41.589864
 30
0.0
 10
32.737778
 20
41.824636
 30
0.0
 10
32.243889
 20
42.757132
 30
0.0
 10
31.750000
 20
43.689631
 30
0.0
 10
31.583582
 20
44.346520
 30
0.0
 10
31.417164
 20
45.003407
 30
0.0
 10
31.220021
 20
45.765393
 30
0.0
 10
31.022877
 20
46.527379
 30
0.0
 10
30.931691
 20
47.130583
 30
0.0
 10
30.840508
 20
47.733788
 30
0.0
 10
30.720151
 20
48.307927
 30
0.0
 10
30.599795
 20
48.882066
 30
0.0
 10
30.398785
 20
49.254179
 30
0.0
 10
30.197778
 20
49.626291
 30
0.0
 10
30.056667
 20
49.834058
 30
0.0
 10
29.915556
 20
50.041827
 30
0.0
 10
29.773657
 20
50.421554
 30
0.0
 10
29.631759
 20
50.801281
 30
0.0
 10
28.822069
 20
52.644359
 30
0.0
 10
28.012380
 20
54.487434
 30
0.0
 10
28.036360
 20
54.899430
 30
0.0
 10
28.060341
 20
55.311424
 30
0.0
 10
28.481503
 20
55.826694
 30
0.0
 10
28.902663
 20
56.341964
 30
0.0
 10
29.126888
 20
56.503491
 30
0.0
 10
29.351111
 20
56.665021
 30
0.0
 10
29.809722
 20
56.678201
 30
0.0
 10
30.268333
 20
56.691380
 30
0.0
 10
31.785278
 20
56.809996
 30
0.0
 10
33.302222
 20
56.928608
 30
0.0
 10
31.352865
 20
57.365770
 30
0.0
 10
29.403506
 20
57.802932
 30
0.0
 10
28.579936
 20
57.951192
 30
0.0
 10
27.756368
 20
58.099452
 30
0.0
 10
27.493635
 20
57.288063
 30
0.0
 10
27.230903
 20
56.476674
 30
0.0
 10
27.797122
 20
51.918692
 30
0.0
 10
28.363342
 20
47.360710
 30
0.0
 10
28.622103
 20
45.914691
 30
0.0
 10
28.880864
 20
44.468675
 30
0.0
 10
29.292375
 20
43.657286
 30
0.0
 10
29.703889
 20
42.845897
 30
0.0
 10
30.091944
 20
42.668924
 30
0.0
 10
30.480000
 20
42.491951
 30
0.0
 10
31.891111
 20
41.788817
 30
0.0
 10
33.302222
 20
41.085683
 30
0.0
 10
33.196389
 20
41.220384
 30
0.0
 10
33.090556
 20
41.355089
 30
0.0
 10
33.090556
 20
41.355092
 30
0.0
 10
33.090556
 20
41.355095
 30
0.0
  0
LWPOLYLINE
  5
102
100
AcDbEntity
  8
0
 62
7
100
AcDbPolyline
 90
27
 70
0
 10
121.920982
 20
43.091354
 30
0.0
 10
122.702591
 20
45.896313
 30
0.0
 10
123.484200
 20
48.701271
 30
0.0
 10
123.351420
 20
49.724327
 30
0.0
 10
123.218643
 20
50.747382
 30
0.0
 10
122.992653
 20
50.394605
 30
0.0
 10
122.766667
 20
50.041827
 30
0.0
 10
122.579438
 20
49.689049
 30
0.0
 10
122.392211
 20
49.336271
 30
0.0
 10
122.270057
 20
48.892892
 30
0.0
 10
122.147906
 20
48.449515
 30
0.0
 10
122.052910
 20
48.105066
 30
0.0
 10
121.957917
 20
47.760616
 30
0.0
 10
121.797849
 20
47.216218
 30
0.0
 10
121.637778
 20
46.671817
 30
0.0
 10
121.305001
 20
46.204878
 30
0.0
 10
120.972224
 20
45.737938
 30
0.0
 10
120.949816
 20
45.385160
 30
0.0
 10
120.927408
 20
45.032382
 30
0.0
 10
120.798305
 20
44.503216
 30
0.0
 10
120.669205
 20
43.974049
 30
0.0
 10
120.503456
 20
43.552753
 30
0.0
 10
120.337710
 20
43.131458
 30
0.0
 10
120.624109
 20
42.795941
 30
0.0
 10
120.910511
 20
42.460426
 30
0.0
 10
121.415737
 20
42.775889
 30
0.0
 10
121.920982
 20
43.091354
 30
0.0
  0
LWPOLYLINE
  5
103
100
AcDbEntity
  8
0
 62
7
100
AcDbPolyline
 90
23
 70
0
 10
83.578790
 20
46.886848
 30
0.0
 10
83.593551
 20
47.298810
 30
0.0
 10
83.608311
 20
47.710773
 30
0.0
 10
82.537833
 20
48.824337
 30
0.0
 10
81.467359
 20
49.937899
 30
0.0
 10
81.724232
 20
50.602645
 30
0.0
 10
81.981105
 20
51.267388
 30
0.0
 10
81.826145
 20
51.689776
 30
0.0
 10
81.671185
 20
52.112167
 30
0.0
 10
81.410161
 20
51.643091
 30
0.0
 10
81.149136
 20
51.174012
 30
0.0
 10
80.861778
 20
50.708430
 30
0.0
 10
80.574422
 20
50.242848
 30
0.0
 10
79.592551
 20
49.629836
 30
0.0
 10
78.610680
 20
49.016827
 30
0.0
 10
78.543726
 20
48.753217
 30
0.0
 10
78.476774
 20
48.489605
 30
0.0
 10
78.440630
 20
47.822310
 30
0.0
 10
78.404489
 20
47.155015
 30
0.0
 10
80.321350
 20
46.924033
 30
0.0
 10
82.238212
 20
46.693054
 30
0.0
 10
82.908490
 20
46.789950
 30
0.0
 10
83.578790
 20
46.886848
 30
0.0
  0
LWPOLYLINE
  5
104
100
AcDbEntity
  8
0
 62
7
100
AcDbPolyline
 90
25
 70
0
 10
71.812277
 20
46.841574
 30
0.0
 10
72.171695
 20
47.132124
 30
0.0
 10
72.531111
 20
47.422672
 30
0.0
 10
72.673487
 20
47.461469
 30
0.0
 10
72.815859
 20
47.500266
 30
0.0
 10
73.239193
 20
47.501395
 30
0.0
 10
73.662526
 20
47.502524
 30
0.0
 10
73.661115
 20
48.419345
 30
0.0
 10
73.659704
 20
49.336167
 30
0.0
 10
73.377481
 20
49.690415
 30
0.0
 10
73.095259
 20
50.044666
 30
0.0
 10
72.777759
 20
50.130518
 30
0.0
 10
72.460259
 20
50.216370
 30
0.0
 10
71.990029
 20
50.153181
 30
0.0
 10
71.519796
 20
50.089991
 30
0.0
 10
71.378685
 20
49.829889
 30
0.0
 10
71.237574
 20
49.569788
 30
0.0
 10
70.907828
 20
49.082393
 30
0.0
 10
70.578080
 20
48.594998
 30
0.0
 10
70.223092
 20
47.777098
 30
0.0
 10
69.868105
 20
46.959195
 30
0.0
 10
70.840044
 20
46.900332
 30
0.0
 10
71.811981
 20
46.841469
 30
0.0
 10
71.811989
 20
46.841523
 30
0.0
 10
71.812277
 20
46.841574
 30
0.0
  0
LWPOLYLINE
  5
105
100
AcDbEntity
  8
0
 62
7
100
AcDbPolyline
 90
51
 70
0
 10
22.914766
 20
47.227332
 30
0.0
 10
22.858927
 20
47.897610
 30
0.0
 10
22.803089
 20
48.567888
 30
0.0
 10
22.848132
 20
53.255968
 30
0.0
 10
22.893174
 20
57.944049
 30
0.0
 10
23.864365
 20
60.232617
 30
0.0
 10
24.835556
 20
62.521186
 30
0.0
 10
24.830306
 20
62.697574
 30
0.0
 10
24.825057
 20
62.873963
 30
0.0
 10
24.584715
 20
63.189448
 30
0.0
 10
24.344373
 20
63.504930
 30
0.0
 10
24.747064
 20
64.101274
 30
0.0
 10
25.149754
 20
64.697618
 30
0.0
 10
25.274877
 20
64.745926
 30
0.0
 10
25.400000
 20
64.794234
 30
0.0
 10
28.716111
 20
64.702196
 30
0.0
 10
32.032222
 20
64.610158
 30
0.0
 10
33.747422
 20
64.762837
 30
0.0
 10
35.462622
 20
64.915517
 30
0.0
 10
35.561569
 20
65.222272
 30
0.0
 10
35.660516
 20
65.529031
 30
0.0
 10
35.610258
 20
65.746709
 30
0.0
 10
35.560000
 20
65.964390
 30
0.0
 10
33.020000
 20
66.081439
 30
0.0
 10
30.480000
 20
66.198485
 30
0.0
 10
27.291160
 20
67.021515
 30
0.0
 10
24.102320
 20
67.844543
 30
0.0
 10
23.836178
 20
68.327075
 30
0.0
 10
23.570036
 20
68.809605
 30
0.0
 10
23.125062
 20
67.998216
 30
0.0
 10
22.680088
 20
67.186827
 30
0.0
 10
22.173883
 20
66.291497
 30
0.0
 10
21.667677
 20
65.396166
 30
0.0
 10
21.633720
 20
64.946454
 30
0.0
 10
21.599763
 20
64.496738
 30
0.0
 10
21.328486
 20
62.887346
 30
0.0
 10
21.057208
 20
61.277954
 30
0.0
 10
20.486739
 20
59.046559
 30
0.0
 10
19.916269
 20
56.815160
 30
0.0
 10
19.349063
 20
54.948243
 30
0.0
 10
18.781857
 20
53.081324
 30
0.0
 10
18.620355
 20
51.632132
 30
0.0
 10
18.458853
 20
50.182938
 30
0.0
 10
19.238140
 20
49.697550
 30
0.0
 10
20.017427
 20
49.212161
 30
0.0
 10
20.877445
 20
48.638209
 30
0.0
 10
21.737463
 20
48.064256
 30
0.0
 10
22.016509
 20
47.773534
 30
0.0
 10
22.295556
 20
47.482808
 30
0.0
 10
22.605161
 20
47.355069
 30
0.0
 10
22.914766
 20
47.227332
 30
0.0
  0
LWPOLYLINE
  5
106
100
AcDbEntity
  8
0
 62
7
100
AcDbPolyline
 90
37
 70
0
 10
131.117806
 20
49.213395
 30
0.0
 10
131.964597
 20
49.780272
 30
0.0
 10
132.811387
 20
50.347146
 30
0.0
 10
132.758474
 20
51.230553
 30
0.0
 10
132.705557
 20
52.113956
 30
0.0
 10
131.037398
 20
58.486223
 30
0.0
 10
129.369241
 20
64.858494
 30
0.0
 10
129.031142
 20
65.952105
 30
0.0
 10
128.693045
 20
67.045716
 30
0.0
 10
128.078027
 20
67.434579
 30
0.0
 10
127.463005
 20
67.823441
 30
0.0
 10
125.467612
 20
67.043602
 30
0.0
 10
123.472222
 20
66.263760
 30
0.0
 10
120.927334
 20
65.917702
 30
0.0
 10
118.382449
 20
65.571644
 30
0.0
 10
118.061455
 20
65.062458
 30
0.0
 10
117.740461
 20
64.553273
 30
0.0
 10
117.957013
 20
64.205239
 30
0.0
 10
118.173568
 20
63.857209
 30
0.0
 10
120.820609
 20
64.338104
 30
0.0
 10
123.467650
 20
64.818997
 30
0.0
 10
124.409818
 20
65.006053
 30
0.0
 10
125.351989
 20
65.193110
 30
0.0
 10
125.861682
 20
65.223128
 30
0.0
 10
126.371375
 20
65.253142
 30
0.0
 10
126.363022
 20
64.620964
 30
0.0
 10
126.354668
 20
63.988783
 30
0.0
 10
126.527408
 20
63.244767
 30
0.0
 10
126.700145
 20
62.500750
 30
0.0
 10
127.612879
 20
58.529068
 30
0.0
 10
128.525617
 20
54.557382
 30
0.0
 10
128.655005
 20
52.347241
 30
0.0
 10
128.784395
 20
50.137100
 30
0.0
 10
128.995339
 20
48.983511
 30
0.0
 10
129.206284
 20
47.829922
 30
0.0
 10
130.162046
 20
48.521660
 30
0.0
 10
131.117806
 20
49.213395
 30
0.0
  0
LWPOLYLINE
  5
107
100
AcDbEntity
  8
0
 62
7
100
AcDbPolyline
 90
69
 70
0
 10
26.905415
 20
84.684605
 30
0.0
 10
26.695371
 20
85.384445
 30
0.0
 10
26.485326
 20
86.084283
 30
0.0
 10
26.390973
 20
86.437061
 30
0.0
 10
26.296619
 20
86.789839
 30
0.0
 10
26.223397
 20
87.329766
 30
0.0
 10
26.150175
 20
87.869694
 30
0.0
 10
25.311905
 20
88.743449
 30
0.0
 10
24.473635
 20
89.617206
 30
0.0
 10
22.961262
 20
90.931340
 30
0.0
 10
21.448889
 20
92.245471
 30
0.0
 10
21.001344
 20
92.237681
 30
0.0
 10
20.553799
 20
92.229892
 30
0.0
 10
18.166191
 20
92.072759
 30
0.0
 10
15.778582
 20
91.915626
 30
0.0
 10
13.645002
 20
93.838725
 30
0.0
 10
11.511421
 20
95.761827
 30
0.0
 10
10.762823
 20
97.243494
 30
0.0
 10
10.014225
 20
98.725160
 30
0.0
 10
9.521300
 20
99.753228
 30
0.0
 10
9.028376
 20
100.781296
 30
0.0
 10
7.900854
 20
99.778487
 30
0.0
 10
6.773333
 20
98.775678
 30
0.0
 10
7.196667
 20
98.820975
 30
0.0
 10
7.620000
 20
98.866271
 30
0.0
 10
7.948139
 20
99.077938
 30
0.0
 10
8.276277
 20
99.289605
 30
0.0
 10
7.880112
 20
98.727751
 30
0.0
 10
7.483948
 20
98.165897
 30
0.0
 10
7.385831
 20
97.646764
 30
0.0
 10
7.287714
 20
97.127630
 30
0.0
 10
7.465121
 20
97.021162
 30
0.0
 10
7.642528
 20
96.914696
 30
0.0
 10
7.322374
 20
96.573907
 30
0.0
 10
7.002220
 20
96.233118
 30
0.0
 10
7.333054
 20
96.019019
 30
0.0
 10
7.663888
 20
95.804919
 30
0.0
 10
8.382777
 20
95.495409
 30
0.0
 10
9.101667
 20
95.185899
 30
0.0
 10
9.500423
 20
94.644444
 30
0.0
 10
9.899179
 20
94.102990
 30
0.0
 10
10.180290
 20
94.058582
 30
0.0
 10
10.461400
 20
94.014171
 30
0.0
 10
10.838733
 20
93.812555
 30
0.0
 10
11.216065
 20
93.610935
 30
0.0
 10
11.480063
 20
93.402963
 30
0.0
 10
11.744061
 20
93.194993
 30
0.0
 10
12.051356
 20
92.814919
 30
0.0
 10
12.358652
 20
92.434842
 30
0.0
 10
12.819889
 20
91.932162
 30
0.0
 10
13.281126
 20
91.429484
 30
0.0
 10
13.696118
 20
91.288373
 30
0.0
 10
14.111111
 20
91.147262
 30
0.0
 10
14.456624
 20
90.903750
 30
0.0
 10
14.802136
 20
90.660234
 30
0.0
 10
15.182043
 20
90.115904
 30
0.0
 10
15.561950
 20
89.571576
 30
0.0
 10
16.334094
 20
88.645035
 30
0.0
 10
17.106237
 20
87.718494
 30
0.0
 10
18.047805
 20
86.942382
 30
0.0
 10
18.989373
 20
86.166271
 30
0.0
 10
19.936909
 20
85.657286
 30
0.0
 10
20.884444
 20
85.148299
 30
0.0
 10
21.888728
 20
85.586731
 30
0.0
 10
22.893012
 20
86.025160
 30
0.0
 10
24.474248
 20
85.214483
 30
0.0
 10
26.055484
 20
84.403808
 30
0.0
 10
26.480449
 20
84.544205
 30
0.0
 10
26.905415
 20
84.684605
 30
0.0
  0
LWPOLYLINE
  5
108
100
AcDbEntity
  8
0
 62
7
100
AcDbPolyline
 90
79
 70
0
 10
127.423333
 20
85.496389
 30
0.0
 10
128.446389
 20
85.987413
 30
0.0
 10
129.469444
 20
86.478437
 30
0.0
 10
129.796794
 20
85.721701
 30
0.0
 10
130.124146
 20
84.964964
 30
0.0
 10
130.100299
 20
84.507284
 30
0.0
 10
130.076451
 20
84.049605
 30
0.0
 10
130.908323
 20
84.808681
 30
0.0
 10
131.740199
 20
85.567757
 30
0.0
 10
133.104901
 20
86.515874
 30
0.0
 10
134.469604
 20
87.463991
 30
0.0
 10
135.196481
 20
87.939637
 30
0.0
 10
135.923359
 20
88.415283
 30
0.0
 10
136.833102
 20
89.542871
 30
0.0
 10
137.742848
 20
90.670459
 30
0.0
 10
137.874762
 20
90.783509
 30
0.0
 10
138.006675
 20
90.896561
 30
0.0
 10
138.430008
 20
91.565304
 30
0.0
 10
138.853342
 20
92.234049
 30
0.0
 10
139.276675
 20
92.596609
 30
0.0
 10
139.700008
 20
92.959168
 30
0.0
 10
139.977535
 20
93.180699
 30
0.0
 10
140.255063
 20
93.402229
 30
0.0
 10
140.538214
 20
93.594250
 30
0.0
 10
140.821368
 20
93.786271
 30
0.0
 10
141.107355
 20
94.068494
 30
0.0
 10
141.393342
 20
94.350716
 30
0.0
 10
141.674633
 20
94.575788
 30
0.0
 10
141.955926
 20
94.800863
 30
0.0
 10
142.239077
 20
94.858010
 30
0.0
 10
142.522231
 20
94.915160
 30
0.0
 10
142.804453
 20
95.060863
 30
0.0
 10
143.086675
 20
95.206566
 30
0.0
 10
143.284617
 20
95.261139
 30
0.0
 10
143.482562
 20
95.315715
 30
0.0
 10
143.741837
 20
95.297710
 30
0.0
 10
144.001112
 20
95.279704
 30
0.0
 10
144.297056
 20
95.291077
 30
0.0
 10
144.593002
 20
95.302451
 30
0.0
 10
144.827617
 20
95.337729
 30
0.0
 10
145.062231
 20
95.373007
 30
0.0
 10
145.276584
 20
95.214618
 30
0.0
 10
145.490940
 20
95.056229
 30
0.0
 10
145.610323
 20
95.444285
 30
0.0
 10
145.729709
 20
95.832340
 30
0.0
 10
145.507171
 20
96.304337
 30
0.0
 10
145.284633
 20
96.776334
 30
0.0
 10
145.237208
 20
97.199667
 30
0.0
 10
145.189784
 20
97.623001
 30
0.0
 10
144.861424
 20
98.194272
 30
0.0
 10
144.533064
 20
98.765543
 30
0.0
 10
144.303318
 20
98.746042
 30
0.0
 10
144.073572
 20
98.726540
 30
0.0
 10
144.156156
 20
99.015211
 30
0.0
 10
144.238740
 20
99.303885
 30
0.0
 10
144.186264
 20
99.687276
 30
0.0
 10
144.133787
 20
100.070666
 30
0.0
 10
143.892453
 20
100.643724
 30
0.0
 10
143.651111
 20
101.216827
 30
0.0
 10
142.819541
 20
100.641271
 30
0.0
 10
141.987967
 20
100.065716
 30
0.0
 10
139.195460
 20
96.468813
 30
0.0
 10
136.402950
 20
92.871914
 30
0.0
 10
133.443568
 20
91.780278
 30
0.0
 10
130.484183
 20
90.688643
 30
0.0
 10
129.690659
 20
90.338868
 30
0.0
 10
128.897134
 20
89.989090
 30
0.0
 10
127.966430
 20
89.275262
 30
0.0
 10
127.035729
 20
88.561432
 30
0.0
 10
126.171198
 20
87.900310
 30
0.0
 10
125.306667
 20
87.239184
 30
0.0
 10
125.447778
 20
87.126061
 30
0.0
 10
125.588889
 20
87.012938
 30
0.0
 10
125.514264
 20
86.166271
 30
0.0
 10
125.439638
 20
85.319605
 30
0.0
 10
125.234167
 20
84.714918
 30
0.0
 10
125.028695
 20
84.110232
 30
0.0
 10
126.226014
 20
84.803310
 30
0.0
 10
127.423333
 20
85.496389
 30
0.0
  0
ENDSEC
  0
SECTION
  2
OBJECTS
  0
DICTIONARY
  5
C
330
0
100
AcDbDictionary
  3
ACAD_GROUP
350
D
  3
ACAD_MLINESTYLE
350
17
  0
DICTIONARY
  5
D
330
C
100
AcDbDictionary
  0
DICTIONARY
  5
1A
330
C
100
AcDbDictionary
  0
DICTIONARY
  5
17
330
C
100
AcDbDictionary
  3
STANDARD
350
18
  0
DICTIONARY
  5
19
330
C
100
AcDbDictionary
  0
ENDSEC
  0
EOF
