solid CATIA STL
  facet normal  0.000000e+000  0.000000e+000  1.000000e+000
    outer loop
      vertex  1.500000e+001 -3.585786e+000  5.000000e+000
      vertex  1.358579e+001 -5.000000e+000  5.000000e+000
      vertex  1.641421e+001 -5.000000e+000  5.000000e+000
    endloop
  endfacet
  facet normal  0.000000e+000  -0.000000e+000  1.000000e+000
    outer loop
      vertex  1.500000e+001 -3.585786e+000  5.000000e+000
      vertex  1.641421e+001 -5.000000e+000  5.000000e+000
      vertex  2.000000e+001 -5.000000e+000  5.000000e+000
    endloop
  endfacet
  facet normal  0.000000e+000  0.000000e+000  1.000000e+000
    outer loop
      vertex  1.500000e+001  2.358579e+001  5.000000e+000
      vertex  1.641421e+001  2.500000e+001  5.000000e+000
      vertex  1.358579e+001  2.500000e+001  5.000000e+000
    endloop
  endfacet
  facet normal  0.000000e+000  0.000000e+000  1.000000e+000
    outer loop
      vertex  1.500000e+001  2.358579e+001  5.000000e+000
      vertex  1.358579e+001  2.500000e+001  5.000000e+000
      vertex  1.500000e+001  2.000000e+001  5.000000e+000
    endloop
  endfacet
  facet normal  0.000000e+000  0.000000e+000  1.000000e+000
    outer loop
      vertex  1.641421e+001  2.500000e+001  5.000000e+000
      vertex  1.500000e+001  2.641421e+001  5.000000e+000
      vertex  1.358579e+001  2.500000e+001  5.000000e+000
    endloop
  endfacet
  facet normal  -0.000000e+000  0.000000e+000  1.000000e+000
    outer loop
      vertex -1.358579e+001 -5.000000e+000  5.000000e+000
      vertex -1.500000e+001 -6.414214e+000  5.000000e+000
      vertex -1.500000e+001 -1.000000e+001  5.000000e+000
    endloop
  endfacet
  facet normal  0.000000e+000  0.000000e+000  1.000000e+000
    outer loop
      vertex -1.000000e+001  2.000000e+001  5.000000e+000
      vertex -1.000000e+001  2.500000e+001  5.000000e+000
      vertex -1.358579e+001  2.500000e+001  5.000000e+000
    endloop
  endfacet
  facet normal  0.000000e+000  0.000000e+000  1.000000e+000
    outer loop
      vertex -1.000000e+001  2.000000e+001  5.000000e+000
      vertex -1.358579e+001  2.500000e+001  5.000000e+000
      vertex -1.500000e+001  1.500000e+001  5.000000e+000
    endloop
  endfacet
  facet normal  0.000000e+000  0.000000e+000  1.000000e+000
    outer loop
      vertex -1.000000e+001  2.000000e+001  5.000000e+000
      vertex -1.500000e+001  1.500000e+001  5.000000e+000
      vertex -1.000000e+001  1.500000e+001  5.000000e+000
    endloop
  endfacet
  facet normal  0.000000e+000  0.000000e+000  1.000000e+000
    outer loop
      vertex -1.000000e+001  2.000000e+001  5.000000e+000
      vertex -1.000000e+001  1.500000e+001  5.000000e+000
      vertex  1.000000e+001  1.500000e+001  5.000000e+000
    endloop
  endfacet
  facet normal  0.000000e+000  -0.000000e+000  1.000000e+000
    outer loop
      vertex -1.000000e+001  2.000000e+001  5.000000e+000
      vertex  1.000000e+001  1.500000e+001  5.000000e+000
      vertex  1.000000e+001  2.000000e+001  5.000000e+000
    endloop
  endfacet
  facet normal  -0.000000e+000  0.000000e+000  1.000000e+000
    outer loop
      vertex  1.358579e+001  2.500000e+001  5.000000e+000
      vertex  1.000000e+001  2.500000e+001  5.000000e+000
      vertex  1.000000e+001  2.000000e+001  5.000000e+000
    endloop
  endfacet
  facet normal  -0.000000e+000  0.000000e+000  1.000000e+000
    outer loop
      vertex  1.358579e+001  2.500000e+001  5.000000e+000
      vertex  1.000000e+001  2.000000e+001  5.000000e+000
      vertex  1.000000e+001  1.500000e+001  5.000000e+000
    endloop
  endfacet
  facet normal  0.000000e+000  0.000000e+000  1.000000e+000
    outer loop
      vertex  1.358579e+001  2.500000e+001  5.000000e+000
      vertex  1.000000e+001  1.500000e+001  5.000000e+000
      vertex  1.500000e+001  1.500000e+001  5.000000e+000
    endloop
  endfacet
  facet normal  0.000000e+000  -0.000000e+000  1.000000e+000
    outer loop
      vertex  1.358579e+001  2.500000e+001  5.000000e+000
      vertex  1.500000e+001  1.500000e+001  5.000000e+000
      vertex  1.500000e+001  2.000000e+001  5.000000e+000
    endloop
  endfacet
  facet normal  0.000000e+000  0.000000e+000  1.000000e+000
    outer loop
      vertex  2.500000e+001  1.000000e+001  5.000000e+000
      vertex  2.500000e+001  1.500000e+001  5.000000e+000
      vertex  2.000000e+001  1.500000e+001  5.000000e+000
    endloop
  endfacet
  facet normal  0.000000e+000  0.000000e+000  1.000000e+000
    outer loop
      vertex  2.500000e+001  1.000000e+001  5.000000e+000
      vertex  2.000000e+001  1.500000e+001  5.000000e+000
      vertex  1.500000e+001  1.500000e+001  5.000000e+000
    endloop
  endfacet
  facet normal  0.000000e+000  0.000000e+000  1.000000e+000
    outer loop
      vertex  2.500000e+001  1.000000e+001  5.000000e+000
      vertex  1.500000e+001  1.500000e+001  5.000000e+000
      vertex  1.500000e+001  1.000000e+001  5.000000e+000
    endloop
  endfacet
  facet normal  0.000000e+000  -0.000000e+000  1.000000e+000
    outer loop
      vertex  2.000000e+001  5.000000e+000  5.000000e+000
      vertex  2.500000e+001  5.000000e+000  5.000000e+000
      vertex  3.000000e+001  1.000000e+001  5.000000e+000
    endloop
  endfacet
  facet normal  0.000000e+000  0.000000e+000  1.000000e+000
    outer loop
      vertex  2.000000e+001  5.000000e+000  5.000000e+000
      vertex  3.000000e+001  1.000000e+001  5.000000e+000
      vertex  2.500000e+001  1.000000e+001  5.000000e+000
    endloop
  endfacet
  facet normal  0.000000e+000  0.000000e+000  1.000000e+000
    outer loop
      vertex  2.000000e+001  5.000000e+000  5.000000e+000
      vertex  2.500000e+001  1.000000e+001  5.000000e+000
      vertex  1.500000e+001  1.000000e+001  5.000000e+000
    endloop
  endfacet
  facet normal  0.000000e+000  0.000000e+000  1.000000e+000
    outer loop
      vertex  2.000000e+001  5.000000e+000  5.000000e+000
      vertex  1.500000e+001  1.000000e+001  5.000000e+000
      vertex  1.500000e+001  0.000000e+000  5.000000e+000
    endloop
  endfacet
  facet normal  -0.000000e+000  0.000000e+000  1.000000e+000
    outer loop
      vertex  2.000000e+001  5.000000e+000  5.000000e+000
      vertex  1.500000e+001  0.000000e+000  5.000000e+000
      vertex  1.500000e+001 -3.585786e+000  5.000000e+000
    endloop
  endfacet
  facet normal  -0.000000e+000  0.000000e+000  9.999999e-001
    outer loop
      vertex  2.000000e+001  5.000000e+000  5.000000e+000
      vertex  1.500000e+001 -3.585786e+000  5.000000e+000
      vertex  2.000000e+001 -5.000000e+000  5.000000e+000
    endloop
  endfacet
  facet normal  -0.000000e+000  0.000000e+000  1.000000e+000
    outer loop
      vertex  1.000000e+001 -5.000000e+000  5.000000e+000
      vertex  5.000000e+000 -5.000000e+000  5.000000e+000
      vertex  5.000000e+000 -1.000000e+001  5.000000e+000
    endloop
  endfacet
  facet normal  0.000000e+000  0.000000e+000  1.000000e+000
    outer loop
      vertex  1.000000e+001 -5.000000e+000  5.000000e+000
      vertex  5.000000e+000 -1.000000e+001  5.000000e+000
      vertex  1.000000e+001 -1.000000e+001  5.000000e+000
    endloop
  endfacet
  facet normal  0.000000e+000  0.000000e+000  1.000000e+000
    outer loop
      vertex  1.000000e+001 -5.000000e+000  5.000000e+000
      vertex  1.000000e+001 -1.000000e+001  5.000000e+000
      vertex  1.358579e+001 -5.000000e+000  5.000000e+000
    endloop
  endfacet
  facet normal  0.000000e+000  -0.000000e+000  1.000000e+000
    outer loop
      vertex -1.000000e+001 -1.000000e+001  5.000000e+000
      vertex -5.000000e+000 -1.000000e+001  5.000000e+000
      vertex -5.000000e+000 -5.000000e+000  5.000000e+000
    endloop
  endfacet
  facet normal  0.000000e+000  0.000000e+000  1.000000e+000
    outer loop
      vertex -1.000000e+001 -1.000000e+001  5.000000e+000
      vertex -5.000000e+000 -5.000000e+000  5.000000e+000
      vertex -1.000000e+001 -5.000000e+000  5.000000e+000
    endloop
  endfacet
  facet normal  0.000000e+000  0.000000e+000  1.000000e+000
    outer loop
      vertex -1.000000e+001 -1.000000e+001  5.000000e+000
      vertex -1.000000e+001 -5.000000e+000  5.000000e+000
      vertex -1.358579e+001 -5.000000e+000  5.000000e+000
    endloop
  endfacet
  facet normal  0.000000e+000  0.000000e+000  1.000000e+000
    outer loop
      vertex -1.000000e+001 -1.000000e+001  5.000000e+000
      vertex -1.358579e+001 -5.000000e+000  5.000000e+000
      vertex -1.500000e+001 -1.000000e+001  5.000000e+000
    endloop
  endfacet
  facet normal  0.000000e+000  -0.000000e+000  1.000000e+000
    outer loop
      vertex -1.641421e+001 -5.000000e+000  5.000000e+000
      vertex -1.500000e+001 -6.414214e+000  5.000000e+000
      vertex -1.358579e+001 -5.000000e+000  5.000000e+000
    endloop
  endfacet
  facet normal  0.000000e+000  0.000000e+000  1.000000e+000
    outer loop
      vertex -1.641421e+001 -5.000000e+000  5.000000e+000
      vertex -1.358579e+001 -5.000000e+000  5.000000e+000
      vertex -1.500000e+001 -3.585786e+000  5.000000e+000
    endloop
  endfacet
  facet normal  0.000000e+000  0.000000e+000  1.000000e+000
    outer loop
      vertex -1.641421e+001 -5.000000e+000  5.000000e+000
      vertex -1.500000e+001 -3.585786e+000  5.000000e+000
      vertex -2.000000e+001 -5.000000e+000  5.000000e+000
    endloop
  endfacet
  facet normal  0.000000e+000  0.000000e+000  1.000000e+000
    outer loop
      vertex -2.000000e+001  5.000000e+000  5.000000e+000
      vertex -2.000000e+001 -5.000000e+000  5.000000e+000
      vertex -1.500000e+001 -3.585786e+000  5.000000e+000
    endloop
  endfacet
  facet normal  0.000000e+000  -0.000000e+000  1.000000e+000
    outer loop
      vertex -2.000000e+001  5.000000e+000  5.000000e+000
      vertex -1.500000e+001 -3.585786e+000  5.000000e+000
      vertex -1.500000e+001 -2.220446e-016  5.000000e+000
    endloop
  endfacet
  facet normal  0.000000e+000  -0.000000e+000  1.000000e+000
    outer loop
      vertex -2.000000e+001  5.000000e+000  5.000000e+000
      vertex -1.500000e+001 -2.220446e-016  5.000000e+000
      vertex -1.500000e+001  1.000000e+001  5.000000e+000
    endloop
  endfacet
  facet normal  0.000000e+000  0.000000e+000  1.000000e+000
    outer loop
      vertex -2.000000e+001  5.000000e+000  5.000000e+000
      vertex -1.500000e+001  1.000000e+001  5.000000e+000
      vertex -2.500000e+001  5.000000e+000  5.000000e+000
    endloop
  endfacet
  facet normal  -0.000000e+000  0.000000e+000  1.000000e+000
    outer loop
      vertex -2.500000e+001  1.000000e+001  5.000000e+000
      vertex -3.000000e+001  1.000000e+001  5.000000e+000
      vertex -2.500000e+001  5.000000e+000  5.000000e+000
    endloop
  endfacet
  facet normal  0.000000e+000  0.000000e+000  1.000000e+000
    outer loop
      vertex -2.500000e+001  1.000000e+001  5.000000e+000
      vertex -2.500000e+001  5.000000e+000  5.000000e+000
      vertex -1.500000e+001  1.000000e+001  5.000000e+000
    endloop
  endfacet
  facet normal  0.000000e+000  0.000000e+000  1.000000e+000
    outer loop
      vertex -2.500000e+001  1.000000e+001  5.000000e+000
      vertex -1.500000e+001  1.000000e+001  5.000000e+000
      vertex -2.000000e+001  1.500000e+001  5.000000e+000
    endloop
  endfacet
  facet normal  0.000000e+000  0.000000e+000  1.000000e+000
    outer loop
      vertex -2.500000e+001  1.000000e+001  5.000000e+000
      vertex -2.000000e+001  1.500000e+001  5.000000e+000
      vertex -2.500000e+001  1.500000e+001  5.000000e+000
    endloop
  endfacet
  facet normal  -0.000000e+000  0.000000e+000  1.000000e+000
    outer loop
      vertex -1.500000e+001  2.000000e+001  5.000000e+000
      vertex -2.000000e+001  2.000000e+001  5.000000e+000
      vertex -1.500000e+001  1.500000e+001  5.000000e+000
    endloop
  endfacet
  facet normal  0.000000e+000  0.000000e+000  1.000000e+000
    outer loop
      vertex -1.500000e+001  2.000000e+001  5.000000e+000
      vertex -1.500000e+001  1.500000e+001  5.000000e+000
      vertex -1.358579e+001  2.500000e+001  5.000000e+000
    endloop
  endfacet
  facet normal  0.000000e+000  0.000000e+000  1.000000e+000
    outer loop
      vertex -1.500000e+001  2.000000e+001  5.000000e+000
      vertex -1.358579e+001  2.500000e+001  5.000000e+000
      vertex -1.500000e+001  2.358579e+001  5.000000e+000
    endloop
  endfacet
  facet normal  0.000000e+000  -0.000000e+000  1.000000e+000
    outer loop
      vertex -1.641421e+001  2.500000e+001  5.000000e+000
      vertex -1.500000e+001  2.358579e+001  5.000000e+000
      vertex -1.358579e+001  2.500000e+001  5.000000e+000
    endloop
  endfacet
  facet normal  0.000000e+000  0.000000e+000  1.000000e+000
    outer loop
      vertex -1.641421e+001  2.500000e+001  5.000000e+000
      vertex -1.358579e+001  2.500000e+001  5.000000e+000
      vertex -1.500000e+001  2.641421e+001  5.000000e+000
    endloop
  endfacet
  facet normal  0.000000e+000  0.000000e+000  1.000000e+000
    outer loop
      vertex -1.641421e+001  2.500000e+001  5.000000e+000
      vertex -1.500000e+001  2.641421e+001  5.000000e+000
      vertex -2.000000e+001  2.500000e+001  5.000000e+000
    endloop
  endfacet
  facet normal  0.000000e+000  -0.000000e+000  1.000000e+000
    outer loop
      vertex -1.500000e+001 -2.220446e-016  5.000000e+000
      vertex  1.500000e+001  0.000000e+000  5.000000e+000
      vertex  1.500000e+001  1.000000e+001  5.000000e+000
    endloop
  endfacet
  facet normal  0.000000e+000  0.000000e+000  1.000000e+000
    outer loop
      vertex -1.500000e+001 -2.220446e-016  5.000000e+000
      vertex  1.500000e+001  1.000000e+001  5.000000e+000
      vertex  1.000000e+001  1.000000e+001  5.000000e+000
    endloop
  endfacet
  facet normal  0.000000e+000  0.000000e+000  1.000000e+000
    outer loop
      vertex -1.500000e+001 -2.220446e-016  5.000000e+000
      vertex  1.000000e+001  1.000000e+001  5.000000e+000
      vertex -1.000000e+001  1.000000e+001  5.000000e+000
    endloop
  endfacet
  facet normal  0.000000e+000  0.000000e+000  1.000000e+000
    outer loop
      vertex -1.500000e+001 -2.220446e-016  5.000000e+000
      vertex -1.000000e+001  1.000000e+001  5.000000e+000
      vertex -1.500000e+001  1.000000e+001  5.000000e+000
    endloop
  endfacet
  facet normal  0.000000e+000  0.000000e+000  1.000000e+000
    outer loop
      vertex -1.500000e+001  1.500000e+001  5.000000e+000
      vertex -2.000000e+001  2.000000e+001  5.000000e+000
      vertex -1.500000e+001  1.000000e+001  5.000000e+000
    endloop
  endfacet
  facet normal  0.000000e+000  0.000000e+000  1.000000e+000
    outer loop
      vertex -1.500000e+001  1.000000e+001  5.000000e+000
      vertex -2.000000e+001  2.000000e+001  5.000000e+000
      vertex -2.000000e+001  1.500000e+001  5.000000e+000
    endloop
  endfacet
  facet normal  0.000000e+000  0.000000e+000  1.000000e+000
    outer loop
      vertex  1.500000e+001  1.500000e+001  5.000000e+000
      vertex  2.000000e+001  1.500000e+001  5.000000e+000
      vertex  1.500000e+001  2.000000e+001  5.000000e+000
    endloop
  endfacet
  facet normal  -0.000000e+000  0.000000e+000  1.000000e+000
    outer loop
      vertex  1.500000e+001  2.000000e+001  5.000000e+000
      vertex  2.000000e+001  1.500000e+001  5.000000e+000
      vertex  2.000000e+001  2.000000e+001  5.000000e+000
    endloop
  endfacet
  facet normal  0.000000e+000  0.000000e+000  1.000000e+000
    outer loop
      vertex  1.000000e+001 -1.000000e+001  5.000000e+000
      vertex  1.500000e+001 -1.000000e+001  5.000000e+000
      vertex  1.358579e+001 -5.000000e+000  5.000000e+000
    endloop
  endfacet
  facet normal  0.000000e+000  0.000000e+000  1.000000e+000
    outer loop
      vertex  1.358579e+001 -5.000000e+000  5.000000e+000
      vertex  1.500000e+001 -1.000000e+001  5.000000e+000
      vertex  1.500000e+001 -6.414214e+000  5.000000e+000
    endloop
  endfacet
  facet normal  0.000000e+000  -0.000000e+000  1.000000e+000
    outer loop
      vertex  1.358579e+001 -5.000000e+000  5.000000e+000
      vertex  1.500000e+001 -6.414214e+000  5.000000e+000
      vertex  1.641421e+001 -5.000000e+000  5.000000e+000
    endloop
  endfacet
  facet normal  0.000000e+000  0.000000e+000  1.000000e+000
    outer loop
      vertex -3.000000e+001 -5.000000e+000  5.000000e+000
      vertex -2.500000e+001 -5.000000e+000  5.000000e+000
      vertex -3.000000e+001  1.000000e+001  5.000000e+000
    endloop
  endfacet
  facet normal  0.000000e+000  0.000000e+000  1.000000e+000
    outer loop
      vertex -3.000000e+001  1.000000e+001  5.000000e+000
      vertex -2.500000e+001 -5.000000e+000  5.000000e+000
      vertex -2.500000e+001  5.000000e+000  5.000000e+000
    endloop
  endfacet
  facet normal  0.000000e+000  0.000000e+000  1.000000e+000
    outer loop
      vertex -2.000000e+001  2.500000e+001  5.000000e+000
      vertex -1.500000e+001  2.641421e+001  5.000000e+000
      vertex -2.000000e+001  3.000000e+001  5.000000e+000
    endloop
  endfacet
  facet normal  -0.000000e+000  0.000000e+000  1.000000e+000
    outer loop
      vertex -2.000000e+001  3.000000e+001  5.000000e+000
      vertex -1.500000e+001  2.641421e+001  5.000000e+000
      vertex -1.500000e+001  3.000000e+001  5.000000e+000
    endloop
  endfacet
  facet normal  0.000000e+000  0.000000e+000  1.000000e+000
    outer loop
      vertex -1.000000e+001  1.000000e+001  5.000000e+000
      vertex  1.000000e+001  1.000000e+001  5.000000e+000
      vertex -1.000000e+001  1.500000e+001  5.000000e+000
    endloop
  endfacet
  facet normal  -0.000000e+000  0.000000e+000  1.000000e+000
    outer loop
      vertex -1.000000e+001  1.500000e+001  5.000000e+000
      vertex  1.000000e+001  1.000000e+001  5.000000e+000
      vertex  1.000000e+001  1.500000e+001  5.000000e+000
    endloop
  endfacet
  facet normal  -0.000000e+000  0.000000e+000  1.000000e+000
    outer loop
      vertex  2.000000e+001  3.000000e+001  5.000000e+000
      vertex  1.500000e+001  3.000000e+001  5.000000e+000
      vertex  2.000000e+001  2.500000e+001  5.000000e+000
    endloop
  endfacet
  facet normal  0.000000e+000  0.000000e+000  1.000000e+000
    outer loop
      vertex  2.000000e+001  2.500000e+001  5.000000e+000
      vertex  1.500000e+001  3.000000e+001  5.000000e+000
      vertex  1.500000e+001  2.641421e+001  5.000000e+000
    endloop
  endfacet
  facet normal  0.000000e+000  0.000000e+000  1.000000e+000
    outer loop
      vertex  2.000000e+001  2.500000e+001  5.000000e+000
      vertex  1.500000e+001  2.641421e+001  5.000000e+000
      vertex  1.641421e+001  2.500000e+001  5.000000e+000
    endloop
  endfacet
  facet normal  0.000000e+000  0.000000e+000  1.000000e+000
    outer loop
      vertex  2.500000e+001 -5.000000e+000  5.000000e+000
      vertex  3.000000e+001 -5.000000e+000  5.000000e+000
      vertex  2.500000e+001  5.000000e+000  5.000000e+000
    endloop
  endfacet
  facet normal  -0.000000e+000  0.000000e+000  1.000000e+000
    outer loop
      vertex  2.500000e+001  5.000000e+000  5.000000e+000
      vertex  3.000000e+001 -5.000000e+000  5.000000e+000
      vertex  3.000000e+001  1.000000e+001  5.000000e+000
    endloop
  endfacet
  facet normal  0.000000e+000  0.000000e+000 -1.000000e+000
    outer loop
      vertex  1.641421e+001 -5.000000e+000  0.000000e+000
      vertex  1.358579e+001 -5.000000e+000  0.000000e+000
      vertex  1.500000e+001 -3.585786e+000  0.000000e+000
    endloop
  endfacet
  facet normal  0.000000e+000  0.000000e+000 -1.000000e+000
    outer loop
      vertex  2.000000e+001 -5.000000e+000  0.000000e+000
      vertex  1.641421e+001 -5.000000e+000  0.000000e+000
      vertex  1.500000e+001 -3.585786e+000  0.000000e+000
    endloop
  endfacet
  facet normal  -0.000000e+000  0.000000e+000 -1.000000e+000
    outer loop
      vertex  1.358579e+001  2.500000e+001  0.000000e+000
      vertex  1.641421e+001  2.500000e+001  0.000000e+000
      vertex  1.500000e+001  2.358579e+001  0.000000e+000
    endloop
  endfacet
  facet normal  0.000000e+000  0.000000e+000 -1.000000e+000
    outer loop
      vertex  1.500000e+001  2.000000e+001  0.000000e+000
      vertex  1.358579e+001  2.500000e+001  0.000000e+000
      vertex  1.500000e+001  2.358579e+001  0.000000e+000
    endloop
  endfacet
  facet normal  0.000000e+000  -0.000000e+000 -1.000000e+000
    outer loop
      vertex  1.358579e+001  2.500000e+001  0.000000e+000
      vertex  1.500000e+001  2.641421e+001  0.000000e+000
      vertex  1.641421e+001  2.500000e+001  0.000000e+000
    endloop
  endfacet
  facet normal  0.000000e+000  0.000000e+000 -1.000000e+000
    outer loop
      vertex -1.500000e+001 -1.000000e+001  0.000000e+000
      vertex -1.500000e+001 -6.414214e+000  0.000000e+000
      vertex -1.358579e+001 -5.000000e+000  0.000000e+000
    endloop
  endfacet
  facet normal  -0.000000e+000  -0.000000e+000 -1.000000e+000
    outer loop
      vertex -1.000000e+001  2.000000e+001  0.000000e+000
      vertex  1.000000e+001  2.000000e+001  0.000000e+000
      vertex  1.000000e+001  1.500000e+001  0.000000e+000
    endloop
  endfacet
  facet normal  0.000000e+000  0.000000e+000 -1.000000e+000
    outer loop
      vertex -1.000000e+001  2.000000e+001  0.000000e+000
      vertex  1.000000e+001  1.500000e+001  0.000000e+000
      vertex -1.000000e+001  1.500000e+001  0.000000e+000
    endloop
  endfacet
  facet normal  0.000000e+000  0.000000e+000 -1.000000e+000
    outer loop
      vertex -1.000000e+001  2.000000e+001  0.000000e+000
      vertex -1.000000e+001  1.500000e+001  0.000000e+000
      vertex -1.500000e+001  1.500000e+001  0.000000e+000
    endloop
  endfacet
  facet normal  0.000000e+000  0.000000e+000 -1.000000e+000
    outer loop
      vertex -1.000000e+001  2.000000e+001  0.000000e+000
      vertex -1.500000e+001  1.500000e+001  0.000000e+000
      vertex -1.358579e+001  2.500000e+001  0.000000e+000
    endloop
  endfacet
  facet normal  0.000000e+000  0.000000e+000 -1.000000e+000
    outer loop
      vertex -1.000000e+001  2.000000e+001  0.000000e+000
      vertex -1.358579e+001  2.500000e+001  0.000000e+000
      vertex -1.000000e+001  2.500000e+001  0.000000e+000
    endloop
  endfacet
  facet normal  -0.000000e+000  -0.000000e+000 -1.000000e+000
    outer loop
      vertex  1.358579e+001  2.500000e+001  0.000000e+000
      vertex  1.500000e+001  2.000000e+001  0.000000e+000
      vertex  1.500000e+001  1.500000e+001  0.000000e+000
    endloop
  endfacet
  facet normal  0.000000e+000  0.000000e+000 -1.000000e+000
    outer loop
      vertex  1.358579e+001  2.500000e+001  0.000000e+000
      vertex  1.500000e+001  1.500000e+001  0.000000e+000
      vertex  1.000000e+001  1.500000e+001  0.000000e+000
    endloop
  endfacet
  facet normal  0.000000e+000  0.000000e+000 -1.000000e+000
    outer loop
      vertex  1.358579e+001  2.500000e+001  0.000000e+000
      vertex  1.000000e+001  1.500000e+001  0.000000e+000
      vertex  1.000000e+001  2.000000e+001  0.000000e+000
    endloop
  endfacet
  facet normal  0.000000e+000  0.000000e+000 -1.000000e+000
    outer loop
      vertex  1.358579e+001  2.500000e+001  0.000000e+000
      vertex  1.000000e+001  2.000000e+001  0.000000e+000
      vertex  1.000000e+001  2.500000e+001  0.000000e+000
    endloop
  endfacet
  facet normal  0.000000e+000  0.000000e+000 -1.000000e+000
    outer loop
      vertex  2.500000e+001  1.000000e+001  0.000000e+000
      vertex  1.500000e+001  1.000000e+001  0.000000e+000
      vertex  1.500000e+001  1.500000e+001  0.000000e+000
    endloop
  endfacet
  facet normal  0.000000e+000  0.000000e+000 -1.000000e+000
    outer loop
      vertex  2.500000e+001  1.000000e+001  0.000000e+000
      vertex  1.500000e+001  1.500000e+001  0.000000e+000
      vertex  2.000000e+001  1.500000e+001  0.000000e+000
    endloop
  endfacet
  facet normal  0.000000e+000  0.000000e+000 -1.000000e+000
    outer loop
      vertex  2.500000e+001  1.000000e+001  0.000000e+000
      vertex  2.000000e+001  1.500000e+001  0.000000e+000
      vertex  2.500000e+001  1.500000e+001  0.000000e+000
    endloop
  endfacet
  facet normal  0.000000e+000  0.000000e+000 -1.000000e+000
    outer loop
      vertex  2.000000e+001  5.000000e+000  0.000000e+000
      vertex  2.000000e+001 -5.000000e+000  0.000000e+000
      vertex  1.500000e+001 -3.585786e+000  0.000000e+000
    endloop
  endfacet
  facet normal  0.000000e+000  0.000000e+000 -1.000000e+000
    outer loop
      vertex  2.000000e+001  5.000000e+000  0.000000e+000
      vertex  1.500000e+001 -3.585786e+000  0.000000e+000
      vertex  1.500000e+001  0.000000e+000  0.000000e+000
    endloop
  endfacet
  facet normal  0.000000e+000  0.000000e+000 -1.000000e+000
    outer loop
      vertex  2.000000e+001  5.000000e+000  0.000000e+000
      vertex  1.500000e+001  0.000000e+000  0.000000e+000
      vertex  1.500000e+001  1.000000e+001  0.000000e+000
    endloop
  endfacet
  facet normal  0.000000e+000  0.000000e+000 -1.000000e+000
    outer loop
      vertex  2.000000e+001  5.000000e+000  0.000000e+000
      vertex  1.500000e+001  1.000000e+001  0.000000e+000
      vertex  2.500000e+001  1.000000e+001  0.000000e+000
    endloop
  endfacet
  facet normal  0.000000e+000  -0.000000e+000 -1.000000e+000
    outer loop
      vertex  2.000000e+001  5.000000e+000  0.000000e+000
      vertex  2.500000e+001  1.000000e+001  0.000000e+000
      vertex  3.000000e+001  1.000000e+001  0.000000e+000
    endloop
  endfacet
  facet normal  0.000000e+000  0.000000e+000 -1.000000e+000
    outer loop
      vertex  2.000000e+001  5.000000e+000  0.000000e+000
      vertex  3.000000e+001  1.000000e+001  0.000000e+000
      vertex  2.500000e+001  5.000000e+000  0.000000e+000
    endloop
  endfacet
  facet normal  -0.000000e+000  0.000000e+000 -1.000000e+000
    outer loop
      vertex  1.000000e+001 -5.000000e+000  0.000000e+000
      vertex  1.358579e+001 -5.000000e+000  0.000000e+000
      vertex  1.000000e+001 -1.000000e+001  0.000000e+000
    endloop
  endfacet
  facet normal  0.000000e+000  0.000000e+000 -1.000000e+000
    outer loop
      vertex  1.000000e+001 -5.000000e+000  0.000000e+000
      vertex  1.000000e+001 -1.000000e+001  0.000000e+000
      vertex  5.000000e+000 -1.000000e+001  0.000000e+000
    endloop
  endfacet
  facet normal  0.000000e+000  0.000000e+000 -1.000000e+000
    outer loop
      vertex  1.000000e+001 -5.000000e+000  0.000000e+000
      vertex  5.000000e+000 -1.000000e+001  0.000000e+000
      vertex  5.000000e+000 -5.000000e+000  0.000000e+000
    endloop
  endfacet
  facet normal  0.000000e+000  0.000000e+000 -1.000000e+000
    outer loop
      vertex -1.000000e+001 -1.000000e+001  0.000000e+000
      vertex -1.500000e+001 -1.000000e+001  0.000000e+000
      vertex -1.358579e+001 -5.000000e+000  0.000000e+000
    endloop
  endfacet
  facet normal  0.000000e+000  0.000000e+000 -1.000000e+000
    outer loop
      vertex -1.000000e+001 -1.000000e+001  0.000000e+000
      vertex -1.358579e+001 -5.000000e+000  0.000000e+000
      vertex -1.000000e+001 -5.000000e+000  0.000000e+000
    endloop
  endfacet
  facet normal  0.000000e+000  0.000000e+000 -1.000000e+000
    outer loop
      vertex -1.000000e+001 -1.000000e+001  0.000000e+000
      vertex -1.000000e+001 -5.000000e+000  0.000000e+000
      vertex -5.000000e+000 -5.000000e+000  0.000000e+000
    endloop
  endfacet
  facet normal  0.000000e+000  -0.000000e+000 -1.000000e+000
    outer loop
      vertex -1.000000e+001 -1.000000e+001  0.000000e+000
      vertex -5.000000e+000 -5.000000e+000  0.000000e+000
      vertex -5.000000e+000 -1.000000e+001  0.000000e+000
    endloop
  endfacet
  facet normal  0.000000e+000  0.000000e+000 -1.000000e+000
    outer loop
      vertex -1.641421e+001 -5.000000e+000  0.000000e+000
      vertex -2.000000e+001 -5.000000e+000  0.000000e+000
      vertex -1.500000e+001 -3.585786e+000  0.000000e+000
    endloop
  endfacet
  facet normal  0.000000e+000  -0.000000e+000 -1.000000e+000
    outer loop
      vertex -1.641421e+001 -5.000000e+000  0.000000e+000
      vertex -1.500000e+001 -3.585786e+000  0.000000e+000
      vertex -1.358579e+001 -5.000000e+000  0.000000e+000
    endloop
  endfacet
  facet normal  -0.000000e+000  0.000000e+000 -1.000000e+000
    outer loop
      vertex -1.641421e+001 -5.000000e+000  0.000000e+000
      vertex -1.358579e+001 -5.000000e+000  0.000000e+000
      vertex -1.500000e+001 -6.414214e+000  0.000000e+000
    endloop
  endfacet
  facet normal  0.000000e+000  0.000000e+000 -1.000000e+000
    outer loop
      vertex -2.000000e+001  5.000000e+000  0.000000e+000
      vertex -2.500000e+001  5.000000e+000  0.000000e+000
      vertex -1.500000e+001  1.000000e+001  0.000000e+000
    endloop
  endfacet
  facet normal  0.000000e+000  -0.000000e+000 -1.000000e+000
    outer loop
      vertex -2.000000e+001  5.000000e+000  0.000000e+000
      vertex -1.500000e+001  1.000000e+001  0.000000e+000
      vertex -1.500000e+001 -2.220446e-016  0.000000e+000
    endloop
  endfacet
  facet normal  -0.000000e+000  -0.000000e+000 -1.000000e+000
    outer loop
      vertex -2.000000e+001  5.000000e+000  0.000000e+000
      vertex -1.500000e+001 -2.220446e-016  0.000000e+000
      vertex -1.500000e+001 -3.585786e+000  0.000000e+000
    endloop
  endfacet
  facet normal  -0.000000e+000  0.000000e+000 -9.999999e-001
    outer loop
      vertex -2.000000e+001  5.000000e+000  0.000000e+000
      vertex -1.500000e+001 -3.585786e+000  0.000000e+000
      vertex -2.000000e+001 -5.000000e+000  0.000000e+000
    endloop
  endfacet
  facet normal  0.000000e+000  0.000000e+000 -1.000000e+000
    outer loop
      vertex -2.500000e+001  1.000000e+001  0.000000e+000
      vertex -2.500000e+001  1.500000e+001  0.000000e+000
      vertex -2.000000e+001  1.500000e+001  0.000000e+000
    endloop
  endfacet
  facet normal  0.000000e+000  -0.000000e+000 -1.000000e+000
    outer loop
      vertex -2.500000e+001  1.000000e+001  0.000000e+000
      vertex -2.000000e+001  1.500000e+001  0.000000e+000
      vertex -1.500000e+001  1.000000e+001  0.000000e+000
    endloop
  endfacet
  facet normal  -0.000000e+000  0.000000e+000 -1.000000e+000
    outer loop
      vertex -2.500000e+001  1.000000e+001  0.000000e+000
      vertex -1.500000e+001  1.000000e+001  0.000000e+000
      vertex -2.500000e+001  5.000000e+000  0.000000e+000
    endloop
  endfacet
  facet normal  0.000000e+000  0.000000e+000 -1.000000e+000
    outer loop
      vertex -2.500000e+001  1.000000e+001  0.000000e+000
      vertex -2.500000e+001  5.000000e+000  0.000000e+000
      vertex -3.000000e+001  1.000000e+001  0.000000e+000
    endloop
  endfacet
  facet normal  0.000000e+000  0.000000e+000 -1.000000e+000
    outer loop
      vertex -1.500000e+001  2.000000e+001  0.000000e+000
      vertex -1.500000e+001  2.358579e+001  0.000000e+000
      vertex -1.358579e+001  2.500000e+001  0.000000e+000
    endloop
  endfacet
  facet normal  0.000000e+000  0.000000e+000 -1.000000e+000
    outer loop
      vertex -1.500000e+001  2.000000e+001  0.000000e+000
      vertex -1.358579e+001  2.500000e+001  0.000000e+000
      vertex -1.500000e+001  1.500000e+001  0.000000e+000
    endloop
  endfacet
  facet normal  0.000000e+000  0.000000e+000 -1.000000e+000
    outer loop
      vertex -1.500000e+001  2.000000e+001  0.000000e+000
      vertex -1.500000e+001  1.500000e+001  0.000000e+000
      vertex -2.000000e+001  2.000000e+001  0.000000e+000
    endloop
  endfacet
  facet normal  0.000000e+000  0.000000e+000 -1.000000e+000
    outer loop
      vertex -1.641421e+001  2.500000e+001  0.000000e+000
      vertex -2.000000e+001  2.500000e+001  0.000000e+000
      vertex -1.500000e+001  2.641421e+001  0.000000e+000
    endloop
  endfacet
  facet normal  0.000000e+000  -0.000000e+000 -1.000000e+000
    outer loop
      vertex -1.641421e+001  2.500000e+001  0.000000e+000
      vertex -1.500000e+001  2.641421e+001  0.000000e+000
      vertex -1.358579e+001  2.500000e+001  0.000000e+000
    endloop
  endfacet
  facet normal  -0.000000e+000  0.000000e+000 -1.000000e+000
    outer loop
      vertex -1.641421e+001  2.500000e+001  0.000000e+000
      vertex -1.358579e+001  2.500000e+001  0.000000e+000
      vertex -1.500000e+001  2.358579e+001  0.000000e+000
    endloop
  endfacet
  facet normal  0.000000e+000  0.000000e+000 -1.000000e+000
    outer loop
      vertex -1.500000e+001 -2.220446e-016  0.000000e+000
      vertex -1.500000e+001  1.000000e+001  0.000000e+000
      vertex -1.000000e+001  1.000000e+001  0.000000e+000
    endloop
  endfacet
  facet normal  0.000000e+000  -0.000000e+000 -1.000000e+000
    outer loop
      vertex -1.500000e+001 -2.220446e-016  0.000000e+000
      vertex -1.000000e+001  1.000000e+001  0.000000e+000
      vertex  1.000000e+001  1.000000e+001  0.000000e+000
    endloop
  endfacet
  facet normal  0.000000e+000  -0.000000e+000 -1.000000e+000
    outer loop
      vertex -1.500000e+001 -2.220446e-016  0.000000e+000
      vertex  1.000000e+001  1.000000e+001  0.000000e+000
      vertex  1.500000e+001  1.000000e+001  0.000000e+000
    endloop
  endfacet
  facet normal  0.000000e+000  -0.000000e+000 -1.000000e+000
    outer loop
      vertex -1.500000e+001 -2.220446e-016  0.000000e+000
      vertex  1.500000e+001  1.000000e+001  0.000000e+000
      vertex  1.500000e+001  0.000000e+000  0.000000e+000
    endloop
  endfacet
  facet normal  0.000000e+000  0.000000e+000 -1.000000e+000
    outer loop
      vertex -1.500000e+001  1.500000e+001  0.000000e+000
      vertex -1.500000e+001  1.000000e+001  0.000000e+000
      vertex -2.000000e+001  2.000000e+001  0.000000e+000
    endloop
  endfacet
  facet normal  0.000000e+000  0.000000e+000 -1.000000e+000
    outer loop
      vertex -2.000000e+001  2.000000e+001  0.000000e+000
      vertex -1.500000e+001  1.000000e+001  0.000000e+000
      vertex -2.000000e+001  1.500000e+001  0.000000e+000
    endloop
  endfacet
  facet normal  0.000000e+000  0.000000e+000 -1.000000e+000
    outer loop
      vertex  1.500000e+001  1.500000e+001  0.000000e+000
      vertex  1.500000e+001  2.000000e+001  0.000000e+000
      vertex  2.000000e+001  1.500000e+001  0.000000e+000
    endloop
  endfacet
  facet normal  0.000000e+000  0.000000e+000 -1.000000e+000
    outer loop
      vertex  2.000000e+001  1.500000e+001  0.000000e+000
      vertex  1.500000e+001  2.000000e+001  0.000000e+000
      vertex  2.000000e+001  2.000000e+001  0.000000e+000
    endloop
  endfacet
  facet normal  0.000000e+000  0.000000e+000 -1.000000e+000
    outer loop
      vertex  1.641421e+001 -5.000000e+000  0.000000e+000
      vertex  1.500000e+001 -6.414214e+000  0.000000e+000
      vertex  1.358579e+001 -5.000000e+000  0.000000e+000
    endloop
  endfacet
  facet normal  0.000000e+000  0.000000e+000 -1.000000e+000
    outer loop
      vertex  1.358579e+001 -5.000000e+000  0.000000e+000
      vertex  1.500000e+001 -6.414214e+000  0.000000e+000
      vertex  1.500000e+001 -1.000000e+001  0.000000e+000
    endloop
  endfacet
  facet normal  0.000000e+000  0.000000e+000 -1.000000e+000
    outer loop
      vertex  1.358579e+001 -5.000000e+000  0.000000e+000
      vertex  1.500000e+001 -1.000000e+001  0.000000e+000
      vertex  1.000000e+001 -1.000000e+001  0.000000e+000
    endloop
  endfacet
  facet normal  0.000000e+000  0.000000e+000 -1.000000e+000
    outer loop
      vertex -3.000000e+001 -5.000000e+000  0.000000e+000
      vertex -3.000000e+001  1.000000e+001  0.000000e+000
      vertex -2.500000e+001 -5.000000e+000  0.000000e+000
    endloop
  endfacet
  facet normal  0.000000e+000  0.000000e+000 -1.000000e+000
    outer loop
      vertex -2.500000e+001 -5.000000e+000  0.000000e+000
      vertex -3.000000e+001  1.000000e+001  0.000000e+000
      vertex -2.500000e+001  5.000000e+000  0.000000e+000
    endloop
  endfacet
  facet normal  0.000000e+000  0.000000e+000 -1.000000e+000
    outer loop
      vertex -2.000000e+001  2.500000e+001  0.000000e+000
      vertex -2.000000e+001  3.000000e+001  0.000000e+000
      vertex -1.500000e+001  2.641421e+001  0.000000e+000
    endloop
  endfacet
  facet normal  0.000000e+000  0.000000e+000 -1.000000e+000
    outer loop
      vertex -1.500000e+001  2.641421e+001  0.000000e+000
      vertex -2.000000e+001  3.000000e+001  0.000000e+000
      vertex -1.500000e+001  3.000000e+001  0.000000e+000
    endloop
  endfacet
  facet normal  0.000000e+000  0.000000e+000 -1.000000e+000
    outer loop
      vertex -1.000000e+001  1.000000e+001  0.000000e+000
      vertex -1.000000e+001  1.500000e+001  0.000000e+000
      vertex  1.000000e+001  1.000000e+001  0.000000e+000
    endloop
  endfacet
  facet normal  0.000000e+000  0.000000e+000 -1.000000e+000
    outer loop
      vertex  1.000000e+001  1.000000e+001  0.000000e+000
      vertex -1.000000e+001  1.500000e+001  0.000000e+000
      vertex  1.000000e+001  1.500000e+001  0.000000e+000
    endloop
  endfacet
  facet normal  0.000000e+000  0.000000e+000 -1.000000e+000
    outer loop
      vertex  1.641421e+001  2.500000e+001  0.000000e+000
      vertex  1.500000e+001  2.641421e+001  0.000000e+000
      vertex  2.000000e+001  2.500000e+001  0.000000e+000
    endloop
  endfacet
  facet normal  0.000000e+000  0.000000e+000 -1.000000e+000
    outer loop
      vertex  2.000000e+001  2.500000e+001  0.000000e+000
      vertex  1.500000e+001  2.641421e+001  0.000000e+000
      vertex  1.500000e+001  3.000000e+001  0.000000e+000
    endloop
  endfacet
  facet normal  0.000000e+000  0.000000e+000 -1.000000e+000
    outer loop
      vertex  2.000000e+001  2.500000e+001  0.000000e+000
      vertex  1.500000e+001  3.000000e+001  0.000000e+000
      vertex  2.000000e+001  3.000000e+001  0.000000e+000
    endloop
  endfacet
  facet normal  0.000000e+000  0.000000e+000 -1.000000e+000
    outer loop
      vertex  2.500000e+001 -5.000000e+000  0.000000e+000
      vertex  2.500000e+001  5.000000e+000  0.000000e+000
      vertex  3.000000e+001 -5.000000e+000  0.000000e+000
    endloop
  endfacet
  facet normal  0.000000e+000  0.000000e+000 -1.000000e+000
    outer loop
      vertex  3.000000e+001 -5.000000e+000  0.000000e+000
      vertex  2.500000e+001  5.000000e+000  0.000000e+000
      vertex  3.000000e+001  1.000000e+001  0.000000e+000
    endloop
  endfacet
  facet normal  0.000000e+000 -1.000000e+000  0.000000e+000
    outer loop
      vertex  1.000000e+001  1.500000e+001  5.000000e+000
      vertex  1.000000e+001  1.500000e+001  0.000000e+000
      vertex  1.500000e+001  1.500000e+001  5.000000e+000
    endloop
  endfacet
  facet normal  0.000000e+000 -1.000000e+000  -0.000000e+000
    outer loop
      vertex  1.500000e+001  1.500000e+001  5.000000e+000
      vertex  1.000000e+001  1.500000e+001  0.000000e+000
      vertex  1.500000e+001  1.500000e+001  0.000000e+000
    endloop
  endfacet
  facet normal  1.000000e+000  -0.000000e+000  0.000000e+000
    outer loop
      vertex  1.000000e+001  1.500000e+001  5.000000e+000
      vertex  1.000000e+001  1.000000e+001  5.000000e+000
      vertex  1.000000e+001  1.500000e+001  0.000000e+000
    endloop
  endfacet
  facet normal  1.000000e+000  0.000000e+000  0.000000e+000
    outer loop
      vertex  1.000000e+001  1.500000e+001  0.000000e+000
      vertex  1.000000e+001  1.000000e+001  5.000000e+000
      vertex  1.000000e+001  1.000000e+001  0.000000e+000
    endloop
  endfacet
  facet normal  0.000000e+000  1.000000e+000  0.000000e+000
    outer loop
      vertex  1.000000e+001  1.000000e+001  5.000000e+000
      vertex  1.500000e+001  1.000000e+001  5.000000e+000
      vertex  1.000000e+001  1.000000e+001  0.000000e+000
    endloop
  endfacet
  facet normal  0.000000e+000  1.000000e+000  0.000000e+000
    outer loop
      vertex  1.000000e+001  1.000000e+001  0.000000e+000
      vertex  1.500000e+001  1.000000e+001  5.000000e+000
      vertex  1.500000e+001  1.000000e+001  0.000000e+000
    endloop
  endfacet
  facet normal -1.000000e+000  0.000000e+000  0.000000e+000
    outer loop
      vertex  1.500000e+001  1.500000e+001  5.000000e+000
      vertex  1.500000e+001  1.500000e+001  0.000000e+000
      vertex  1.500000e+001  1.000000e+001  5.000000e+000
    endloop
  endfacet
  facet normal -1.000000e+000  0.000000e+000  0.000000e+000
    outer loop
      vertex  1.500000e+001  1.000000e+001  5.000000e+000
      vertex  1.500000e+001  1.500000e+001  0.000000e+000
      vertex  1.500000e+001  1.000000e+001  0.000000e+000
    endloop
  endfacet
  facet normal  1.000000e+000  -0.000000e+000  0.000000e+000
    outer loop
      vertex -1.500000e+001  1.500000e+001  5.000000e+000
      vertex -1.500000e+001  1.000000e+001  5.000000e+000
      vertex -1.500000e+001  1.500000e+001  0.000000e+000
    endloop
  endfacet
  facet normal  1.000000e+000  0.000000e+000  0.000000e+000
    outer loop
      vertex -1.500000e+001  1.500000e+001  0.000000e+000
      vertex -1.500000e+001  1.000000e+001  5.000000e+000
      vertex -1.500000e+001  1.000000e+001  0.000000e+000
    endloop
  endfacet
  facet normal  0.000000e+000  1.000000e+000  0.000000e+000
    outer loop
      vertex -1.500000e+001  1.000000e+001  5.000000e+000
      vertex -1.000000e+001  1.000000e+001  5.000000e+000
      vertex -1.500000e+001  1.000000e+001  0.000000e+000
    endloop
  endfacet
  facet normal  0.000000e+000  1.000000e+000  0.000000e+000
    outer loop
      vertex -1.500000e+001  1.000000e+001  0.000000e+000
      vertex -1.000000e+001  1.000000e+001  5.000000e+000
      vertex -1.000000e+001  1.000000e+001  0.000000e+000
    endloop
  endfacet
  facet normal -1.000000e+000  0.000000e+000  0.000000e+000
    outer loop
      vertex -1.000000e+001  1.500000e+001  5.000000e+000
      vertex -1.000000e+001  1.500000e+001  0.000000e+000
      vertex -1.000000e+001  1.000000e+001  5.000000e+000
    endloop
  endfacet
  facet normal -1.000000e+000  0.000000e+000  0.000000e+000
    outer loop
      vertex -1.000000e+001  1.000000e+001  5.000000e+000
      vertex -1.000000e+001  1.500000e+001  0.000000e+000
      vertex -1.000000e+001  1.000000e+001  0.000000e+000
    endloop
  endfacet
  facet normal  0.000000e+000 -1.000000e+000  0.000000e+000
    outer loop
      vertex -1.500000e+001  1.500000e+001  5.000000e+000
      vertex -1.500000e+001  1.500000e+001  0.000000e+000
      vertex -1.000000e+001  1.500000e+001  5.000000e+000
    endloop
  endfacet
  facet normal  0.000000e+000 -1.000000e+000  -0.000000e+000
    outer loop
      vertex -1.000000e+001  1.500000e+001  5.000000e+000
      vertex -1.500000e+001  1.500000e+001  0.000000e+000
      vertex -1.000000e+001  1.500000e+001  0.000000e+000
    endloop
  endfacet
  facet normal  0.000000e+000  1.000000e+000  -0.000000e+000
    outer loop
      vertex -1.500000e+001  3.000000e+001  5.000000e+000
      vertex -1.500000e+001  3.000000e+001  0.000000e+000
      vertex -2.000000e+001  3.000000e+001  5.000000e+000
    endloop
  endfacet
  facet normal  0.000000e+000  1.000000e+000  0.000000e+000
    outer loop
      vertex -2.000000e+001  3.000000e+001  5.000000e+000
      vertex -1.500000e+001  3.000000e+001  0.000000e+000
      vertex -2.000000e+001  3.000000e+001  0.000000e+000
    endloop
  endfacet
  facet normal  1.000000e+000  -0.000000e+000  0.000000e+000
    outer loop
      vertex -1.500000e+001  3.000000e+001  5.000000e+000
      vertex -1.500000e+001  2.641421e+001  5.000000e+000
      vertex -1.500000e+001  3.000000e+001  0.000000e+000
    endloop
  endfacet
  facet normal  1.000000e+000  0.000000e+000  0.000000e+000
    outer loop
      vertex -1.500000e+001  3.000000e+001  0.000000e+000
      vertex -1.500000e+001  2.641421e+001  5.000000e+000
      vertex -1.500000e+001  2.641421e+001  0.000000e+000
    endloop
  endfacet
  facet normal  7.071068e-001  7.071068e-001  0.000000e+000
    outer loop
      vertex -1.500000e+001  2.641421e+001  0.000000e+000
      vertex -1.500000e+001  2.641421e+001  5.000000e+000
      vertex -1.358579e+001  2.500000e+001  0.000000e+000
    endloop
  endfacet
  facet normal  7.071068e-001  7.071068e-001  -0.000000e+000
    outer loop
      vertex -1.358579e+001  2.500000e+001  0.000000e+000
      vertex -1.500000e+001  2.641421e+001  5.000000e+000
      vertex -1.358579e+001  2.500000e+001  5.000000e+000
    endloop
  endfacet
  facet normal  0.000000e+000  1.000000e+000  0.000000e+000
    outer loop
      vertex -1.358579e+001  2.500000e+001  5.000000e+000
      vertex -1.000000e+001  2.500000e+001  5.000000e+000
      vertex -1.358579e+001  2.500000e+001  0.000000e+000
    endloop
  endfacet
  facet normal  0.000000e+000  1.000000e+000  0.000000e+000
    outer loop
      vertex -1.358579e+001  2.500000e+001  0.000000e+000
      vertex -1.000000e+001  2.500000e+001  5.000000e+000
      vertex -1.000000e+001  2.500000e+001  0.000000e+000
    endloop
  endfacet
  facet normal  1.000000e+000  -0.000000e+000  0.000000e+000
    outer loop
      vertex -1.000000e+001  2.500000e+001  5.000000e+000
      vertex -1.000000e+001  2.000000e+001  5.000000e+000
      vertex -1.000000e+001  2.500000e+001  0.000000e+000
    endloop
  endfacet
  facet normal  1.000000e+000  0.000000e+000  0.000000e+000
    outer loop
      vertex -1.000000e+001  2.500000e+001  0.000000e+000
      vertex -1.000000e+001  2.000000e+001  5.000000e+000
      vertex -1.000000e+001  2.000000e+001  0.000000e+000
    endloop
  endfacet
  facet normal  0.000000e+000  1.000000e+000  0.000000e+000
    outer loop
      vertex -1.000000e+001  2.000000e+001  5.000000e+000
      vertex  1.000000e+001  2.000000e+001  5.000000e+000
      vertex -1.000000e+001  2.000000e+001  0.000000e+000
    endloop
  endfacet
  facet normal  0.000000e+000  1.000000e+000  0.000000e+000
    outer loop
      vertex -1.000000e+001  2.000000e+001  0.000000e+000
      vertex  1.000000e+001  2.000000e+001  5.000000e+000
      vertex  1.000000e+001  2.000000e+001  0.000000e+000
    endloop
  endfacet
  facet normal -1.000000e+000  0.000000e+000  0.000000e+000
    outer loop
      vertex  1.000000e+001  2.500000e+001  5.000000e+000
      vertex  1.000000e+001  2.500000e+001  0.000000e+000
      vertex  1.000000e+001  2.000000e+001  5.000000e+000
    endloop
  endfacet
  facet normal -1.000000e+000  0.000000e+000  0.000000e+000
    outer loop
      vertex  1.000000e+001  2.000000e+001  5.000000e+000
      vertex  1.000000e+001  2.500000e+001  0.000000e+000
      vertex  1.000000e+001  2.000000e+001  0.000000e+000
    endloop
  endfacet
  facet normal  0.000000e+000  1.000000e+000  0.000000e+000
    outer loop
      vertex  1.000000e+001  2.500000e+001  5.000000e+000
      vertex  1.358579e+001  2.500000e+001  5.000000e+000
      vertex  1.000000e+001  2.500000e+001  0.000000e+000
    endloop
  endfacet
  facet normal  0.000000e+000  1.000000e+000  0.000000e+000
    outer loop
      vertex  1.000000e+001  2.500000e+001  0.000000e+000
      vertex  1.358579e+001  2.500000e+001  5.000000e+000
      vertex  1.358579e+001  2.500000e+001  0.000000e+000
    endloop
  endfacet
  facet normal -7.071068e-001  7.071068e-001  0.000000e+000
    outer loop
      vertex  1.500000e+001  2.641421e+001  0.000000e+000
      vertex  1.358579e+001  2.500000e+001  0.000000e+000
      vertex  1.500000e+001  2.641421e+001  5.000000e+000
    endloop
  endfacet
  facet normal -7.071068e-001  7.071068e-001  0.000000e+000
    outer loop
      vertex  1.500000e+001  2.641421e+001  5.000000e+000
      vertex  1.358579e+001  2.500000e+001  0.000000e+000
      vertex  1.358579e+001  2.500000e+001  5.000000e+000
    endloop
  endfacet
  facet normal -1.000000e+000  0.000000e+000  0.000000e+000
    outer loop
      vertex  1.500000e+001  3.000000e+001  5.000000e+000
      vertex  1.500000e+001  3.000000e+001  0.000000e+000
      vertex  1.500000e+001  2.641421e+001  5.000000e+000
    endloop
  endfacet
  facet normal -1.000000e+000  0.000000e+000  0.000000e+000
    outer loop
      vertex  1.500000e+001  2.641421e+001  5.000000e+000
      vertex  1.500000e+001  3.000000e+001  0.000000e+000
      vertex  1.500000e+001  2.641421e+001  0.000000e+000
    endloop
  endfacet
  facet normal  0.000000e+000  1.000000e+000  -0.000000e+000
    outer loop
      vertex  2.000000e+001  3.000000e+001  5.000000e+000
      vertex  2.000000e+001  3.000000e+001  0.000000e+000
      vertex  1.500000e+001  3.000000e+001  5.000000e+000
    endloop
  endfacet
  facet normal  0.000000e+000  1.000000e+000  0.000000e+000
    outer loop
      vertex  1.500000e+001  3.000000e+001  5.000000e+000
      vertex  2.000000e+001  3.000000e+001  0.000000e+000
      vertex  1.500000e+001  3.000000e+001  0.000000e+000
    endloop
  endfacet
  facet normal  1.000000e+000  -0.000000e+000  0.000000e+000
    outer loop
      vertex  2.000000e+001  3.000000e+001  5.000000e+000
      vertex  2.000000e+001  2.500000e+001  5.000000e+000
      vertex  2.000000e+001  3.000000e+001  0.000000e+000
    endloop
  endfacet
  facet normal  1.000000e+000  0.000000e+000  0.000000e+000
    outer loop
      vertex  2.000000e+001  3.000000e+001  0.000000e+000
      vertex  2.000000e+001  2.500000e+001  5.000000e+000
      vertex  2.000000e+001  2.500000e+001  0.000000e+000
    endloop
  endfacet
  facet normal  0.000000e+000 -1.000000e+000  0.000000e+000
    outer loop
      vertex  1.641421e+001  2.500000e+001  5.000000e+000
      vertex  1.641421e+001  2.500000e+001  0.000000e+000
      vertex  2.000000e+001  2.500000e+001  5.000000e+000
    endloop
  endfacet
  facet normal  0.000000e+000 -1.000000e+000  -0.000000e+000
    outer loop
      vertex  2.000000e+001  2.500000e+001  5.000000e+000
      vertex  1.641421e+001  2.500000e+001  0.000000e+000
      vertex  2.000000e+001  2.500000e+001  0.000000e+000
    endloop
  endfacet
  facet normal  7.071068e-001 -7.071068e-001  0.000000e+000
    outer loop
      vertex  1.500000e+001  2.358579e+001  0.000000e+000
      vertex  1.641421e+001  2.500000e+001  0.000000e+000
      vertex  1.500000e+001  2.358579e+001  5.000000e+000
    endloop
  endfacet
  facet normal  7.071068e-001 -7.071068e-001  0.000000e+000
    outer loop
      vertex  1.500000e+001  2.358579e+001  5.000000e+000
      vertex  1.641421e+001  2.500000e+001  0.000000e+000
      vertex  1.641421e+001  2.500000e+001  5.000000e+000
    endloop
  endfacet
  facet normal  1.000000e+000  -0.000000e+000  0.000000e+000
    outer loop
      vertex  1.500000e+001  2.358579e+001  5.000000e+000
      vertex  1.500000e+001  2.000000e+001  5.000000e+000
      vertex  1.500000e+001  2.358579e+001  0.000000e+000
    endloop
  endfacet
  facet normal  1.000000e+000  0.000000e+000  0.000000e+000
    outer loop
      vertex  1.500000e+001  2.358579e+001  0.000000e+000
      vertex  1.500000e+001  2.000000e+001  5.000000e+000
      vertex  1.500000e+001  2.000000e+001  0.000000e+000
    endloop
  endfacet
  facet normal  0.000000e+000  1.000000e+000  0.000000e+000
    outer loop
      vertex  1.500000e+001  2.000000e+001  5.000000e+000
      vertex  2.000000e+001  2.000000e+001  5.000000e+000
      vertex  1.500000e+001  2.000000e+001  0.000000e+000
    endloop
  endfacet
  facet normal  0.000000e+000  1.000000e+000  0.000000e+000
    outer loop
      vertex  1.500000e+001  2.000000e+001  0.000000e+000
      vertex  2.000000e+001  2.000000e+001  5.000000e+000
      vertex  2.000000e+001  2.000000e+001  0.000000e+000
    endloop
  endfacet
  facet normal  1.000000e+000  -0.000000e+000  0.000000e+000
    outer loop
      vertex  2.000000e+001  2.000000e+001  5.000000e+000
      vertex  2.000000e+001  1.500000e+001  5.000000e+000
      vertex  2.000000e+001  2.000000e+001  0.000000e+000
    endloop
  endfacet
  facet normal  1.000000e+000  0.000000e+000  0.000000e+000
    outer loop
      vertex  2.000000e+001  2.000000e+001  0.000000e+000
      vertex  2.000000e+001  1.500000e+001  5.000000e+000
      vertex  2.000000e+001  1.500000e+001  0.000000e+000
    endloop
  endfacet
  facet normal  0.000000e+000  1.000000e+000  0.000000e+000
    outer loop
      vertex  2.000000e+001  1.500000e+001  5.000000e+000
      vertex  2.500000e+001  1.500000e+001  5.000000e+000
      vertex  2.000000e+001  1.500000e+001  0.000000e+000
    endloop
  endfacet
  facet normal  0.000000e+000  1.000000e+000  0.000000e+000
    outer loop
      vertex  2.000000e+001  1.500000e+001  0.000000e+000
      vertex  2.500000e+001  1.500000e+001  5.000000e+000
      vertex  2.500000e+001  1.500000e+001  0.000000e+000
    endloop
  endfacet
  facet normal  1.000000e+000  -0.000000e+000  0.000000e+000
    outer loop
      vertex  2.500000e+001  1.500000e+001  5.000000e+000
      vertex  2.500000e+001  1.000000e+001  5.000000e+000
      vertex  2.500000e+001  1.500000e+001  0.000000e+000
    endloop
  endfacet
  facet normal  1.000000e+000  0.000000e+000  0.000000e+000
    outer loop
      vertex  2.500000e+001  1.500000e+001  0.000000e+000
      vertex  2.500000e+001  1.000000e+001  5.000000e+000
      vertex  2.500000e+001  1.000000e+001  0.000000e+000
    endloop
  endfacet
  facet normal  0.000000e+000  1.000000e+000  0.000000e+000
    outer loop
      vertex  2.500000e+001  1.000000e+001  5.000000e+000
      vertex  3.000000e+001  1.000000e+001  5.000000e+000
      vertex  2.500000e+001  1.000000e+001  0.000000e+000
    endloop
  endfacet
  facet normal  0.000000e+000  1.000000e+000  0.000000e+000
    outer loop
      vertex  2.500000e+001  1.000000e+001  0.000000e+000
      vertex  3.000000e+001  1.000000e+001  5.000000e+000
      vertex  3.000000e+001  1.000000e+001  0.000000e+000
    endloop
  endfacet
  facet normal  1.000000e+000  -0.000000e+000  0.000000e+000
    outer loop
      vertex  3.000000e+001  1.000000e+001  5.000000e+000
      vertex  3.000000e+001 -5.000000e+000  5.000000e+000
      vertex  3.000000e+001  1.000000e+001  0.000000e+000
    endloop
  endfacet
  facet normal  1.000000e+000  0.000000e+000  0.000000e+000
    outer loop
      vertex  3.000000e+001  1.000000e+001  0.000000e+000
      vertex  3.000000e+001 -5.000000e+000  5.000000e+000
      vertex  3.000000e+001 -5.000000e+000  0.000000e+000
    endloop
  endfacet
  facet normal  0.000000e+000 -1.000000e+000  0.000000e+000
    outer loop
      vertex  2.500000e+001 -5.000000e+000  5.000000e+000
      vertex  2.500000e+001 -5.000000e+000  0.000000e+000
      vertex  3.000000e+001 -5.000000e+000  5.000000e+000
    endloop
  endfacet
  facet normal  0.000000e+000 -1.000000e+000  -0.000000e+000
    outer loop
      vertex  3.000000e+001 -5.000000e+000  5.000000e+000
      vertex  2.500000e+001 -5.000000e+000  0.000000e+000
      vertex  3.000000e+001 -5.000000e+000  0.000000e+000
    endloop
  endfacet
  facet normal -1.000000e+000  0.000000e+000  0.000000e+000
    outer loop
      vertex  2.500000e+001  5.000000e+000  5.000000e+000
      vertex  2.500000e+001  5.000000e+000  0.000000e+000
      vertex  2.500000e+001 -5.000000e+000  5.000000e+000
    endloop
  endfacet
  facet normal -1.000000e+000  0.000000e+000  0.000000e+000
    outer loop
      vertex  2.500000e+001 -5.000000e+000  5.000000e+000
      vertex  2.500000e+001  5.000000e+000  0.000000e+000
      vertex  2.500000e+001 -5.000000e+000  0.000000e+000
    endloop
  endfacet
  facet normal  0.000000e+000 -1.000000e+000  0.000000e+000
    outer loop
      vertex  2.000000e+001  5.000000e+000  5.000000e+000
      vertex  2.000000e+001  5.000000e+000  0.000000e+000
      vertex  2.500000e+001  5.000000e+000  5.000000e+000
    endloop
  endfacet
  facet normal  0.000000e+000 -1.000000e+000  -0.000000e+000
    outer loop
      vertex  2.500000e+001  5.000000e+000  5.000000e+000
      vertex  2.000000e+001  5.000000e+000  0.000000e+000
      vertex  2.500000e+001  5.000000e+000  0.000000e+000
    endloop
  endfacet
  facet normal  1.000000e+000  -0.000000e+000  0.000000e+000
    outer loop
      vertex  2.000000e+001  5.000000e+000  5.000000e+000
      vertex  2.000000e+001 -5.000000e+000  5.000000e+000
      vertex  2.000000e+001  5.000000e+000  0.000000e+000
    endloop
  endfacet
  facet normal  1.000000e+000  0.000000e+000  0.000000e+000
    outer loop
      vertex  2.000000e+001  5.000000e+000  0.000000e+000
      vertex  2.000000e+001 -5.000000e+000  5.000000e+000
      vertex  2.000000e+001 -5.000000e+000  0.000000e+000
    endloop
  endfacet
  facet normal  0.000000e+000 -1.000000e+000  0.000000e+000
    outer loop
      vertex  1.641421e+001 -5.000000e+000  5.000000e+000
      vertex  1.641421e+001 -5.000000e+000  0.000000e+000
      vertex  2.000000e+001 -5.000000e+000  5.000000e+000
    endloop
  endfacet
  facet normal  0.000000e+000 -1.000000e+000  -0.000000e+000
    outer loop
      vertex  2.000000e+001 -5.000000e+000  5.000000e+000
      vertex  1.641421e+001 -5.000000e+000  0.000000e+000
      vertex  2.000000e+001 -5.000000e+000  0.000000e+000
    endloop
  endfacet
  facet normal  7.071069e-001 -7.071066e-001  0.000000e+000
    outer loop
      vertex  1.500000e+001 -6.414214e+000  0.000000e+000
      vertex  1.641421e+001 -5.000000e+000  0.000000e+000
      vertex  1.500000e+001 -6.414214e+000  5.000000e+000
    endloop
  endfacet
  facet normal  7.071069e-001 -7.071066e-001  0.000000e+000
    outer loop
      vertex  1.500000e+001 -6.414214e+000  5.000000e+000
      vertex  1.641421e+001 -5.000000e+000  0.000000e+000
      vertex  1.641421e+001 -5.000000e+000  5.000000e+000
    endloop
  endfacet
  facet normal  1.000000e+000  -0.000000e+000  0.000000e+000
    outer loop
      vertex  1.500000e+001 -6.414214e+000  5.000000e+000
      vertex  1.500000e+001 -1.000000e+001  5.000000e+000
      vertex  1.500000e+001 -6.414214e+000  0.000000e+000
    endloop
  endfacet
  facet normal  1.000000e+000  0.000000e+000  0.000000e+000
    outer loop
      vertex  1.500000e+001 -6.414214e+000  0.000000e+000
      vertex  1.500000e+001 -1.000000e+001  5.000000e+000
      vertex  1.500000e+001 -1.000000e+001  0.000000e+000
    endloop
  endfacet
  facet normal  0.000000e+000 -1.000000e+000  0.000000e+000
    outer loop
      vertex  1.000000e+001 -1.000000e+001  5.000000e+000
      vertex  1.000000e+001 -1.000000e+001  0.000000e+000
      vertex  1.500000e+001 -1.000000e+001  5.000000e+000
    endloop
  endfacet
  facet normal  0.000000e+000 -1.000000e+000  -0.000000e+000
    outer loop
      vertex  1.500000e+001 -1.000000e+001  5.000000e+000
      vertex  1.000000e+001 -1.000000e+001  0.000000e+000
      vertex  1.500000e+001 -1.000000e+001  0.000000e+000
    endloop
  endfacet
  facet normal  0.000000e+000 -1.000000e+000  0.000000e+000
    outer loop
      vertex  5.000000e+000 -1.000000e+001  5.000000e+000
      vertex  5.000000e+000 -1.000000e+001  0.000000e+000
      vertex  1.000000e+001 -1.000000e+001  5.000000e+000
    endloop
  endfacet
  facet normal  0.000000e+000 -1.000000e+000  -0.000000e+000
    outer loop
      vertex  1.000000e+001 -1.000000e+001  5.000000e+000
      vertex  5.000000e+000 -1.000000e+001  0.000000e+000
      vertex  1.000000e+001 -1.000000e+001  0.000000e+000
    endloop
  endfacet
  facet normal -1.000000e+000  0.000000e+000  0.000000e+000
    outer loop
      vertex  5.000000e+000 -5.000000e+000  0.000000e+000
      vertex  5.000000e+000 -1.000000e+001  0.000000e+000
      vertex  5.000000e+000 -5.000000e+000  5.000000e+000
    endloop
  endfacet
  facet normal -1.000000e+000  -0.000000e+000  0.000000e+000
    outer loop
      vertex  5.000000e+000 -5.000000e+000  5.000000e+000
      vertex  5.000000e+000 -1.000000e+001  0.000000e+000
      vertex  5.000000e+000 -1.000000e+001  5.000000e+000
    endloop
  endfacet
  facet normal  0.000000e+000  1.000000e+000  0.000000e+000
    outer loop
      vertex  5.000000e+000 -5.000000e+000  5.000000e+000
      vertex  1.000000e+001 -5.000000e+000  5.000000e+000
      vertex  5.000000e+000 -5.000000e+000  0.000000e+000
    endloop
  endfacet
  facet normal  0.000000e+000  1.000000e+000  0.000000e+000
    outer loop
      vertex  5.000000e+000 -5.000000e+000  0.000000e+000
      vertex  1.000000e+001 -5.000000e+000  5.000000e+000
      vertex  1.000000e+001 -5.000000e+000  0.000000e+000
    endloop
  endfacet
  facet normal  0.000000e+000  1.000000e+000  0.000000e+000
    outer loop
      vertex  1.000000e+001 -5.000000e+000  5.000000e+000
      vertex  1.358579e+001 -5.000000e+000  5.000000e+000
      vertex  1.000000e+001 -5.000000e+000  0.000000e+000
    endloop
  endfacet
  facet normal  0.000000e+000  1.000000e+000  0.000000e+000
    outer loop
      vertex  1.000000e+001 -5.000000e+000  0.000000e+000
      vertex  1.358579e+001 -5.000000e+000  5.000000e+000
      vertex  1.358579e+001 -5.000000e+000  0.000000e+000
    endloop
  endfacet
  facet normal -7.071069e-001  7.071066e-001  0.000000e+000
    outer loop
      vertex  1.358579e+001 -5.000000e+000  0.000000e+000
      vertex  1.358579e+001 -5.000000e+000  5.000000e+000
      vertex  1.500000e+001 -3.585786e+000  0.000000e+000
    endloop
  endfacet
  facet normal -7.071069e-001  7.071066e-001  0.000000e+000
    outer loop
      vertex  1.500000e+001 -3.585786e+000  0.000000e+000
      vertex  1.358579e+001 -5.000000e+000  5.000000e+000
      vertex  1.500000e+001 -3.585786e+000  5.000000e+000
    endloop
  endfacet
  facet normal -1.000000e+000  0.000000e+000  0.000000e+000
    outer loop
      vertex  1.500000e+001  0.000000e+000  5.000000e+000
      vertex  1.500000e+001  0.000000e+000  0.000000e+000
      vertex  1.500000e+001 -3.585786e+000  5.000000e+000
    endloop
  endfacet
  facet normal -1.000000e+000  0.000000e+000  0.000000e+000
    outer loop
      vertex  1.500000e+001 -3.585786e+000  5.000000e+000
      vertex  1.500000e+001  0.000000e+000  0.000000e+000
      vertex  1.500000e+001 -3.585786e+000  0.000000e+000
    endloop
  endfacet
  facet normal  7.401487e-018 -1.000000e+000  0.000000e+000
    outer loop
      vertex  1.500000e+001  0.000000e+000  5.000000e+000
      vertex -1.500000e+001 -2.220446e-016  5.000000e+000
      vertex  1.500000e+001  0.000000e+000  0.000000e+000
    endloop
  endfacet
  facet normal  7.401487e-018 -1.000000e+000  0.000000e+000
    outer loop
      vertex  1.500000e+001  0.000000e+000  0.000000e+000
      vertex -1.500000e+001 -2.220446e-016  5.000000e+000
      vertex -1.500000e+001 -2.220446e-016  0.000000e+000
    endloop
  endfacet
  facet normal  1.000000e+000  -0.000000e+000  0.000000e+000
    outer loop
      vertex -1.500000e+001 -2.220446e-016  5.000000e+000
      vertex -1.500000e+001 -3.585786e+000  5.000000e+000
      vertex -1.500000e+001 -2.220446e-016  0.000000e+000
    endloop
  endfacet
  facet normal  1.000000e+000  0.000000e+000  0.000000e+000
    outer loop
      vertex -1.500000e+001 -2.220446e-016  0.000000e+000
      vertex -1.500000e+001 -3.585786e+000  5.000000e+000
      vertex -1.500000e+001 -3.585786e+000  0.000000e+000
    endloop
  endfacet
  facet normal  7.071069e-001  7.071066e-001  0.000000e+000
    outer loop
      vertex -1.500000e+001 -3.585786e+000  0.000000e+000
      vertex -1.500000e+001 -3.585786e+000  5.000000e+000
      vertex -1.358579e+001 -5.000000e+000  0.000000e+000
    endloop
  endfacet
  facet normal  7.071069e-001  7.071066e-001  -0.000000e+000
    outer loop
      vertex -1.358579e+001 -5.000000e+000  0.000000e+000
      vertex -1.500000e+001 -3.585786e+000  5.000000e+000
      vertex -1.358579e+001 -5.000000e+000  5.000000e+000
    endloop
  endfacet
  facet normal  0.000000e+000  1.000000e+000  0.000000e+000
    outer loop
      vertex -1.358579e+001 -5.000000e+000  5.000000e+000
      vertex -1.000000e+001 -5.000000e+000  5.000000e+000
      vertex -1.358579e+001 -5.000000e+000  0.000000e+000
    endloop
  endfacet
  facet normal  0.000000e+000  1.000000e+000  0.000000e+000
    outer loop
      vertex -1.358579e+001 -5.000000e+000  0.000000e+000
      vertex -1.000000e+001 -5.000000e+000  5.000000e+000
      vertex -1.000000e+001 -5.000000e+000  0.000000e+000
    endloop
  endfacet
  facet normal  0.000000e+000  1.000000e+000  0.000000e+000
    outer loop
      vertex -1.000000e+001 -5.000000e+000  5.000000e+000
      vertex -5.000000e+000 -5.000000e+000  5.000000e+000
      vertex -1.000000e+001 -5.000000e+000  0.000000e+000
    endloop
  endfacet
  facet normal  0.000000e+000  1.000000e+000  0.000000e+000
    outer loop
      vertex -1.000000e+001 -5.000000e+000  0.000000e+000
      vertex -5.000000e+000 -5.000000e+000  5.000000e+000
      vertex -5.000000e+000 -5.000000e+000  0.000000e+000
    endloop
  endfacet
  facet normal  1.000000e+000  0.000000e+000  0.000000e+000
    outer loop
      vertex -5.000000e+000 -5.000000e+000  0.000000e+000
      vertex -5.000000e+000 -5.000000e+000  5.000000e+000
      vertex -5.000000e+000 -1.000000e+001  0.000000e+000
    endloop
  endfacet
  facet normal  1.000000e+000  0.000000e+000  0.000000e+000
    outer loop
      vertex -5.000000e+000 -1.000000e+001  0.000000e+000
      vertex -5.000000e+000 -5.000000e+000  5.000000e+000
      vertex -5.000000e+000 -1.000000e+001  5.000000e+000
    endloop
  endfacet
  facet normal  0.000000e+000 -1.000000e+000  0.000000e+000
    outer loop
      vertex -1.000000e+001 -1.000000e+001  5.000000e+000
      vertex -1.000000e+001 -1.000000e+001  0.000000e+000
      vertex -5.000000e+000 -1.000000e+001  5.000000e+000
    endloop
  endfacet
  facet normal  0.000000e+000 -1.000000e+000  -0.000000e+000
    outer loop
      vertex -5.000000e+000 -1.000000e+001  5.000000e+000
      vertex -1.000000e+001 -1.000000e+001  0.000000e+000
      vertex -5.000000e+000 -1.000000e+001  0.000000e+000
    endloop
  endfacet
  facet normal  0.000000e+000 -1.000000e+000  0.000000e+000
    outer loop
      vertex -1.500000e+001 -1.000000e+001  5.000000e+000
      vertex -1.500000e+001 -1.000000e+001  0.000000e+000
      vertex -1.000000e+001 -1.000000e+001  5.000000e+000
    endloop
  endfacet
  facet normal  0.000000e+000 -1.000000e+000  -0.000000e+000
    outer loop
      vertex -1.000000e+001 -1.000000e+001  5.000000e+000
      vertex -1.500000e+001 -1.000000e+001  0.000000e+000
      vertex -1.000000e+001 -1.000000e+001  0.000000e+000
    endloop
  endfacet
  facet normal -1.000000e+000  0.000000e+000  0.000000e+000
    outer loop
      vertex -1.500000e+001 -6.414214e+000  5.000000e+000
      vertex -1.500000e+001 -6.414214e+000  0.000000e+000
      vertex -1.500000e+001 -1.000000e+001  5.000000e+000
    endloop
  endfacet
  facet normal -1.000000e+000  0.000000e+000  0.000000e+000
    outer loop
      vertex -1.500000e+001 -1.000000e+001  5.000000e+000
      vertex -1.500000e+001 -6.414214e+000  0.000000e+000
      vertex -1.500000e+001 -1.000000e+001  0.000000e+000
    endloop
  endfacet
  facet normal -7.071069e-001 -7.071066e-001  0.000000e+000
    outer loop
      vertex -1.641421e+001 -5.000000e+000  0.000000e+000
      vertex -1.500000e+001 -6.414214e+000  0.000000e+000
      vertex -1.641421e+001 -5.000000e+000  5.000000e+000
    endloop
  endfacet
  facet normal -7.071069e-001 -7.071066e-001  0.000000e+000
    outer loop
      vertex -1.641421e+001 -5.000000e+000  5.000000e+000
      vertex -1.500000e+001 -6.414214e+000  0.000000e+000
      vertex -1.500000e+001 -6.414214e+000  5.000000e+000
    endloop
  endfacet
  facet normal  0.000000e+000 -1.000000e+000  0.000000e+000
    outer loop
      vertex -2.000000e+001 -5.000000e+000  5.000000e+000
      vertex -2.000000e+001 -5.000000e+000  0.000000e+000
      vertex -1.641421e+001 -5.000000e+000  5.000000e+000
    endloop
  endfacet
  facet normal  0.000000e+000 -1.000000e+000  -0.000000e+000
    outer loop
      vertex -1.641421e+001 -5.000000e+000  5.000000e+000
      vertex -2.000000e+001 -5.000000e+000  0.000000e+000
      vertex -1.641421e+001 -5.000000e+000  0.000000e+000
    endloop
  endfacet
  facet normal -1.000000e+000  0.000000e+000  0.000000e+000
    outer loop
      vertex -2.000000e+001  5.000000e+000  5.000000e+000
      vertex -2.000000e+001  5.000000e+000  0.000000e+000
      vertex -2.000000e+001 -5.000000e+000  5.000000e+000
    endloop
  endfacet
  facet normal -1.000000e+000  0.000000e+000  0.000000e+000
    outer loop
      vertex -2.000000e+001 -5.000000e+000  5.000000e+000
      vertex -2.000000e+001  5.000000e+000  0.000000e+000
      vertex -2.000000e+001 -5.000000e+000  0.000000e+000
    endloop
  endfacet
  facet normal  0.000000e+000 -1.000000e+000  0.000000e+000
    outer loop
      vertex -2.500000e+001  5.000000e+000  5.000000e+000
      vertex -2.500000e+001  5.000000e+000  0.000000e+000
      vertex -2.000000e+001  5.000000e+000  5.000000e+000
    endloop
  endfacet
  facet normal  0.000000e+000 -1.000000e+000  -0.000000e+000
    outer loop
      vertex -2.000000e+001  5.000000e+000  5.000000e+000
      vertex -2.500000e+001  5.000000e+000  0.000000e+000
      vertex -2.000000e+001  5.000000e+000  0.000000e+000
    endloop
  endfacet
  facet normal  1.000000e+000  -0.000000e+000  0.000000e+000
    outer loop
      vertex -2.500000e+001  5.000000e+000  5.000000e+000
      vertex -2.500000e+001 -5.000000e+000  5.000000e+000
      vertex -2.500000e+001  5.000000e+000  0.000000e+000
    endloop
  endfacet
  facet normal  1.000000e+000  0.000000e+000  0.000000e+000
    outer loop
      vertex -2.500000e+001  5.000000e+000  0.000000e+000
      vertex -2.500000e+001 -5.000000e+000  5.000000e+000
      vertex -2.500000e+001 -5.000000e+000  0.000000e+000
    endloop
  endfacet
  facet normal  0.000000e+000 -1.000000e+000  0.000000e+000
    outer loop
      vertex -3.000000e+001 -5.000000e+000  5.000000e+000
      vertex -3.000000e+001 -5.000000e+000  0.000000e+000
      vertex -2.500000e+001 -5.000000e+000  5.000000e+000
    endloop
  endfacet
  facet normal  0.000000e+000 -1.000000e+000  -0.000000e+000
    outer loop
      vertex -2.500000e+001 -5.000000e+000  5.000000e+000
      vertex -3.000000e+001 -5.000000e+000  0.000000e+000
      vertex -2.500000e+001 -5.000000e+000  0.000000e+000
    endloop
  endfacet
  facet normal -1.000000e+000  0.000000e+000  0.000000e+000
    outer loop
      vertex -3.000000e+001  1.000000e+001  5.000000e+000
      vertex -3.000000e+001  1.000000e+001  0.000000e+000
      vertex -3.000000e+001 -5.000000e+000  5.000000e+000
    endloop
  endfacet
  facet normal -1.000000e+000  0.000000e+000  0.000000e+000
    outer loop
      vertex -3.000000e+001 -5.000000e+000  5.000000e+000
      vertex -3.000000e+001  1.000000e+001  0.000000e+000
      vertex -3.000000e+001 -5.000000e+000  0.000000e+000
    endloop
  endfacet
  facet normal  0.000000e+000  1.000000e+000  0.000000e+000
    outer loop
      vertex -3.000000e+001  1.000000e+001  5.000000e+000
      vertex -2.500000e+001  1.000000e+001  5.000000e+000
      vertex -3.000000e+001  1.000000e+001  0.000000e+000
    endloop
  endfacet
  facet normal  0.000000e+000  1.000000e+000  0.000000e+000
    outer loop
      vertex -3.000000e+001  1.000000e+001  0.000000e+000
      vertex -2.500000e+001  1.000000e+001  5.000000e+000
      vertex -2.500000e+001  1.000000e+001  0.000000e+000
    endloop
  endfacet
  facet normal -1.000000e+000  0.000000e+000  0.000000e+000
    outer loop
      vertex -2.500000e+001  1.500000e+001  5.000000e+000
      vertex -2.500000e+001  1.500000e+001  0.000000e+000
      vertex -2.500000e+001  1.000000e+001  5.000000e+000
    endloop
  endfacet
  facet normal -1.000000e+000  0.000000e+000  0.000000e+000
    outer loop
      vertex -2.500000e+001  1.000000e+001  5.000000e+000
      vertex -2.500000e+001  1.500000e+001  0.000000e+000
      vertex -2.500000e+001  1.000000e+001  0.000000e+000
    endloop
  endfacet
  facet normal  0.000000e+000  1.000000e+000  0.000000e+000
    outer loop
      vertex -2.500000e+001  1.500000e+001  5.000000e+000
      vertex -2.000000e+001  1.500000e+001  5.000000e+000
      vertex -2.500000e+001  1.500000e+001  0.000000e+000
    endloop
  endfacet
  facet normal  0.000000e+000  1.000000e+000  0.000000e+000
    outer loop
      vertex -2.500000e+001  1.500000e+001  0.000000e+000
      vertex -2.000000e+001  1.500000e+001  5.000000e+000
      vertex -2.000000e+001  1.500000e+001  0.000000e+000
    endloop
  endfacet
  facet normal -1.000000e+000  0.000000e+000  0.000000e+000
    outer loop
      vertex -2.000000e+001  2.000000e+001  5.000000e+000
      vertex -2.000000e+001  2.000000e+001  0.000000e+000
      vertex -2.000000e+001  1.500000e+001  5.000000e+000
    endloop
  endfacet
  facet normal -1.000000e+000  0.000000e+000  0.000000e+000
    outer loop
      vertex -2.000000e+001  1.500000e+001  5.000000e+000
      vertex -2.000000e+001  2.000000e+001  0.000000e+000
      vertex -2.000000e+001  1.500000e+001  0.000000e+000
    endloop
  endfacet
  facet normal  0.000000e+000  1.000000e+000  0.000000e+000
    outer loop
      vertex -2.000000e+001  2.000000e+001  5.000000e+000
      vertex -1.500000e+001  2.000000e+001  5.000000e+000
      vertex -2.000000e+001  2.000000e+001  0.000000e+000
    endloop
  endfacet
  facet normal  0.000000e+000  1.000000e+000  0.000000e+000
    outer loop
      vertex -2.000000e+001  2.000000e+001  0.000000e+000
      vertex -1.500000e+001  2.000000e+001  5.000000e+000
      vertex -1.500000e+001  2.000000e+001  0.000000e+000
    endloop
  endfacet
  facet normal -1.000000e+000  0.000000e+000  0.000000e+000
    outer loop
      vertex -1.500000e+001  2.358579e+001  5.000000e+000
      vertex -1.500000e+001  2.358579e+001  0.000000e+000
      vertex -1.500000e+001  2.000000e+001  5.000000e+000
    endloop
  endfacet
  facet normal -1.000000e+000  0.000000e+000  0.000000e+000
    outer loop
      vertex -1.500000e+001  2.000000e+001  5.000000e+000
      vertex -1.500000e+001  2.358579e+001  0.000000e+000
      vertex -1.500000e+001  2.000000e+001  0.000000e+000
    endloop
  endfacet
  facet normal -7.071068e-001 -7.071068e-001  0.000000e+000
    outer loop
      vertex -1.641421e+001  2.500000e+001  0.000000e+000
      vertex -1.500000e+001  2.358579e+001  0.000000e+000
      vertex -1.641421e+001  2.500000e+001  5.000000e+000
    endloop
  endfacet
  facet normal -7.071068e-001 -7.071068e-001  0.000000e+000
    outer loop
      vertex -1.641421e+001  2.500000e+001  5.000000e+000
      vertex -1.500000e+001  2.358579e+001  0.000000e+000
      vertex -1.500000e+001  2.358579e+001  5.000000e+000
    endloop
  endfacet
  facet normal  0.000000e+000 -1.000000e+000  0.000000e+000
    outer loop
      vertex -2.000000e+001  2.500000e+001  5.000000e+000
      vertex -2.000000e+001  2.500000e+001  0.000000e+000
      vertex -1.641421e+001  2.500000e+001  5.000000e+000
    endloop
  endfacet
  facet normal  0.000000e+000 -1.000000e+000  -0.000000e+000
    outer loop
      vertex -1.641421e+001  2.500000e+001  5.000000e+000
      vertex -2.000000e+001  2.500000e+001  0.000000e+000
      vertex -1.641421e+001  2.500000e+001  0.000000e+000
    endloop
  endfacet
  facet normal -1.000000e+000  0.000000e+000  0.000000e+000
    outer loop
      vertex -2.000000e+001  3.000000e+001  5.000000e+000
      vertex -2.000000e+001  3.000000e+001  0.000000e+000
      vertex -2.000000e+001  2.500000e+001  5.000000e+000
    endloop
  endfacet
  facet normal -1.000000e+000  0.000000e+000  0.000000e+000
    outer loop
      vertex -2.000000e+001  2.500000e+001  5.000000e+000
      vertex -2.000000e+001  3.000000e+001  0.000000e+000
      vertex -2.000000e+001  2.500000e+001  0.000000e+000
    endloop
  endfacet
endsolid CATIA STL
