solid piedestal_cube_gears
facet normal 0.0 0.0 -1.0
outer loop
vertex 60.0 60.0 0.0
vertex 0.0 0.0 0.0
vertex 0.0 60.0 0.0
endloop
endfacet
facet normal 0.0 0.0 -1.0
outer loop
vertex 0.0 0.0 0.0
vertex 60.0 60.0 0.0
vertex 60.0 0.0 0.0
endloop
endfacet
facet normal -0.0 -0.0 1.0
outer loop
vertex 0.0 0.0 30.0
vertex 12.6159622320993 25.3314637321532 30.0
vertex 0.0 60.0 30.0
endloop
endfacet
facet normal -0.0 -0.0 1.0
outer loop
vertex 12.6159622320993 25.3314637321532 30.0
vertex 0.0 0.0 30.0
vertex 14.4166150536707 20.9912201928054 30.0
endloop
endfacet
facet normal -0.0 -0.0 1.0
outer loop
vertex 14.4166150536707 20.9912201928054 30.0
vertex 0.0 0.0 30.0
vertex 17.2792498065732 17.2649101096053 30.0
endloop
endfacet
facet normal -0.0 -0.0 1.0
outer loop
vertex 17.2792498065732 17.2649101096053 30.0
vertex 0.0 0.0 30.0
vertex 21.0087826631241 14.4064753567045 30.0
endloop
endfacet
facet normal -0.0 -0.0 1.0
outer loop
vertex 21.0087826631241 14.4064753567045 30.0
vertex 0.0 0.0 30.0
vertex 25.3510521224939 12.6107135387264 30.0
endloop
endfacet
facet normal -0.0 -0.0 1.0
outer loop
vertex 25.3510521224939 12.6107135387264 30.0
vertex 0.0 0.0 30.0
vertex 60.0 0.0 30.0
endloop
endfacet
facet normal -0.0 -0.0 1.0
outer loop
vertex 0.0 60.0 30.0
vertex 12.6159622320993 25.3314637321532 30.0
vertex 12.0000028559295 29.9898603030338 30.0
endloop
endfacet
facet normal -0.0 -0.0 1.0
outer loop
vertex 25.3510521224939 12.6107135387264 30.0
vertex 60.0 0.0 30.0
vertex 30.0101396969661 12.0000028559295 30.0
endloop
endfacet
facet normal -0.0 -0.0 1.0
outer loop
vertex 30.0101396969661 12.0000028559295 30.0
vertex 60.0 0.0 30.0
vertex 34.6685362678468 12.6159622320993 30.0
endloop
endfacet
facet normal -0.0 -0.0 1.0
outer loop
vertex 34.6685362678468 12.6159622320993 30.0
vertex 60.0 0.0 30.0
vertex 39.0087798071946 14.4166150536707 30.0
endloop
endfacet
facet normal -0.0 -0.0 1.0
outer loop
vertex 39.0087798071946 14.4166150536707 30.0
vertex 60.0 0.0 30.0
vertex 42.7350898903947 17.2792498065732 30.0
endloop
endfacet
facet normal -0.0 -0.0 1.0
outer loop
vertex 42.7350898903947 17.2792498065732 30.0
vertex 60.0 0.0 30.0
vertex 45.5935246432955 21.0087826631241 30.0
endloop
endfacet
facet normal -0.0 -0.0 1.0
outer loop
vertex 45.5935246432955 21.0087826631241 30.0
vertex 60.0 0.0 30.0
vertex 47.3892864612736 25.3510521224939 30.0
endloop
endfacet
facet normal -0.0 -0.0 1.0
outer loop
vertex 47.3892864612736 25.3510521224939 30.0
vertex 60.0 0.0 30.0
vertex 47.9999971440705 30.0101396969661 30.0
endloop
endfacet
facet normal -0.0 -0.0 1.0
outer loop
vertex 0.0 60.0 30.0
vertex 25.3314637321532 47.3840377679007 30.0
vertex 60.0 60.0 30.0
endloop
endfacet
facet normal -0.0 -0.0 1.0
outer loop
vertex 25.3314637321532 47.3840377679007 30.0
vertex 0.0 60.0 30.0
vertex 20.9912201928054 45.5833849463293 30.0
endloop
endfacet
facet normal -0.0 -0.0 1.0
outer loop
vertex 20.9912201928054 45.5833849463293 30.0
vertex 0.0 60.0 30.0
vertex 17.2649101096053 42.7207501934268 30.0
endloop
endfacet
facet normal -0.0 -0.0 1.0
outer loop
vertex 17.2649101096053 42.7207501934268 30.0
vertex 0.0 60.0 30.0
vertex 14.4064753567045 38.9912173368759 30.0
endloop
endfacet
facet normal -0.0 -0.0 1.0
outer loop
vertex 14.4064753567045 38.9912173368759 30.0
vertex 0.0 60.0 30.0
vertex 12.6107135387264 34.6489478775061 30.0
endloop
endfacet
facet normal -0.0 -0.0 1.0
outer loop
vertex 12.6107135387264 34.6489478775061 30.0
vertex 0.0 60.0 30.0
vertex 12.0000028559295 29.9898603030338 30.0
endloop
endfacet
facet normal -0.0 -0.0 1.0
outer loop
vertex 60.0 60.0 30.0
vertex 25.3314637321532 47.3840377679007 30.0
vertex 29.9898603030338 47.9999971440705 30.0
endloop
endfacet
facet normal -0.0 -0.0 1.0
outer loop
vertex 60.0 60.0 30.0
vertex 29.9898603030338 47.9999971440705 30.0
vertex 34.6489478775061 47.3892864612736 30.0
endloop
endfacet
facet normal -0.0 -0.0 1.0
outer loop
vertex 60.0 60.0 30.0
vertex 34.6489478775061 47.3892864612736 30.0
vertex 38.9912173368759 45.5935246432955 30.0
endloop
endfacet
facet normal -0.0 -0.0 1.0
outer loop
vertex 60.0 60.0 30.0
vertex 38.9912173368759 45.5935246432955 30.0
vertex 42.7207501934268 42.7350898903947 30.0
endloop
endfacet
facet normal -0.0 -0.0 1.0
outer loop
vertex 60.0 60.0 30.0
vertex 42.7207501934268 42.7350898903947 30.0
vertex 45.5833849463293 39.0087798071946 30.0
endloop
endfacet
facet normal -0.0 -0.0 1.0
outer loop
vertex 60.0 60.0 30.0
vertex 45.5833849463293 39.0087798071946 30.0
vertex 47.3840377679007 34.6685362678468 30.0
endloop
endfacet
facet normal -0.0 -0.0 1.0
outer loop
vertex 60.0 60.0 30.0
vertex 47.3840377679007 34.6685362678468 30.0
vertex 47.9999971440705 30.0101396969661 30.0
endloop
endfacet
facet normal -0.0 -0.0 1.0
outer loop
vertex 60.0 60.0 30.0
vertex 47.9999971440705 30.0101396969661 30.0
vertex 60.0 0.0 30.0
endloop
endfacet
facet normal -0.0 1.0 0.0
outer loop
vertex 0.0 60.0 30.0
vertex 60.0 60.0 0.0
vertex 0.0 60.0 0.0
endloop
endfacet
facet normal -0.0 1.0 0.0
outer loop
vertex 60.0 60.0 0.0
vertex 0.0 60.0 30.0
vertex 60.0 60.0 30.0
endloop
endfacet
facet normal 1.0 0.0 0.0
outer loop
vertex 60.0 60.0 0.0
vertex 60.0 0.0 30.0
vertex 60.0 0.0 0.0
endloop
endfacet
facet normal 1.0 0.0 0.0
outer loop
vertex 60.0 0.0 30.0
vertex 60.0 60.0 0.0
vertex 60.0 60.0 30.0
endloop
endfacet
facet normal -0.0 -1.0 -0.0
outer loop
vertex 60.0 0.0 30.0
vertex 0.0 0.0 0.0
vertex 60.0 0.0 0.0
endloop
endfacet
facet normal -0.0 -1.0 -0.0
outer loop
vertex 0.0 0.0 0.0
vertex 60.0 0.0 30.0
vertex 0.0 0.0 30.0
endloop
endfacet
facet normal -1.0 0.0 0.0
outer loop
vertex 0.0 60.0 30.0
vertex 0.0 0.0 0.0
vertex 0.0 0.0 30.0
endloop
endfacet
facet normal -1.0 0.0 0.0
outer loop
vertex 0.0 0.0 0.0
vertex 0.0 60.0 30.0
vertex 0.0 60.0 0.0
endloop
endfacet
facet normal 1.06356730982527e-31 -8.99941569852151e-32 1.0
outer loop
vertex 14.4166150536707 20.9912201928054 80.0
vertex 15.0304119220855 25.9798715471319 80.0
vertex 14.5000024592726 29.9912685942791 80.0
endloop
endfacet
facet normal 1.06356730982527e-31 -8.99941569852151e-32 1.0
outer loop
vertex 15.0304119220855 25.9798715471319 80.0
vertex 14.4166150536707 20.9912201928054 80.0
vertex 17.2792498065732 17.2649101096053 80.0
endloop
endfacet
facet normal 1.06356730982527e-31 -8.99941569852151e-32 1.0
outer loop
vertex 15.0304119220855 25.9798715471319 80.0
vertex 17.2792498065732 17.2649101096053 80.0
vertex 16.5809740739942 22.2424396104713 80.0
endloop
endfacet
facet normal 1.06356730982527e-31 -8.99941569852151e-32 1.0
outer loop
vertex 16.5809740739942 22.2424396104713 80.0
vertex 17.2792498065732 17.2649101096053 80.0
vertex 19.0460206667714 19.0336725943824 80.0
endloop
endfacet
facet normal 1.06356730982527e-31 -8.99941569852151e-32 1.0
outer loop
vertex 19.0460206667714 19.0336725943824 80.0
vertex 17.2792498065732 17.2649101096053 80.0
vertex 21.0087826631241 14.4064753567045 80.0
endloop
endfacet
facet normal 1.06356730982527e-31 -8.99941569852151e-32 1.0
outer loop
vertex 19.0460206667714 19.0336725943824 80.0
vertex 21.0087826631241 14.4064753567045 80.0
vertex 22.2575628488013 16.5722426682734 80.0
endloop
endfacet
facet normal 1.06356730982527e-31 -8.99941569852151e-32 1.0
outer loop
vertex 22.2575628488013 16.5722426682734 80.0
vertex 21.0087826631241 14.4064753567045 80.0
vertex 25.3510521224939 12.6107135387264 80.0
endloop
endfacet
facet normal 1.06356730982527e-31 -8.99941569852151e-32 1.0
outer loop
vertex 22.2575628488013 16.5722426682734 80.0
vertex 25.3510521224939 12.6107135387264 80.0
vertex 25.9967393277031 15.0258922139033 80.0
endloop
endfacet
facet normal 1.06356730982527e-31 -8.99941569852151e-32 1.0
outer loop
vertex 25.9967393277031 15.0258922139033 80.0
vertex 25.3510521224939 12.6107135387264 80.0
vertex 30.0101396969661 12.0000028559295 80.0
endloop
endfacet
facet normal 1.06356730982527e-31 -8.99941569852151e-32 1.0
outer loop
vertex 25.9967393277031 15.0258922139033 80.0
vertex 30.0101396969661 12.0000028559295 80.0
vertex 30.0087314057208 14.5000024592726 80.0
endloop
endfacet
facet normal 1.06356730982527e-31 -8.99941569852151e-32 1.0
outer loop
vertex 30.0087314057208 14.5000024592726 80.0
vertex 30.0101396969661 12.0000028559295 80.0
vertex 34.0201284528681 15.0304119220855 80.0
endloop
endfacet
facet normal 1.06356730982527e-31 -8.99941569852151e-32 1.0
outer loop
vertex 34.0201284528681 15.0304119220855 80.0
vertex 30.0101396969661 12.0000028559295 80.0
vertex 34.6685362678468 12.6159622320993 80.0
endloop
endfacet
facet normal 1.06356730982527e-31 -8.99941569852151e-32 1.0
outer loop
vertex 34.0201284528681 15.0304119220855 80.0
vertex 34.6685362678468 12.6159622320993 80.0
vertex 37.7575603895287 16.5809740739942 80.0
endloop
endfacet
facet normal 1.06356730982527e-31 -8.99941569852151e-32 1.0
outer loop
vertex 37.7575603895287 16.5809740739942 80.0
vertex 34.6685362678468 12.6159622320993 80.0
vertex 39.0087798071946 14.4166150536707 80.0
endloop
endfacet
facet normal 1.06356730982527e-31 -8.99941569852151e-32 1.0
outer loop
vertex 37.7575603895287 16.5809740739942 80.0
vertex 39.0087798071946 14.4166150536707 80.0
vertex 40.9663274056176 19.0460206667714 80.0
endloop
endfacet
facet normal 1.06356730982527e-31 -8.99941569852151e-32 1.0
outer loop
vertex 40.9663274056176 19.0460206667714 80.0
vertex 39.0087798071946 14.4166150536707 80.0
vertex 42.7350898903947 17.2792498065732 80.0
endloop
endfacet
facet normal 1.06356730982527e-31 -8.99941569852151e-32 1.0
outer loop
vertex 40.9663274056176 19.0460206667714 80.0
vertex 42.7350898903947 17.2792498065732 80.0
vertex 43.4277573317266 22.2575628488013 80.0
endloop
endfacet
facet normal 1.06356730982527e-31 -8.99941569852151e-32 1.0
outer loop
vertex 43.4277573317266 22.2575628488013 80.0
vertex 42.7350898903947 17.2792498065732 80.0
vertex 45.5935246432955 21.0087826631241 80.0
endloop
endfacet
facet normal 1.06356730982527e-31 -8.99941569852151e-32 1.0
outer loop
vertex 43.4277573317266 22.2575628488013 80.0
vertex 45.5935246432955 21.0087826631241 80.0
vertex 44.9741077860967 25.9967393277031 80.0
endloop
endfacet
facet normal 1.06356730982527e-31 -8.99941569852151e-32 1.0
outer loop
vertex 44.9741077860967 25.9967393277031 80.0
vertex 45.5935246432955 21.0087826631241 80.0
vertex 45.4999975407273 30.0087314057209 80.0
endloop
endfacet
facet normal 1.06356730982527e-31 -8.99941569852151e-32 1.0
outer loop
vertex 45.4999975407273 30.0087314057209 80.0
vertex 45.5935246432955 21.0087826631241 80.0
vertex 45.5833849463293 39.0087798071946 80.0
endloop
endfacet
facet normal 1.06356730982527e-31 -8.99941569852151e-32 1.0
outer loop
vertex 45.5833849463293 39.0087798071946 80.0
vertex 45.5935246432955 21.0087826631241 80.0
vertex 47.3840377679007 34.6685362678468 80.0
endloop
endfacet
facet normal 1.06356730982527e-31 -8.99941569852151e-32 1.0
outer loop
vertex 47.3840377679007 34.6685362678468 80.0
vertex 45.5935246432955 21.0087826631241 80.0
vertex 47.3892864612736 25.3510521224939 80.0
endloop
endfacet
facet normal 1.06356730982527e-31 -8.99941569852151e-32 1.0
outer loop
vertex 47.3840377679007 34.6685362678468 80.0
vertex 47.3892864612736 25.3510521224939 80.0
vertex 47.9999971440705 30.0101396969661 80.0
endloop
endfacet
facet normal 1.06356730982527e-31 -8.99941569852151e-32 1.0
outer loop
vertex 12.6159622320993 25.3314637321532 80.0
vertex 12.6107135387264 34.6489478775061 80.0
vertex 12.0000028559295 29.9898603030338 80.0
endloop
endfacet
facet normal 1.06356730982527e-31 -8.99941569852151e-32 1.0
outer loop
vertex 12.6107135387264 34.6489478775061 80.0
vertex 12.6159622320993 25.3314637321532 80.0
vertex 14.4064753567045 38.9912173368759 80.0
endloop
endfacet
facet normal 1.06356730982527e-31 -8.99941569852151e-32 1.0
outer loop
vertex 14.4064753567045 38.9912173368759 80.0
vertex 12.6159622320993 25.3314637321532 80.0
vertex 14.4166150536707 20.9912201928054 80.0
endloop
endfacet
facet normal 1.06356730982527e-31 -8.99941569852151e-32 1.0
outer loop
vertex 14.4064753567045 38.9912173368759 80.0
vertex 14.4166150536707 20.9912201928054 80.0
vertex 14.5000024592726 29.9912685942791 80.0
endloop
endfacet
facet normal 1.06356730982527e-31 -8.99941569852151e-32 1.0
outer loop
vertex 14.4064753567045 38.9912173368759 80.0
vertex 14.5000024592726 29.9912685942791 80.0
vertex 15.0258922139033 34.0032606722969 80.0
endloop
endfacet
facet normal 1.06356730982527e-31 -8.99941569852151e-32 1.0
outer loop
vertex 14.4064753567045 38.9912173368759 80.0
vertex 15.0258922139033 34.0032606722969 80.0
vertex 17.2649101096053 42.7207501934268 80.0
endloop
endfacet
facet normal 1.06356730982527e-31 -8.99941569852151e-32 1.0
outer loop
vertex 17.2649101096053 42.7207501934268 80.0
vertex 15.0258922139033 34.0032606722969 80.0
vertex 16.5722426682734 37.7424371511987 80.0
endloop
endfacet
facet normal 1.06356730982527e-31 -8.99941569852151e-32 1.0
outer loop
vertex 17.2649101096053 42.7207501934268 80.0
vertex 16.5722426682734 37.7424371511987 80.0
vertex 19.0336725943824 40.9539793332286 80.0
endloop
endfacet
facet normal 1.06356730982527e-31 -8.99941569852151e-32 1.0
outer loop
vertex 17.2649101096053 42.7207501934268 80.0
vertex 19.0336725943824 40.9539793332286 80.0
vertex 20.9912201928054 45.5833849463293 80.0
endloop
endfacet
facet normal 1.06356730982527e-31 -8.99941569852151e-32 1.0
outer loop
vertex 20.9912201928054 45.5833849463293 80.0
vertex 19.0336725943824 40.9539793332286 80.0
vertex 22.2424396104713 43.4190259260058 80.0
endloop
endfacet
facet normal 1.06356730982527e-31 -8.99941569852151e-32 1.0
outer loop
vertex 20.9912201928054 45.5833849463293 80.0
vertex 22.2424396104713 43.4190259260058 80.0
vertex 25.3314637321532 47.3840377679007 80.0
endloop
endfacet
facet normal 1.06356730982527e-31 -8.99941569852151e-32 1.0
outer loop
vertex 25.3314637321532 47.3840377679007 80.0
vertex 22.2424396104713 43.4190259260058 80.0
vertex 25.9798715471319 44.9695880779145 80.0
endloop
endfacet
facet normal 1.06356730982527e-31 -8.99941569852151e-32 1.0
outer loop
vertex 25.3314637321532 47.3840377679007 80.0
vertex 25.9798715471319 44.9695880779145 80.0
vertex 29.9898603030338 47.9999971440705 80.0
endloop
endfacet
facet normal 1.06356730982527e-31 -8.99941569852151e-32 1.0
outer loop
vertex 29.9898603030338 47.9999971440705 80.0
vertex 25.9798715471319 44.9695880779145 80.0
vertex 29.9912685942791 45.4999975407274 80.0
endloop
endfacet
facet normal 1.06356730982527e-31 -8.99941569852151e-32 1.0
outer loop
vertex 29.9898603030338 47.9999971440705 80.0
vertex 29.9912685942791 45.4999975407274 80.0
vertex 34.6489478775061 47.3892864612736 80.0
endloop
endfacet
facet normal 1.06356730982527e-31 -8.99941569852151e-32 1.0
outer loop
vertex 34.6489478775061 47.3892864612736 80.0
vertex 29.9912685942791 45.4999975407274 80.0
vertex 34.0032606722969 44.9741077860967 80.0
endloop
endfacet
facet normal 1.06356730982527e-31 -8.99941569852151e-32 1.0
outer loop
vertex 34.6489478775061 47.3892864612736 80.0
vertex 34.0032606722969 44.9741077860967 80.0
vertex 37.7424371511987 43.4277573317266 80.0
endloop
endfacet
facet normal 1.06356730982527e-31 -8.99941569852151e-32 1.0
outer loop
vertex 34.6489478775061 47.3892864612736 80.0
vertex 37.7424371511987 43.4277573317266 80.0
vertex 38.9912173368759 45.5935246432955 80.0
endloop
endfacet
facet normal 1.06356730982527e-31 -8.99941569852151e-32 1.0
outer loop
vertex 38.9912173368759 45.5935246432955 80.0
vertex 37.7424371511987 43.4277573317266 80.0
vertex 40.9539793332286 40.9663274056176 80.0
endloop
endfacet
facet normal 1.06356730982527e-31 -8.99941569852151e-32 1.0
outer loop
vertex 38.9912173368759 45.5935246432955 80.0
vertex 40.9539793332286 40.9663274056176 80.0
vertex 42.7207501934268 42.7350898903947 80.0
endloop
endfacet
facet normal 1.06356730982527e-31 -8.99941569852151e-32 1.0
outer loop
vertex 42.7207501934268 42.7350898903947 80.0
vertex 40.9539793332286 40.9663274056176 80.0
vertex 43.4190259260058 37.7575603895287 80.0
endloop
endfacet
facet normal 1.06356730982527e-31 -8.99941569852151e-32 1.0
outer loop
vertex 42.7207501934268 42.7350898903947 80.0
vertex 43.4190259260058 37.7575603895287 80.0
vertex 45.5833849463293 39.0087798071946 80.0
endloop
endfacet
facet normal 1.06356730982527e-31 -8.99941569852151e-32 1.0
outer loop
vertex 45.5833849463293 39.0087798071946 80.0
vertex 43.4190259260058 37.7575603895287 80.0
vertex 44.9695880779145 34.0201284528681 80.0
endloop
endfacet
facet normal 1.06356730982527e-31 -8.99941569852151e-32 1.0
outer loop
vertex 45.5833849463293 39.0087798071946 80.0
vertex 44.9695880779145 34.0201284528681 80.0
vertex 45.4999975407273 30.0087314057209 80.0
endloop
endfacet
facet normal -0.793696139771991 0.608314423395533 1.39159670535028e-31
outer loop
vertex 17.2649101096053 42.7207501934268 80.0
vertex 14.4064753567045 38.9912173368759 30.0
vertex 14.4064753567045 38.9912173368759 80.0
endloop
endfacet
facet normal -0.793696139771991 0.608314423395533 1.39159670535028e-31
outer loop
vertex 14.4064753567045 38.9912173368759 30.0
vertex 17.2649101096053 42.7207501934268 80.0
vertex 17.2649101096053 42.7207501934268 30.0
endloop
endfacet
facet normal -0.924094957817027 0.382162935064544 1.32676150002984e-31
outer loop
vertex 14.4064753567045 38.9912173368759 80.0
vertex 12.6107135387264 34.6489478775061 30.0
vertex 12.6107135387264 34.6489478775061 80.0
endloop
endfacet
facet normal -0.924094957817027 0.382162935064544 1.32676150002984e-31
outer loop
vertex 12.6107135387264 34.6489478775061 30.0
vertex 14.4064753567045 38.9912173368759 80.0
vertex 14.4064753567045 38.9912173368759 30.0
endloop
endfacet
facet normal -0.991518231625956 0.129967674263018 1.17150969105942e-31
outer loop
vertex 12.6107135387264 34.6489478775061 80.0
vertex 12.0000028559295 29.9898603030338 30.0
vertex 12.0000028559295 29.9898603030338 80.0
endloop
endfacet
facet normal -0.991518231625956 0.129967674263018 1.17150969105942e-31
outer loop
vertex 12.0000028559295 29.9898603030338 30.0
vertex 12.6107135387264 34.6489478775061 80.0
vertex 12.6107135387264 34.6489478775061 30.0
endloop
endfacet
facet normal -0.991371176510927 -0.131084668757794 9.36421432654601e-32
outer loop
vertex 12.0000028559295 29.9898603030338 80.0
vertex 12.6159622320993 25.3314637321532 30.0
vertex 12.6159622320993 25.3314637321532 80.0
endloop
endfacet
facet normal -0.991371176510927 -0.131084668757794 9.36421432654601e-32
outer loop
vertex 12.6159622320993 25.3314637321532 30.0
vertex 12.0000028559295 29.9898603030338 80.0
vertex 12.0000028559295 29.9898603030338 30.0
endloop
endfacet
facet normal -0.92366381403501 -0.383203808230422 6.37517601123955e-32
outer loop
vertex 12.6159622320993 25.3314637321532 80.0
vertex 14.4166150536707 20.9912201928054 30.0
vertex 14.4166150536707 20.9912201928054 80.0
endloop
endfacet
facet normal -0.92366381403501 -0.383203808230422 6.37517601123955e-32
outer loop
vertex 14.4166150536707 20.9912201928054 30.0
vertex 12.6159622320993 25.3314637321532 80.0
vertex 12.6159622320993 25.3314637321532 30.0
endloop
endfacet
facet normal -0.793010289059232 -0.609208241446382 2.95167998624362e-32
outer loop
vertex 14.4166150536707 20.9912201928054 80.0
vertex 17.2792498065732 17.2649101096053 30.0
vertex 17.2792498065732 17.2649101096053 80.0
endloop
endfacet
facet normal -0.793010289059232 -0.609208241446382 2.95167998624362e-32
outer loop
vertex 17.2792498065732 17.2649101096053 30.0
vertex 14.4166150536707 20.9912201928054 80.0
vertex 14.4166150536707 20.9912201928054 30.0
endloop
endfacet
facet normal -0.608314423395534 -0.793696139771991 -6.72968151933e-33
outer loop
vertex 21.0087826631241 14.4064753567045 80.0
vertex 17.2792498065732 17.2649101096053 30.0
vertex 21.0087826631241 14.4064753567045 30.0
endloop
endfacet
facet normal -0.608314423395534 -0.793696139771991 -6.72968151933e-33
outer loop
vertex 17.2792498065732 17.2649101096053 30.0
vertex 21.0087826631241 14.4064753567045 80.0
vertex 17.2792498065732 17.2649101096053 80.0
endloop
endfacet
facet normal -0.382162935064545 -0.924094957817027 -4.25175462268785e-32
outer loop
vertex 25.3510521224939 12.6107135387264 80.0
vertex 21.0087826631241 14.4064753567045 30.0
vertex 25.3510521224939 12.6107135387264 30.0
endloop
endfacet
facet normal -0.382162935064545 -0.924094957817027 -4.25175462268785e-32
outer loop
vertex 21.0087826631241 14.4064753567045 30.0
vertex 25.3510521224939 12.6107135387264 80.0
vertex 21.0087826631241 14.4064753567045 80.0
endloop
endfacet
facet normal -0.129967674263019 -0.991518231625956 -7.54079104226325e-32
outer loop
vertex 30.0101396969661 12.0000028559295 80.0
vertex 25.3510521224939 12.6107135387264 30.0
vertex 30.0101396969661 12.0000028559295 30.0
endloop
endfacet
facet normal -0.129967674263019 -0.991518231625956 -7.54079104226325e-32
outer loop
vertex 25.3510521224939 12.6107135387264 30.0
vertex 30.0101396969661 12.0000028559295 80.0
vertex 25.3510521224939 12.6107135387264 80.0
endloop
endfacet
facet normal 0.131084668757795 -0.991371176510927 -1.03159350140548e-31
outer loop
vertex 34.6685362678468 12.6159622320993 80.0
vertex 30.0101396969661 12.0000028559295 30.0
vertex 34.6685362678468 12.6159622320993 30.0
endloop
endfacet
facet normal 0.131084668757795 -0.991371176510927 -1.03159350140548e-31
outer loop
vertex 30.0101396969661 12.0000028559295 30.0
vertex 34.6685362678468 12.6159622320993 80.0
vertex 30.0101396969661 12.0000028559295 80.0
endloop
endfacet
facet normal 0.383203808230422 -0.92366381403501 -1.23880650625272e-31
outer loop
vertex 39.0087798071946 14.4166150536707 80.0
vertex 34.6685362678468 12.6159622320993 30.0
vertex 39.0087798071946 14.4166150536707 30.0
endloop
endfacet
facet normal 0.383203808230422 -0.92366381403501 -1.23880650625272e-31
outer loop
vertex 34.6685362678468 12.6159622320993 30.0
vertex 39.0087798071946 14.4166150536707 80.0
vertex 34.6685362678468 12.6159622320993 80.0
endloop
endfacet
facet normal 0.609208241446381 -0.793010289059233 -1.36159689492339e-31
outer loop
vertex 42.7350898903947 17.2792498065732 80.0
vertex 39.0087798071946 14.4166150536707 30.0
vertex 42.7350898903947 17.2792498065732 30.0
endloop
endfacet
facet normal 0.609208241446381 -0.793010289059233 -1.36159689492339e-31
outer loop
vertex 39.0087798071946 14.4166150536707 30.0
vertex 42.7350898903947 17.2792498065732 80.0
vertex 39.0087798071946 14.4166150536707 80.0
endloop
endfacet
facet normal 0.793696139771992 -0.608314423395533 -1.39159670535028e-31
outer loop
vertex 45.5935246432955 21.0087826631241 30.0
vertex 42.7350898903947 17.2792498065732 80.0
vertex 42.7350898903947 17.2792498065732 30.0
endloop
endfacet
facet normal 0.793696139771992 -0.608314423395533 -1.39159670535028e-31
outer loop
vertex 42.7350898903947 17.2792498065732 80.0
vertex 45.5935246432955 21.0087826631241 30.0
vertex 45.5935246432955 21.0087826631241 80.0
endloop
endfacet
facet normal 0.924094957817026 -0.382162935064546 -1.32676150002984e-31
outer loop
vertex 47.3892864612736 25.3510521224939 30.0
vertex 45.5935246432955 21.0087826631241 80.0
vertex 45.5935246432955 21.0087826631241 30.0
endloop
endfacet
facet normal 0.924094957817026 -0.382162935064546 -1.32676150002984e-31
outer loop
vertex 45.5935246432955 21.0087826631241 80.0
vertex 47.3892864612736 25.3510521224939 30.0
vertex 47.3892864612736 25.3510521224939 80.0
endloop
endfacet
facet normal 0.991518231625956 -0.129967674263018 -1.17150969105942e-31
outer loop
vertex 47.9999971440705 30.0101396969661 30.0
vertex 47.3892864612736 25.3510521224939 80.0
vertex 47.3892864612736 25.3510521224939 30.0
endloop
endfacet
facet normal 0.991518231625956 -0.129967674263018 -1.17150969105942e-31
outer loop
vertex 47.3892864612736 25.3510521224939 80.0
vertex 47.9999971440705 30.0101396969661 30.0
vertex 47.9999971440705 30.0101396969661 80.0
endloop
endfacet
facet normal 0.991371176510927 0.131084668757794 -9.36421432654601e-32
outer loop
vertex 47.3840377679007 34.6685362678468 30.0
vertex 47.9999971440705 30.0101396969661 80.0
vertex 47.9999971440705 30.0101396969661 30.0
endloop
endfacet
facet normal 0.991371176510927 0.131084668757794 -9.36421432654601e-32
outer loop
vertex 47.9999971440705 30.0101396969661 80.0
vertex 47.3840377679007 34.6685362678468 30.0
vertex 47.3840377679007 34.6685362678468 80.0
endloop
endfacet
facet normal 0.923663814035011 0.383203808230422 -6.37517601123956e-32
outer loop
vertex 45.5833849463293 39.0087798071946 30.0
vertex 47.3840377679007 34.6685362678468 80.0
vertex 47.3840377679007 34.6685362678468 30.0
endloop
endfacet
facet normal 0.923663814035011 0.383203808230422 -6.37517601123956e-32
outer loop
vertex 47.3840377679007 34.6685362678468 80.0
vertex 45.5833849463293 39.0087798071946 30.0
vertex 45.5833849463293 39.0087798071946 80.0
endloop
endfacet
facet normal 0.793010289059232 0.609208241446382 -2.95167998624362e-32
outer loop
vertex 42.7207501934268 42.7350898903947 30.0
vertex 45.5833849463293 39.0087798071946 80.0
vertex 45.5833849463293 39.0087798071946 30.0
endloop
endfacet
facet normal 0.793010289059232 0.609208241446382 -2.95167998624362e-32
outer loop
vertex 45.5833849463293 39.0087798071946 80.0
vertex 42.7207501934268 42.7350898903947 30.0
vertex 42.7207501934268 42.7350898903947 80.0
endloop
endfacet
facet normal 0.608314423395533 0.793696139771991 6.72968151933012e-33
outer loop
vertex 38.9912173368759 45.5935246432955 80.0
vertex 42.7207501934268 42.7350898903947 30.0
vertex 38.9912173368759 45.5935246432955 30.0
endloop
endfacet
facet normal 0.608314423395533 0.793696139771991 6.72968151933012e-33
outer loop
vertex 42.7207501934268 42.7350898903947 30.0
vertex 38.9912173368759 45.5935246432955 80.0
vertex 42.7207501934268 42.7350898903947 80.0
endloop
endfacet
facet normal 0.382162935064545 0.924094957817027 4.25175462268785e-32
outer loop
vertex 34.6489478775061 47.3892864612736 80.0
vertex 38.9912173368759 45.5935246432955 30.0
vertex 34.6489478775061 47.3892864612736 30.0
endloop
endfacet
facet normal 0.382162935064545 0.924094957817027 4.25175462268785e-32
outer loop
vertex 38.9912173368759 45.5935246432955 30.0
vertex 34.6489478775061 47.3892864612736 80.0
vertex 38.9912173368759 45.5935246432955 80.0
endloop
endfacet
facet normal 0.12996767426302 0.991518231625955 7.54079104226325e-32
outer loop
vertex 29.9898603030338 47.9999971440705 80.0
vertex 34.6489478775061 47.3892864612736 30.0
vertex 29.9898603030338 47.9999971440705 30.0
endloop
endfacet
facet normal 0.12996767426302 0.991518231625955 7.54079104226325e-32
outer loop
vertex 34.6489478775061 47.3892864612736 30.0
vertex 29.9898603030338 47.9999971440705 80.0
vertex 34.6489478775061 47.3892864612736 80.0
endloop
endfacet
facet normal -0.131084668757795 0.991371176510927 1.03159350140548e-31
outer loop
vertex 25.3314637321532 47.3840377679007 80.0
vertex 29.9898603030338 47.9999971440705 30.0
vertex 25.3314637321532 47.3840377679007 30.0
endloop
endfacet
facet normal -0.131084668757795 0.991371176510927 1.03159350140548e-31
outer loop
vertex 29.9898603030338 47.9999971440705 30.0
vertex 25.3314637321532 47.3840377679007 80.0
vertex 29.9898603030338 47.9999971440705 80.0
endloop
endfacet
facet normal -0.383203808230423 0.92366381403501 1.23880650625272e-31
outer loop
vertex 20.9912201928054 45.5833849463293 80.0
vertex 25.3314637321532 47.3840377679007 30.0
vertex 20.9912201928054 45.5833849463293 30.0
endloop
endfacet
facet normal -0.383203808230423 0.92366381403501 1.23880650625272e-31
outer loop
vertex 25.3314637321532 47.3840377679007 30.0
vertex 20.9912201928054 45.5833849463293 80.0
vertex 25.3314637321532 47.3840377679007 80.0
endloop
endfacet
facet normal -0.609208241446381 0.793010289059233 1.36159689492339e-31
outer loop
vertex 17.2649101096053 42.7207501934268 80.0
vertex 20.9912201928054 45.5833849463293 30.0
vertex 17.2649101096053 42.7207501934268 30.0
endloop
endfacet
facet normal -0.609208241446381 0.793010289059233 1.36159689492339e-31
outer loop
vertex 20.9912201928054 45.5833849463293 30.0
vertex 17.2649101096053 42.7207501934268 80.0
vertex 20.9912201928054 45.5833849463293 80.0
endloop
endfacet
facet normal 0.0 0.0 1.0
outer loop
vertex 15.0304119220855 25.9798715471319 55.0
vertex 15.0258922139033 34.0032606722969 55.0
vertex 14.5000024592726 29.9912685942791 55.0
endloop
endfacet
facet normal 0.0 0.0 1.0
outer loop
vertex 15.0258922139033 34.0032606722969 55.0
vertex 15.0304119220855 25.9798715471319 55.0
vertex 16.5722426682734 37.7424371511987 55.0
endloop
endfacet
facet normal 0.0 0.0 1.0
outer loop
vertex 16.5722426682734 37.7424371511987 55.0
vertex 15.0304119220855 25.9798715471319 55.0
vertex 16.5809740739942 22.2424396104713 55.0
endloop
endfacet
facet normal 0.0 0.0 1.0
outer loop
vertex 16.5722426682734 37.7424371511987 55.0
vertex 16.5809740739942 22.2424396104713 55.0
vertex 19.0336725943824 40.9539793332286 55.0
endloop
endfacet
facet normal 0.0 0.0 1.0
outer loop
vertex 19.0336725943824 40.9539793332286 55.0
vertex 16.5809740739942 22.2424396104713 55.0
vertex 19.0460206667714 19.0336725943824 55.0
endloop
endfacet
facet normal 0.0 0.0 1.0
outer loop
vertex 19.0336725943824 40.9539793332286 55.0
vertex 19.0460206667714 19.0336725943824 55.0
vertex 22.2424396104713 43.4190259260058 55.0
endloop
endfacet
facet normal 0.0 0.0 1.0
outer loop
vertex 22.2424396104713 43.4190259260058 55.0
vertex 19.0460206667714 19.0336725943824 55.0
vertex 22.2575628488013 16.5722426682734 55.0
endloop
endfacet
facet normal 0.0 0.0 1.0
outer loop
vertex 22.2424396104713 43.4190259260058 55.0
vertex 22.2575628488013 16.5722426682734 55.0
vertex 25.9798715471319 44.9695880779145 55.0
endloop
endfacet
facet normal 0.0 0.0 1.0
outer loop
vertex 25.9798715471319 44.9695880779145 55.0
vertex 22.2575628488013 16.5722426682734 55.0
vertex 25.9967393277031 15.0258922139033 55.0
endloop
endfacet
facet normal 0.0 0.0 1.0
outer loop
vertex 25.9798715471319 44.9695880779145 55.0
vertex 25.9967393277031 15.0258922139033 55.0
vertex 29.9912685942791 45.4999975407274 55.0
endloop
endfacet
facet normal 0.0 0.0 1.0
outer loop
vertex 29.9912685942791 45.4999975407274 55.0
vertex 25.9967393277031 15.0258922139033 55.0
vertex 30.0087314057208 14.5000024592726 55.0
endloop
endfacet
facet normal 0.0 0.0 1.0
outer loop
vertex 29.9912685942791 45.4999975407274 55.0
vertex 30.0087314057208 14.5000024592726 55.0
vertex 34.0032606722969 44.9741077860967 55.0
endloop
endfacet
facet normal 0.0 0.0 1.0
outer loop
vertex 34.0032606722969 44.9741077860967 55.0
vertex 30.0087314057208 14.5000024592726 55.0
vertex 34.0201284528681 15.0304119220855 55.0
endloop
endfacet
facet normal 0.0 0.0 1.0
outer loop
vertex 34.0032606722969 44.9741077860967 55.0
vertex 34.0201284528681 15.0304119220855 55.0
vertex 37.7424371511987 43.4277573317266 55.0
endloop
endfacet
facet normal 0.0 0.0 1.0
outer loop
vertex 37.7424371511987 43.4277573317266 55.0
vertex 34.0201284528681 15.0304119220855 55.0
vertex 37.7575603895287 16.5809740739942 55.0
endloop
endfacet
facet normal 0.0 0.0 1.0
outer loop
vertex 37.7424371511987 43.4277573317266 55.0
vertex 37.7575603895287 16.5809740739942 55.0
vertex 40.9539793332286 40.9663274056176 55.0
endloop
endfacet
facet normal 0.0 0.0 1.0
outer loop
vertex 40.9539793332286 40.9663274056176 55.0
vertex 37.7575603895287 16.5809740739942 55.0
vertex 40.9663274056176 19.0460206667714 55.0
endloop
endfacet
facet normal 0.0 0.0 1.0
outer loop
vertex 40.9539793332286 40.9663274056176 55.0
vertex 40.9663274056176 19.0460206667714 55.0
vertex 43.4190259260058 37.7575603895287 55.0
endloop
endfacet
facet normal 0.0 0.0 1.0
outer loop
vertex 43.4190259260058 37.7575603895287 55.0
vertex 40.9663274056176 19.0460206667714 55.0
vertex 43.4277573317266 22.2575628488013 55.0
endloop
endfacet
facet normal 0.0 0.0 1.0
outer loop
vertex 43.4190259260058 37.7575603895287 55.0
vertex 43.4277573317266 22.2575628488013 55.0
vertex 44.9695880779145 34.0201284528681 55.0
endloop
endfacet
facet normal 0.0 0.0 1.0
outer loop
vertex 44.9695880779145 34.0201284528681 55.0
vertex 43.4277573317266 22.2575628488013 55.0
vertex 44.9741077860967 25.9967393277031 55.0
endloop
endfacet
facet normal 0.0 0.0 1.0
outer loop
vertex 44.9695880779145 34.0201284528681 55.0
vertex 44.9741077860967 25.9967393277031 55.0
vertex 45.4999975407273 30.0087314057209 55.0
endloop
endfacet
facet normal 0.991371176510927 0.131084668757795 0.0
outer loop
vertex 14.5000024592726 29.9912685942791 55.0
vertex 15.0304119220855 25.9798715471319 80.0
vertex 15.0304119220855 25.9798715471319 55.0
endloop
endfacet
facet normal 0.991371176510927 0.131084668757795 0.0
outer loop
vertex 15.0304119220855 25.9798715471319 80.0
vertex 14.5000024592726 29.9912685942791 55.0
vertex 14.5000024592726 29.9912685942791 80.0
endloop
endfacet
facet normal 0.92366381403501 0.383203808230422 0.0
outer loop
vertex 15.0304119220855 25.9798715471319 55.0
vertex 16.5809740739942 22.2424396104713 80.0
vertex 16.5809740739942 22.2424396104713 55.0
endloop
endfacet
facet normal 0.92366381403501 0.383203808230422 0.0
outer loop
vertex 16.5809740739942 22.2424396104713 80.0
vertex 15.0304119220855 25.9798715471319 55.0
vertex 15.0304119220855 25.9798715471319 80.0
endloop
endfacet
facet normal 0.793010289059232 0.609208241446382 0.0
outer loop
vertex 16.5809740739942 22.2424396104713 55.0
vertex 19.0460206667714 19.0336725943824 80.0
vertex 19.0460206667714 19.0336725943824 55.0
endloop
endfacet
facet normal 0.793010289059232 0.609208241446382 0.0
outer loop
vertex 19.0460206667714 19.0336725943824 80.0
vertex 16.5809740739942 22.2424396104713 55.0
vertex 16.5809740739942 22.2424396104713 80.0
endloop
endfacet
facet normal 0.608314423395533 0.793696139771991 0.0
outer loop
vertex 19.0460206667714 19.0336725943824 80.0
vertex 22.2575628488013 16.5722426682734 55.0
vertex 19.0460206667714 19.0336725943824 55.0
endloop
endfacet
facet normal 0.608314423395533 0.793696139771991 0.0
outer loop
vertex 22.2575628488013 16.5722426682734 55.0
vertex 19.0460206667714 19.0336725943824 80.0
vertex 22.2575628488013 16.5722426682734 80.0
endloop
endfacet
facet normal 0.382162935064545 0.924094957817027 0.0
outer loop
vertex 22.2575628488013 16.5722426682734 80.0
vertex 25.9967393277031 15.0258922139033 55.0
vertex 22.2575628488013 16.5722426682734 55.0
endloop
endfacet
facet normal 0.382162935064545 0.924094957817027 0.0
outer loop
vertex 25.9967393277031 15.0258922139033 55.0
vertex 22.2575628488013 16.5722426682734 80.0
vertex 25.9967393277031 15.0258922139033 80.0
endloop
endfacet
facet normal 0.129967674263019 0.991518231625955 0.0
outer loop
vertex 25.9967393277031 15.0258922139033 80.0
vertex 30.0087314057208 14.5000024592726 55.0
vertex 25.9967393277031 15.0258922139033 55.0
endloop
endfacet
facet normal 0.129967674263019 0.991518231625955 0.0
outer loop
vertex 30.0087314057208 14.5000024592726 55.0
vertex 25.9967393277031 15.0258922139033 80.0
vertex 30.0087314057208 14.5000024592726 80.0
endloop
endfacet
facet normal -0.131084668757795 0.991371176510927 -0.0
outer loop
vertex 30.0087314057208 14.5000024592726 80.0
vertex 34.0201284528681 15.0304119220855 55.0
vertex 30.0087314057208 14.5000024592726 55.0
endloop
endfacet
facet normal -0.131084668757795 0.991371176510927 -0.0
outer loop
vertex 34.0201284528681 15.0304119220855 55.0
vertex 30.0087314057208 14.5000024592726 80.0
vertex 34.0201284528681 15.0304119220855 80.0
endloop
endfacet
facet normal -0.383203808230422 0.92366381403501 -0.0
outer loop
vertex 34.0201284528681 15.0304119220855 80.0
vertex 37.7575603895287 16.5809740739942 55.0
vertex 34.0201284528681 15.0304119220855 55.0
endloop
endfacet
facet normal -0.383203808230422 0.92366381403501 -0.0
outer loop
vertex 37.7575603895287 16.5809740739942 55.0
vertex 34.0201284528681 15.0304119220855 80.0
vertex 37.7575603895287 16.5809740739942 80.0
endloop
endfacet
facet normal -0.609208241446382 0.793010289059232 -0.0
outer loop
vertex 37.7575603895287 16.5809740739942 80.0
vertex 40.9663274056176 19.0460206667714 55.0
vertex 37.7575603895287 16.5809740739942 55.0
endloop
endfacet
facet normal -0.609208241446382 0.793010289059232 -0.0
outer loop
vertex 40.9663274056176 19.0460206667714 55.0
vertex 37.7575603895287 16.5809740739942 80.0
vertex 40.9663274056176 19.0460206667714 80.0
endloop
endfacet
facet normal -0.793696139771992 0.608314423395533 -0.0
outer loop
vertex 43.4277573317266 22.2575628488013 80.0
vertex 40.9663274056176 19.0460206667714 55.0
vertex 40.9663274056176 19.0460206667714 80.0
endloop
endfacet
facet normal -0.793696139771992 0.608314423395533 -0.0
outer loop
vertex 40.9663274056176 19.0460206667714 55.0
vertex 43.4277573317266 22.2575628488013 80.0
vertex 43.4277573317266 22.2575628488013 55.0
endloop
endfacet
facet normal -0.924094957817026 0.382162935064546 -0.0
outer loop
vertex 44.9741077860967 25.9967393277031 80.0
vertex 43.4277573317266 22.2575628488013 55.0
vertex 43.4277573317266 22.2575628488013 80.0
endloop
endfacet
facet normal -0.924094957817026 0.382162935064546 -0.0
outer loop
vertex 43.4277573317266 22.2575628488013 55.0
vertex 44.9741077860967 25.9967393277031 80.0
vertex 44.9741077860967 25.9967393277031 55.0
endloop
endfacet
facet normal -0.991518231625956 0.129967674263019 -0.0
outer loop
vertex 45.4999975407273 30.0087314057209 80.0
vertex 44.9741077860967 25.9967393277031 55.0
vertex 44.9741077860967 25.9967393277031 80.0
endloop
endfacet
facet normal -0.991518231625956 0.129967674263019 -0.0
outer loop
vertex 44.9741077860967 25.9967393277031 55.0
vertex 45.4999975407273 30.0087314057209 80.0
vertex 45.4999975407273 30.0087314057209 55.0
endloop
endfacet
facet normal -0.991371176510927 -0.131084668757796 -0.0
outer loop
vertex 44.9695880779145 34.0201284528681 80.0
vertex 45.4999975407273 30.0087314057209 55.0
vertex 45.4999975407273 30.0087314057209 80.0
endloop
endfacet
facet normal -0.991371176510927 -0.131084668757796 -0.0
outer loop
vertex 45.4999975407273 30.0087314057209 55.0
vertex 44.9695880779145 34.0201284528681 80.0
vertex 44.9695880779145 34.0201284528681 55.0
endloop
endfacet
facet normal -0.92366381403501 -0.383203808230422 -0.0
outer loop
vertex 43.4190259260058 37.7575603895287 80.0
vertex 44.9695880779145 34.0201284528681 55.0
vertex 44.9695880779145 34.0201284528681 80.0
endloop
endfacet
facet normal -0.92366381403501 -0.383203808230422 -0.0
outer loop
vertex 44.9695880779145 34.0201284528681 55.0
vertex 43.4190259260058 37.7575603895287 80.0
vertex 43.4190259260058 37.7575603895287 55.0
endloop
endfacet
facet normal -0.793010289059232 -0.609208241446381 -0.0
outer loop
vertex 40.9539793332286 40.9663274056176 80.0
vertex 43.4190259260058 37.7575603895287 55.0
vertex 43.4190259260058 37.7575603895287 80.0
endloop
endfacet
facet normal -0.793010289059232 -0.609208241446381 -0.0
outer loop
vertex 43.4190259260058 37.7575603895287 55.0
vertex 40.9539793332286 40.9663274056176 80.0
vertex 40.9539793332286 40.9663274056176 55.0
endloop
endfacet
facet normal -0.608314423395532 -0.793696139771992 -0.0
outer loop
vertex 40.9539793332286 40.9663274056176 80.0
vertex 37.7424371511987 43.4277573317266 55.0
vertex 40.9539793332286 40.9663274056176 55.0
endloop
endfacet
facet normal -0.608314423395532 -0.793696139771992 -0.0
outer loop
vertex 37.7424371511987 43.4277573317266 55.0
vertex 40.9539793332286 40.9663274056176 80.0
vertex 37.7424371511987 43.4277573317266 80.0
endloop
endfacet
facet normal -0.382162935064546 -0.924094957817026 -0.0
outer loop
vertex 37.7424371511987 43.4277573317266 80.0
vertex 34.0032606722969 44.9741077860967 55.0
vertex 37.7424371511987 43.4277573317266 55.0
endloop
endfacet
facet normal -0.382162935064546 -0.924094957817026 -0.0
outer loop
vertex 34.0032606722969 44.9741077860967 55.0
vertex 37.7424371511987 43.4277573317266 80.0
vertex 34.0032606722969 44.9741077860967 80.0
endloop
endfacet
facet normal -0.129967674263019 -0.991518231625955 -0.0
outer loop
vertex 34.0032606722969 44.9741077860967 80.0
vertex 29.9912685942791 45.4999975407274 55.0
vertex 34.0032606722969 44.9741077860967 55.0
endloop
endfacet
facet normal -0.129967674263019 -0.991518231625955 -0.0
outer loop
vertex 29.9912685942791 45.4999975407274 55.0
vertex 34.0032606722969 44.9741077860967 80.0
vertex 29.9912685942791 45.4999975407274 80.0
endloop
endfacet
facet normal 0.131084668757796 -0.991371176510927 -0.0
outer loop
vertex 29.9912685942791 45.4999975407274 80.0
vertex 25.9798715471319 44.9695880779145 55.0
vertex 29.9912685942791 45.4999975407274 55.0
endloop
endfacet
facet normal 0.131084668757796 -0.991371176510927 -0.0
outer loop
vertex 25.9798715471319 44.9695880779145 55.0
vertex 29.9912685942791 45.4999975407274 80.0
vertex 25.9798715471319 44.9695880779145 80.0
endloop
endfacet
facet normal 0.383203808230422 -0.92366381403501 -0.0
outer loop
vertex 25.9798715471319 44.9695880779145 80.0
vertex 22.2424396104713 43.4190259260058 55.0
vertex 25.9798715471319 44.9695880779145 55.0
endloop
endfacet
facet normal 0.383203808230422 -0.92366381403501 -0.0
outer loop
vertex 22.2424396104713 43.4190259260058 55.0
vertex 25.9798715471319 44.9695880779145 80.0
vertex 22.2424396104713 43.4190259260058 80.0
endloop
endfacet
facet normal 0.609208241446383 -0.793010289059231 -0.0
outer loop
vertex 22.2424396104713 43.4190259260058 80.0
vertex 19.0336725943824 40.9539793332286 55.0
vertex 22.2424396104713 43.4190259260058 55.0
endloop
endfacet
facet normal 0.609208241446383 -0.793010289059231 -0.0
outer loop
vertex 19.0336725943824 40.9539793332286 55.0
vertex 22.2424396104713 43.4190259260058 80.0
vertex 19.0336725943824 40.9539793332286 80.0
endloop
endfacet
facet normal 0.793696139771991 -0.608314423395533 -0.0
outer loop
vertex 19.0336725943824 40.9539793332286 55.0
vertex 16.5722426682734 37.7424371511987 80.0
vertex 16.5722426682734 37.7424371511987 55.0
endloop
endfacet
facet normal 0.793696139771991 -0.608314423395533 -0.0
outer loop
vertex 16.5722426682734 37.7424371511987 80.0
vertex 19.0336725943824 40.9539793332286 55.0
vertex 19.0336725943824 40.9539793332286 80.0
endloop
endfacet
facet normal 0.924094957817027 -0.382162935064545 -0.0
outer loop
vertex 16.5722426682734 37.7424371511987 55.0
vertex 15.0258922139033 34.0032606722969 80.0
vertex 15.0258922139033 34.0032606722969 55.0
endloop
endfacet
facet normal 0.924094957817027 -0.382162935064545 -0.0
outer loop
vertex 15.0258922139033 34.0032606722969 80.0
vertex 16.5722426682734 37.7424371511987 55.0
vertex 16.5722426682734 37.7424371511987 80.0
endloop
endfacet
facet normal 0.991518231625956 -0.129967674263018 -0.0
outer loop
vertex 15.0258922139033 34.0032606722969 55.0
vertex 14.5000024592726 29.9912685942791 80.0
vertex 14.5000024592726 29.9912685942791 55.0
endloop
endfacet
facet normal 0.991518231625956 -0.129967674263018 -0.0
outer loop
vertex 14.5000024592726 29.9912685942791 80.0
vertex 15.0258922139033 34.0032606722969 55.0
vertex 15.0258922139033 34.0032606722969 80.0
endloop
endfacet
endsolid piedestal_cube_gears
