solid CATIA STL
  facet normal  0.000000e+000  0.000000e+000  1.000000e+000
    outer loop
      vertex  1.100000e+001  9.797175e-016  7.460000e+001
      vertex  1.160896e+001  3.061467e+000  7.460000e+001
      vertex  9.500000e+000 -5.372983e+000  7.460000e+001
    endloop
  endfacet
  facet normal  0.000000e+000  0.000000e+000  1.000000e+000
    outer loop
      vertex  8.000000e+000  0.000000e+000  7.460000e+001
      vertex  9.500000e+000 -5.372983e+000  7.460000e+001
      vertex  7.391036e+000  3.061467e+000  7.460000e+001
    endloop
  endfacet
  facet normal  0.000000e+000  -0.000000e+000  1.000000e+000
    outer loop
      vertex  7.391036e+000  3.061467e+000  7.460000e+001
      vertex  9.500000e+000 -5.372983e+000  7.460000e+001
      vertex  1.160896e+001  3.061467e+000  7.460000e+001
    endloop
  endfacet
  facet normal  0.000000e+000  0.000000e+000  1.000000e+000
    outer loop
      vertex -5.656854e+000  5.656854e+000  7.460000e+001
      vertex -3.061467e+000  7.391036e+000  7.460000e+001
      vertex -1.300000e+001  2.000000e+000  7.460000e+001
    endloop
  endfacet
  facet normal  0.000000e+000  -0.000000e+000  9.999999e-001
    outer loop
      vertex -1.300000e+001  2.000000e+000  7.460000e+001
      vertex -7.391036e+000  3.061467e+000  7.460000e+001
      vertex -5.656854e+000  5.656854e+000  7.460000e+001
    endloop
  endfacet
  facet normal  0.000000e+000  0.000000e+000  1.000000e+000
    outer loop
      vertex  1.900000e+001  1.100000e+001  7.460000e+001
      vertex  1.334315e+001  5.656854e+000  7.460000e+001
      vertex  1.593853e+001  7.391036e+000  7.460000e+001
    endloop
  endfacet
  facet normal  0.000000e+000  0.000000e+000  1.000000e+000
    outer loop
      vertex  1.900000e+001  1.100000e+001  7.460000e+001
      vertex  1.593853e+001  7.391036e+000  7.460000e+001
      vertex  1.900000e+001  8.000000e+000  7.460000e+001
    endloop
  endfacet
  facet normal  0.000000e+000  0.000000e+000  1.000000e+000
    outer loop
      vertex  1.900000e+001  1.100000e+001  7.460000e+001
      vertex  1.900000e+001  8.000000e+000  7.460000e+001
      vertex  2.546564e+001  8.899187e+000  7.460000e+001
    endloop
  endfacet
  facet normal  0.000000e+000  0.000000e+000  9.999999e-001
    outer loop
      vertex  1.900000e+001  1.100000e+001  7.460000e+001
      vertex  2.546564e+001  8.899187e+000  7.460000e+001
      vertex  2.239919e+001  1.046162e+001  7.460000e+001
    endloop
  endfacet
  facet normal  0.000000e+000  -0.000000e+000  1.000000e+000
    outer loop
      vertex -7.000000e+000 -1.100000e+001  7.460000e+001
      vertex  1.900000e+001 -1.100000e+001  7.460000e+001
      vertex  1.900000e+001 -8.000000e+000  7.460000e+001
    endloop
  endfacet
  facet normal  0.000000e+000  0.000000e+000  1.000000e+000
    outer loop
      vertex -7.000000e+000 -1.100000e+001  7.460000e+001
      vertex  1.900000e+001 -8.000000e+000  7.460000e+001
      vertex  9.500000e+000 -7.372983e+000  7.460000e+001
    endloop
  endfacet
  facet normal  0.000000e+000  0.000000e+000  1.000000e+000
    outer loop
      vertex -7.000000e+000 -1.100000e+001  7.460000e+001
      vertex  9.500000e+000 -7.372983e+000  7.460000e+001
      vertex -1.469576e-015 -8.000000e+000  7.460000e+001
    endloop
  endfacet
  facet normal  0.000000e+000  0.000000e+000  1.000000e+000
    outer loop
      vertex -7.000000e+000 -1.100000e+001  7.460000e+001
      vertex -1.469576e-015 -8.000000e+000  7.460000e+001
      vertex -3.061467e+000 -7.391036e+000  7.460000e+001
    endloop
  endfacet
  facet normal  0.000000e+000  0.000000e+000  1.000000e+000
    outer loop
      vertex -7.000000e+000 -1.100000e+001  7.460000e+001
      vertex -3.061467e+000 -7.391036e+000  7.460000e+001
      vertex -5.656854e+000 -5.656854e+000  7.460000e+001
    endloop
  endfacet
  facet normal  0.000000e+000  0.000000e+000  1.000000e+000
    outer loop
      vertex -1.746162e+001 -3.399187e+000  7.460000e+001
      vertex -1.300000e+001 -2.000000e+000  7.460000e+001
      vertex -1.441421e+001 -1.414214e+000  7.460000e+001
    endloop
  endfacet
  facet normal  0.000000e+000  0.000000e+000  1.000000e+000
    outer loop
      vertex -1.746162e+001 -3.399187e+000  7.460000e+001
      vertex -1.441421e+001 -1.414214e+000  7.460000e+001
      vertex -1.500000e+001  2.449294e-016  7.460000e+001
    endloop
  endfacet
  facet normal  0.000000e+000  0.000000e+000  1.000000e+000
    outer loop
      vertex -1.746162e+001 -3.399187e+000  7.460000e+001
      vertex -1.500000e+001  2.449294e-016  7.460000e+001
      vertex -1.800000e+001  6.232093e-015  7.460000e+001
    endloop
  endfacet
  facet normal  0.000000e+000  0.000000e+000  1.000000e+000
    outer loop
      vertex  3.061467e+000 -7.391036e+000  7.460000e+001
      vertex -1.469576e-015 -8.000000e+000  7.460000e+001
      vertex  9.500000e+000 -7.372983e+000  7.460000e+001
    endloop
  endfacet
  facet normal  0.000000e+000  0.000000e+000  1.000000e+000
    outer loop
      vertex  3.061467e+000 -7.391036e+000  7.460000e+001
      vertex  9.500000e+000 -7.372983e+000  7.460000e+001
      vertex  8.792893e+000 -7.080090e+000  7.460000e+001
    endloop
  endfacet
  facet normal  0.000000e+000  0.000000e+000  1.000000e+000
    outer loop
      vertex  3.061467e+000 -7.391036e+000  7.460000e+001
      vertex  8.792893e+000 -7.080090e+000  7.460000e+001
      vertex  8.500000e+000 -6.372983e+000  7.460000e+001
    endloop
  endfacet
  facet normal  0.000000e+000  -0.000000e+000  1.000000e+000
    outer loop
      vertex  3.061467e+000 -7.391036e+000  7.460000e+001
      vertex  8.500000e+000 -6.372983e+000  7.460000e+001
      vertex  8.792893e+000 -5.665876e+000  7.460000e+001
    endloop
  endfacet
  facet normal  0.000000e+000  0.000000e+000  1.000000e+000
    outer loop
      vertex  3.061467e+000 -7.391036e+000  7.460000e+001
      vertex  8.792893e+000 -5.665876e+000  7.460000e+001
      vertex  5.656854e+000 -5.656854e+000  7.460000e+001
    endloop
  endfacet
  facet normal  0.000000e+000  0.000000e+000  1.000000e+000
    outer loop
      vertex  1.593853e+001 -7.391036e+000  7.460000e+001
      vertex  1.334315e+001 -5.656854e+000  7.460000e+001
      vertex  1.020711e+001 -5.665876e+000  7.460000e+001
    endloop
  endfacet
  facet normal  0.000000e+000  0.000000e+000  1.000000e+000
    outer loop
      vertex  1.593853e+001 -7.391036e+000  7.460000e+001
      vertex  1.020711e+001 -5.665876e+000  7.460000e+001
      vertex  1.050000e+001 -6.372983e+000  7.460000e+001
    endloop
  endfacet
  facet normal  0.000000e+000  0.000000e+000  1.000000e+000
    outer loop
      vertex  1.593853e+001 -7.391036e+000  7.460000e+001
      vertex  1.050000e+001 -6.372983e+000  7.460000e+001
      vertex  1.020711e+001 -7.080090e+000  7.460000e+001
    endloop
  endfacet
  facet normal  0.000000e+000  0.000000e+000  1.000000e+000
    outer loop
      vertex  1.593853e+001 -7.391036e+000  7.460000e+001
      vertex  1.020711e+001 -7.080090e+000  7.460000e+001
      vertex  9.500000e+000 -7.372983e+000  7.460000e+001
    endloop
  endfacet
  facet normal  0.000000e+000  0.000000e+000  1.000000e+000
    outer loop
      vertex  1.593853e+001 -7.391036e+000  7.460000e+001
      vertex  9.500000e+000 -7.372983e+000  7.460000e+001
      vertex  1.900000e+001 -8.000000e+000  7.460000e+001
    endloop
  endfacet
  facet normal  0.000000e+000  0.000000e+000  1.000000e+000
    outer loop
      vertex -7.000000e+000 -1.100000e+001  7.460000e+001
      vertex -5.656854e+000 -5.656854e+000  7.460000e+001
      vertex -1.039919e+001 -1.046162e+001  7.460000e+001
    endloop
  endfacet
  facet normal  0.000000e+000  0.000000e+000  1.000000e+000
    outer loop
      vertex -1.039919e+001 -1.046162e+001  7.460000e+001
      vertex -5.656854e+000 -5.656854e+000  7.460000e+001
      vertex -7.391036e+000 -3.061467e+000  7.460000e+001
    endloop
  endfacet
  facet normal  0.000000e+000  0.000000e+000  1.000000e+000
    outer loop
      vertex -1.039919e+001 -1.046162e+001  7.460000e+001
      vertex -7.391036e+000 -3.061467e+000  7.460000e+001
      vertex -1.346564e+001 -8.899187e+000  7.460000e+001
    endloop
  endfacet
  facet normal  0.000000e+000  0.000000e+000  1.000000e+000
    outer loop
      vertex -1.346564e+001 -8.899187e+000  7.460000e+001
      vertex -7.391036e+000 -3.061467e+000  7.460000e+001
      vertex -1.300000e+001 -2.000000e+000  7.460000e+001
    endloop
  endfacet
  facet normal  0.000000e+000  0.000000e+000  1.000000e+000
    outer loop
      vertex -1.346564e+001 -8.899187e+000  7.460000e+001
      vertex -1.300000e+001 -2.000000e+000  7.460000e+001
      vertex -1.589919e+001 -6.465638e+000  7.460000e+001
    endloop
  endfacet
  facet normal  0.000000e+000  -0.000000e+000  1.000000e+000
    outer loop
      vertex -1.589919e+001 -6.465638e+000  7.460000e+001
      vertex -1.300000e+001 -2.000000e+000  7.460000e+001
      vertex -1.746162e+001 -3.399187e+000  7.460000e+001
    endloop
  endfacet
  facet normal  0.000000e+000  0.000000e+000  1.000000e+000
    outer loop
      vertex -1.589919e+001  6.465638e+000  7.460000e+001
      vertex -1.746162e+001  3.399187e+000  7.460000e+001
      vertex -1.346564e+001  8.899187e+000  7.460000e+001
    endloop
  endfacet
  facet normal  0.000000e+000  0.000000e+000  9.999999e-001
    outer loop
      vertex -1.346564e+001  8.899187e+000  7.460000e+001
      vertex -1.746162e+001  3.399187e+000  7.460000e+001
      vertex -1.300000e+001  2.000000e+000  7.460000e+001
    endloop
  endfacet
  facet normal  0.000000e+000  -0.000000e+000  9.999999e-001
    outer loop
      vertex -1.346564e+001  8.899187e+000  7.460000e+001
      vertex -1.300000e+001  2.000000e+000  7.460000e+001
      vertex -1.039919e+001  1.046162e+001  7.460000e+001
    endloop
  endfacet
  facet normal  0.000000e+000  0.000000e+000  1.000000e+000
    outer loop
      vertex -1.039919e+001  1.046162e+001  7.460000e+001
      vertex -1.300000e+001  2.000000e+000  7.460000e+001
      vertex -3.061467e+000  7.391036e+000  7.460000e+001
    endloop
  endfacet
  facet normal  0.000000e+000  -0.000000e+000  1.000000e+000
    outer loop
      vertex -1.039919e+001  1.046162e+001  7.460000e+001
      vertex -3.061467e+000  7.391036e+000  7.460000e+001
      vertex  4.898587e-016  8.000000e+000  7.460000e+001
    endloop
  endfacet
  facet normal  -0.000000e+000  0.000000e+000  1.000000e+000
    outer loop
      vertex -7.000000e+000  1.100000e+001  7.460000e+001
      vertex -1.039919e+001  1.046162e+001  7.460000e+001
      vertex  3.061467e+000  7.391036e+000  7.460000e+001
    endloop
  endfacet
  facet normal  0.000000e+000  0.000000e+000  1.000000e+000
    outer loop
      vertex  3.061467e+000  7.391036e+000  7.460000e+001
      vertex -1.039919e+001  1.046162e+001  7.460000e+001
      vertex  4.898587e-016  8.000000e+000  7.460000e+001
    endloop
  endfacet
  facet normal  -0.000000e+000  0.000000e+000  1.000000e+000
    outer loop
      vertex  1.900000e+001  1.100000e+001  7.460000e+001
      vertex -7.000000e+000  1.100000e+001  7.460000e+001
      vertex  1.334315e+001  5.656854e+000  7.460000e+001
    endloop
  endfacet
  facet normal  0.000000e+000  0.000000e+000  1.000000e+000
    outer loop
      vertex  1.334315e+001  5.656854e+000  7.460000e+001
      vertex -7.000000e+000  1.100000e+001  7.460000e+001
      vertex  3.061467e+000  7.391036e+000  7.460000e+001
    endloop
  endfacet
  facet normal  0.000000e+000  0.000000e+000  1.000000e+000
    outer loop
      vertex  1.334315e+001  5.656854e+000  7.460000e+001
      vertex  3.061467e+000  7.391036e+000  7.460000e+001
      vertex  1.160896e+001  3.061467e+000  7.460000e+001
    endloop
  endfacet
  facet normal  0.000000e+000  0.000000e+000  1.000000e+000
    outer loop
      vertex  1.160896e+001  3.061467e+000  7.460000e+001
      vertex  3.061467e+000  7.391036e+000  7.460000e+001
      vertex  5.656854e+000  5.656854e+000  7.460000e+001
    endloop
  endfacet
  facet normal  0.000000e+000  0.000000e+000  1.000000e+000
    outer loop
      vertex  1.160896e+001  3.061467e+000  7.460000e+001
      vertex  5.656854e+000  5.656854e+000  7.460000e+001
      vertex  7.391036e+000  3.061467e+000  7.460000e+001
    endloop
  endfacet
  facet normal  0.000000e+000  0.000000e+000  1.000000e+000
    outer loop
      vertex -1.300000e+001  2.000000e+000  7.460000e+001
      vertex -1.746162e+001  3.399187e+000  7.460000e+001
      vertex -1.441421e+001  1.414214e+000  7.460000e+001
    endloop
  endfacet
  facet normal  0.000000e+000  0.000000e+000  1.000000e+000
    outer loop
      vertex -1.441421e+001  1.414214e+000  7.460000e+001
      vertex -1.746162e+001  3.399187e+000  7.460000e+001
      vertex -1.800000e+001  6.232093e-015  7.460000e+001
    endloop
  endfacet
  facet normal  -0.000000e+000  0.000000e+000  1.000000e+000
    outer loop
      vertex -1.441421e+001  1.414214e+000  7.460000e+001
      vertex -1.800000e+001  6.232093e-015  7.460000e+001
      vertex -1.500000e+001  2.449294e-016  7.460000e+001
    endloop
  endfacet
  facet normal  -0.000000e+000  0.000000e+000  1.000000e+000
    outer loop
      vertex -7.391036e+000  3.061467e+000  7.460000e+001
      vertex -1.300000e+001  2.000000e+000  7.460000e+001
      vertex -8.000000e+000  9.797175e-016  7.460000e+001
    endloop
  endfacet
  facet normal  0.000000e+000  0.000000e+000  1.000000e+000
    outer loop
      vertex -8.000000e+000  9.797175e-016  7.460000e+001
      vertex -1.300000e+001  2.000000e+000  7.460000e+001
      vertex -1.158579e+001  1.414214e+000  7.460000e+001
    endloop
  endfacet
  facet normal  0.000000e+000  0.000000e+000  1.000000e+000
    outer loop
      vertex -8.000000e+000  9.797175e-016  7.460000e+001
      vertex -1.158579e+001  1.414214e+000  7.460000e+001
      vertex -1.100000e+001  0.000000e+000  7.460000e+001
    endloop
  endfacet
  facet normal  -0.000000e+000  0.000000e+000  1.000000e+000
    outer loop
      vertex -8.000000e+000  9.797175e-016  7.460000e+001
      vertex -1.100000e+001  0.000000e+000  7.460000e+001
      vertex -7.391036e+000 -3.061467e+000  7.460000e+001
    endloop
  endfacet
  facet normal  0.000000e+000  0.000000e+000  1.000000e+000
    outer loop
      vertex -7.391036e+000 -3.061467e+000  7.460000e+001
      vertex -1.100000e+001  0.000000e+000  7.460000e+001
      vertex -1.158579e+001 -1.414214e+000  7.460000e+001
    endloop
  endfacet
  facet normal  0.000000e+000  0.000000e+000  1.000000e+000
    outer loop
      vertex -7.391036e+000 -3.061467e+000  7.460000e+001
      vertex -1.158579e+001 -1.414214e+000  7.460000e+001
      vertex -1.300000e+001 -2.000000e+000  7.460000e+001
    endloop
  endfacet
  facet normal  0.000000e+000  0.000000e+000  1.000000e+000
    outer loop
      vertex  5.656854e+000 -5.656854e+000  7.460000e+001
      vertex  8.792893e+000 -5.665876e+000  7.460000e+001
      vertex  7.391036e+000 -3.061467e+000  7.460000e+001
    endloop
  endfacet
  facet normal  0.000000e+000  0.000000e+000  1.000000e+000
    outer loop
      vertex  7.391036e+000 -3.061467e+000  7.460000e+001
      vertex  8.792893e+000 -5.665876e+000  7.460000e+001
      vertex  9.500000e+000 -5.372983e+000  7.460000e+001
    endloop
  endfacet
  facet normal  0.000000e+000  0.000000e+000  1.000000e+000
    outer loop
      vertex  7.391036e+000 -3.061467e+000  7.460000e+001
      vertex  9.500000e+000 -5.372983e+000  7.460000e+001
      vertex  8.000000e+000  0.000000e+000  7.460000e+001
    endloop
  endfacet
  facet normal  0.000000e+000  0.000000e+000  1.000000e+000
    outer loop
      vertex  1.020711e+001 -5.665876e+000  7.460000e+001
      vertex  1.334315e+001 -5.656854e+000  7.460000e+001
      vertex  9.500000e+000 -5.372983e+000  7.460000e+001
    endloop
  endfacet
  facet normal  -0.000000e+000  0.000000e+000  1.000000e+000
    outer loop
      vertex  9.500000e+000 -5.372983e+000  7.460000e+001
      vertex  1.334315e+001 -5.656854e+000  7.460000e+001
      vertex  1.160896e+001 -3.061467e+000  7.460000e+001
    endloop
  endfacet
  facet normal  0.000000e+000  0.000000e+000  1.000000e+000
    outer loop
      vertex  9.500000e+000 -5.372983e+000  7.460000e+001
      vertex  1.160896e+001 -3.061467e+000  7.460000e+001
      vertex  1.100000e+001  9.797175e-016  7.460000e+001
    endloop
  endfacet
  facet normal  -0.000000e+000  0.000000e+000  1.000000e+000
    outer loop
      vertex  2.546564e+001  8.899187e+000  7.460000e+001
      vertex  1.900000e+001  8.000000e+000  7.460000e+001
      vertex  2.789919e+001  6.465638e+000  7.460000e+001
    endloop
  endfacet
  facet normal  0.000000e+000  0.000000e+000  1.000000e+000
    outer loop
      vertex  2.789919e+001  6.465638e+000  7.460000e+001
      vertex  1.900000e+001  8.000000e+000  7.460000e+001
      vertex  2.206147e+001  7.391036e+000  7.460000e+001
    endloop
  endfacet
  facet normal  0.000000e+000  0.000000e+000  1.000000e+000
    outer loop
      vertex  2.789919e+001  6.465638e+000  7.460000e+001
      vertex  2.206147e+001  7.391036e+000  7.460000e+001
      vertex  2.465685e+001  5.656854e+000  7.460000e+001
    endloop
  endfacet
  facet normal  -0.000000e+000  0.000000e+000  9.999999e-001
    outer loop
      vertex  2.789919e+001  6.465638e+000  7.460000e+001
      vertex  2.465685e+001  5.656854e+000  7.460000e+001
      vertex  2.946162e+001  3.399187e+000  7.460000e+001
    endloop
  endfacet
  facet normal  0.000000e+000  0.000000e+000  1.000000e+000
    outer loop
      vertex  2.946162e+001  3.399187e+000  7.460000e+001
      vertex  2.465685e+001  5.656854e+000  7.460000e+001
      vertex  2.639104e+001  3.061467e+000  7.460000e+001
    endloop
  endfacet
  facet normal  -0.000000e+000  0.000000e+000  9.999999e-001
    outer loop
      vertex  2.946162e+001  3.399187e+000  7.460000e+001
      vertex  2.639104e+001  3.061467e+000  7.460000e+001
      vertex  3.000000e+001 -2.694223e-015  7.460000e+001
    endloop
  endfacet
  facet normal  0.000000e+000  0.000000e+000  1.000000e+000
    outer loop
      vertex  3.000000e+001 -2.694223e-015  7.460000e+001
      vertex  2.639104e+001  3.061467e+000  7.460000e+001
      vertex  2.700000e+001  0.000000e+000  7.460000e+001
    endloop
  endfacet
  facet normal  0.000000e+000  0.000000e+000  1.000000e+000
    outer loop
      vertex  3.000000e+001 -2.694223e-015  7.460000e+001
      vertex  2.700000e+001  0.000000e+000  7.460000e+001
      vertex  2.946162e+001 -3.399187e+000  7.460000e+001
    endloop
  endfacet
  facet normal  0.000000e+000  0.000000e+000  1.000000e+000
    outer loop
      vertex  2.946162e+001 -3.399187e+000  7.460000e+001
      vertex  2.700000e+001  0.000000e+000  7.460000e+001
      vertex  2.639104e+001 -3.061467e+000  7.460000e+001
    endloop
  endfacet
  facet normal  0.000000e+000  0.000000e+000  9.999999e-001
    outer loop
      vertex  2.946162e+001 -3.399187e+000  7.460000e+001
      vertex  2.639104e+001 -3.061467e+000  7.460000e+001
      vertex  2.789919e+001 -6.465638e+000  7.460000e+001
    endloop
  endfacet
  facet normal  0.000000e+000  0.000000e+000  1.000000e+000
    outer loop
      vertex  2.789919e+001 -6.465638e+000  7.460000e+001
      vertex  2.639104e+001 -3.061467e+000  7.460000e+001
      vertex  2.465685e+001 -5.656854e+000  7.460000e+001
    endloop
  endfacet
  facet normal  0.000000e+000  0.000000e+000  1.000000e+000
    outer loop
      vertex  2.789919e+001 -6.465638e+000  7.460000e+001
      vertex  2.465685e+001 -5.656854e+000  7.460000e+001
      vertex  2.546564e+001 -8.899187e+000  7.460000e+001
    endloop
  endfacet
  facet normal  0.000000e+000  0.000000e+000  1.000000e+000
    outer loop
      vertex  2.546564e+001 -8.899187e+000  7.460000e+001
      vertex  2.465685e+001 -5.656854e+000  7.460000e+001
      vertex  2.206147e+001 -7.391036e+000  7.460000e+001
    endloop
  endfacet
  facet normal  0.000000e+000  0.000000e+000  1.000000e+000
    outer loop
      vertex  2.546564e+001 -8.899187e+000  7.460000e+001
      vertex  2.206147e+001 -7.391036e+000  7.460000e+001
      vertex  1.900000e+001 -8.000000e+000  7.460000e+001
    endloop
  endfacet
  facet normal  0.000000e+000  0.000000e+000  1.000000e+000
    outer loop
      vertex  1.900000e+001 -1.100000e+001  7.460000e+001
      vertex  2.239919e+001 -1.046162e+001  7.460000e+001
      vertex  1.900000e+001 -8.000000e+000  7.460000e+001
    endloop
  endfacet
  facet normal  0.000000e+000  0.000000e+000  1.000000e+000
    outer loop
      vertex  1.900000e+001 -8.000000e+000  7.460000e+001
      vertex  2.239919e+001 -1.046162e+001  7.460000e+001
      vertex  2.546564e+001 -8.899187e+000  7.460000e+001
    endloop
  endfacet
  facet normal -6.785984e-001 -2.810847e-001  6.785984e-001
    outer loop
      vertex  9.500000e+000 -6.372983e+000  7.360000e+001
      vertex  1.050000e+001 -6.372983e+000  7.460000e+001
      vertex  1.020711e+001 -5.665876e+000  7.460000e+001
    endloop
  endfacet
  facet normal -2.810844e-001 -6.785984e-001  6.785984e-001
    outer loop
      vertex  9.500000e+000 -6.372983e+000  7.360000e+001
      vertex  1.020711e+001 -5.665876e+000  7.460000e+001
      vertex  9.500000e+000 -5.372983e+000  7.460000e+001
    endloop
  endfacet
  facet normal  2.810844e-001 -6.785984e-001  6.785984e-001
    outer loop
      vertex  9.500000e+000 -6.372983e+000  7.360000e+001
      vertex  9.500000e+000 -5.372983e+000  7.460000e+001
      vertex  8.792893e+000 -5.665876e+000  7.460000e+001
    endloop
  endfacet
  facet normal  6.785984e-001 -2.810847e-001  6.785984e-001
    outer loop
      vertex  9.500000e+000 -6.372983e+000  7.360000e+001
      vertex  8.792893e+000 -5.665876e+000  7.460000e+001
      vertex  8.500000e+000 -6.372983e+000  7.460000e+001
    endloop
  endfacet
  facet normal  6.785983e-001  2.810849e-001  6.785983e-001
    outer loop
      vertex  9.500000e+000 -6.372983e+000  7.360000e+001
      vertex  8.500000e+000 -6.372983e+000  7.460000e+001
      vertex  8.792893e+000 -7.080090e+000  7.460000e+001
    endloop
  endfacet
  facet normal  2.810849e-001  6.785983e-001  6.785983e-001
    outer loop
      vertex  9.500000e+000 -6.372983e+000  7.360000e+001
      vertex  8.792893e+000 -7.080090e+000  7.460000e+001
      vertex  9.500000e+000 -7.372983e+000  7.460000e+001
    endloop
  endfacet
  facet normal -2.810849e-001  6.785983e-001  6.785983e-001
    outer loop
      vertex  9.500000e+000 -6.372983e+000  7.360000e+001
      vertex  9.500000e+000 -7.372983e+000  7.460000e+001
      vertex  1.020711e+001 -7.080090e+000  7.460000e+001
    endloop
  endfacet
  facet normal -6.785983e-001  2.810849e-001  6.785983e-001
    outer loop
      vertex  9.500000e+000 -6.372983e+000  7.360000e+001
      vertex  1.020711e+001 -7.080090e+000  7.460000e+001
      vertex  1.050000e+001 -6.372983e+000  7.460000e+001
    endloop
  endfacet
  facet normal -1.950904e-001  9.807853e-001  0.000000e+000
    outer loop
      vertex  1.900000e+001 -8.000000e+000  5.500000e+000
      vertex  2.206147e+001 -7.391036e+000  7.460000e+001
      vertex  2.206147e+001 -7.391036e+000  5.500000e+000
    endloop
  endfacet
  facet normal -5.555702e-001  8.314695e-001  0.000000e+000
    outer loop
      vertex  2.206147e+001 -7.391036e+000  5.500000e+000
      vertex  2.206147e+001 -7.391036e+000  7.460000e+001
      vertex  2.465685e+001 -5.656854e+000  7.460000e+001
    endloop
  endfacet
  facet normal -5.555702e-001  8.314695e-001  0.000000e+000
    outer loop
      vertex  2.206147e+001 -7.391036e+000  5.500000e+000
      vertex  2.465685e+001 -5.656854e+000  7.460000e+001
      vertex  2.465685e+001 -5.656854e+000  5.500000e+000
    endloop
  endfacet
  facet normal -8.314695e-001  5.555703e-001  0.000000e+000
    outer loop
      vertex  2.465685e+001 -5.656854e+000  5.500000e+000
      vertex  2.465685e+001 -5.656854e+000  7.460000e+001
      vertex  2.639104e+001 -3.061467e+000  7.460000e+001
    endloop
  endfacet
  facet normal -8.314695e-001  5.555703e-001  0.000000e+000
    outer loop
      vertex  2.465685e+001 -5.656854e+000  5.500000e+000
      vertex  2.639104e+001 -3.061467e+000  7.460000e+001
      vertex  2.639104e+001 -3.061467e+000  5.500000e+000
    endloop
  endfacet
  facet normal -9.807853e-001  1.950901e-001  0.000000e+000
    outer loop
      vertex  2.639104e+001 -3.061467e+000  5.500000e+000
      vertex  2.639104e+001 -3.061467e+000  7.460000e+001
      vertex  2.700000e+001  0.000000e+000  7.460000e+001
    endloop
  endfacet
  facet normal -9.807853e-001  1.950901e-001  0.000000e+000
    outer loop
      vertex  2.639104e+001 -3.061467e+000  5.500000e+000
      vertex  2.700000e+001  0.000000e+000  7.460000e+001
      vertex  2.700000e+001  0.000000e+000  5.500000e+000
    endloop
  endfacet
  facet normal -1.950904e-001  9.807853e-001  0.000000e+000
    outer loop
      vertex  2.206147e+001 -7.391036e+000  7.460000e+001
      vertex  1.900000e+001 -8.000000e+000  5.500000e+000
      vertex  1.900000e+001 -8.000000e+000  7.460000e+001
    endloop
  endfacet
  facet normal  1.950904e-001  9.807853e-001  0.000000e+000
    outer loop
      vertex  1.900000e+001 -8.000000e+000  7.460000e+001
      vertex  1.900000e+001 -8.000000e+000  5.500000e+000
      vertex  1.593853e+001 -7.391036e+000  5.500000e+000
    endloop
  endfacet
  facet normal  1.950904e-001  9.807853e-001  -0.000000e+000
    outer loop
      vertex  1.900000e+001 -8.000000e+000  7.460000e+001
      vertex  1.593853e+001 -7.391036e+000  5.500000e+000
      vertex  1.593853e+001 -7.391036e+000  7.460000e+001
    endloop
  endfacet
  facet normal  5.555701e-001  8.314697e-001  0.000000e+000
    outer loop
      vertex  1.593853e+001 -7.391036e+000  7.460000e+001
      vertex  1.593853e+001 -7.391036e+000  5.500000e+000
      vertex  1.334315e+001 -5.656854e+000  5.500000e+000
    endloop
  endfacet
  facet normal  5.555701e-001  8.314697e-001  -0.000000e+000
    outer loop
      vertex  1.593853e+001 -7.391036e+000  7.460000e+001
      vertex  1.334315e+001 -5.656854e+000  5.500000e+000
      vertex  1.334315e+001 -5.656854e+000  7.460000e+001
    endloop
  endfacet
  facet normal  8.314697e-001  5.555701e-001  0.000000e+000
    outer loop
      vertex  1.334315e+001 -5.656854e+000  7.460000e+001
      vertex  1.334315e+001 -5.656854e+000  5.500000e+000
      vertex  1.160896e+001 -3.061467e+000  5.500000e+000
    endloop
  endfacet
  facet normal  8.314697e-001  5.555701e-001  -0.000000e+000
    outer loop
      vertex  1.334315e+001 -5.656854e+000  7.460000e+001
      vertex  1.160896e+001 -3.061467e+000  5.500000e+000
      vertex  1.160896e+001 -3.061467e+000  7.460000e+001
    endloop
  endfacet
  facet normal  9.807853e-001  1.950904e-001  0.000000e+000
    outer loop
      vertex  1.160896e+001 -3.061467e+000  7.460000e+001
      vertex  1.160896e+001 -3.061467e+000  5.500000e+000
      vertex  1.100000e+001  9.797175e-016  5.500000e+000
    endloop
  endfacet
  facet normal  9.807853e-001  1.950904e-001  -0.000000e+000
    outer loop
      vertex  1.160896e+001 -3.061467e+000  7.460000e+001
      vertex  1.100000e+001  9.797175e-016  5.500000e+000
      vertex  1.100000e+001  9.797175e-016  7.460000e+001
    endloop
  endfacet
  facet normal  1.950904e-001 -9.807853e-001  0.000000e+000
    outer loop
      vertex  1.900000e+001  8.000000e+000  5.500000e+000
      vertex  1.593853e+001  7.391036e+000  7.460000e+001
      vertex  1.593853e+001  7.391036e+000  5.500000e+000
    endloop
  endfacet
  facet normal  5.555701e-001 -8.314697e-001  0.000000e+000
    outer loop
      vertex  1.593853e+001  7.391036e+000  5.500000e+000
      vertex  1.593853e+001  7.391036e+000  7.460000e+001
      vertex  1.334315e+001  5.656854e+000  7.460000e+001
    endloop
  endfacet
  facet normal  5.555701e-001 -8.314697e-001  0.000000e+000
    outer loop
      vertex  1.593853e+001  7.391036e+000  5.500000e+000
      vertex  1.334315e+001  5.656854e+000  7.460000e+001
      vertex  1.334315e+001  5.656854e+000  5.500000e+000
    endloop
  endfacet
  facet normal  8.314697e-001 -5.555701e-001  0.000000e+000
    outer loop
      vertex  1.334315e+001  5.656854e+000  5.500000e+000
      vertex  1.334315e+001  5.656854e+000  7.460000e+001
      vertex  1.160896e+001  3.061467e+000  7.460000e+001
    endloop
  endfacet
  facet normal  8.314697e-001 -5.555701e-001  0.000000e+000
    outer loop
      vertex  1.334315e+001  5.656854e+000  5.500000e+000
      vertex  1.160896e+001  3.061467e+000  7.460000e+001
      vertex  1.160896e+001  3.061467e+000  5.500000e+000
    endloop
  endfacet
  facet normal  9.807853e-001 -1.950904e-001  0.000000e+000
    outer loop
      vertex  1.160896e+001  3.061467e+000  5.500000e+000
      vertex  1.160896e+001  3.061467e+000  7.460000e+001
      vertex  1.100000e+001  9.797175e-016  7.460000e+001
    endloop
  endfacet
  facet normal  9.807853e-001 -1.950904e-001  0.000000e+000
    outer loop
      vertex  1.160896e+001  3.061467e+000  5.500000e+000
      vertex  1.100000e+001  9.797175e-016  7.460000e+001
      vertex  1.100000e+001  9.797175e-016  5.500000e+000
    endloop
  endfacet
  facet normal  1.950904e-001 -9.807853e-001  0.000000e+000
    outer loop
      vertex  1.593853e+001  7.391036e+000  7.460000e+001
      vertex  1.900000e+001  8.000000e+000  5.500000e+000
      vertex  1.900000e+001  8.000000e+000  7.460000e+001
    endloop
  endfacet
  facet normal -1.950904e-001 -9.807853e-001  -0.000000e+000
    outer loop
      vertex  1.900000e+001  8.000000e+000  7.460000e+001
      vertex  1.900000e+001  8.000000e+000  5.500000e+000
      vertex  2.206147e+001  7.391036e+000  5.500000e+000
    endloop
  endfacet
  facet normal -1.950904e-001 -9.807853e-001  0.000000e+000
    outer loop
      vertex  1.900000e+001  8.000000e+000  7.460000e+001
      vertex  2.206147e+001  7.391036e+000  5.500000e+000
      vertex  2.206147e+001  7.391036e+000  7.460000e+001
    endloop
  endfacet
  facet normal -5.555702e-001 -8.314695e-001  -0.000000e+000
    outer loop
      vertex  2.206147e+001  7.391036e+000  7.460000e+001
      vertex  2.206147e+001  7.391036e+000  5.500000e+000
      vertex  2.465685e+001  5.656854e+000  5.500000e+000
    endloop
  endfacet
  facet normal -5.555702e-001 -8.314695e-001  0.000000e+000
    outer loop
      vertex  2.206147e+001  7.391036e+000  7.460000e+001
      vertex  2.465685e+001  5.656854e+000  5.500000e+000
      vertex  2.465685e+001  5.656854e+000  7.460000e+001
    endloop
  endfacet
  facet normal -8.314695e-001 -5.555703e-001  -0.000000e+000
    outer loop
      vertex  2.465685e+001  5.656854e+000  7.460000e+001
      vertex  2.465685e+001  5.656854e+000  5.500000e+000
      vertex  2.639104e+001  3.061467e+000  5.500000e+000
    endloop
  endfacet
  facet normal -8.314695e-001 -5.555703e-001  0.000000e+000
    outer loop
      vertex  2.465685e+001  5.656854e+000  7.460000e+001
      vertex  2.639104e+001  3.061467e+000  5.500000e+000
      vertex  2.639104e+001  3.061467e+000  7.460000e+001
    endloop
  endfacet
  facet normal -9.807853e-001 -1.950901e-001  -0.000000e+000
    outer loop
      vertex  2.639104e+001  3.061467e+000  7.460000e+001
      vertex  2.639104e+001  3.061467e+000  5.500000e+000
      vertex  2.700000e+001  0.000000e+000  5.500000e+000
    endloop
  endfacet
  facet normal -9.807853e-001 -1.950901e-001  0.000000e+000
    outer loop
      vertex  2.639104e+001  3.061467e+000  7.460000e+001
      vertex  2.700000e+001  0.000000e+000  5.500000e+000
      vertex  2.700000e+001  0.000000e+000  7.460000e+001
    endloop
  endfacet
  facet normal  0.000000e+000  0.000000e+000  1.000000e+000
    outer loop
      vertex  1.593853e+001  7.391036e+000  5.500000e+000
      vertex  2.206147e+001  7.391036e+000  5.500000e+000
      vertex  1.900000e+001  8.000000e+000  5.500000e+000
    endloop
  endfacet
  facet normal  -0.000000e+000  0.000000e+000  9.999999e-001
    outer loop
      vertex  2.206147e+001  7.391036e+000  5.500000e+000
      vertex  1.593853e+001  7.391036e+000  5.500000e+000
      vertex  2.465685e+001  5.656854e+000  5.500000e+000
    endloop
  endfacet
  facet normal  0.000000e+000  0.000000e+000  1.000000e+000
    outer loop
      vertex  2.465685e+001  5.656854e+000  5.500000e+000
      vertex  1.593853e+001  7.391036e+000  5.500000e+000
      vertex  1.334315e+001  5.656854e+000  5.500000e+000
    endloop
  endfacet
  facet normal  -0.000000e+000  0.000000e+000  9.999999e-001
    outer loop
      vertex  2.465685e+001  5.656854e+000  5.500000e+000
      vertex  1.334315e+001  5.656854e+000  5.500000e+000
      vertex  2.639104e+001  3.061467e+000  5.500000e+000
    endloop
  endfacet
  facet normal  0.000000e+000  0.000000e+000  9.999999e-001
    outer loop
      vertex  2.639104e+001  3.061467e+000  5.500000e+000
      vertex  1.334315e+001  5.656854e+000  5.500000e+000
      vertex  1.160896e+001  3.061467e+000  5.500000e+000
    endloop
  endfacet
  facet normal  -0.000000e+000  0.000000e+000  9.999999e-001
    outer loop
      vertex  2.639104e+001  3.061467e+000  5.500000e+000
      vertex  1.160896e+001  3.061467e+000  5.500000e+000
      vertex  2.700000e+001  0.000000e+000  5.500000e+000
    endloop
  endfacet
  facet normal  0.000000e+000  0.000000e+000  1.000000e+000
    outer loop
      vertex  2.700000e+001  0.000000e+000  5.500000e+000
      vertex  1.160896e+001  3.061467e+000  5.500000e+000
      vertex  1.100000e+001  9.797175e-016  5.500000e+000
    endloop
  endfacet
  facet normal  0.000000e+000  0.000000e+000  1.000000e+000
    outer loop
      vertex  2.700000e+001  0.000000e+000  5.500000e+000
      vertex  1.100000e+001  9.797175e-016  5.500000e+000
      vertex  2.639104e+001 -3.061467e+000  5.500000e+000
    endloop
  endfacet
  facet normal  0.000000e+000  0.000000e+000  9.999999e-001
    outer loop
      vertex  2.639104e+001 -3.061467e+000  5.500000e+000
      vertex  1.100000e+001  9.797175e-016  5.500000e+000
      vertex  1.160896e+001 -3.061467e+000  5.500000e+000
    endloop
  endfacet
  facet normal  -0.000000e+000  0.000000e+000  9.999999e-001
    outer loop
      vertex  2.639104e+001 -3.061467e+000  5.500000e+000
      vertex  1.160896e+001 -3.061467e+000  5.500000e+000
      vertex  2.465685e+001 -5.656854e+000  5.500000e+000
    endloop
  endfacet
  facet normal  0.000000e+000  0.000000e+000  9.999999e-001
    outer loop
      vertex  2.465685e+001 -5.656854e+000  5.500000e+000
      vertex  1.160896e+001 -3.061467e+000  5.500000e+000
      vertex  1.334315e+001 -5.656854e+000  5.500000e+000
    endloop
  endfacet
  facet normal  -0.000000e+000  0.000000e+000  1.000000e+000
    outer loop
      vertex  2.465685e+001 -5.656854e+000  5.500000e+000
      vertex  1.334315e+001 -5.656854e+000  5.500000e+000
      vertex  2.206147e+001 -7.391036e+000  5.500000e+000
    endloop
  endfacet
  facet normal  0.000000e+000  0.000000e+000  9.999999e-001
    outer loop
      vertex  2.206147e+001 -7.391036e+000  5.500000e+000
      vertex  1.334315e+001 -5.656854e+000  5.500000e+000
      vertex  1.593853e+001 -7.391036e+000  5.500000e+000
    endloop
  endfacet
  facet normal  -0.000000e+000  0.000000e+000  1.000000e+000
    outer loop
      vertex  2.206147e+001 -7.391036e+000  5.500000e+000
      vertex  1.593853e+001 -7.391036e+000  5.500000e+000
      vertex  1.900000e+001 -8.000000e+000  5.500000e+000
    endloop
  endfacet
  facet normal  0.000000e+000  0.000000e+000 -1.000000e+000
    outer loop
      vertex  3.000000e+001 -1.246419e-014  0.000000e+000
      vertex -1.746162e+001  3.399187e+000  0.000000e+000
      vertex  2.946162e+001  3.399187e+000  0.000000e+000
    endloop
  endfacet
  facet normal  0.000000e+000  0.000000e+000 -1.000000e+000
    outer loop
      vertex  2.946162e+001  3.399187e+000  0.000000e+000
      vertex -1.746162e+001  3.399187e+000  0.000000e+000
      vertex -1.589919e+001  6.465638e+000  0.000000e+000
    endloop
  endfacet
  facet normal  0.000000e+000  0.000000e+000 -1.000000e+000
    outer loop
      vertex  2.946162e+001  3.399187e+000  0.000000e+000
      vertex -1.589919e+001  6.465638e+000  0.000000e+000
      vertex  2.789919e+001  6.465638e+000  0.000000e+000
    endloop
  endfacet
  facet normal  0.000000e+000  0.000000e+000 -9.999999e-001
    outer loop
      vertex  2.789919e+001  6.465638e+000  0.000000e+000
      vertex -1.589919e+001  6.465638e+000  0.000000e+000
      vertex -1.346564e+001  8.899187e+000  0.000000e+000
    endloop
  endfacet
  facet normal  0.000000e+000  0.000000e+000 -9.999999e-001
    outer loop
      vertex  2.789919e+001  6.465638e+000  0.000000e+000
      vertex -1.346564e+001  8.899187e+000  0.000000e+000
      vertex  2.546564e+001  8.899187e+000  0.000000e+000
    endloop
  endfacet
  facet normal  0.000000e+000  0.000000e+000 -1.000000e+000
    outer loop
      vertex  2.546564e+001  8.899187e+000  0.000000e+000
      vertex -1.346564e+001  8.899187e+000  0.000000e+000
      vertex -1.039919e+001  1.046162e+001  0.000000e+000
    endloop
  endfacet
  facet normal  0.000000e+000  0.000000e+000 -1.000000e+000
    outer loop
      vertex  2.546564e+001  8.899187e+000  0.000000e+000
      vertex -1.039919e+001  1.046162e+001  0.000000e+000
      vertex  2.239919e+001  1.046162e+001  0.000000e+000
    endloop
  endfacet
  facet normal  0.000000e+000  0.000000e+000 -1.000000e+000
    outer loop
      vertex  2.239919e+001  1.046162e+001  0.000000e+000
      vertex -1.039919e+001  1.046162e+001  0.000000e+000
      vertex -7.000000e+000  1.100000e+001  0.000000e+000
    endloop
  endfacet
  facet normal  0.000000e+000  0.000000e+000 -9.999999e-001
    outer loop
      vertex  2.239919e+001  1.046162e+001  0.000000e+000
      vertex -7.000000e+000  1.100000e+001  0.000000e+000
      vertex  1.900000e+001  1.100000e+001  0.000000e+000
    endloop
  endfacet
  facet normal  0.000000e+000  0.000000e+000 -1.000000e+000
    outer loop
      vertex -1.746162e+001  3.399187e+000  0.000000e+000
      vertex  3.000000e+001 -1.246419e-014  0.000000e+000
      vertex -1.800000e+001  6.232093e-015  0.000000e+000
    endloop
  endfacet
  facet normal  0.000000e+000  0.000000e+000 -1.000000e+000
    outer loop
      vertex -1.800000e+001  6.232093e-015  0.000000e+000
      vertex  3.000000e+001 -1.246419e-014  0.000000e+000
      vertex  2.946162e+001 -3.399187e+000  0.000000e+000
    endloop
  endfacet
  facet normal  0.000000e+000  0.000000e+000 -1.000000e+000
    outer loop
      vertex -1.800000e+001  6.232093e-015  0.000000e+000
      vertex  2.946162e+001 -3.399187e+000  0.000000e+000
      vertex -1.746162e+001 -3.399187e+000  0.000000e+000
    endloop
  endfacet
  facet normal  0.000000e+000  0.000000e+000 -1.000000e+000
    outer loop
      vertex -1.746162e+001 -3.399187e+000  0.000000e+000
      vertex  2.946162e+001 -3.399187e+000  0.000000e+000
      vertex  2.789919e+001 -6.465638e+000  0.000000e+000
    endloop
  endfacet
  facet normal  0.000000e+000  0.000000e+000 -1.000000e+000
    outer loop
      vertex -1.746162e+001 -3.399187e+000  0.000000e+000
      vertex  2.789919e+001 -6.465638e+000  0.000000e+000
      vertex -1.589919e+001 -6.465638e+000  0.000000e+000
    endloop
  endfacet
  facet normal  0.000000e+000  0.000000e+000 -9.999999e-001
    outer loop
      vertex -1.589919e+001 -6.465638e+000  0.000000e+000
      vertex  2.789919e+001 -6.465638e+000  0.000000e+000
      vertex  2.546564e+001 -8.899187e+000  0.000000e+000
    endloop
  endfacet
  facet normal  0.000000e+000  0.000000e+000 -9.999999e-001
    outer loop
      vertex -1.589919e+001 -6.465638e+000  0.000000e+000
      vertex  2.546564e+001 -8.899187e+000  0.000000e+000
      vertex -1.346564e+001 -8.899187e+000  0.000000e+000
    endloop
  endfacet
  facet normal  0.000000e+000  0.000000e+000 -1.000000e+000
    outer loop
      vertex -1.346564e+001 -8.899187e+000  0.000000e+000
      vertex  2.546564e+001 -8.899187e+000  0.000000e+000
      vertex  2.239919e+001 -1.046162e+001  0.000000e+000
    endloop
  endfacet
  facet normal  0.000000e+000  0.000000e+000 -1.000000e+000
    outer loop
      vertex -1.346564e+001 -8.899187e+000  0.000000e+000
      vertex  2.239919e+001 -1.046162e+001  0.000000e+000
      vertex -1.039919e+001 -1.046162e+001  0.000000e+000
    endloop
  endfacet
  facet normal  0.000000e+000  0.000000e+000 -1.000000e+000
    outer loop
      vertex -1.039919e+001 -1.046162e+001  0.000000e+000
      vertex  2.239919e+001 -1.046162e+001  0.000000e+000
      vertex  1.900000e+001 -1.100000e+001  0.000000e+000
    endloop
  endfacet
  facet normal  0.000000e+000  0.000000e+000 -9.999999e-001
    outer loop
      vertex -1.039919e+001 -1.046162e+001  0.000000e+000
      vertex  1.900000e+001 -1.100000e+001  0.000000e+000
      vertex -7.000000e+000 -1.100000e+001  0.000000e+000
    endloop
  endfacet
  facet normal -9.876884e-001  1.564343e-001  0.000000e+000
    outer loop
      vertex -1.800000e+001  6.232093e-015  0.000000e+000
      vertex -1.800000e+001  6.232093e-015  7.460000e+001
      vertex -1.746162e+001  3.399187e+000  0.000000e+000
    endloop
  endfacet
  facet normal -9.876884e-001  1.564343e-001  0.000000e+000
    outer loop
      vertex -1.746162e+001  3.399187e+000  0.000000e+000
      vertex -1.800000e+001  6.232093e-015  7.460000e+001
      vertex -1.746162e+001  3.399187e+000  7.460000e+001
    endloop
  endfacet
  facet normal -8.910065e-001  4.539906e-001  0.000000e+000
    outer loop
      vertex -1.746162e+001  3.399187e+000  0.000000e+000
      vertex -1.746162e+001  3.399187e+000  7.460000e+001
      vertex -1.589919e+001  6.465638e+000  0.000000e+000
    endloop
  endfacet
  facet normal -8.910065e-001  4.539906e-001  0.000000e+000
    outer loop
      vertex -1.589919e+001  6.465638e+000  0.000000e+000
      vertex -1.746162e+001  3.399187e+000  7.460000e+001
      vertex -1.589919e+001  6.465638e+000  7.460000e+001
    endloop
  endfacet
  facet normal -7.071069e-001  7.071067e-001  0.000000e+000
    outer loop
      vertex -1.589919e+001  6.465638e+000  0.000000e+000
      vertex -1.589919e+001  6.465638e+000  7.460000e+001
      vertex -1.346564e+001  8.899187e+000  0.000000e+000
    endloop
  endfacet
  facet normal -7.071069e-001  7.071067e-001  0.000000e+000
    outer loop
      vertex -1.346564e+001  8.899187e+000  0.000000e+000
      vertex -1.589919e+001  6.465638e+000  7.460000e+001
      vertex -1.346564e+001  8.899187e+000  7.460000e+001
    endloop
  endfacet
  facet normal -4.539903e-001  8.910066e-001  0.000000e+000
    outer loop
      vertex -1.346564e+001  8.899187e+000  0.000000e+000
      vertex -1.346564e+001  8.899187e+000  7.460000e+001
      vertex -1.039919e+001  1.046162e+001  0.000000e+000
    endloop
  endfacet
  facet normal -4.539903e-001  8.910066e-001  0.000000e+000
    outer loop
      vertex -1.039919e+001  1.046162e+001  0.000000e+000
      vertex -1.346564e+001  8.899187e+000  7.460000e+001
      vertex -1.039919e+001  1.046162e+001  7.460000e+001
    endloop
  endfacet
  facet normal -1.564346e-001  9.876884e-001  0.000000e+000
    outer loop
      vertex -1.039919e+001  1.046162e+001  0.000000e+000
      vertex -1.039919e+001  1.046162e+001  7.460000e+001
      vertex -7.000000e+000  1.100000e+001  0.000000e+000
    endloop
  endfacet
  facet normal -1.564346e-001  9.876884e-001  0.000000e+000
    outer loop
      vertex -7.000000e+000  1.100000e+001  0.000000e+000
      vertex -1.039919e+001  1.046162e+001  7.460000e+001
      vertex -7.000000e+000  1.100000e+001  7.460000e+001
    endloop
  endfacet
  facet normal  0.000000e+000  1.000000e+000  0.000000e+000
    outer loop
      vertex -7.000000e+000  1.100000e+001  0.000000e+000
      vertex -7.000000e+000  1.100000e+001  7.460000e+001
      vertex  1.900000e+001  1.100000e+001  0.000000e+000
    endloop
  endfacet
  facet normal  0.000000e+000  1.000000e+000  -0.000000e+000
    outer loop
      vertex  1.900000e+001  1.100000e+001  0.000000e+000
      vertex -7.000000e+000  1.100000e+001  7.460000e+001
      vertex  1.900000e+001  1.100000e+001  7.460000e+001
    endloop
  endfacet
  facet normal -1.564346e-001 -9.876884e-001  -0.000000e+000
    outer loop
      vertex -7.000000e+000 -1.100000e+001  0.000000e+000
      vertex -7.000000e+000 -1.100000e+001  7.460000e+001
      vertex -1.039919e+001 -1.046162e+001  0.000000e+000
    endloop
  endfacet
  facet normal -1.564346e-001 -9.876884e-001  0.000000e+000
    outer loop
      vertex -1.039919e+001 -1.046162e+001  0.000000e+000
      vertex -7.000000e+000 -1.100000e+001  7.460000e+001
      vertex -1.039919e+001 -1.046162e+001  7.460000e+001
    endloop
  endfacet
  facet normal -4.539903e-001 -8.910066e-001  -0.000000e+000
    outer loop
      vertex -1.039919e+001 -1.046162e+001  0.000000e+000
      vertex -1.039919e+001 -1.046162e+001  7.460000e+001
      vertex -1.346564e+001 -8.899187e+000  0.000000e+000
    endloop
  endfacet
  facet normal -4.539903e-001 -8.910066e-001  0.000000e+000
    outer loop
      vertex -1.346564e+001 -8.899187e+000  0.000000e+000
      vertex -1.039919e+001 -1.046162e+001  7.460000e+001
      vertex -1.346564e+001 -8.899187e+000  7.460000e+001
    endloop
  endfacet
  facet normal -7.071069e-001 -7.071067e-001  -0.000000e+000
    outer loop
      vertex -1.346564e+001 -8.899187e+000  0.000000e+000
      vertex -1.346564e+001 -8.899187e+000  7.460000e+001
      vertex -1.589919e+001 -6.465638e+000  0.000000e+000
    endloop
  endfacet
  facet normal -7.071069e-001 -7.071067e-001  0.000000e+000
    outer loop
      vertex -1.589919e+001 -6.465638e+000  0.000000e+000
      vertex -1.346564e+001 -8.899187e+000  7.460000e+001
      vertex -1.589919e+001 -6.465638e+000  7.460000e+001
    endloop
  endfacet
  facet normal -8.910065e-001 -4.539906e-001  -0.000000e+000
    outer loop
      vertex -1.589919e+001 -6.465638e+000  0.000000e+000
      vertex -1.589919e+001 -6.465638e+000  7.460000e+001
      vertex -1.746162e+001 -3.399187e+000  0.000000e+000
    endloop
  endfacet
  facet normal -8.910065e-001 -4.539906e-001  0.000000e+000
    outer loop
      vertex -1.746162e+001 -3.399187e+000  0.000000e+000
      vertex -1.589919e+001 -6.465638e+000  7.460000e+001
      vertex -1.746162e+001 -3.399187e+000  7.460000e+001
    endloop
  endfacet
  facet normal -9.876884e-001 -1.564343e-001  -0.000000e+000
    outer loop
      vertex -1.746162e+001 -3.399187e+000  0.000000e+000
      vertex -1.746162e+001 -3.399187e+000  7.460000e+001
      vertex -1.800000e+001  6.232093e-015  0.000000e+000
    endloop
  endfacet
  facet normal -9.876884e-001 -1.564343e-001  0.000000e+000
    outer loop
      vertex -1.800000e+001  6.232093e-015  0.000000e+000
      vertex -1.746162e+001 -3.399187e+000  7.460000e+001
      vertex -1.800000e+001  6.232093e-015  7.460000e+001
    endloop
  endfacet
  facet normal  1.564346e-001  9.876884e-001  0.000000e+000
    outer loop
      vertex  1.900000e+001  1.100000e+001  0.000000e+000
      vertex  1.900000e+001  1.100000e+001  7.460000e+001
      vertex  2.239919e+001  1.046162e+001  0.000000e+000
    endloop
  endfacet
  facet normal  1.564346e-001  9.876884e-001  -0.000000e+000
    outer loop
      vertex  2.239919e+001  1.046162e+001  0.000000e+000
      vertex  1.900000e+001  1.100000e+001  7.460000e+001
      vertex  2.239919e+001  1.046162e+001  7.460000e+001
    endloop
  endfacet
  facet normal  4.539905e-001  8.910065e-001  0.000000e+000
    outer loop
      vertex  2.239919e+001  1.046162e+001  0.000000e+000
      vertex  2.239919e+001  1.046162e+001  7.460000e+001
      vertex  2.546564e+001  8.899187e+000  0.000000e+000
    endloop
  endfacet
  facet normal  4.539905e-001  8.910065e-001  -0.000000e+000
    outer loop
      vertex  2.546564e+001  8.899187e+000  0.000000e+000
      vertex  2.239919e+001  1.046162e+001  7.460000e+001
      vertex  2.546564e+001  8.899187e+000  7.460000e+001
    endloop
  endfacet
  facet normal  7.071067e-001  7.071068e-001  0.000000e+000
    outer loop
      vertex  2.546564e+001  8.899187e+000  0.000000e+000
      vertex  2.546564e+001  8.899187e+000  7.460000e+001
      vertex  2.789919e+001  6.465638e+000  0.000000e+000
    endloop
  endfacet
  facet normal  7.071067e-001  7.071068e-001  -0.000000e+000
    outer loop
      vertex  2.789919e+001  6.465638e+000  0.000000e+000
      vertex  2.546564e+001  8.899187e+000  7.460000e+001
      vertex  2.789919e+001  6.465638e+000  7.460000e+001
    endloop
  endfacet
  facet normal  8.910065e-001  4.539906e-001  0.000000e+000
    outer loop
      vertex  2.789919e+001  6.465638e+000  0.000000e+000
      vertex  2.789919e+001  6.465638e+000  7.460000e+001
      vertex  2.946162e+001  3.399187e+000  0.000000e+000
    endloop
  endfacet
  facet normal  8.910065e-001  4.539906e-001  -0.000000e+000
    outer loop
      vertex  2.946162e+001  3.399187e+000  0.000000e+000
      vertex  2.789919e+001  6.465638e+000  7.460000e+001
      vertex  2.946162e+001  3.399187e+000  7.460000e+001
    endloop
  endfacet
  facet normal  9.876884e-001  1.564343e-001  0.000000e+000
    outer loop
      vertex  2.946162e+001  3.399187e+000  0.000000e+000
      vertex  2.946162e+001  3.399187e+000  7.460000e+001
      vertex  3.000000e+001 -1.246419e-014  0.000000e+000
    endloop
  endfacet
  facet normal  9.876884e-001  1.564343e-001 -2.048737e-017
    outer loop
      vertex  3.000000e+001 -1.246419e-014  0.000000e+000
      vertex  2.946162e+001  3.399187e+000  7.460000e+001
      vertex  3.000000e+001 -2.694223e-015  7.460000e+001
    endloop
  endfacet
  facet normal  0.000000e+000 -1.000000e+000  -0.000000e+000
    outer loop
      vertex  1.900000e+001 -1.100000e+001  0.000000e+000
      vertex  1.900000e+001 -1.100000e+001  7.460000e+001
      vertex -7.000000e+000 -1.100000e+001  0.000000e+000
    endloop
  endfacet
  facet normal  0.000000e+000 -1.000000e+000  0.000000e+000
    outer loop
      vertex -7.000000e+000 -1.100000e+001  0.000000e+000
      vertex  1.900000e+001 -1.100000e+001  7.460000e+001
      vertex -7.000000e+000 -1.100000e+001  7.460000e+001
    endloop
  endfacet
  facet normal  9.876884e-001 -1.564343e-001  2.048737e-017
    outer loop
      vertex  3.000000e+001 -1.246419e-014  0.000000e+000
      vertex  3.000000e+001 -2.694223e-015  7.460000e+001
      vertex  2.946162e+001 -3.399187e+000  0.000000e+000
    endloop
  endfacet
  facet normal  9.876884e-001 -1.564343e-001  0.000000e+000
    outer loop
      vertex  2.946162e+001 -3.399187e+000  0.000000e+000
      vertex  3.000000e+001 -2.694223e-015  7.460000e+001
      vertex  2.946162e+001 -3.399187e+000  7.460000e+001
    endloop
  endfacet
  facet normal  8.910065e-001 -4.539906e-001  0.000000e+000
    outer loop
      vertex  2.946162e+001 -3.399187e+000  0.000000e+000
      vertex  2.946162e+001 -3.399187e+000  7.460000e+001
      vertex  2.789919e+001 -6.465638e+000  0.000000e+000
    endloop
  endfacet
  facet normal  8.910065e-001 -4.539906e-001  0.000000e+000
    outer loop
      vertex  2.789919e+001 -6.465638e+000  0.000000e+000
      vertex  2.946162e+001 -3.399187e+000  7.460000e+001
      vertex  2.789919e+001 -6.465638e+000  7.460000e+001
    endloop
  endfacet
  facet normal  7.071067e-001 -7.071068e-001  0.000000e+000
    outer loop
      vertex  2.789919e+001 -6.465638e+000  0.000000e+000
      vertex  2.789919e+001 -6.465638e+000  7.460000e+001
      vertex  2.546564e+001 -8.899187e+000  0.000000e+000
    endloop
  endfacet
  facet normal  7.071067e-001 -7.071068e-001  0.000000e+000
    outer loop
      vertex  2.546564e+001 -8.899187e+000  0.000000e+000
      vertex  2.789919e+001 -6.465638e+000  7.460000e+001
      vertex  2.546564e+001 -8.899187e+000  7.460000e+001
    endloop
  endfacet
  facet normal  4.539905e-001 -8.910065e-001  0.000000e+000
    outer loop
      vertex  2.546564e+001 -8.899187e+000  0.000000e+000
      vertex  2.546564e+001 -8.899187e+000  7.460000e+001
      vertex  2.239919e+001 -1.046162e+001  0.000000e+000
    endloop
  endfacet
  facet normal  4.539905e-001 -8.910065e-001  0.000000e+000
    outer loop
      vertex  2.239919e+001 -1.046162e+001  0.000000e+000
      vertex  2.546564e+001 -8.899187e+000  7.460000e+001
      vertex  2.239919e+001 -1.046162e+001  7.460000e+001
    endloop
  endfacet
  facet normal  1.564346e-001 -9.876884e-001  0.000000e+000
    outer loop
      vertex  2.239919e+001 -1.046162e+001  0.000000e+000
      vertex  2.239919e+001 -1.046162e+001  7.460000e+001
      vertex  1.900000e+001 -1.100000e+001  0.000000e+000
    endloop
  endfacet
  facet normal  1.564346e-001 -9.876884e-001  0.000000e+000
    outer loop
      vertex  1.900000e+001 -1.100000e+001  0.000000e+000
      vertex  2.239919e+001 -1.046162e+001  7.460000e+001
      vertex  1.900000e+001 -1.100000e+001  7.460000e+001
    endloop
  endfacet
  facet normal  0.000000e+000  0.000000e+000  1.000000e+000
    outer loop
      vertex -1.441421e+001  1.414214e+000  3.100000e+000
      vertex -1.158579e+001  1.414214e+000  3.100000e+000
      vertex -1.300000e+001  2.000000e+000  3.100000e+000
    endloop
  endfacet
  facet normal  -0.000000e+000  0.000000e+000  1.000000e+000
    outer loop
      vertex -1.158579e+001  1.414214e+000  3.100000e+000
      vertex -1.441421e+001  1.414214e+000  3.100000e+000
      vertex -1.100000e+001 -4.898587e-016  3.100000e+000
    endloop
  endfacet
  facet normal  0.000000e+000  0.000000e+000  9.999999e-001
    outer loop
      vertex -1.100000e+001 -4.898587e-016  3.100000e+000
      vertex -1.441421e+001  1.414214e+000  3.100000e+000
      vertex -1.500000e+001  2.449294e-016  3.100000e+000
    endloop
  endfacet
  facet normal  0.000000e+000  0.000000e+000  9.999999e-001
    outer loop
      vertex -1.100000e+001 -4.898587e-016  3.100000e+000
      vertex -1.500000e+001  2.449294e-016  3.100000e+000
      vertex -1.158579e+001 -1.414214e+000  3.100000e+000
    endloop
  endfacet
  facet normal  0.000000e+000  0.000000e+000  1.000000e+000
    outer loop
      vertex -1.158579e+001 -1.414214e+000  3.100000e+000
      vertex -1.500000e+001  2.449294e-016  3.100000e+000
      vertex -1.441421e+001 -1.414214e+000  3.100000e+000
    endloop
  endfacet
  facet normal  -0.000000e+000  0.000000e+000  1.000000e+000
    outer loop
      vertex -1.158579e+001 -1.414214e+000  3.100000e+000
      vertex -1.441421e+001 -1.414214e+000  3.100000e+000
      vertex -1.300000e+001 -2.000000e+000  3.100000e+000
    endloop
  endfacet
  facet normal  0.000000e+000  0.000000e+000  1.000000e+000
    outer loop
      vertex -3.061467e+000  7.391036e+000  3.100000e+000
      vertex  3.061467e+000  7.391036e+000  3.100000e+000
      vertex  4.898587e-016  8.000000e+000  3.100000e+000
    endloop
  endfacet
  facet normal  -0.000000e+000  0.000000e+000  1.000000e+000
    outer loop
      vertex  3.061467e+000  7.391036e+000  3.100000e+000
      vertex -3.061467e+000  7.391036e+000  3.100000e+000
      vertex  5.656854e+000  5.656854e+000  3.100000e+000
    endloop
  endfacet
  facet normal  0.000000e+000  0.000000e+000  1.000000e+000
    outer loop
      vertex  5.656854e+000  5.656854e+000  3.100000e+000
      vertex -3.061467e+000  7.391036e+000  3.100000e+000
      vertex -5.656854e+000  5.656854e+000  3.100000e+000
    endloop
  endfacet
  facet normal  -0.000000e+000  0.000000e+000  1.000000e+000
    outer loop
      vertex  5.656854e+000  5.656854e+000  3.100000e+000
      vertex -5.656854e+000  5.656854e+000  3.100000e+000
      vertex  7.391036e+000  3.061467e+000  3.100000e+000
    endloop
  endfacet
  facet normal  0.000000e+000  0.000000e+000  1.000000e+000
    outer loop
      vertex  7.391036e+000  3.061467e+000  3.100000e+000
      vertex -5.656854e+000  5.656854e+000  3.100000e+000
      vertex -7.391036e+000  3.061467e+000  3.100000e+000
    endloop
  endfacet
  facet normal  -0.000000e+000  0.000000e+000  9.999999e-001
    outer loop
      vertex  7.391036e+000  3.061467e+000  3.100000e+000
      vertex -7.391036e+000  3.061467e+000  3.100000e+000
      vertex  8.000000e+000 -1.959435e-015  3.100000e+000
    endloop
  endfacet
  facet normal  0.000000e+000  0.000000e+000  1.000000e+000
    outer loop
      vertex  8.000000e+000 -1.959435e-015  3.100000e+000
      vertex -7.391036e+000  3.061467e+000  3.100000e+000
      vertex -8.000000e+000  9.797175e-016  3.100000e+000
    endloop
  endfacet
  facet normal  0.000000e+000  0.000000e+000  1.000000e+000
    outer loop
      vertex  8.000000e+000 -1.959435e-015  3.100000e+000
      vertex -8.000000e+000  9.797175e-016  3.100000e+000
      vertex  7.391036e+000 -3.061467e+000  3.100000e+000
    endloop
  endfacet
  facet normal  0.000000e+000  0.000000e+000  9.999999e-001
    outer loop
      vertex  7.391036e+000 -3.061467e+000  3.100000e+000
      vertex -8.000000e+000  9.797175e-016  3.100000e+000
      vertex -7.391036e+000 -3.061467e+000  3.100000e+000
    endloop
  endfacet
  facet normal  -0.000000e+000  0.000000e+000  1.000000e+000
    outer loop
      vertex  7.391036e+000 -3.061467e+000  3.100000e+000
      vertex -7.391036e+000 -3.061467e+000  3.100000e+000
      vertex  5.656854e+000 -5.656854e+000  3.100000e+000
    endloop
  endfacet
  facet normal  0.000000e+000  0.000000e+000  1.000000e+000
    outer loop
      vertex  5.656854e+000 -5.656854e+000  3.100000e+000
      vertex -7.391036e+000 -3.061467e+000  3.100000e+000
      vertex -5.656854e+000 -5.656854e+000  3.100000e+000
    endloop
  endfacet
  facet normal  -0.000000e+000  0.000000e+000  1.000000e+000
    outer loop
      vertex  5.656854e+000 -5.656854e+000  3.100000e+000
      vertex -5.656854e+000 -5.656854e+000  3.100000e+000
      vertex  3.061467e+000 -7.391036e+000  3.100000e+000
    endloop
  endfacet
  facet normal  0.000000e+000  0.000000e+000  1.000000e+000
    outer loop
      vertex  3.061467e+000 -7.391036e+000  3.100000e+000
      vertex -5.656854e+000 -5.656854e+000  3.100000e+000
      vertex -3.061467e+000 -7.391036e+000  3.100000e+000
    endloop
  endfacet
  facet normal  -0.000000e+000  0.000000e+000  1.000000e+000
    outer loop
      vertex  3.061467e+000 -7.391036e+000  3.100000e+000
      vertex -3.061467e+000 -7.391036e+000  3.100000e+000
      vertex -1.469576e-015 -8.000000e+000  3.100000e+000
    endloop
  endfacet
  facet normal  3.826835e-001 -9.238795e-001  0.000000e+000
    outer loop
      vertex -1.300000e+001  2.000000e+000  3.100000e+000
      vertex -1.441421e+001  1.414214e+000  7.460000e+001
      vertex -1.441421e+001  1.414214e+000  3.100000e+000
    endloop
  endfacet
  facet normal  9.238794e-001 -3.826837e-001  0.000000e+000
    outer loop
      vertex -1.441421e+001  1.414214e+000  3.100000e+000
      vertex -1.441421e+001  1.414214e+000  7.460000e+001
      vertex -1.500000e+001  2.449294e-016  7.460000e+001
    endloop
  endfacet
  facet normal  9.238794e-001 -3.826837e-001  0.000000e+000
    outer loop
      vertex -1.441421e+001  1.414214e+000  3.100000e+000
      vertex -1.500000e+001  2.449294e-016  7.460000e+001
      vertex -1.500000e+001  2.449294e-016  3.100000e+000
    endloop
  endfacet
  facet normal  3.826835e-001 -9.238795e-001  0.000000e+000
    outer loop
      vertex -1.441421e+001  1.414214e+000  7.460000e+001
      vertex -1.300000e+001  2.000000e+000  3.100000e+000
      vertex -1.300000e+001  2.000000e+000  7.460000e+001
    endloop
  endfacet
  facet normal -3.826835e-001 -9.238795e-001  -0.000000e+000
    outer loop
      vertex -1.300000e+001  2.000000e+000  7.460000e+001
      vertex -1.300000e+001  2.000000e+000  3.100000e+000
      vertex -1.158579e+001  1.414214e+000  3.100000e+000
    endloop
  endfacet
  facet normal -3.826835e-001 -9.238795e-001  0.000000e+000
    outer loop
      vertex -1.300000e+001  2.000000e+000  7.460000e+001
      vertex -1.158579e+001  1.414214e+000  3.100000e+000
      vertex -1.158579e+001  1.414214e+000  7.460000e+001
    endloop
  endfacet
  facet normal -9.238794e-001 -3.826837e-001  -0.000000e+000
    outer loop
      vertex -1.158579e+001  1.414214e+000  7.460000e+001
      vertex -1.158579e+001  1.414214e+000  3.100000e+000
      vertex -1.100000e+001 -4.898587e-016  3.100000e+000
    endloop
  endfacet
  facet normal -9.238794e-001 -3.826837e-001  2.621831e-018
    outer loop
      vertex -1.158579e+001  1.414214e+000  7.460000e+001
      vertex -1.100000e+001 -4.898587e-016  3.100000e+000
      vertex -1.100000e+001  0.000000e+000  7.460000e+001
    endloop
  endfacet
  facet normal -3.826835e-001  9.238795e-001  0.000000e+000
    outer loop
      vertex -1.300000e+001 -2.000000e+000  3.100000e+000
      vertex -1.158579e+001 -1.414214e+000  7.460000e+001
      vertex -1.158579e+001 -1.414214e+000  3.100000e+000
    endloop
  endfacet
  facet normal -9.238794e-001  3.826837e-001  0.000000e+000
    outer loop
      vertex -1.158579e+001 -1.414214e+000  3.100000e+000
      vertex -1.158579e+001 -1.414214e+000  7.460000e+001
      vertex -1.100000e+001  0.000000e+000  7.460000e+001
    endloop
  endfacet
  facet normal -9.238794e-001  3.826837e-001 -2.621831e-018
    outer loop
      vertex -1.158579e+001 -1.414214e+000  3.100000e+000
      vertex -1.100000e+001  0.000000e+000  7.460000e+001
      vertex -1.100000e+001 -4.898587e-016  3.100000e+000
    endloop
  endfacet
  facet normal -3.826835e-001  9.238795e-001  0.000000e+000
    outer loop
      vertex -1.158579e+001 -1.414214e+000  7.460000e+001
      vertex -1.300000e+001 -2.000000e+000  3.100000e+000
      vertex -1.300000e+001 -2.000000e+000  7.460000e+001
    endloop
  endfacet
  facet normal  3.826835e-001  9.238795e-001  0.000000e+000
    outer loop
      vertex -1.300000e+001 -2.000000e+000  7.460000e+001
      vertex -1.300000e+001 -2.000000e+000  3.100000e+000
      vertex -1.441421e+001 -1.414214e+000  3.100000e+000
    endloop
  endfacet
  facet normal  3.826835e-001  9.238795e-001  -0.000000e+000
    outer loop
      vertex -1.300000e+001 -2.000000e+000  7.460000e+001
      vertex -1.441421e+001 -1.414214e+000  3.100000e+000
      vertex -1.441421e+001 -1.414214e+000  7.460000e+001
    endloop
  endfacet
  facet normal  9.238794e-001  3.826837e-001  0.000000e+000
    outer loop
      vertex -1.441421e+001 -1.414214e+000  7.460000e+001
      vertex -1.441421e+001 -1.414214e+000  3.100000e+000
      vertex -1.500000e+001  2.449294e-016  3.100000e+000
    endloop
  endfacet
  facet normal  9.238794e-001  3.826837e-001  -0.000000e+000
    outer loop
      vertex -1.441421e+001 -1.414214e+000  7.460000e+001
      vertex -1.500000e+001  2.449294e-016  3.100000e+000
      vertex -1.500000e+001  2.449294e-016  7.460000e+001
    endloop
  endfacet
  facet normal  1.950904e-001 -9.807853e-001  0.000000e+000
    outer loop
      vertex  4.898587e-016  8.000000e+000  3.100000e+000
      vertex -3.061467e+000  7.391036e+000  7.460000e+001
      vertex -3.061467e+000  7.391036e+000  3.100000e+000
    endloop
  endfacet
  facet normal  5.555702e-001 -8.314697e-001  0.000000e+000
    outer loop
      vertex -3.061467e+000  7.391036e+000  3.100000e+000
      vertex -3.061467e+000  7.391036e+000  7.460000e+001
      vertex -5.656854e+000  5.656854e+000  7.460000e+001
    endloop
  endfacet
  facet normal  5.555702e-001 -8.314697e-001  0.000000e+000
    outer loop
      vertex -3.061467e+000  7.391036e+000  3.100000e+000
      vertex -5.656854e+000  5.656854e+000  7.460000e+001
      vertex -5.656854e+000  5.656854e+000  3.100000e+000
    endloop
  endfacet
  facet normal  8.314697e-001 -5.555702e-001  0.000000e+000
    outer loop
      vertex -5.656854e+000  5.656854e+000  3.100000e+000
      vertex -5.656854e+000  5.656854e+000  7.460000e+001
      vertex -7.391036e+000  3.061467e+000  7.460000e+001
    endloop
  endfacet
  facet normal  8.314697e-001 -5.555702e-001  0.000000e+000
    outer loop
      vertex -5.656854e+000  5.656854e+000  3.100000e+000
      vertex -7.391036e+000  3.061467e+000  7.460000e+001
      vertex -7.391036e+000  3.061467e+000  3.100000e+000
    endloop
  endfacet
  facet normal  9.807853e-001 -1.950904e-001  0.000000e+000
    outer loop
      vertex -7.391036e+000  3.061467e+000  3.100000e+000
      vertex -7.391036e+000  3.061467e+000  7.460000e+001
      vertex -8.000000e+000  9.797175e-016  7.460000e+001
    endloop
  endfacet
  facet normal  9.807853e-001 -1.950904e-001  0.000000e+000
    outer loop
      vertex -7.391036e+000  3.061467e+000  3.100000e+000
      vertex -8.000000e+000  9.797175e-016  7.460000e+001
      vertex -8.000000e+000  9.797175e-016  3.100000e+000
    endloop
  endfacet
  facet normal  1.950904e-001 -9.807853e-001  0.000000e+000
    outer loop
      vertex -3.061467e+000  7.391036e+000  7.460000e+001
      vertex  4.898587e-016  8.000000e+000  3.100000e+000
      vertex  4.898587e-016  8.000000e+000  7.460000e+001
    endloop
  endfacet
  facet normal -1.950904e-001 -9.807853e-001  -0.000000e+000
    outer loop
      vertex  4.898587e-016  8.000000e+000  7.460000e+001
      vertex  4.898587e-016  8.000000e+000  3.100000e+000
      vertex  3.061467e+000  7.391036e+000  3.100000e+000
    endloop
  endfacet
  facet normal -1.950904e-001 -9.807853e-001  0.000000e+000
    outer loop
      vertex  4.898587e-016  8.000000e+000  7.460000e+001
      vertex  3.061467e+000  7.391036e+000  3.100000e+000
      vertex  3.061467e+000  7.391036e+000  7.460000e+001
    endloop
  endfacet
  facet normal -5.555702e-001 -8.314697e-001  -0.000000e+000
    outer loop
      vertex  3.061467e+000  7.391036e+000  7.460000e+001
      vertex  3.061467e+000  7.391036e+000  3.100000e+000
      vertex  5.656854e+000  5.656854e+000  3.100000e+000
    endloop
  endfacet
  facet normal -5.555702e-001 -8.314697e-001  0.000000e+000
    outer loop
      vertex  3.061467e+000  7.391036e+000  7.460000e+001
      vertex  5.656854e+000  5.656854e+000  3.100000e+000
      vertex  5.656854e+000  5.656854e+000  7.460000e+001
    endloop
  endfacet
  facet normal -8.314697e-001 -5.555702e-001  -0.000000e+000
    outer loop
      vertex  5.656854e+000  5.656854e+000  7.460000e+001
      vertex  5.656854e+000  5.656854e+000  3.100000e+000
      vertex  7.391036e+000  3.061467e+000  3.100000e+000
    endloop
  endfacet
  facet normal -8.314697e-001 -5.555702e-001  0.000000e+000
    outer loop
      vertex  5.656854e+000  5.656854e+000  7.460000e+001
      vertex  7.391036e+000  3.061467e+000  3.100000e+000
      vertex  7.391036e+000  3.061467e+000  7.460000e+001
    endloop
  endfacet
  facet normal -9.807853e-001 -1.950904e-001  -0.000000e+000
    outer loop
      vertex  7.391036e+000  3.061467e+000  7.460000e+001
      vertex  7.391036e+000  3.061467e+000  3.100000e+000
      vertex  8.000000e+000 -1.959435e-015  3.100000e+000
    endloop
  endfacet
  facet normal -9.807853e-001 -1.950904e-001  5.346391e-018
    outer loop
      vertex  7.391036e+000  3.061467e+000  7.460000e+001
      vertex  8.000000e+000 -1.959435e-015  3.100000e+000
      vertex  8.000000e+000  0.000000e+000  7.460000e+001
    endloop
  endfacet
  facet normal -1.950904e-001  9.807853e-001  0.000000e+000
    outer loop
      vertex -1.469576e-015 -8.000000e+000  3.100000e+000
      vertex  3.061467e+000 -7.391036e+000  7.460000e+001
      vertex  3.061467e+000 -7.391036e+000  3.100000e+000
    endloop
  endfacet
  facet normal -5.555702e-001  8.314697e-001  0.000000e+000
    outer loop
      vertex  3.061467e+000 -7.391036e+000  3.100000e+000
      vertex  3.061467e+000 -7.391036e+000  7.460000e+001
      vertex  5.656854e+000 -5.656854e+000  7.460000e+001
    endloop
  endfacet
  facet normal -5.555702e-001  8.314697e-001  0.000000e+000
    outer loop
      vertex  3.061467e+000 -7.391036e+000  3.100000e+000
      vertex  5.656854e+000 -5.656854e+000  7.460000e+001
      vertex  5.656854e+000 -5.656854e+000  3.100000e+000
    endloop
  endfacet
  facet normal -8.314697e-001  5.555702e-001  0.000000e+000
    outer loop
      vertex  5.656854e+000 -5.656854e+000  3.100000e+000
      vertex  5.656854e+000 -5.656854e+000  7.460000e+001
      vertex  7.391036e+000 -3.061467e+000  7.460000e+001
    endloop
  endfacet
  facet normal -8.314697e-001  5.555702e-001  0.000000e+000
    outer loop
      vertex  5.656854e+000 -5.656854e+000  3.100000e+000
      vertex  7.391036e+000 -3.061467e+000  7.460000e+001
      vertex  7.391036e+000 -3.061467e+000  3.100000e+000
    endloop
  endfacet
  facet normal -9.807853e-001  1.950904e-001  0.000000e+000
    outer loop
      vertex  7.391036e+000 -3.061467e+000  3.100000e+000
      vertex  7.391036e+000 -3.061467e+000  7.460000e+001
      vertex  8.000000e+000  0.000000e+000  7.460000e+001
    endloop
  endfacet
  facet normal -9.807853e-001  1.950904e-001 -5.346391e-018
    outer loop
      vertex  7.391036e+000 -3.061467e+000  3.100000e+000
      vertex  8.000000e+000  0.000000e+000  7.460000e+001
      vertex  8.000000e+000 -1.959435e-015  3.100000e+000
    endloop
  endfacet
  facet normal -1.950904e-001  9.807853e-001  0.000000e+000
    outer loop
      vertex  3.061467e+000 -7.391036e+000  7.460000e+001
      vertex -1.469576e-015 -8.000000e+000  3.100000e+000
      vertex -1.469576e-015 -8.000000e+000  7.460000e+001
    endloop
  endfacet
  facet normal  1.950904e-001  9.807853e-001  0.000000e+000
    outer loop
      vertex -1.469576e-015 -8.000000e+000  7.460000e+001
      vertex -1.469576e-015 -8.000000e+000  3.100000e+000
      vertex -3.061467e+000 -7.391036e+000  3.100000e+000
    endloop
  endfacet
  facet normal  1.950904e-001  9.807853e-001  -0.000000e+000
    outer loop
      vertex -1.469576e-015 -8.000000e+000  7.460000e+001
      vertex -3.061467e+000 -7.391036e+000  3.100000e+000
      vertex -3.061467e+000 -7.391036e+000  7.460000e+001
    endloop
  endfacet
  facet normal  5.555702e-001  8.314697e-001  0.000000e+000
    outer loop
      vertex -3.061467e+000 -7.391036e+000  7.460000e+001
      vertex -3.061467e+000 -7.391036e+000  3.100000e+000
      vertex -5.656854e+000 -5.656854e+000  3.100000e+000
    endloop
  endfacet
  facet normal  5.555702e-001  8.314697e-001  -0.000000e+000
    outer loop
      vertex -3.061467e+000 -7.391036e+000  7.460000e+001
      vertex -5.656854e+000 -5.656854e+000  3.100000e+000
      vertex -5.656854e+000 -5.656854e+000  7.460000e+001
    endloop
  endfacet
  facet normal  8.314697e-001  5.555702e-001  0.000000e+000
    outer loop
      vertex -5.656854e+000 -5.656854e+000  7.460000e+001
      vertex -5.656854e+000 -5.656854e+000  3.100000e+000
      vertex -7.391036e+000 -3.061467e+000  3.100000e+000
    endloop
  endfacet
  facet normal  8.314697e-001  5.555702e-001  -0.000000e+000
    outer loop
      vertex -5.656854e+000 -5.656854e+000  7.460000e+001
      vertex -7.391036e+000 -3.061467e+000  3.100000e+000
      vertex -7.391036e+000 -3.061467e+000  7.460000e+001
    endloop
  endfacet
  facet normal  9.807853e-001  1.950904e-001  0.000000e+000
    outer loop
      vertex -7.391036e+000 -3.061467e+000  7.460000e+001
      vertex -7.391036e+000 -3.061467e+000  3.100000e+000
      vertex -8.000000e+000  9.797175e-016  3.100000e+000
    endloop
  endfacet
  facet normal  9.807853e-001  1.950904e-001  -0.000000e+000
    outer loop
      vertex -7.391036e+000 -3.061467e+000  7.460000e+001
      vertex -8.000000e+000  9.797175e-016  3.100000e+000
      vertex -8.000000e+000  9.797175e-016  7.460000e+001
    endloop
  endfacet
endsolid CATIA STL
