solid CATIA STL
  facet normal  0.000000e+000  0.000000e+000  1.000000e+000
    outer loop
      vertex -1.075000e+001  3.897114e+000  8.070000e+001
      vertex -9.102885e+000  2.250000e+000  8.070000e+001
      vertex -1.189304e+001  9.851810e+000  8.070000e+001
    endloop
  endfacet
  facet normal  -0.000000e+000  0.000000e+000  1.000000e+000
    outer loop
      vertex -8.000000e+000  1.095445e+001  8.070000e+001
      vertex -1.189304e+001  9.851810e+000  8.070000e+001
      vertex -9.102885e+000  2.250000e+000  8.070000e+001
    endloop
  endfacet
  facet normal  -0.000000e+000  0.000000e+000  1.000000e+000
    outer loop
      vertex -8.000000e+000  1.095445e+001  8.070000e+001
      vertex -9.102885e+000  2.250000e+000  8.070000e+001
      vertex -8.500000e+000 -6.358882e-015  8.070000e+001
    endloop
  endfacet
  facet normal  -0.000000e+000  0.000000e+000  1.000000e+000
    outer loop
      vertex -8.000000e+000  1.095445e+001  8.070000e+001
      vertex -8.500000e+000 -6.358882e-015  8.070000e+001
      vertex -8.000000e+000 -1.095445e+001  8.070000e+001
    endloop
  endfacet
  facet normal  0.000000e+000  0.000000e+000  9.999999e-001
    outer loop
      vertex -8.000000e+000 -1.095445e+001  8.070000e+001
      vertex -8.500000e+000 -6.358882e-015  8.070000e+001
      vertex -9.102885e+000 -2.250000e+000  8.070000e+001
    endloop
  endfacet
  facet normal  0.000000e+000  0.000000e+000  1.000000e+000
    outer loop
      vertex -8.000000e+000 -1.095445e+001  8.070000e+001
      vertex -9.102885e+000 -2.250000e+000  8.070000e+001
      vertex -1.075000e+001 -3.897114e+000  8.070000e+001
    endloop
  endfacet
  facet normal  0.000000e+000  0.000000e+000  1.000000e+000
    outer loop
      vertex -8.000000e+000 -1.095445e+001  8.070000e+001
      vertex -1.075000e+001 -3.897114e+000  8.070000e+001
      vertex -1.300000e+001 -4.500000e+000  8.070000e+001
    endloop
  endfacet
  facet normal  0.000000e+000  0.000000e+000  1.000000e+000
    outer loop
      vertex -8.000000e+000 -1.095445e+001  8.070000e+001
      vertex -1.300000e+001 -4.500000e+000  8.070000e+001
      vertex -1.512404e+001 -7.416198e+000  8.070000e+001
    endloop
  endfacet
  facet normal  0.000000e+000  0.000000e+000  1.000000e+000
    outer loop
      vertex -8.000000e+000 -1.095445e+001  8.070000e+001
      vertex -1.512404e+001 -7.416198e+000  8.070000e+001
      vertex -1.189304e+001 -9.851810e+000  8.070000e+001
    endloop
  endfacet
  facet normal  0.000000e+000  0.000000e+000  1.000000e+000
    outer loop
      vertex -1.075000e+001  3.897114e+000  8.070000e+001
      vertex -1.189304e+001  9.851810e+000  8.070000e+001
      vertex -1.300000e+001  4.500000e+000  8.070000e+001
    endloop
  endfacet
  facet normal  0.000000e+000  -0.000000e+000  9.999999e-001
    outer loop
      vertex -1.300000e+001  4.500000e+000  8.070000e+001
      vertex -1.189304e+001  9.851810e+000  8.070000e+001
      vertex -1.512404e+001  7.416198e+000  8.070000e+001
    endloop
  endfacet
  facet normal  0.000000e+000  0.000000e+000  1.000000e+000
    outer loop
      vertex -1.300000e+001  4.500000e+000  8.070000e+001
      vertex -1.512404e+001  7.416198e+000  8.070000e+001
      vertex -1.525000e+001  3.897114e+000  8.070000e+001
    endloop
  endfacet
  facet normal  0.000000e+000  -0.000000e+000  1.000000e+000
    outer loop
      vertex -1.525000e+001  3.897114e+000  8.070000e+001
      vertex -1.512404e+001  7.416198e+000  8.070000e+001
      vertex -1.725584e+001  3.977158e+000  8.070000e+001
    endloop
  endfacet
  facet normal  0.000000e+000  0.000000e+000  1.000000e+000
    outer loop
      vertex -1.525000e+001  3.897114e+000  8.070000e+001
      vertex -1.725584e+001  3.977158e+000  8.070000e+001
      vertex -1.689711e+001  2.250000e+000  8.070000e+001
    endloop
  endfacet
  facet normal  0.000000e+000  0.000000e+000  1.000000e+000
    outer loop
      vertex -1.689711e+001  2.250000e+000  8.070000e+001
      vertex -1.725584e+001  3.977158e+000  8.070000e+001
      vertex -1.750000e+001  3.606453e-008  8.070000e+001
    endloop
  endfacet
  facet normal  0.000000e+000  -0.000000e+000  1.000000e+000
    outer loop
      vertex -1.750000e+001  3.606453e-008  8.070000e+001
      vertex -1.725584e+001  3.977158e+000  8.070000e+001
      vertex -1.800000e+001  0.000000e+000  8.070000e+001
    endloop
  endfacet
  facet normal  -0.000000e+000  0.000000e+000  1.000000e+000
    outer loop
      vertex -1.750000e+001  3.606453e-008  8.070000e+001
      vertex -1.800000e+001  0.000000e+000  8.070000e+001
      vertex -1.689711e+001 -2.250000e+000  8.070000e+001
    endloop
  endfacet
  facet normal  0.000000e+000  0.000000e+000  1.000000e+000
    outer loop
      vertex -1.689711e+001 -2.250000e+000  8.070000e+001
      vertex -1.800000e+001  0.000000e+000  8.070000e+001
      vertex -1.725584e+001 -3.977158e+000  8.070000e+001
    endloop
  endfacet
  facet normal  0.000000e+000  0.000000e+000  1.000000e+000
    outer loop
      vertex -1.689711e+001 -2.250000e+000  8.070000e+001
      vertex -1.725584e+001 -3.977158e+000  8.070000e+001
      vertex -1.525000e+001 -3.897114e+000  8.070000e+001
    endloop
  endfacet
  facet normal  0.000000e+000  0.000000e+000  1.000000e+000
    outer loop
      vertex -1.725584e+001 -3.977158e+000  8.070000e+001
      vertex -1.512404e+001 -7.416198e+000  8.070000e+001
      vertex -1.525000e+001 -3.897114e+000  8.070000e+001
    endloop
  endfacet
  facet normal  0.000000e+000  0.000000e+000  1.000000e+000
    outer loop
      vertex -1.525000e+001 -3.897114e+000  8.070000e+001
      vertex -1.512404e+001 -7.416198e+000  8.070000e+001
      vertex -1.300000e+001 -4.500000e+000  8.070000e+001
    endloop
  endfacet
  facet normal  3.826834e-001 -9.238795e-001  0.000000e+000
    outer loop
      vertex -1.300000e+001  2.500000e+000  7.460000e+001
      vertex -1.476777e+001  1.767767e+000  7.870000e+001
      vertex -1.476777e+001  1.767767e+000  7.460000e+001
    endloop
  endfacet
  facet normal  9.238795e-001 -3.826834e-001  0.000000e+000
    outer loop
      vertex -1.476777e+001  1.767767e+000  7.460000e+001
      vertex -1.476777e+001  1.767767e+000  7.870000e+001
      vertex -1.550000e+001  3.061617e-016  7.870000e+001
    endloop
  endfacet
  facet normal  9.238795e-001 -3.826834e-001  0.000000e+000
    outer loop
      vertex -1.476777e+001  1.767767e+000  7.460000e+001
      vertex -1.550000e+001  3.061617e-016  7.870000e+001
      vertex -1.550000e+001  3.061617e-016  7.460000e+001
    endloop
  endfacet
  facet normal  3.826834e-001 -9.238795e-001  0.000000e+000
    outer loop
      vertex -1.476777e+001  1.767767e+000  7.870000e+001
      vertex -1.300000e+001  2.500000e+000  7.460000e+001
      vertex -1.300000e+001  2.500000e+000  7.870000e+001
    endloop
  endfacet
  facet normal -3.826834e-001 -9.238795e-001  -0.000000e+000
    outer loop
      vertex -1.300000e+001  2.500000e+000  7.870000e+001
      vertex -1.300000e+001  2.500000e+000  7.460000e+001
      vertex -1.123223e+001  1.767767e+000  7.460000e+001
    endloop
  endfacet
  facet normal -3.826834e-001 -9.238795e-001  0.000000e+000
    outer loop
      vertex -1.300000e+001  2.500000e+000  7.870000e+001
      vertex -1.123223e+001  1.767767e+000  7.460000e+001
      vertex -1.123223e+001  1.767767e+000  7.870000e+001
    endloop
  endfacet
  facet normal -9.238795e-001 -3.826834e-001  -0.000000e+000
    outer loop
      vertex -1.123223e+001  1.767767e+000  7.870000e+001
      vertex -1.123223e+001  1.767767e+000  7.460000e+001
      vertex -1.050000e+001  0.000000e+000  7.460000e+001
    endloop
  endfacet
  facet normal -9.238795e-001 -3.826834e-001 -5.715271e-017
    outer loop
      vertex -1.123223e+001  1.767767e+000  7.870000e+001
      vertex -1.050000e+001  0.000000e+000  7.460000e+001
      vertex -1.050000e+001 -6.123234e-016  7.870000e+001
    endloop
  endfacet
  facet normal -3.826834e-001  9.238795e-001  0.000000e+000
    outer loop
      vertex -1.300000e+001 -2.500000e+000  7.460000e+001
      vertex -1.123223e+001 -1.767767e+000  7.870000e+001
      vertex -1.123223e+001 -1.767767e+000  7.460000e+001
    endloop
  endfacet
  facet normal -9.238795e-001  3.826834e-001  0.000000e+000
    outer loop
      vertex -1.123223e+001 -1.767767e+000  7.460000e+001
      vertex -1.123223e+001 -1.767767e+000  7.870000e+001
      vertex -1.050000e+001 -6.123234e-016  7.870000e+001
    endloop
  endfacet
  facet normal -9.238795e-001  3.826834e-001  5.715271e-017
    outer loop
      vertex -1.123223e+001 -1.767767e+000  7.460000e+001
      vertex -1.050000e+001 -6.123234e-016  7.870000e+001
      vertex -1.050000e+001  0.000000e+000  7.460000e+001
    endloop
  endfacet
  facet normal -3.826834e-001  9.238795e-001  0.000000e+000
    outer loop
      vertex -1.123223e+001 -1.767767e+000  7.870000e+001
      vertex -1.300000e+001 -2.500000e+000  7.460000e+001
      vertex -1.300000e+001 -2.500000e+000  7.870000e+001
    endloop
  endfacet
  facet normal  3.826834e-001  9.238795e-001  0.000000e+000
    outer loop
      vertex -1.300000e+001 -2.500000e+000  7.870000e+001
      vertex -1.300000e+001 -2.500000e+000  7.460000e+001
      vertex -1.476777e+001 -1.767767e+000  7.460000e+001
    endloop
  endfacet
  facet normal  3.826834e-001  9.238795e-001  -0.000000e+000
    outer loop
      vertex -1.300000e+001 -2.500000e+000  7.870000e+001
      vertex -1.476777e+001 -1.767767e+000  7.460000e+001
      vertex -1.476777e+001 -1.767767e+000  7.870000e+001
    endloop
  endfacet
  facet normal  9.238795e-001  3.826834e-001  0.000000e+000
    outer loop
      vertex -1.476777e+001 -1.767767e+000  7.870000e+001
      vertex -1.476777e+001 -1.767767e+000  7.460000e+001
      vertex -1.550000e+001  3.061617e-016  7.460000e+001
    endloop
  endfacet
  facet normal  9.238795e-001  3.826834e-001  -0.000000e+000
    outer loop
      vertex -1.476777e+001 -1.767767e+000  7.870000e+001
      vertex -1.550000e+001  3.061617e-016  7.460000e+001
      vertex -1.550000e+001  3.061617e-016  7.870000e+001
    endloop
  endfacet
  facet normal -6.289750e-001  2.605300e-001  7.324715e-001
    outer loop
      vertex -1.123223e+001 -1.767767e+000  7.870000e+001
      vertex -9.102885e+000 -2.250000e+000  8.070000e+001
      vertex -1.050000e+001 -6.123234e-016  7.870000e+001
    endloop
  endfacet
  facet normal -6.947467e-001  1.861567e-001  6.947467e-001
    outer loop
      vertex -9.102885e+000 -2.250000e+000  8.070000e+001
      vertex -8.500000e+000 -6.358882e-015  8.070000e+001
      vertex -1.050000e+001 -6.123234e-016  7.870000e+001
    endloop
  endfacet
  facet normal  6.947466e-001  1.861569e-001  6.947466e-001
    outer loop
      vertex -1.750000e+001  3.606453e-008  8.070000e+001
      vertex -1.689711e+001 -2.250000e+000  8.070000e+001
      vertex -1.550000e+001  3.061617e-016  7.870000e+001
    endloop
  endfacet
  facet normal  6.289752e-001  2.605301e-001  7.324713e-001
    outer loop
      vertex -1.689711e+001 -2.250000e+000  8.070000e+001
      vertex -1.476777e+001 -1.767767e+000  7.870000e+001
      vertex -1.550000e+001  3.061617e-016  7.870000e+001
    endloop
  endfacet
  facet normal  5.195183e-001  5.195181e-001  6.783816e-001
    outer loop
      vertex -1.689711e+001 -2.250000e+000  8.070000e+001
      vertex -1.525000e+001 -3.897114e+000  8.070000e+001
      vertex -1.476777e+001 -1.767767e+000  7.870000e+001
    endloop
  endfacet
  facet normal  1.861568e-001  6.947466e-001  6.947466e-001
    outer loop
      vertex -1.525000e+001 -3.897114e+000  8.070000e+001
      vertex -1.300000e+001 -4.500000e+000  8.070000e+001
      vertex -1.300000e+001 -2.500000e+000  7.870000e+001
    endloop
  endfacet
  facet normal  2.605301e-001  6.289752e-001  7.324714e-001
    outer loop
      vertex -1.476777e+001 -1.767767e+000  7.870000e+001
      vertex -1.525000e+001 -3.897114e+000  8.070000e+001
      vertex -1.300000e+001 -2.500000e+000  7.870000e+001
    endloop
  endfacet
  facet normal -5.195181e-001  5.195182e-001  6.783817e-001
    outer loop
      vertex -1.075000e+001 -3.897114e+000  8.070000e+001
      vertex -9.102885e+000 -2.250000e+000  8.070000e+001
      vertex -1.123223e+001 -1.767767e+000  7.870000e+001
    endloop
  endfacet
  facet normal -2.605301e-001  6.289752e-001  7.324714e-001
    outer loop
      vertex -1.300000e+001 -2.500000e+000  7.870000e+001
      vertex -1.075000e+001 -3.897114e+000  8.070000e+001
      vertex -1.123223e+001 -1.767767e+000  7.870000e+001
    endloop
  endfacet
  facet normal -1.861568e-001  6.947466e-001  6.947466e-001
    outer loop
      vertex -1.300000e+001 -4.500000e+000  8.070000e+001
      vertex -1.075000e+001 -3.897114e+000  8.070000e+001
      vertex -1.300000e+001 -2.500000e+000  7.870000e+001
    endloop
  endfacet
  facet normal  6.289752e-001 -2.605301e-001  7.324713e-001
    outer loop
      vertex -1.476777e+001  1.767767e+000  7.870000e+001
      vertex -1.689711e+001  2.250000e+000  8.070000e+001
      vertex -1.550000e+001  3.061617e-016  7.870000e+001
    endloop
  endfacet
  facet normal  6.947466e-001 -1.861569e-001  6.947466e-001
    outer loop
      vertex -1.689711e+001  2.250000e+000  8.070000e+001
      vertex -1.750000e+001  3.606453e-008  8.070000e+001
      vertex -1.550000e+001  3.061617e-016  7.870000e+001
    endloop
  endfacet
  facet normal -6.947467e-001 -1.861567e-001  6.947467e-001
    outer loop
      vertex -8.500000e+000 -6.358882e-015  8.070000e+001
      vertex -9.102885e+000  2.250000e+000  8.070000e+001
      vertex -1.050000e+001 -6.123234e-016  7.870000e+001
    endloop
  endfacet
  facet normal -6.289751e-001 -2.605300e-001  7.324714e-001
    outer loop
      vertex -9.102885e+000  2.250000e+000  8.070000e+001
      vertex -1.123223e+001  1.767767e+000  7.870000e+001
      vertex -1.050000e+001 -6.123234e-016  7.870000e+001
    endloop
  endfacet
  facet normal -5.195181e-001 -5.195182e-001  6.783817e-001
    outer loop
      vertex -9.102885e+000  2.250000e+000  8.070000e+001
      vertex -1.075000e+001  3.897114e+000  8.070000e+001
      vertex -1.123223e+001  1.767767e+000  7.870000e+001
    endloop
  endfacet
  facet normal -1.861568e-001 -6.947466e-001  6.947466e-001
    outer loop
      vertex -1.075000e+001  3.897114e+000  8.070000e+001
      vertex -1.300000e+001  4.500000e+000  8.070000e+001
      vertex -1.300000e+001  2.500000e+000  7.870000e+001
    endloop
  endfacet
  facet normal -2.605301e-001 -6.289752e-001  7.324714e-001
    outer loop
      vertex -1.123223e+001  1.767767e+000  7.870000e+001
      vertex -1.075000e+001  3.897114e+000  8.070000e+001
      vertex -1.300000e+001  2.500000e+000  7.870000e+001
    endloop
  endfacet
  facet normal  5.195183e-001 -5.195181e-001  6.783816e-001
    outer loop
      vertex -1.525000e+001  3.897114e+000  8.070000e+001
      vertex -1.689711e+001  2.250000e+000  8.070000e+001
      vertex -1.476777e+001  1.767767e+000  7.870000e+001
    endloop
  endfacet
  facet normal  2.605301e-001 -6.289752e-001  7.324714e-001
    outer loop
      vertex -1.300000e+001  2.500000e+000  7.870000e+001
      vertex -1.525000e+001  3.897114e+000  8.070000e+001
      vertex -1.476777e+001  1.767767e+000  7.870000e+001
    endloop
  endfacet
  facet normal  1.861568e-001 -6.947466e-001  6.947466e-001
    outer loop
      vertex -1.300000e+001  4.500000e+000  8.070000e+001
      vertex -1.525000e+001  3.897114e+000  8.070000e+001
      vertex -1.300000e+001  2.500000e+000  7.870000e+001
    endloop
  endfacet
  facet normal  0.000000e+000  0.000000e+000 -1.000000e+000
    outer loop
      vertex  8.792893e+000 -7.080090e+000  7.460000e+001
      vertex -1.039919e+001 -1.046162e+001  7.460000e+001
      vertex  8.500000e+000 -6.372983e+000  7.460000e+001
    endloop
  endfacet
  facet normal  0.000000e+000  0.000000e+000 -1.000000e+000
    outer loop
      vertex -1.346564e+001 -8.899187e+000  7.460000e+001
      vertex -1.589919e+001 -6.465638e+000  7.460000e+001
      vertex -1.746162e+001 -3.399187e+000  7.460000e+001
    endloop
  endfacet
  facet normal  -0.000000e+000  0.000000e+000 -1.000000e+000
    outer loop
      vertex -1.300000e+001 -2.500000e+000  7.460000e+001
      vertex  9.500000e+000 -5.372983e+000  7.460000e+001
      vertex  8.792893e+000 -5.665876e+000  7.460000e+001
    endloop
  endfacet
  facet normal  -0.000000e+000  0.000000e+000 -1.000000e+000
    outer loop
      vertex -1.300000e+001 -2.500000e+000  7.460000e+001
      vertex  8.792893e+000 -5.665876e+000  7.460000e+001
      vertex  8.500000e+000 -6.372983e+000  7.460000e+001
    endloop
  endfacet
  facet normal  -0.000000e+000  0.000000e+000 -1.000000e+000
    outer loop
      vertex -1.300000e+001 -2.500000e+000  7.460000e+001
      vertex  8.500000e+000 -6.372983e+000  7.460000e+001
      vertex -1.039919e+001 -1.046162e+001  7.460000e+001
    endloop
  endfacet
  facet normal  0.000000e+000  0.000000e+000 -1.000000e+000
    outer loop
      vertex -1.300000e+001 -2.500000e+000  7.460000e+001
      vertex -1.039919e+001 -1.046162e+001  7.460000e+001
      vertex -1.346564e+001 -8.899187e+000  7.460000e+001
    endloop
  endfacet
  facet normal  0.000000e+000  0.000000e+000 -1.000000e+000
    outer loop
      vertex -1.300000e+001 -2.500000e+000  7.460000e+001
      vertex -1.346564e+001 -8.899187e+000  7.460000e+001
      vertex -1.746162e+001 -3.399187e+000  7.460000e+001
    endloop
  endfacet
  facet normal  0.000000e+000  0.000000e+000 -1.000000e+000
    outer loop
      vertex -1.746162e+001 -3.399187e+000  7.460000e+001
      vertex -1.800000e+001  6.232093e-015  7.460000e+001
      vertex -1.550000e+001  3.061617e-016  7.460000e+001
    endloop
  endfacet
  facet normal  0.000000e+000  -0.000000e+000 -1.000000e+000
    outer loop
      vertex -1.746162e+001 -3.399187e+000  7.460000e+001
      vertex -1.550000e+001  3.061617e-016  7.460000e+001
      vertex -1.476777e+001 -1.767767e+000  7.460000e+001
    endloop
  endfacet
  facet normal  0.000000e+000  -0.000000e+000 -1.000000e+000
    outer loop
      vertex -1.746162e+001 -3.399187e+000  7.460000e+001
      vertex -1.476777e+001 -1.767767e+000  7.460000e+001
      vertex -1.300000e+001 -2.500000e+000  7.460000e+001
    endloop
  endfacet
  facet normal  0.000000e+000  0.000000e+000 -1.000000e+000
    outer loop
      vertex  9.500000e+000 -5.372983e+000  7.460000e+001
      vertex -1.300000e+001 -2.500000e+000  7.460000e+001
      vertex -1.123223e+001 -1.767767e+000  7.460000e+001
    endloop
  endfacet
  facet normal  0.000000e+000  0.000000e+000 -1.000000e+000
    outer loop
      vertex  9.500000e+000 -5.372983e+000  7.460000e+001
      vertex -1.123223e+001 -1.767767e+000  7.460000e+001
      vertex -1.050000e+001  0.000000e+000  7.460000e+001
    endloop
  endfacet
  facet normal  0.000000e+000  0.000000e+000 -9.999999e-001
    outer loop
      vertex  9.500000e+000 -5.372983e+000  7.460000e+001
      vertex -1.050000e+001  0.000000e+000  7.460000e+001
      vertex -1.123223e+001  1.767767e+000  7.460000e+001
    endloop
  endfacet
  facet normal  0.000000e+000  0.000000e+000 -9.999999e-001
    outer loop
      vertex  9.500000e+000 -5.372983e+000  7.460000e+001
      vertex -1.123223e+001  1.767767e+000  7.460000e+001
      vertex -1.300000e+001  2.500000e+000  7.460000e+001
    endloop
  endfacet
  facet normal  0.000000e+000  0.000000e+000 -1.000000e+000
    outer loop
      vertex  9.500000e+000 -5.372983e+000  7.460000e+001
      vertex -1.300000e+001  2.500000e+000  7.460000e+001
      vertex -1.346564e+001  8.899187e+000  7.460000e+001
    endloop
  endfacet
  facet normal  0.000000e+000  0.000000e+000 -1.000000e+000
    outer loop
      vertex  9.500000e+000 -5.372983e+000  7.460000e+001
      vertex -1.346564e+001  8.899187e+000  7.460000e+001
      vertex -1.039919e+001  1.046162e+001  7.460000e+001
    endloop
  endfacet
  facet normal  0.000000e+000  0.000000e+000 -1.000000e+000
    outer loop
      vertex  9.500000e+000 -5.372983e+000  7.460000e+001
      vertex -1.039919e+001  1.046162e+001  7.460000e+001
      vertex -7.000000e+000  1.100000e+001  7.460000e+001
    endloop
  endfacet
  facet normal  0.000000e+000  0.000000e+000 -9.999999e-001
    outer loop
      vertex  9.500000e+000 -5.372983e+000  7.460000e+001
      vertex -7.000000e+000  1.100000e+001  7.460000e+001
      vertex  1.900000e+001  1.100000e+001  7.460000e+001
    endloop
  endfacet
  facet normal  0.000000e+000  -0.000000e+000 -9.999999e-001
    outer loop
      vertex  9.500000e+000 -5.372983e+000  7.460000e+001
      vertex  1.900000e+001  1.100000e+001  7.460000e+001
      vertex  2.239919e+001  1.046162e+001  7.460000e+001
    endloop
  endfacet
  facet normal  0.000000e+000  -0.000000e+000 -1.000000e+000
    outer loop
      vertex  9.500000e+000 -5.372983e+000  7.460000e+001
      vertex  2.239919e+001  1.046162e+001  7.460000e+001
      vertex  2.546564e+001  8.899187e+000  7.460000e+001
    endloop
  endfacet
  facet normal  0.000000e+000  -0.000000e+000 -1.000000e+000
    outer loop
      vertex  9.500000e+000 -5.372983e+000  7.460000e+001
      vertex  2.546564e+001  8.899187e+000  7.460000e+001
      vertex  2.789919e+001  6.465638e+000  7.460000e+001
    endloop
  endfacet
  facet normal  0.000000e+000  -0.000000e+000 -1.000000e+000
    outer loop
      vertex  9.500000e+000 -5.372983e+000  7.460000e+001
      vertex  2.789919e+001  6.465638e+000  7.460000e+001
      vertex  2.946162e+001  3.399187e+000  7.460000e+001
    endloop
  endfacet
  facet normal  0.000000e+000  -0.000000e+000 -1.000000e+000
    outer loop
      vertex  9.500000e+000 -5.372983e+000  7.460000e+001
      vertex  2.946162e+001  3.399187e+000  7.460000e+001
      vertex  3.000000e+001  1.421085e-014  7.460000e+001
    endloop
  endfacet
  facet normal  0.000000e+000  0.000000e+000 -1.000000e+000
    outer loop
      vertex  9.500000e+000 -5.372983e+000  7.460000e+001
      vertex  3.000000e+001  1.421085e-014  7.460000e+001
      vertex  2.946162e+001 -3.399187e+000  7.460000e+001
    endloop
  endfacet
  facet normal  0.000000e+000  0.000000e+000 -1.000000e+000
    outer loop
      vertex  9.500000e+000 -5.372983e+000  7.460000e+001
      vertex  2.946162e+001 -3.399187e+000  7.460000e+001
      vertex  2.789919e+001 -6.465638e+000  7.460000e+001
    endloop
  endfacet
  facet normal  0.000000e+000  0.000000e+000 -1.000000e+000
    outer loop
      vertex  9.500000e+000 -5.372983e+000  7.460000e+001
      vertex  2.789919e+001 -6.465638e+000  7.460000e+001
      vertex  1.020711e+001 -5.665876e+000  7.460000e+001
    endloop
  endfacet
  facet normal  0.000000e+000  0.000000e+000 -1.000000e+000
    outer loop
      vertex  1.900000e+001 -1.100000e+001  7.460000e+001
      vertex -7.000000e+000 -1.100000e+001  7.460000e+001
      vertex  9.500000e+000 -7.372983e+000  7.460000e+001
    endloop
  endfacet
  facet normal  0.000000e+000  0.000000e+000 -1.000000e+000
    outer loop
      vertex  9.500000e+000 -7.372983e+000  7.460000e+001
      vertex -7.000000e+000 -1.100000e+001  7.460000e+001
      vertex -1.039919e+001 -1.046162e+001  7.460000e+001
    endloop
  endfacet
  facet normal  0.000000e+000  0.000000e+000 -1.000000e+000
    outer loop
      vertex  9.500000e+000 -7.372983e+000  7.460000e+001
      vertex -1.039919e+001 -1.046162e+001  7.460000e+001
      vertex  8.792893e+000 -7.080090e+000  7.460000e+001
    endloop
  endfacet
  facet normal  0.000000e+000  0.000000e+000 -1.000000e+000
    outer loop
      vertex  1.020711e+001 -7.080090e+000  7.460000e+001
      vertex  2.546564e+001 -8.899187e+000  7.460000e+001
      vertex  9.500000e+000 -7.372983e+000  7.460000e+001
    endloop
  endfacet
  facet normal  0.000000e+000  0.000000e+000 -1.000000e+000
    outer loop
      vertex  9.500000e+000 -7.372983e+000  7.460000e+001
      vertex  2.546564e+001 -8.899187e+000  7.460000e+001
      vertex  2.239919e+001 -1.046162e+001  7.460000e+001
    endloop
  endfacet
  facet normal  -0.000000e+000  0.000000e+000 -1.000000e+000
    outer loop
      vertex  9.500000e+000 -7.372983e+000  7.460000e+001
      vertex  2.239919e+001 -1.046162e+001  7.460000e+001
      vertex  1.900000e+001 -1.100000e+001  7.460000e+001
    endloop
  endfacet
  facet normal  0.000000e+000  0.000000e+000 -1.000000e+000
    outer loop
      vertex -1.476777e+001  1.767767e+000  7.460000e+001
      vertex -1.746162e+001  3.399187e+000  7.460000e+001
      vertex -1.300000e+001  2.500000e+000  7.460000e+001
    endloop
  endfacet
  facet normal  0.000000e+000  0.000000e+000 -1.000000e+000
    outer loop
      vertex -1.300000e+001  2.500000e+000  7.460000e+001
      vertex -1.746162e+001  3.399187e+000  7.460000e+001
      vertex -1.589919e+001  6.465638e+000  7.460000e+001
    endloop
  endfacet
  facet normal  0.000000e+000  0.000000e+000 -1.000000e+000
    outer loop
      vertex -1.300000e+001  2.500000e+000  7.460000e+001
      vertex -1.589919e+001  6.465638e+000  7.460000e+001
      vertex -1.346564e+001  8.899187e+000  7.460000e+001
    endloop
  endfacet
  facet normal  0.000000e+000  0.000000e+000 -1.000000e+000
    outer loop
      vertex -1.550000e+001  3.061617e-016  7.460000e+001
      vertex -1.800000e+001  6.232093e-015  7.460000e+001
      vertex -1.476777e+001  1.767767e+000  7.460000e+001
    endloop
  endfacet
  facet normal  -0.000000e+000  0.000000e+000 -1.000000e+000
    outer loop
      vertex -1.476777e+001  1.767767e+000  7.460000e+001
      vertex -1.800000e+001  6.232093e-015  7.460000e+001
      vertex -1.746162e+001  3.399187e+000  7.460000e+001
    endloop
  endfacet
  facet normal  0.000000e+000  0.000000e+000 -1.000000e+000
    outer loop
      vertex  1.020711e+001 -5.665876e+000  7.460000e+001
      vertex  2.789919e+001 -6.465638e+000  7.460000e+001
      vertex  1.050000e+001 -6.372983e+000  7.460000e+001
    endloop
  endfacet
  facet normal  0.000000e+000  0.000000e+000 -1.000000e+000
    outer loop
      vertex  1.050000e+001 -6.372983e+000  7.460000e+001
      vertex  2.789919e+001 -6.465638e+000  7.460000e+001
      vertex  2.546564e+001 -8.899187e+000  7.460000e+001
    endloop
  endfacet
  facet normal  0.000000e+000  0.000000e+000 -1.000000e+000
    outer loop
      vertex  1.050000e+001 -6.372983e+000  7.460000e+001
      vertex  2.546564e+001 -8.899187e+000  7.460000e+001
      vertex  1.020711e+001 -7.080090e+000  7.460000e+001
    endloop
  endfacet
  facet normal -2.072277e-003 -6.880825e-001  7.256295e-001
    outer loop
      vertex  2.694255e+001 -7.610244e+000  8.174929e+001
      vertex  2.806758e+001 -6.227284e+000  8.306390e+001
      vertex -8.000000e+000 -6.741286e+000  8.247350e+001
    endloop
  endfacet
  facet normal  4.903738e-003 -8.830670e-001  4.692213e-001
    outer loop
      vertex -8.000000e+000 -6.741286e+000  8.247350e+001
      vertex  2.806758e+001 -6.227284e+000  8.306390e+001
      vertex  2.862735e+001 -5.321102e+000  8.476347e+001
    endloop
  endfacet
  facet normal -2.286264e-003 -8.330451e-001  5.532004e-001
    outer loop
      vertex -8.000000e+000 -6.741286e+000  8.247350e+001
      vertex  2.862735e+001 -5.321102e+000  8.476347e+001
      vertex -8.000000e+000 -5.452375e+000  8.441442e+001
    endloop
  endfacet
  facet normal  1.978556e-003 -9.865562e-001  1.634103e-001
    outer loop
      vertex -8.000000e+000 -5.452375e+000  8.441442e+001
      vertex  2.862735e+001 -5.321102e+000  8.476347e+001
      vertex  2.879796e+001 -5.000000e+000  8.670000e+001
    endloop
  endfacet
  facet normal  0.000000e+000 -9.809700e-001  1.941595e-001
    outer loop
      vertex -8.000000e+000 -5.452375e+000  8.441442e+001
      vertex  2.879796e+001 -5.000000e+000  8.670000e+001
      vertex -8.000000e+000 -5.000000e+000  8.670000e+001
    endloop
  endfacet
  facet normal  3.263824e-003 -5.595073e-001  8.288191e-001
    outer loop
      vertex -8.000000e+000 -8.672375e+000  8.116988e+001
      vertex  2.694255e+001 -7.610244e+000  8.174929e+001
      vertex -8.000000e+000 -6.741286e+000  8.247350e+001
    endloop
  endfacet
  facet normal -1.713617e-003 -4.348581e-001  9.004974e-001
    outer loop
      vertex  2.694255e+001 -7.610244e+000  8.174929e+001
      vertex -8.000000e+000 -8.672375e+000  8.116988e+001
      vertex  2.501588e+001 -9.209188e+000  8.097348e+001
    endloop
  endfacet
  facet normal  2.547482e-003 -2.016718e-001  9.794499e-001
    outer loop
      vertex  2.501588e+001 -9.209188e+000  8.097348e+001
      vertex -8.000000e+000 -8.672375e+000  8.116988e+001
      vertex -8.000000e+000 -1.095445e+001  8.070000e+001
    endloop
  endfacet
  facet normal  2.168145e-003 -1.947162e-001  9.808572e-001
    outer loop
      vertex  2.501588e+001 -9.209188e+000  8.097348e+001
      vertex -8.000000e+000 -1.095445e+001  8.070000e+001
      vertex  2.220736e+001 -1.052202e+001  8.071907e+001
    endloop
  endfacet
  facet normal -4.803974e-004 -1.054696e-002  9.999443e-001
    outer loop
      vertex  2.220736e+001 -1.052202e+001  8.071907e+001
      vertex -8.000000e+000 -1.095445e+001  8.070000e+001
      vertex -7.000000e+000 -1.100000e+001  8.070000e+001
    endloop
  endfacet
  facet normal  0.000000e+000 -3.987226e-002  9.992048e-001
    outer loop
      vertex  2.220736e+001 -1.052202e+001  8.071907e+001
      vertex -7.000000e+000 -1.100000e+001  8.070000e+001
      vertex  1.900000e+001 -1.100000e+001  8.070000e+001
    endloop
  endfacet
  facet normal -2.072275e-003  6.880825e-001  7.256294e-001
    outer loop
      vertex  2.806758e+001  6.227284e+000  8.306390e+001
      vertex  2.694255e+001  7.610244e+000  8.174929e+001
      vertex -8.000000e+000  6.741286e+000  8.247350e+001
    endloop
  endfacet
  facet normal  7.533747e-003  4.438519e-001  8.960684e-001
    outer loop
      vertex -8.000000e+000  6.741286e+000  8.247350e+001
      vertex  2.694255e+001  7.610244e+000  8.174929e+001
      vertex  2.501588e+001  9.209188e+000  8.097348e+001
    endloop
  endfacet
  facet normal -4.166697e-003  5.595053e-001  8.288162e-001
    outer loop
      vertex -8.000000e+000  6.741286e+000  8.247350e+001
      vertex  2.501588e+001  9.209188e+000  8.097348e+001
      vertex -8.000000e+000  8.672375e+000  8.116988e+001
    endloop
  endfacet
  facet normal  2.651573e-003  1.957118e-001  9.806579e-001
    outer loop
      vertex -8.000000e+000  8.672375e+000  8.116988e+001
      vertex  2.501588e+001  9.209188e+000  8.097348e+001
      vertex  2.220736e+001  1.052202e+001  8.071907e+001
    endloop
  endfacet
  facet normal  2.268603e-003  2.016720e-001  9.794505e-001
    outer loop
      vertex -8.000000e+000  8.672375e+000  8.116988e+001
      vertex  2.220736e+001  1.052202e+001  8.071907e+001
      vertex -8.000000e+000  1.095445e+001  8.070000e+001
    endloop
  endfacet
  facet normal -6.651333e-005  3.942665e-002  9.992225e-001
    outer loop
      vertex -8.000000e+000  1.095445e+001  8.070000e+001
      vertex  2.220736e+001  1.052202e+001  8.071907e+001
      vertex  1.900000e+001  1.100000e+001  8.070000e+001
    endloop
  endfacet
  facet normal  0.000000e+000  0.000000e+000  1.000000e+000
    outer loop
      vertex -8.000000e+000  1.095445e+001  8.070000e+001
      vertex  1.900000e+001  1.100000e+001  8.070000e+001
      vertex -7.000000e+000  1.100000e+001  8.070000e+001
    endloop
  endfacet
  facet normal  2.816172e-003  8.330440e-001  5.531997e-001
    outer loop
      vertex -8.000000e+000  6.741286e+000  8.247350e+001
      vertex -8.000000e+000  5.452375e+000  8.441442e+001
      vertex  2.806758e+001  6.227284e+000  8.306390e+001
    endloop
  endfacet
  facet normal -1.324968e-003  8.822259e-001  4.708244e-001
    outer loop
      vertex  2.806758e+001  6.227284e+000  8.306390e+001
      vertex -8.000000e+000  5.452375e+000  8.441442e+001
      vertex  2.862735e+001  5.321102e+000  8.476347e+001
    endloop
  endfacet
  facet normal  1.665498e-003  9.809686e-001  1.941592e-001
    outer loop
      vertex -8.000000e+000  5.452375e+000  8.441442e+001
      vertex -8.000000e+000  5.000000e+000  8.670000e+001
      vertex  2.862735e+001  5.321102e+000  8.476347e+001
    endloop
  endfacet
  facet normal  0.000000e+000  9.865301e-001  1.635802e-001
    outer loop
      vertex  2.862735e+001  5.321102e+000  8.476347e+001
      vertex -8.000000e+000  5.000000e+000  8.670000e+001
      vertex  2.879796e+001  5.000000e+000  8.670000e+001
    endloop
  endfacet
  facet normal  0.000000e+000 -9.659258e-001  2.588190e-001
    outer loop
      vertex -8.000000e+000 -5.000000e+000  8.670000e+001
      vertex  2.879796e+001 -5.000000e+000  8.670000e+001
      vertex -8.000000e+000 -4.464102e+000  8.870000e+001
    endloop
  endfacet
  facet normal -5.830138e-003 -9.875274e-001  1.573385e-001
    outer loop
      vertex -8.000000e+000 -4.464102e+000  8.870000e+001
      vertex  2.879796e+001 -5.000000e+000  8.670000e+001
      vertex  2.889598e+001 -4.803080e+000  8.793959e+001
    endloop
  endfacet
  facet normal  1.191964e-003 -8.905726e-001  4.548397e-001
    outer loop
      vertex -8.000000e+000 -4.464102e+000  8.870000e+001
      vertex  2.889598e+001 -4.803080e+000  8.793959e+001
      vertex  2.915308e+001 -4.232602e+000  8.905591e+001
    endloop
  endfacet
  facet normal -2.367809e-003 -7.071053e-001  7.071043e-001
    outer loop
      vertex -8.000000e+000 -4.464102e+000  8.870000e+001
      vertex  2.915308e+001 -4.232602e+000  8.905591e+001
      vertex -8.000000e+000 -3.000000e+000  9.016410e+001
    endloop
  endfacet
  facet normal  1.237592e-003 -6.476951e-001  7.618986e-001
    outer loop
      vertex -8.000000e+000 -3.000000e+000  9.016410e+001
      vertex  2.915308e+001 -4.232602e+000  8.905591e+001
      vertex  2.963700e+001 -2.802521e+000  9.027084e+001
    endloop
  endfacet
  facet normal -1.381470e-003 -2.588179e-001  9.659252e-001
    outer loop
      vertex -8.000000e+000 -3.000000e+000  9.016410e+001
      vertex  2.963700e+001 -2.802521e+000  9.027084e+001
      vertex -8.000000e+000 -1.000000e+000  9.070000e+001
    endloop
  endfacet
  facet normal  0.000000e+000 -2.316113e-001  9.728085e-001
    outer loop
      vertex -8.000000e+000 -1.000000e+000  9.070000e+001
      vertex  2.963700e+001 -2.802521e+000  9.027084e+001
      vertex  2.995445e+001 -1.000000e+000  9.070000e+001
    endloop
  endfacet
  facet normal  -0.000000e+000  0.000000e+000  1.000000e+000
    outer loop
      vertex  2.995445e+001  1.000000e+000  9.070000e+001
      vertex -8.000000e+000  1.000000e+000  9.070000e+001
      vertex  3.000000e+001  1.421085e-014  9.070000e+001
    endloop
  endfacet
  facet normal  0.000000e+000  0.000000e+000  1.000000e+000
    outer loop
      vertex  3.000000e+001  1.421085e-014  9.070000e+001
      vertex -8.000000e+000  1.000000e+000  9.070000e+001
      vertex -8.000000e+000 -1.000000e+000  9.070000e+001
    endloop
  endfacet
  facet normal  0.000000e+000  0.000000e+000  1.000000e+000
    outer loop
      vertex  3.000000e+001  1.421085e-014  9.070000e+001
      vertex -8.000000e+000 -1.000000e+000  9.070000e+001
      vertex  2.995445e+001 -1.000000e+000  9.070000e+001
    endloop
  endfacet
  facet normal -4.538794e-001 -8.907889e-001 -2.210096e-002
    outer loop
      vertex -1.346564e+001 -8.899187e+000  7.460000e+001
      vertex -1.039919e+001 -1.046162e+001  7.460000e+001
      vertex -1.189304e+001 -9.851810e+000  8.070000e+001
    endloop
  endfacet
  facet normal -6.016741e-001 -7.981604e-001  3.046658e-002
    outer loop
      vertex -1.189304e+001 -9.851810e+000  8.070000e+001
      vertex -1.512404e+001 -7.416198e+000  8.070000e+001
      vertex -1.346564e+001 -8.899187e+000  7.460000e+001
    endloop
  endfacet
  facet normal -7.069607e-001 -7.069606e-001 -2.032942e-002
    outer loop
      vertex -1.346564e+001 -8.899187e+000  7.460000e+001
      vertex -1.512404e+001 -7.416198e+000  8.070000e+001
      vertex -1.589919e+001 -6.465638e+000  7.460000e+001
    endloop
  endfacet
  facet normal -8.496624e-001 -5.266907e-001  2.589560e-002
    outer loop
      vertex -1.589919e+001 -6.465638e+000  7.460000e+001
      vertex -1.512404e+001 -7.416198e+000  8.070000e+001
      vertex -1.725584e+001 -3.977158e+000  8.070000e+001
    endloop
  endfacet
  facet normal -8.909317e-001 -4.539525e-001 -1.295611e-002
    outer loop
      vertex -1.589919e+001 -6.465638e+000  7.460000e+001
      vertex -1.725584e+001 -3.977158e+000  8.070000e+001
      vertex -1.746162e+001 -3.399187e+000  7.460000e+001
    endloop
  endfacet
  facet normal -8.496624e-001  5.266907e-001  2.589560e-002
    outer loop
      vertex -1.725584e+001  3.977158e+000  8.070000e+001
      vertex -1.512404e+001  7.416198e+000  8.070000e+001
      vertex -1.589919e+001  6.465638e+000  7.460000e+001
    endloop
  endfacet
  facet normal -7.069607e-001  7.069606e-001 -2.032942e-002
    outer loop
      vertex -1.346564e+001  8.899187e+000  7.460000e+001
      vertex -1.589919e+001  6.465638e+000  7.460000e+001
      vertex -1.512404e+001  7.416198e+000  8.070000e+001
    endloop
  endfacet
  facet normal -6.016741e-001  7.981604e-001  3.046659e-002
    outer loop
      vertex -1.512404e+001  7.416198e+000  8.070000e+001
      vertex -1.189304e+001  9.851810e+000  8.070000e+001
      vertex -1.346564e+001  8.899187e+000  7.460000e+001
    endloop
  endfacet
  facet normal -4.538795e-001  8.907890e-001 -2.210096e-002
    outer loop
      vertex -1.346564e+001  8.899187e+000  7.460000e+001
      vertex -1.189304e+001  9.851810e+000  8.070000e+001
      vertex -1.039919e+001  1.046162e+001  7.460000e+001
    endloop
  endfacet
  facet normal -1.564346e-001 -9.876884e-001  -0.000000e+000
    outer loop
      vertex -7.000000e+000 -1.100000e+001  7.460000e+001
      vertex -7.000000e+000 -1.100000e+001  8.070000e+001
      vertex -1.039919e+001 -1.046162e+001  7.460000e+001
    endloop
  endfacet
  facet normal -4.541176e-002 -9.969995e-001 -6.268855e-002
    outer loop
      vertex -1.039919e+001 -1.046162e+001  7.460000e+001
      vertex -7.000000e+000 -1.100000e+001  8.070000e+001
      vertex -8.000000e+000 -1.095445e+001  8.070000e+001
    endloop
  endfacet
  facet normal -2.723961e-001 -9.617349e-001  2.943559e-002
    outer loop
      vertex -1.039919e+001 -1.046162e+001  7.460000e+001
      vertex -8.000000e+000 -1.095445e+001  8.070000e+001
      vertex -1.189304e+001 -9.851810e+000  8.070000e+001
    endloop
  endfacet
  facet normal -9.875194e-001 -1.564076e-001  1.849451e-002
    outer loop
      vertex -1.746162e+001 -3.399187e+000  7.460000e+001
      vertex -1.725584e+001 -3.977158e+000  8.070000e+001
      vertex -1.800000e+001  6.232093e-015  7.460000e+001
    endloop
  endfacet
  facet normal -9.829417e-001 -1.839171e-001 -1.878998e-016
    outer loop
      vertex -1.800000e+001  6.232093e-015  7.460000e+001
      vertex -1.725584e+001 -3.977158e+000  8.070000e+001
      vertex -1.800000e+001  0.000000e+000  8.070000e+001
    endloop
  endfacet
  facet normal -9.876884e-001  1.564343e-001  1.598219e-016
    outer loop
      vertex -1.800000e+001  6.232093e-015  7.460000e+001
      vertex -1.800000e+001  0.000000e+000  8.070000e+001
      vertex -1.746162e+001  3.399187e+000  7.460000e+001
    endloop
  endfacet
  facet normal -9.828201e-001  1.838944e-001  1.573161e-002
    outer loop
      vertex -1.746162e+001  3.399187e+000  7.460000e+001
      vertex -1.800000e+001  0.000000e+000  8.070000e+001
      vertex -1.725584e+001  3.977158e+000  8.070000e+001
    endloop
  endfacet
  facet normal -8.909317e-001  4.539525e-001 -1.295611e-002
    outer loop
      vertex -1.746162e+001  3.399187e+000  7.460000e+001
      vertex -1.725584e+001  3.977158e+000  8.070000e+001
      vertex -1.589919e+001  6.465638e+000  7.460000e+001
    endloop
  endfacet
  facet normal -4.550222e-002  9.989643e-001  0.000000e+000
    outer loop
      vertex -7.000000e+000  1.100000e+001  8.070000e+001
      vertex -7.000000e+000  1.100000e+001  7.460000e+001
      vertex -8.000000e+000  1.095445e+001  8.070000e+001
    endloop
  endfacet
  facet normal -1.564085e-001  9.875236e-001 -1.826679e-002
    outer loop
      vertex -8.000000e+000  1.095445e+001  8.070000e+001
      vertex -7.000000e+000  1.100000e+001  7.460000e+001
      vertex -1.039919e+001  1.046162e+001  7.460000e+001
    endloop
  endfacet
  facet normal -2.723958e-001  9.617349e-001  2.943564e-002
    outer loop
      vertex -8.000000e+000  1.095445e+001  8.070000e+001
      vertex -1.039919e+001  1.046162e+001  7.460000e+001
      vertex -1.189304e+001  9.851810e+000  8.070000e+001
    endloop
  endfacet
  facet normal  0.000000e+000  2.588181e-001  9.659261e-001
    outer loop
      vertex -8.000000e+000  1.000000e+000  9.070000e+001
      vertex  2.995445e+001  1.000000e+000  9.070000e+001
      vertex -8.000000e+000  3.000000e+000  9.016410e+001
    endloop
  endfacet
  facet normal -1.545267e-003  2.313534e-001  9.728685e-001
    outer loop
      vertex -8.000000e+000  3.000000e+000  9.016410e+001
      vertex  2.995445e+001  1.000000e+000  9.070000e+001
      vertex  2.963700e+001  2.802521e+000  9.027084e+001
    endloop
  endfacet
  facet normal  1.704719e-003  7.071062e-001  7.071053e-001
    outer loop
      vertex -8.000000e+000  3.000000e+000  9.016410e+001
      vertex  2.963700e+001  2.802521e+000  9.027084e+001
      vertex -8.000000e+000  4.464102e+000  8.870000e+001
    endloop
  endfacet
  facet normal -3.275630e-003  6.468049e-001  7.626485e-001
    outer loop
      vertex -8.000000e+000  4.464102e+000  8.870000e+001
      vertex  2.963700e+001  2.802521e+000  9.027084e+001
      vertex  2.915308e+001  4.232602e+000  8.905591e+001
    endloop
  endfacet
  facet normal  3.539264e-003  9.659198e-001  2.588173e-001
    outer loop
      vertex -8.000000e+000  4.464102e+000  8.870000e+001
      vertex  2.915308e+001  4.232602e+000  8.905591e+001
      vertex -8.000000e+000  5.000000e+000  8.670000e+001
    endloop
  endfacet
  facet normal -1.060574e-002  8.894200e-001  4.569678e-001
    outer loop
      vertex -8.000000e+000  5.000000e+000  8.670000e+001
      vertex  2.915308e+001  4.232602e+000  8.905591e+001
      vertex  2.889598e+001  4.803080e+000  8.793959e+001
    endloop
  endfacet
  facet normal  0.000000e+000  9.876159e-001  1.568915e-001
    outer loop
      vertex -8.000000e+000  5.000000e+000  8.670000e+001
      vertex  2.889598e+001  4.803080e+000  8.793959e+001
      vertex  2.879796e+001  5.000000e+000  8.670000e+001
    endloop
  endfacet
  facet normal -9.999999e-001  0.000000e+000  -0.000000e+000
    outer loop
      vertex -8.000000e+000 -5.452375e+000  8.441442e+001
      vertex -8.000000e+000 -5.000000e+000  8.670000e+001
      vertex -8.000000e+000 -4.464102e+000  8.870000e+001
    endloop
  endfacet
  facet normal -1.000000e+000  0.000000e+000  -0.000000e+000
    outer loop
      vertex -8.000000e+000 -5.452375e+000  8.441442e+001
      vertex -8.000000e+000 -4.464102e+000  8.870000e+001
      vertex -8.000000e+000 -3.000000e+000  9.016410e+001
    endloop
  endfacet
  facet normal -1.000000e+000  0.000000e+000  -0.000000e+000
    outer loop
      vertex -8.000000e+000 -5.452375e+000  8.441442e+001
      vertex -8.000000e+000 -3.000000e+000  9.016410e+001
      vertex -8.000000e+000 -1.000000e+000  9.070000e+001
    endloop
  endfacet
  facet normal -9.999999e-001  0.000000e+000  -0.000000e+000
    outer loop
      vertex -8.000000e+000 -6.741286e+000  8.247350e+001
      vertex -8.000000e+000 -5.452375e+000  8.441442e+001
      vertex -8.000000e+000 -1.000000e+000  9.070000e+001
    endloop
  endfacet
  facet normal -1.000000e+000  0.000000e+000  -0.000000e+000
    outer loop
      vertex -8.000000e+000 -6.741286e+000  8.247350e+001
      vertex -8.000000e+000 -1.000000e+000  9.070000e+001
      vertex -8.000000e+000  1.000000e+000  9.070000e+001
    endloop
  endfacet
  facet normal -1.000000e+000  0.000000e+000  -0.000000e+000
    outer loop
      vertex -8.000000e+000 -6.741286e+000  8.247350e+001
      vertex -8.000000e+000  1.000000e+000  9.070000e+001
      vertex -8.000000e+000  3.000000e+000  9.016410e+001
    endloop
  endfacet
  facet normal -1.000000e+000  0.000000e+000  -0.000000e+000
    outer loop
      vertex -8.000000e+000 -6.741286e+000  8.247350e+001
      vertex -8.000000e+000  3.000000e+000  9.016410e+001
      vertex -8.000000e+000  4.464102e+000  8.870000e+001
    endloop
  endfacet
  facet normal -1.000000e+000  0.000000e+000  -0.000000e+000
    outer loop
      vertex -8.000000e+000 -8.672375e+000  8.116988e+001
      vertex -8.000000e+000 -6.741286e+000  8.247350e+001
      vertex -8.000000e+000  4.464102e+000  8.870000e+001
    endloop
  endfacet
  facet normal -1.000000e+000  0.000000e+000  -0.000000e+000
    outer loop
      vertex -8.000000e+000 -8.672375e+000  8.116988e+001
      vertex -8.000000e+000  4.464102e+000  8.870000e+001
      vertex -8.000000e+000  5.000000e+000  8.670000e+001
    endloop
  endfacet
  facet normal -1.000000e+000  0.000000e+000  -0.000000e+000
    outer loop
      vertex -8.000000e+000 -8.672375e+000  8.116988e+001
      vertex -8.000000e+000  5.000000e+000  8.670000e+001
      vertex -8.000000e+000  5.452375e+000  8.441442e+001
    endloop
  endfacet
  facet normal -9.999999e-001  0.000000e+000  -0.000000e+000
    outer loop
      vertex -8.000000e+000 -8.672375e+000  8.116988e+001
      vertex -8.000000e+000  5.452375e+000  8.441442e+001
      vertex -8.000000e+000  6.741286e+000  8.247350e+001
    endloop
  endfacet
  facet normal -1.000000e+000  0.000000e+000  -0.000000e+000
    outer loop
      vertex -8.000000e+000 -1.095445e+001  8.070000e+001
      vertex -8.000000e+000 -8.672375e+000  8.116988e+001
      vertex -8.000000e+000  6.741286e+000  8.247350e+001
    endloop
  endfacet
  facet normal -9.999999e-001  0.000000e+000  -0.000000e+000
    outer loop
      vertex -8.000000e+000 -1.095445e+001  8.070000e+001
      vertex -8.000000e+000  6.741286e+000  8.247350e+001
      vertex -8.000000e+000  8.672375e+000  8.116988e+001
    endloop
  endfacet
  facet normal -1.000000e+000  0.000000e+000  -0.000000e+000
    outer loop
      vertex -8.000000e+000 -1.095445e+001  8.070000e+001
      vertex -8.000000e+000  8.672375e+000  8.116988e+001
      vertex -8.000000e+000  1.095445e+001  8.070000e+001
    endloop
  endfacet
  facet normal  8.909956e-001  4.539850e-001 -4.941484e-003
    outer loop
      vertex  2.946162e+001  3.399187e+000  7.460000e+001
      vertex  2.789919e+001  6.465638e+000  7.460000e+001
      vertex  2.806758e+001  6.227284e+000  8.306390e+001
    endloop
  endfacet
  facet normal  8.686931e-001  4.948499e-001 -2.226925e-002
    outer loop
      vertex  2.946162e+001  3.399187e+000  7.460000e+001
      vertex  2.806758e+001  6.227284e+000  8.306390e+001
      vertex  2.862735e+001  5.321102e+000  8.476347e+001
    endloop
  endfacet
  facet normal  9.016673e-001  4.323610e-001 -7.745885e-003
    outer loop
      vertex  2.946162e+001  3.399187e+000  7.460000e+001
      vertex  2.862735e+001  5.321102e+000  8.476347e+001
      vertex  2.879796e+001  5.000000e+000  8.670000e+001
    endloop
  endfacet
  facet normal  9.084862e-001  4.178791e-001 -5.455938e-003
    outer loop
      vertex  2.946162e+001  3.399187e+000  7.460000e+001
      vertex  2.879796e+001  5.000000e+000  8.670000e+001
      vertex  2.889598e+001  4.803080e+000  8.793959e+001
    endloop
  endfacet
  facet normal  9.144571e-001  4.046649e-001 -3.812061e-003
    outer loop
      vertex  2.946162e+001  3.399187e+000  7.460000e+001
      vertex  2.889598e+001  4.803080e+000  8.793959e+001
      vertex  2.915308e+001  4.232602e+000  8.905591e+001
    endloop
  endfacet
  facet normal  9.468077e-001  3.217957e-001  1.656008e-003
    outer loop
      vertex  2.946162e+001  3.399187e+000  7.460000e+001
      vertex  2.915308e+001  4.232602e+000  8.905591e+001
      vertex  2.963700e+001  2.802521e+000  9.027084e+001
    endloop
  endfacet
  facet normal  9.850150e-001  1.724114e-001 -4.459391e-003
    outer loop
      vertex  2.946162e+001  3.399187e+000  7.460000e+001
      vertex  2.963700e+001  2.802521e+000  9.027084e+001
      vertex  2.995445e+001  1.000000e+000  9.070000e+001
    endloop
  endfacet
  facet normal  9.986815e-001  4.548934e-002 -2.379138e-002
    outer loop
      vertex  2.946162e+001  3.399187e+000  7.460000e+001
      vertex  2.995445e+001  1.000000e+000  9.070000e+001
      vertex  3.000000e+001  1.421085e-014  9.070000e+001
    endloop
  endfacet
  facet normal  9.876884e-001  1.564343e-001  0.000000e+000
    outer loop
      vertex  2.946162e+001  3.399187e+000  7.460000e+001
      vertex  3.000000e+001  1.421085e-014  9.070000e+001
      vertex  3.000000e+001  1.421085e-014  7.460000e+001
    endloop
  endfacet
  facet normal  8.909827e-001 -4.539785e-001  7.313633e-003
    outer loop
      vertex  2.789919e+001 -6.465638e+000  7.460000e+001
      vertex  2.946162e+001 -3.399187e+000  7.460000e+001
      vertex  2.963700e+001 -2.802521e+000  9.027084e+001
    endloop
  endfacet
  facet normal  9.558964e-001 -2.912454e-001 -3.792444e-002
    outer loop
      vertex  2.789919e+001 -6.465638e+000  7.460000e+001
      vertex  2.963700e+001 -2.802521e+000  9.027084e+001
      vertex  2.915308e+001 -4.232602e+000  8.905591e+001
    endloop
  endfacet
  facet normal  9.273843e-001 -3.734172e-001 -2.275805e-002
    outer loop
      vertex  2.789919e+001 -6.465638e+000  7.460000e+001
      vertex  2.915308e+001 -4.232602e+000  8.905591e+001
      vertex  2.889598e+001 -4.803080e+000  8.793959e+001
    endloop
  endfacet
  facet normal  9.903252e-001 -1.259218e-001 -5.830744e-002
    outer loop
      vertex  2.789919e+001 -6.465638e+000  7.460000e+001
      vertex  2.889598e+001 -4.803080e+000  8.793959e+001
      vertex  2.879796e+001 -5.000000e+000  8.670000e+001
    endloop
  endfacet
  facet normal  9.547547e-001 -2.953103e-001 -3.514779e-002
    outer loop
      vertex  2.789919e+001 -6.465638e+000  7.460000e+001
      vertex  2.879796e+001 -5.000000e+000  8.670000e+001
      vertex  2.862735e+001 -5.321102e+000  8.476347e+001
    endloop
  endfacet
  facet normal  8.526458e-001 -5.224847e-001 -2.249490e-003
    outer loop
      vertex  2.789919e+001 -6.465638e+000  7.460000e+001
      vertex  2.862735e+001 -5.321102e+000  8.476347e+001
      vertex  2.806758e+001 -6.227284e+000  8.306390e+001
    endloop
  endfacet
  facet normal  7.746192e-001 -6.324234e-001  2.398847e-003
    outer loop
      vertex  2.789919e+001 -6.465638e+000  7.460000e+001
      vertex  2.806758e+001 -6.227284e+000  8.306390e+001
      vertex  2.694255e+001 -7.610244e+000  8.174929e+001
    endloop
  endfacet
  facet normal  7.069846e-001 -7.069847e-001 -1.858854e-002
    outer loop
      vertex  2.789919e+001 -6.465638e+000  7.460000e+001
      vertex  2.694255e+001 -7.610244e+000  8.174929e+001
      vertex  2.546564e+001 -8.899187e+000  7.460000e+001
    endloop
  endfacet
  facet normal  1.564346e-001  9.876884e-001  0.000000e+000
    outer loop
      vertex  1.900000e+001  1.100000e+001  7.460000e+001
      vertex  1.900000e+001  1.100000e+001  8.070000e+001
      vertex  2.239919e+001  1.046162e+001  7.460000e+001
    endloop
  endfacet
  facet normal  1.474274e-001  9.890595e-001 -5.140231e-003
    outer loop
      vertex  2.239919e+001  1.046162e+001  7.460000e+001
      vertex  1.900000e+001  1.100000e+001  8.070000e+001
      vertex  2.220736e+001  1.052202e+001  8.071907e+001
    endloop
  endfacet
  facet normal  4.539837e-001  8.909934e-001  5.437761e-003
    outer loop
      vertex  2.239919e+001  1.046162e+001  7.460000e+001
      vertex  2.220736e+001  1.052202e+001  8.071907e+001
      vertex  2.546564e+001  8.899187e+000  7.460000e+001
    endloop
  endfacet
  facet normal  4.244687e-001  9.053331e-001 -1.408142e-002
    outer loop
      vertex  2.546564e+001  8.899187e+000  7.460000e+001
      vertex  2.220736e+001  1.052202e+001  8.071907e+001
      vertex  2.501588e+001  9.209188e+000  8.097348e+001
    endloop
  endfacet
  facet normal  7.070217e-001  7.070218e-001  1.550298e-002
    outer loop
      vertex  2.546564e+001  8.899187e+000  7.460000e+001
      vertex  2.501588e+001  9.209188e+000  8.097348e+001
      vertex  2.789919e+001  6.465638e+000  7.460000e+001
    endloop
  endfacet
  facet normal  6.466401e-001  7.619702e-001 -3.546632e-002
    outer loop
      vertex  2.789919e+001  6.465638e+000  7.460000e+001
      vertex  2.501588e+001  9.209188e+000  8.097348e+001
      vertex  2.694255e+001  7.610244e+000  8.174929e+001
    endloop
  endfacet
  facet normal  7.746192e-001  6.324234e-001  2.398849e-003
    outer loop
      vertex  2.789919e+001  6.465638e+000  7.460000e+001
      vertex  2.694255e+001  7.610244e+000  8.174929e+001
      vertex  2.806758e+001  6.227284e+000  8.306390e+001
    endloop
  endfacet
  facet normal  9.876884e-001 -1.564343e-001  0.000000e+000
    outer loop
      vertex  3.000000e+001  1.421085e-014  7.460000e+001
      vertex  3.000000e+001  1.421085e-014  9.070000e+001
      vertex  2.946162e+001 -3.399187e+000  7.460000e+001
    endloop
  endfacet
  facet normal  9.986815e-001 -4.548933e-002 -2.379138e-002
    outer loop
      vertex  2.946162e+001 -3.399187e+000  7.460000e+001
      vertex  3.000000e+001  1.421085e-014  9.070000e+001
      vertex  2.995445e+001 -1.000000e+000  9.070000e+001
    endloop
  endfacet
  facet normal  9.850149e-001 -1.724114e-001 -4.459391e-003
    outer loop
      vertex  2.946162e+001 -3.399187e+000  7.460000e+001
      vertex  2.995445e+001 -1.000000e+000  9.070000e+001
      vertex  2.963700e+001 -2.802521e+000  9.027084e+001
    endloop
  endfacet
  facet normal  1.473994e-001 -9.890771e-001  0.000000e+000
    outer loop
      vertex  1.900000e+001 -1.100000e+001  8.070000e+001
      vertex  1.900000e+001 -1.100000e+001  7.460000e+001
      vertex  2.220736e+001 -1.052202e+001  8.071907e+001
    endloop
  endfacet
  facet normal  1.564327e-001 -9.876767e-001 -4.844278e-003
    outer loop
      vertex  2.220736e+001 -1.052202e+001  8.071907e+001
      vertex  1.900000e+001 -1.100000e+001  7.460000e+001
      vertex  2.239919e+001 -1.046162e+001  7.460000e+001
    endloop
  endfacet
  facet normal  4.231389e-001 -9.060546e-001  4.322165e-003
    outer loop
      vertex  2.220736e+001 -1.052202e+001  8.071907e+001
      vertex  2.239919e+001 -1.046162e+001  7.460000e+001
      vertex  2.501588e+001 -9.209188e+000  8.097348e+001
    endloop
  endfacet
  facet normal  4.539615e-001 -8.909497e-001 -1.130062e-002
    outer loop
      vertex  2.501588e+001 -9.209188e+000  8.097348e+001
      vertex  2.239919e+001 -1.046162e+001  7.460000e+001
      vertex  2.546564e+001 -8.899187e+000  7.460000e+001
    endloop
  endfacet
  facet normal  6.368305e-001 -7.709678e-001  7.439564e-003
    outer loop
      vertex  2.501588e+001 -9.209188e+000  8.097348e+001
      vertex  2.546564e+001 -8.899187e+000  7.460000e+001
      vertex  2.694255e+001 -7.610244e+000  8.174929e+001
    endloop
  endfacet
  facet normal  0.000000e+000  1.000000e+000  0.000000e+000
    outer loop
      vertex -7.000000e+000  1.100000e+001  8.070000e+001
      vertex  1.900000e+001  1.100000e+001  8.070000e+001
      vertex -7.000000e+000  1.100000e+001  7.460000e+001
    endloop
  endfacet
  facet normal  0.000000e+000  1.000000e+000  0.000000e+000
    outer loop
      vertex -7.000000e+000  1.100000e+001  7.460000e+001
      vertex  1.900000e+001  1.100000e+001  8.070000e+001
      vertex  1.900000e+001  1.100000e+001  7.460000e+001
    endloop
  endfacet
  facet normal  0.000000e+000 -1.000000e+000  0.000000e+000
    outer loop
      vertex  1.900000e+001 -1.100000e+001  8.070000e+001
      vertex -7.000000e+000 -1.100000e+001  8.070000e+001
      vertex  1.900000e+001 -1.100000e+001  7.460000e+001
    endloop
  endfacet
  facet normal  0.000000e+000 -1.000000e+000  0.000000e+000
    outer loop
      vertex  1.900000e+001 -1.100000e+001  7.460000e+001
      vertex -7.000000e+000 -1.100000e+001  8.070000e+001
      vertex -7.000000e+000 -1.100000e+001  7.460000e+001
    endloop
  endfacet
  facet normal -6.785983e-001  2.810849e-001 -6.785983e-001
    outer loop
      vertex  9.500000e+000 -6.372983e+000  7.560000e+001
      vertex  1.050000e+001 -6.372983e+000  7.460000e+001
      vertex  1.020711e+001 -7.080090e+000  7.460000e+001
    endloop
  endfacet
  facet normal -2.810849e-001  6.785983e-001 -6.785983e-001
    outer loop
      vertex  9.500000e+000 -6.372983e+000  7.560000e+001
      vertex  1.020711e+001 -7.080090e+000  7.460000e+001
      vertex  9.500000e+000 -7.372983e+000  7.460000e+001
    endloop
  endfacet
  facet normal  2.810849e-001  6.785983e-001 -6.785983e-001
    outer loop
      vertex  9.500000e+000 -6.372983e+000  7.560000e+001
      vertex  9.500000e+000 -7.372983e+000  7.460000e+001
      vertex  8.792893e+000 -7.080090e+000  7.460000e+001
    endloop
  endfacet
  facet normal  6.785983e-001  2.810849e-001 -6.785983e-001
    outer loop
      vertex  9.500000e+000 -6.372983e+000  7.560000e+001
      vertex  8.792893e+000 -7.080090e+000  7.460000e+001
      vertex  8.500000e+000 -6.372983e+000  7.460000e+001
    endloop
  endfacet
  facet normal  6.785984e-001 -2.810847e-001 -6.785984e-001
    outer loop
      vertex  9.500000e+000 -6.372983e+000  7.560000e+001
      vertex  8.500000e+000 -6.372983e+000  7.460000e+001
      vertex  8.792893e+000 -5.665876e+000  7.460000e+001
    endloop
  endfacet
  facet normal  2.810844e-001 -6.785984e-001 -6.785984e-001
    outer loop
      vertex  9.500000e+000 -6.372983e+000  7.560000e+001
      vertex  8.792893e+000 -5.665876e+000  7.460000e+001
      vertex  9.500000e+000 -5.372983e+000  7.460000e+001
    endloop
  endfacet
  facet normal -2.810844e-001 -6.785984e-001 -6.785984e-001
    outer loop
      vertex  9.500000e+000 -6.372983e+000  7.560000e+001
      vertex  9.500000e+000 -5.372983e+000  7.460000e+001
      vertex  1.020711e+001 -5.665876e+000  7.460000e+001
    endloop
  endfacet
  facet normal -6.785984e-001 -2.810847e-001 -6.785984e-001
    outer loop
      vertex  9.500000e+000 -6.372983e+000  7.560000e+001
      vertex  1.020711e+001 -5.665876e+000  7.460000e+001
      vertex  1.050000e+001 -6.372983e+000  7.460000e+001
    endloop
  endfacet
endsolid CATIA STL
